<?xml version="1.0" encoding="UTF-8" standalone="no"?>
<!-- Created with Inkscape (http://www.inkscape.org/) -->

<svg
   xmlns:dc="http://purl.org/dc/elements/1.1/"
   xmlns:cc="http://creativecommons.org/ns#"
   xmlns:rdf="http://www.w3.org/1999/02/22-rdf-syntax-ns#"
   xmlns:svg="http://www.w3.org/2000/svg"
   xmlns="http://www.w3.org/2000/svg"
   xmlns:sodipodi="http://sodipodi.sourceforge.net/DTD/sodipodi-0.dtd"
   xmlns:inkscape="http://www.inkscape.org/namespaces/inkscape"
   width="128"
   height="128"
   viewBox="0 0 128 128"
   id="svg2"
   version="1.1"
   inkscape:version="0.91 r13725"
   sodipodi:docname="os_antergros.svg"
   inkscape:export-xdpi="90"
   inkscape:export-ydpi="90">
  <defs
     id="defs4" />
  <sodipodi:namedview
     id="base"
     pagecolor="#ffffff"
     bordercolor="#666666"
     borderopacity="1.0"
     inkscape:pageopacity="0.0"
     inkscape:pageshadow="2"
     inkscape:zoom="2.8"
     inkscape:cx="66.410434"
     inkscape:cy="58.25923"
     inkscape:document-units="px"
     inkscape:current-layer="layer2"
     showgrid="true"
     units="px"
     inkscape:window-width="1366"
     inkscape:window-height="713"
     inkscape:window-x="0"
     inkscape:window-y="27"
     inkscape:window-maximized="1">
    <inkscape:grid
       type="xygrid"
       id="grid4138" />
  </sodipodi:namedview>
  <metadata
     id="metadata7">
    <rdf:RDF>
      <cc:Work
         rdf:about="">
        <dc:format>image/svg+xml</dc:format>
        <dc:type
           rdf:resource="http://purl.org/dc/dcmitype/StillImage" />
        <dc:title />
        <dc:creator>
          <cc:Agent>
            <dc:title>Munlika</dc:title>
          </cc:Agent>
        </dc:creator>
        <dc:publisher>
          <cc:Agent>
            <dc:title>Munlika</dc:title>
          </cc:Agent>
        </dc:publisher>
        <cc:license
           rdf:resource="http://creativecommons.org/licenses/by/3.0/" />
      </cc:Work>
      <cc:License
         rdf:about="http://creativecommons.org/licenses/by/3.0/">
        <cc:permits
           rdf:resource="http://creativecommons.org/ns#Reproduction" />
        <cc:permits
           rdf:resource="http://creativecommons.org/ns#Distribution" />
        <cc:requires
           rdf:resource="http://creativecommons.org/ns#Notice" />
        <cc:requires
           rdf:resource="http://creativecommons.org/ns#Attribution" />
        <cc:permits
           rdf:resource="http://creativecommons.org/ns#DerivativeWorks" />
      </cc:License>
    </rdf:RDF>
  </metadata>
  <g
     inkscape:label="Layer 1"
     inkscape:groupmode="layer"
     id="layer1"
     transform="translate(0,-924.36216)"
     style="display:none">
    <path
       style="color:#000000;font-style:normal;font-variant:normal;font-weight:normal;font-stretch:normal;font-size:medium;line-height:normal;font-family:sans-serif;text-indent:0;text-align:start;text-decoration:none;text-decoration-line:none;text-decoration-style:solid;text-decoration-color:#000000;letter-spacing:normal;word-spacing:normal;text-transform:none;direction:ltr;block-progression:tb;writing-mode:lr-tb;baseline-shift:baseline;text-anchor:start;white-space:normal;clip-rule:nonzero;display:inline;overflow:visible;visibility:visible;opacity:1;isolation:auto;mix-blend-mode:normal;color-interpolation:sRGB;color-interpolation-filters:linearRGB;solid-color:#000000;solid-opacity:1;fill:#f1f2f2;fill-opacity:1;fill-rule:nonzero;stroke:#999999;stroke-width:1;stroke-linecap:butt;stroke-linejoin:round;stroke-miterlimit:10;stroke-dasharray:none;stroke-dashoffset:0;stroke-opacity:1;color-rendering:auto;image-rendering:auto;shape-rendering:auto;text-rendering:auto;enable-background:accumulate"
       d="m 62.21875,17.070312 c -3.786009,0.11677 -7.746507,1.281053 -11.681641,3.691407 -7.384147,4.52296 -14.88162,13.069738 -22.757812,26.855469 -7.87619,13.785719 -11.452646,24.62004 -11.636719,33.34375 -0.112106,5.313099 1.186483,9.841756 3.494141,13.472656 0.02488,0.051 0.05865,0.09764 0.08398,0.148437 0.03106,0.048 0.05452,0.102791 0.08594,0.150391 1.957789,3.8351 5.189446,7.234468 9.798828,9.792968 7.568221,4.2007 18.642151,6.49023 34.394531,6.49023 15.75238,0 26.826309,-2.28953 34.394531,-6.49023 4.609561,-2.5586 7.841061,-5.957668 9.798831,-9.792968 0,0 0.002,0 0.002,0 0.0613,-0.093 0.10611,-0.198769 0.16602,-0.292969 0,0 0.002,0 0.002,0 2.30786,-3.6309 3.60625,-8.159356 3.49414,-13.472656 -0.18407,-8.72371 -3.75858,-19.559983 -11.63476,-33.345703 C 92.346558,33.835364 84.847137,25.288585 77.462989,20.765625 72.965697,18.010935 68.435564,16.883711 64.17002,17.087891 c -0.05602,-0.004 -0.1138,0.0036 -0.169922,0 -0.05546,0.003 -0.112602,-0.004 -0.167969,0 l 0,-0.0059 c 0,0 -0.002,0.002 -0.002,0.002 -0.533193,-0.02552 -1.07047,-0.03035 -1.611328,-0.01367 z"
       transform="translate(0,924.36216)"
       id="path4354-8"
       inkscape:connector-curvature="0" />
  </g>
  <g
     inkscape:groupmode="layer"
     id="layer2"
     inkscape:label="Layer 2"
     style="display:inline">
    <path
       sodipodi:type="star"
       style="fill:#1756b6;fill-opacity:1;stroke:none;stroke-width:0;stroke-linecap:round;stroke-linejoin:round;stroke-miterlimit:4;stroke-dasharray:none;stroke-opacity:1"
       id="path4164"
       sodipodi:sides="3"
       sodipodi:cx="64"
       sodipodi:cy="69.600629"
       sodipodi:r1="38.960899"
       sodipodi:r2="19.480452"
       sodipodi:arg1="1.5707963"
       sodipodi:arg2="2.6179939"
       inkscape:flatsided="true"
       inkscape:rounded="0.7"
       inkscape:randomized="0"
       d="m 64.000001,108.56153 c -47.23758,0 -57.3599194,-17.532405 -33.741131,-58.441349 23.618789,-40.9089454 43.863467,-40.908946 67.482258,-2e-6 23.618792,40.908943 13.496452,58.441351 -33.741127,58.441351 z"
       inkscape:transform-center-y="-5.60063" />
  </g>
  <g
     inkscape:groupmode="layer"
     id="layer3"
     inkscape:label="Layer 3"
     style="display:inline">
    <path
       style="fill:#c6d5ed;fill-opacity:1;stroke:none;stroke-width:14;stroke-linejoin:round;stroke-miterlimit:10;stroke-dasharray:none;stroke-dashoffset:0;stroke-opacity:1"
       d="M 64.818125,40.242988 C 57.983793,45.855077 49.465968,50.797583 39.471718,54.561894 a 28.16,28.16 0 0 0 -3.631719,13.799845 28.16,28.16 0 0 0 1.149845,7.899374 C 47.05194,70.120737 59.707041,59.393324 67.504532,40.485331 a 28.16,28.16 0 0 0 -2.686407,-0.242343 z m 6.928281,1.087968 C 68.808009,58.821133 62.238724,76.350927 48.465937,91.829552 A 28.16,28.16 0 0 0 64,96.521738 28.16,28.16 0 0 0 68.900157,96.064551 C 73.521709,85.99648 80.459514,66.491911 73.054375,41.769239 a 28.16,28.16 0 0 0 -1.307969,-0.438283 z m 7.155157,3.196875 c 5.36894,11.750453 8.575926,24.803021 8.339375,39.68422 A 28.16,28.16 0 0 0 92.160001,68.361739 28.16,28.16 0 0 0 78.901563,44.527831 Z"
       id="path4218-3"
       inkscape:connector-curvature="0" />
  </g>
</svg>
