<?xml version="1.0" encoding="UTF-8" standalone="no"?>
<svg
   xmlns:dc="http://purl.org/dc/elements/1.1/"
   xmlns:cc="http://creativecommons.org/ns#"
   xmlns:rdf="http://www.w3.org/1999/02/22-rdf-syntax-ns#"
   xmlns:svg="http://www.w3.org/2000/svg"
   xmlns="http://www.w3.org/2000/svg"
   xmlns:sodipodi="http://sodipodi.sourceforge.net/DTD/sodipodi-0.dtd"
   xmlns:inkscape="http://www.inkscape.org/namespaces/inkscape"
   width="128.0px"
   height="128.0px"
   viewBox="0 0 128.0 128.0"
   version="1.1"
   id="SVGRoot"
   sodipodi:docname="os_artix.svg"
   inkscape:version="1.0.1 (3bc2e813f5, 2020-09-07)">
  <defs
     id="defs4616" />
  <sodipodi:namedview
     id="base"
     pagecolor="#ffffff"
     bordercolor="#666666"
     borderopacity="1.0"
     inkscape:pageopacity="0.0"
     inkscape:pageshadow="2"
     inkscape:zoom="5.6"
     inkscape:cx="57.256579"
     inkscape:cy="73.447767"
     inkscape:document-units="px"
     inkscape:current-layer="layer1"
     inkscape:document-rotation="0"
     showgrid="true"
     inkscape:window-width="2560"
     inkscape:window-height="1377"
     inkscape:window-x="2552"
     inkscape:window-y="-8"
     inkscape:window-maximized="1">
    <inkscape:grid
       type="xygrid"
       id="grid4625" />
  </sodipodi:namedview>
  <metadata
     id="metadata4619">
    <rdf:RDF>
      <cc:Work
         rdf:about="">
        <dc:format>image/svg+xml</dc:format>
        <dc:type
           rdf:resource="http://purl.org/dc/dcmitype/StillImage" />
        <dc:title />
      </cc:Work>
    </rdf:RDF>
  </metadata>
  <g
     inkscape:label="Layer 1"
     inkscape:groupmode="layer"
     id="layer1">
    <g
       id="g4528-1-7"
       transform="matrix(1.380235,0,0,1.3802351,5.080948,-102.28273)">
      <path
         style="fill:#a0d7e6;stroke-width:0.264583"
         d="m 8.8617315,155.15068 c 0,-0.71946 17.4247215,-36.76091 18.1116955,-37.46239 0.294107,-0.30031 3.181836,0.8298 17.843651,6.98313 9.621014,4.03778 17.700603,7.49498 17.95464,7.68267 0.327504,0.24198 0.379979,0.4245 0.180359,0.62737 -0.360164,0.36603 -50.253213,21.07609 -52.370554,21.73845 -1.7003409,0.53191 -1.7197915,0.53678 -1.7197915,0.43077 z m 66.6749965,-0.19471 c -0.218281,-0.14106 -0.617588,-0.2583 -0.887349,-0.26053 -0.683498,-0.006 -23.777632,-8.18522 -24.172353,-8.56147 -0.176639,-0.16836 -0.23617,-0.43128 -0.132292,-0.58426 0.380058,-0.55969 16.5385,-9.67051 16.903006,-9.53064 0.345194,0.13246 8.33774,16.0974 8.818113,17.61399 0.115231,0.3638 0.294182,0.86982 0.397668,1.12448 0.211132,0.51956 -0.270362,0.62265 -0.926793,0.19843 z M 46.96173,119.61369 c -8.65849,-4.87661 -15.897911,-9.02075 -16.087603,-9.2092 -0.283113,-0.28125 0.679348,-2.44748 5.372928,-12.092966 3.144803,-6.462689 5.889617,-11.981459 6.099582,-12.263934 0.377899,-0.508398 0.385612,-0.508398 0.762791,0 0.51254,0.690849 20.521051,41.80266 20.521051,42.16493 0,0.15682 -0.20836,0.28121 -0.463021,0.27643 -0.254661,-0.005 -7.547239,-3.99865 -16.205728,-8.87526 z"
         id="path4542-9-3" />
      <path
         style="fill:#6cc6df;stroke-width:0.264583"
         d="m 9.8669341,153.17004 c 0.5561099,-1.12779 4.6353289,-9.51868 9.0649319,-18.64642 4.429602,-9.12775 8.175065,-16.64413 8.32325,-16.70307 0.455604,-0.18122 35.184738,14.52714 35.184738,14.90131 0,0.20562 -10.705245,4.78048 -26.722915,11.41997 -14.697604,6.09231 -26.7540103,11.07733 -26.7920146,11.07783 -0.038004,4.9e-4 0.3859001,-0.92184 0.9420097,-2.04962 z m 65.8020859,1.7801 c -0.291042,-0.12904 -5.648854,-2.03902 -11.90625,-4.2444 -12.754683,-4.49532 -13.096874,-4.6248 -13.096874,-4.95598 0,-0.21455 15.142014,-9.04995 16.216,-9.46208 0.466571,-0.17904 0.588745,0.0558 7.613284,14.6334 1.139486,2.36471 1.98882,4.29142 1.887403,4.28157 -0.101418,-0.01 -0.422521,-0.12348 -0.713563,-0.25251 z M 46.888596,119.28226 c -13.684549,-7.70809 -15.805985,-8.98397 -15.742707,-9.46805 0.08419,-0.64405 11.351024,-23.914488 11.578666,-23.914488 0.206899,0 20.2236,41.175598 20.329013,41.818048 0.0465,0.28341 -0.01304,0.50579 -0.132292,0.49418 -0.11926,-0.0116 -7.333966,-4.02997 -16.03268,-8.92969 z"
         id="path4540-7-7" />
      <path
         style="fill:#4ab7d7;stroke-width:0.264583"
         d="m 9.1672465,154.7997 c 0.062225,-0.13233 1.6334795,-3.33623 3.4916755,-7.11977 1.858197,-3.78354 5.889912,-12.02862 8.959367,-18.32239 3.069455,-6.29378 5.670085,-11.44323 5.779179,-11.44323 0.504473,0 34.775604,14.54548 34.858733,14.79488 0.05191,0.15571 -0.242726,0.41108 -0.654738,0.56749 -0.412009,0.15641 -9.797859,4.04199 -20.857441,8.63462 -16.676835,6.92527 -29.511735,12.24391 -31.3230804,12.97994 -0.2017573,0.082 -0.3159201,0.0408 -0.2536951,-0.0915 z M 44.589274,133.38797 c 0.722768,-0.36625 1.314122,-0.76386 1.314122,-0.88357 0,-0.18426 -0.373411,-0.41995 -1.653603,-1.04374 -0.160809,-0.0784 -1.256813,2.08684 -1.256813,2.48288 0,0.2082 0.284406,0.10922 1.596294,-0.55557 z m 30.550579,21.28066 c -0.291041,-0.13834 -5.817536,-2.12458 -12.2811,-4.41386 -6.463564,-2.28929 -11.792413,-4.2838 -11.841884,-4.43227 -0.08906,-0.26726 15.501397,-9.38736 16.047332,-9.38736 0.155949,0 0.389115,0.26789 0.51815,0.59531 0.187886,0.47675 2.627214,5.45046 8.69416,17.72709 0.132591,0.2683 -0.487148,0.21982 -1.136658,-0.0889 z M 61.910687,127.52499 C 59.663436,126.3294 31.449979,110.41467 31.251703,110.23078 30.974161,109.97338 42.32116,86.561181 42.723454,86.561181 c 0.220221,0 19.205556,38.495549 20.127758,40.811979 0.277955,0.69818 0.130993,0.72191 -0.940525,0.15183 z M 40.876313,106.53722 c -0.620464,-1.21621 -0.681294,-1.25236 -0.873098,-0.5189 -0.08991,0.34383 0.0609,0.7276 0.415906,1.05834 0.874001,0.81425 1.044914,0.61259 0.457192,-0.53944 z"
         id="path4538-5-7" />
      <path
         style="fill:#2eaed2;stroke-width:0.264583"
         d="m 75.536728,154.67856 c -0.218281,-0.13546 -2.778125,-1.07763 -5.688541,-2.09371 -12.150817,-4.24209 -18.501335,-6.56622 -18.579089,-6.79948 -0.04547,-0.13642 3.461375,-2.2872 7.792995,-4.77952 6.122331,-3.52264 7.93541,-4.45523 8.143981,-4.18902 0.147568,0.18835 2.171498,4.25741 4.497625,9.04236 2.326127,4.78495 4.348514,8.78738 4.494196,8.8943 0.394145,0.28925 -0.178987,0.2243 -0.661167,-0.0749 z m -9.565692,-9.71061 c -0.876477,-1.85539 -1.655271,-3.43297 -1.730648,-3.50573 -0.232452,-0.22438 -2.747187,2.74049 -2.66841,3.14606 0.08118,0.41795 5.335802,3.73311 5.917068,3.73311 0.04157,0 -0.641533,-1.51805 -1.51801,-3.37344 z m -56.256368,9.16773 c 0.987145,-2.50057 17.578129,-35.95679 17.831021,-35.95679 0.280113,0 10.111585,4.08366 32.314477,13.42232 1.200547,0.50496 2.182813,1.01415 2.182813,1.13154 0,0.11738 -0.863203,0.57123 -1.918229,1.00855 -1.055026,0.43732 -12.565131,5.21382 -25.578012,10.61446 -13.01288,5.40063 -23.95644,9.89379 -24.319023,9.98479 -0.4994376,0.12535 -0.6238032,0.0757 -0.513047,-0.20487 z M 33.97336,139.83324 c 6.715006,-3.61088 12.459203,-6.98772 12.459203,-7.32439 0,-0.43951 -8.222757,-6.12788 -8.85808,-6.12788 -0.227158,0 -4.758996,10.23262 -6.415557,14.48594 -0.207452,0.53265 0.1366,0.40629 2.814434,-1.03367 z M 50.521606,121.009 c -6.541839,-3.68219 -13.53136,-7.61949 -15.532272,-8.74956 -2.000911,-1.13007 -3.637026,-2.19526 -3.63581,-2.36709 0.0032,-0.44706 11.074295,-23.051791 11.333092,-23.139583 0.118348,-0.04015 0.3444,0.197976 0.502335,0.529166 0.157935,0.331191 4.476372,9.174665 9.596525,19.652167 10.210434,20.89387 10.151623,20.76979 9.844367,20.76979 -0.117694,0 -5.566402,-3.0127 -12.108237,-6.69489 z M 46.59095,108.85233 C 40.651793,96.633569 41.449684,98.20274 41.268161,98.384264 c -0.202753,0.202753 -1.425495,5.692266 -1.609735,7.226916 l -0.158819,1.32292 2.325081,1.98437 c 3.536805,3.01854 7.348868,6.08542 7.564033,6.08542 0.105772,0 -1.153224,-2.7682 -2.797771,-6.15156 z"
         id="path4536-6-5" />
      <path
         style="fill:#0fa3cd;stroke-width:0.264583"
         d="m 63.412475,150.20871 c -6.450059,-2.30973 -11.79795,-4.27008 -11.884201,-4.35633 -0.08625,-0.0863 -0.107051,-0.20659 -0.04622,-0.26743 0.518355,-0.51835 15.475335,-8.83656 15.6178,-8.68572 0.212111,0.22459 8.436874,17.1765 8.436874,17.38909 0,0.0762 -0.0893,0.13431 -0.198437,0.1292 -0.109141,-0.005 -5.475758,-1.89907 -11.925816,-4.20881 z m 5.671341,-5.1769 c -1.971188,-4.03948 -3.17713,-6.22644 -3.395263,-6.15725 -0.501991,0.15923 -4.153042,4.73891 -4.341275,5.44546 -0.193508,0.72634 -0.326133,0.61891 4.454194,3.6082 3.995693,2.49863 6.057029,3.65043 6.227672,3.47978 0.06141,-0.0614 -1.263991,-2.93069 -2.945328,-6.37619 z m -59.1637512,9.04562 c 0,-0.0466 3.9210832,-8.11312 8.7135192,-17.92552 5.588,-11.4413 8.83851,-17.81512 9.061978,-17.76933 0.770802,0.15794 34.082834,14.20193 34.082834,14.36895 0,0.0989 -0.386954,0.33438 -0.859896,0.52327 -0.472943,0.1889 -11.277864,4.68024 -24.010937,9.98077 -25.836378,10.75518 -26.9874982,11.21678 -26.9874982,10.82186 z m 12.5901212,-7.42425 c 5.050445,-2.46897 24.18696,-13.61303 24.18696,-14.08516 0,-0.20666 -2.053828,-1.90206 -4.564062,-3.76756 -7.12994,-5.29864 -10.583224,-7.56356 -10.886256,-7.14 -0.151921,0.21235 -10.566234,25.00441 -10.679836,25.42416 -0.163512,0.60417 -0.184931,0.60893 1.943194,-0.43144 z m 36.616188,-20.90707 c -4.376616,-2.44044 -25.32089,-14.29755 -26.642763,-15.08317 l -1.11666,-0.66366 3.057924,-6.29509 c 1.681858,-3.4623 4.197178,-8.646577 5.589598,-11.520613 1.39242,-2.874037 2.60609,-5.225521 2.697046,-5.225521 0.141427,0 6.468826,12.890267 17.111042,34.858854 1.49801,3.09232 2.637404,5.6224 2.531991,5.6224 -0.105412,0 -1.558094,-0.76194 -3.228178,-1.6932 z M 49.6936,106.79362 c -3.903623,-8.03477 -7.216558,-14.623866 -7.362078,-14.642432 -0.145521,-0.01857 -0.517745,0.978274 -0.827162,2.215201 -0.680564,2.720618 -2.215547,11.022871 -2.215547,11.983211 0,0.5601 0.804574,1.39132 4.299479,4.44189 7.727791,6.74529 12.866386,10.94723 13.100804,10.71281 0.0561,-0.0561 -3.091873,-6.6759 -6.995496,-14.71068 z"
         id="path4534-0-3" />
      <path
         style="fill:#068bb0;stroke-width:0.264583"
         d="m 68.260687,151.93487 c -3.346979,-1.21345 -6.680729,-2.44446 -7.408333,-2.73557 -0.727604,-0.29111 -2.93026,-1.09429 -4.894791,-1.78486 -1.964532,-0.69056 -3.670123,-1.34495 -3.790204,-1.4542 -0.251061,-0.22841 0.793078,-0.39065 5.271973,-0.81915 l 3.201559,-0.30629 7.249482,4.56437 c 3.987213,2.51039 7.29909,4.60907 7.359724,4.66371 0.501864,0.45226 -1.834081,-0.25895 -6.98941,-2.12801 z m -56.356247,1.22286 c 0.436562,-0.28467 8.116093,-4.71071 17.065624,-9.83565 8.949531,-5.12494 16.715805,-9.6045 17.258389,-9.95459 0.979217,-0.63181 1.038812,-0.63652 8.056562,-0.63652 3.968615,0 6.959785,0.0999 6.818693,0.22772 -0.138245,0.12525 -2.632604,1.21151 -5.54302,2.41391 -2.910417,1.20241 -9.577917,4.00205 -14.816666,6.22143 -15.401682,6.52487 -27.986871,11.72122 -28.839582,11.9077 l -0.79375,0.17359 z m 42.18745,-30.24671 c -14.297892,-8.09905 -22.21141,-12.71525 -22.21141,-12.95659 0,-0.13322 0.03335,-0.24221 0.07412,-0.24221 0.04076,0 1.614755,-0.59531 3.497756,-1.32291 1.883,-0.72761 3.458456,-1.32292 3.501014,-1.32292 0.04256,0 3.919085,3.30398 8.614505,7.34219 4.695423,4.0382 9.866299,8.47328 11.490835,9.85573 2.76239,2.35074 3.295499,2.91041 2.772243,2.91041 -0.116612,0 -3.59919,-1.91866 -7.739062,-4.2637 z"
         id="path4532-3-3" />
      <path
         style="fill:#047c9e;stroke-width:0.264583"
         d="m 71.038812,152.80699 c -3.973878,-1.55526 -5.291667,-2.16986 -5.291667,-2.468 0,-0.39407 0.54796,-0.93927 0.944034,-0.93927 0.300815,0 6.346258,3.52998 6.847945,3.99857 0.452808,0.42293 -0.460994,0.20682 -2.500312,-0.5913 z M 14.28569,152.23667 c 1.566898,-1.14605 18.360681,-10.50986 18.849214,-10.50986 0.263723,0 1.502173,1.84087 1.336015,1.98589 -0.506981,0.4425 -18.588922,8.30861 -20.052938,8.72354 -0.635021,0.17998 -0.640308,0.17201 -0.132291,-0.19957 z m 42.597914,-27.86906 c -4.640471,-2.68834 -9.94135,-5.86444 -10.555782,-6.32466 -0.482205,-0.36117 -0.466846,-0.41614 0.396875,-1.42041 0.494171,-0.57458 0.986759,-1.05477 1.094642,-1.06709 0.252,-0.0288 4.903404,3.73183 9.394994,7.59573 4.695735,4.03952 4.674865,4.11628 -0.330729,1.21643 z"
         id="path4530-3-7" />
    </g>
  </g>
</svg>
