<?xml version="1.0" encoding="UTF-8" standalone="no"?>
<svg
   xmlns:dc="http://purl.org/dc/elements/1.1/"
   xmlns:cc="http://creativecommons.org/ns#"
   xmlns:rdf="http://www.w3.org/1999/02/22-rdf-syntax-ns#"
   xmlns:svg="http://www.w3.org/2000/svg"
   xmlns="http://www.w3.org/2000/svg"
   xmlns:sodipodi="http://sodipodi.sourceforge.net/DTD/sodipodi-0.dtd"
   xmlns:inkscape="http://www.inkscape.org/namespaces/inkscape"
   width="128"
   height="128"
   viewBox="0 0 33.866666 33.866668"
   version="1.1"
   id="svg83"
   inkscape:version="1.0.1 (3bc2e813f5, 2020-09-07)"
   sodipodi:docname="os_blackarch.svg">
  <defs
     id="defs77" />
  <sodipodi:namedview
     id="base"
     pagecolor="#ffffff"
     bordercolor="#666666"
     borderopacity="1.0"
     inkscape:pageopacity="0.0"
     inkscape:pageshadow="2"
     inkscape:zoom="7.9195959"
     inkscape:cx="76.237877"
     inkscape:cy="68.484677"
     inkscape:document-units="px"
     inkscape:current-layer="layer1"
     inkscape:document-rotation="0"
     showgrid="false"
     units="px"
     inkscape:pagecheckerboard="false"
     inkscape:window-width="2560"
     inkscape:window-height="1377"
     inkscape:window-x="2552"
     inkscape:window-y="-8"
     inkscape:window-maximized="1">
    <inkscape:grid
       type="xygrid"
       id="grid95" />
  </sodipodi:namedview>
  <metadata
     id="metadata80">
    <rdf:RDF>
      <cc:Work
         rdf:about="">
        <dc:format>image/svg+xml</dc:format>
        <dc:type
           rdf:resource="http://purl.org/dc/dcmitype/StillImage" />
        <dc:title />
      </cc:Work>
    </rdf:RDF>
  </metadata>
  <g
     inkscape:label="Layer 1"
     inkscape:groupmode="layer"
     id="layer1">
    <g
       id="g79"
       transform="translate(0.02921039,0.05724672)">
      <path
         style="fill:#b0c9ed;stroke-width:0.0413008"
         d="M 4.6960564,29.235729 C 4.441181,29.077431 4.4605771,28.83478 4.7804514,28.17992 c 0.1993399,-0.408096 1.1183948,-2.081355 2.0302994,-3.696423 0.1859721,-0.329374 0.5019915,-0.90552 0.7022652,-1.280325 0.3708171,-0.69397 1.140566,-2.102099 1.9416184,-3.55187 0.9580756,-1.733957 2.2668556,-4.23286 3.1424766,-6.000049 0.290124,-0.585531 0.591958,-1.139908 0.670741,-1.231949 0.07878,-0.09204 0.228823,-0.208346 0.333422,-0.258457 l 0.190179,-0.09111 -0.0137,-0.339118 c -0.0097,-0.240597 0.0069,-0.402166 0.05737,-0.556129 0.06905,-0.210833 0.711508,-1.7165974 1.070588,-2.509205 0.275701,-0.6085593 0.921659,-2.1925298 1.162158,-2.8497561 0.136622,-0.373355 0.389566,-0.8807952 0.560486,-1.1244108 0.04458,-0.063547 0.149501,-0.1336757 0.240996,-0.1610885 0.147931,-0.044321 0.175824,-0.039424 0.320388,0.056243 0.19349,0.1280456 0.395856,0.5229446 0.979148,1.9107195 0.426878,1.0156312 0.589849,1.3846079 1.39551,3.1595122 0.750464,1.6533047 1.182941,2.5629857 1.639528,3.4486177 0.222509,0.431594 0.722111,1.416618 1.110228,2.188943 0.388118,0.772326 0.972041,1.906033 1.297607,2.51935 0.325566,0.613317 0.710176,1.338146 0.854688,1.610732 0.144512,0.272585 0.414601,0.77439 0.600197,1.115122 1.490327,2.736051 1.55524,2.895876 1.332998,3.282029 -0.138825,0.241213 -0.08784,0.323534 0.537111,0.867259 0.301165,0.262021 0.591035,0.541452 0.644155,0.620956 0.20959,0.31369 1.340589,2.363154 1.569753,2.844519 0.338506,0.711045 0.351724,0.952291 0.06043,1.102926 -0.106474,0.05506 -0.159421,0.05821 -0.318856,0.01899 -0.216115,-0.05317 -1.004552,-0.443083 -1.728866,-0.855 -0.660283,-0.375503 -2.936218,-1.486814 -3.521666,-1.719586 -1.284703,-0.510794 -1.873382,-0.71682 -2.738258,-0.958333 -0.51792,-0.144627 -1.020131,-0.300939 -1.116024,-0.347361 -0.335988,-0.162649 -0.396051,-0.408541 -0.303519,-1.242579 0.171919,-1.549588 -0.30586,-3.249763 -1.179622,-4.197683 -0.0871,-0.0945 -0.292488,-0.264248 -0.456409,-0.377226 -0.58258,-0.401526 -1.130077,-0.41041 -1.685649,-0.02735 -0.460046,0.317196 -0.756283,0.673786 -1.056743,1.272037 -0.217809,0.433685 -0.434638,1.073553 -0.512698,1.512987 -0.05588,0.314555 -0.07378,1.438738 -0.03628,2.278152 0.01777,0.397781 0.01145,0.451339 -0.06549,0.55501 -0.155224,0.209162 -0.278674,0.260751 -1.277773,0.53397 -0.92963,0.254222 -1.990672,0.619755 -2.994309,1.03155 -0.5761303,0.236389 -2.7812827,1.325883 -3.629563,1.79325 -0.7968327,0.439022 -1.4140312,0.731642 -1.6156405,0.765992 -0.1050011,0.01789 -0.1809763,0.002 -0.2776721,-0.05805 z m 0.9178347,-0.777554 c 0.1887911,-0.09454 1.0476954,-0.581441 1.3576994,-0.769667 0.2381252,-0.144584 0.8151425,-0.425743 1.8637642,-0.908144 0.2271545,-0.104498 0.4408862,-0.207786 0.4749594,-0.229529 0.1597565,-0.101942 0.6586109,-0.30938 1.2596749,-0.523809 0.09086,-0.03241 0.202374,-0.07512 0.247805,-0.09491 0.272967,-0.118873 0.38296,-0.162121 0.474959,-0.186745 0.144755,-0.03875 0.407447,-0.143149 0.578212,-0.229801 0.0795,-0.04034 0.219274,-0.08554 0.310601,-0.100433 0.187047,-0.03051 0.299848,-0.08715 0.257625,-0.129378 -0.05228,-0.05228 -1.31075,0.364856 -1.378145,0.456803 -0.02522,0.03441 -0.07605,0.06256 -0.112963,0.06256 -0.245904,0 -1.3678776,0.462319 -2.6702893,1.100315 -0.533813,0.261493 -1.0356179,0.504618 -1.115122,0.540278 -0.079504,0.03566 -0.1724309,0.08037 -0.2065041,0.09936 -0.3799519,0.211735 -0.720663,0.266193 -0.8312844,0.13287 -0.1087468,-0.131064 -0.060483,-0.400088 0.144824,-0.807248 0.2193722,-0.435054 0.4710009,-0.900769 0.5199489,-0.962323 0.018063,-0.02271 0.092642,-0.152813 0.1657303,-0.289105 0.2367392,-0.441464 0.3994407,-0.740024 0.4912777,-0.901502 0.04945,-0.08695 0.1542967,-0.282094 0.2329935,-0.433659 0.078697,-0.151564 0.1877873,-0.349912 0.2424232,-0.440774 0.054636,-0.09086 0.2188401,-0.397521 0.3648981,-0.681464 0.1460579,-0.283943 0.3152546,-0.594878 0.3759924,-0.690968 0.060738,-0.09609 0.1104322,-0.184939 0.1104322,-0.197445 0,-0.01251 0.076731,-0.156912 0.1705137,-0.320902 0.093783,-0.16399 0.2543321,-0.45614 0.3567763,-0.649221 0.1024442,-0.193082 0.2084505,-0.378935 0.2355703,-0.413008 0.027119,-0.03407 0.082673,-0.136293 0.1234531,-0.227155 0.04078,-0.09086 0.097882,-0.193081 0.1268926,-0.227154 0.029011,-0.03407 0.1111698,-0.173464 0.1825748,-0.309756 0.071406,-0.136293 0.1629207,-0.303561 0.2033677,-0.371708 0.04045,-0.06815 0.154113,-0.272585 0.252593,-0.454309 0.09848,-0.181723 0.259636,-0.476704 0.358127,-0.655514 0.09849,-0.178809 0.179075,-0.33318 0.179075,-0.343048 0,-0.02601 0.202368,-0.428482 0.442787,-0.880625 0.548694,-1.031896 0.842155,-1.600171 1.4025,-2.715883 0.333793,-0.664623 0.663826,-1.270419 0.733407,-1.346213 0.08057,-0.08777 0.182908,-0.148338 0.281825,-0.166802 0.178334,-0.03329 0.282441,0.01298 1.207611,0.536747 0.09086,0.05144 0.386249,0.206265 0.656414,0.344058 0.488654,0.249228 0.706823,0.311911 0.659887,0.189596 -0.0273,-0.07114 -0.24321,-0.186868 -0.348635,-0.186868 -0.04005,0 -0.07901,-0.01518 -0.08658,-0.03372 -0.0076,-0.01855 -0.21611,-0.131154 -0.463418,-0.250236 -0.247308,-0.119082 -0.559927,-0.289761 -0.694709,-0.379285 -0.134782,-0.08953 -0.254547,-0.162773 -0.266145,-0.162773 -0.0116,0 -0.174569,-0.111512 -0.362159,-0.247805 -0.187589,-0.136292 -0.371699,-0.247805 -0.409132,-0.247805 -0.0884,0 -0.211,0.204168 -0.458813,0.764066 -0.286889,0.648183 -1.240528,2.519992 -1.606453,3.153154 -0.08331,0.144154 -0.151552,0.274251 -0.151648,0.289106 -8.2e-5,0.01485 -0.04422,0.110642 -0.09806,0.212861 -0.307272,0.583407 -0.451776,0.854232 -0.542474,1.016687 -0.05588,0.100097 -0.216565,0.400157 -0.357071,0.6668 -0.140505,0.266643 -0.270851,0.491001 -0.289657,0.498573 -0.01881,0.0076 -0.03419,0.03862 -0.03419,0.06901 0,0.03038 -0.09998,0.228626 -0.2221771,0.440542 -0.122198,0.211917 -0.3051841,0.543279 -0.4066367,0.73636 -0.1014526,0.193081 -0.2317612,0.434691 -0.2895745,0.536911 -0.057813,0.102219 -0.2212753,0.408878 -0.3632489,0.681463 -0.1419736,0.272585 -0.2740999,0.501805 -0.2936141,0.509377 -0.019514,0.0076 -0.03548,0.02779 -0.03548,0.04493 0,0.01714 -0.1228241,0.252558 -0.2729423,0.523144 -0.3363108,0.606197 -0.4557147,0.824081 -0.6543802,1.19409 -0.085375,0.159008 -0.1695354,0.307691 -0.1870237,0.330406 -0.051314,0.06665 -0.633249,1.138586 -0.7258209,1.336976 -0.035737,0.07659 -0.1107327,0.211732 -0.166656,0.300321 -0.055923,0.08859 -0.1580546,0.267534 -0.2269584,0.397659 -0.068904,0.130124 -0.1696811,0.31093 -0.2239496,0.401792 -0.054268,0.09086 -0.1190095,0.202374 -0.1438689,0.247805 -0.024859,0.04543 -0.067633,0.119981 -0.095052,0.165667 -0.4249546,0.708066 -0.7002182,1.25059 -0.6641384,1.308969 0.027796,0.04498 0.1413881,0.01083 0.4077817,-0.12256 z m 23.1078059,0.07177 c 0,-0.09475 -0.186058,-0.476926 -0.485715,-0.997681 -0.111938,-0.194531 -0.216109,-0.379292 -0.231491,-0.41058 -0.01538,-0.03129 -0.09254,-0.168399 -0.171467,-0.304692 -0.07893,-0.136292 -0.250444,-0.451173 -0.381153,-0.699734 -0.267982,-0.509603 -0.392113,-0.648753 -0.996885,-1.117501 -0.234457,-0.181724 -0.506385,-0.395456 -0.604286,-0.47496 -0.190096,-0.154376 -0.798821,-0.602283 -0.969979,-0.713722 -0.05679,-0.03697 -0.251935,-0.16994 -0.433658,-0.29548 -0.181724,-0.125539 -0.386163,-0.2502 -0.454309,-0.277022 -0.06815,-0.02682 -0.164139,-0.08469 -0.213316,-0.128586 -0.06286,-0.05612 -0.117422,-0.07093 -0.183744,-0.04988 l -0.09433,0.02994 0.108471,0.08754 c 0.05966,0.04815 0.188806,0.13627 0.286996,0.195834 0.197284,0.119677 0.494824,0.312184 0.630546,0.407963 0.04828,0.03407 0.150036,0.09912 0.226119,0.144552 0.15388,0.09189 0.620906,0.436374 1.045995,0.771546 0.153233,0.120821 0.432013,0.339585 0.619512,0.486143 0.665249,0.519991 0.713688,0.583616 1.203312,1.580538 0.212649,0.432974 0.273367,0.597434 0.273367,0.740439 0,0.214709 -0.05311,0.28296 -0.220179,0.28296 -0.134515,0 -0.670245,-0.225499 -1.337213,-0.562859 -0.241239,-0.122021 -0.463441,-0.221856 -0.493782,-0.221856 -0.03034,0 -0.05517,-0.01858 -0.05517,-0.0413 0,-0.02271 -0.01974,-0.0413 -0.04386,-0.0413 -0.02412,0 -0.23321,-0.09084 -0.464634,-0.201859 -0.746101,-0.357934 -0.947388,-0.446545 -1.535892,-0.676138 -0.665521,-0.25964 -0.89594,-0.340123 -0.939594,-0.328192 -0.01704,0.0047 -0.03097,-0.0094 -0.03097,-0.03124 0,-0.02184 -0.07899,-0.05979 -0.175529,-0.08432 -0.09654,-0.02454 -0.212699,-0.06087 -0.25813,-0.08075 -0.04543,-0.01987 -0.119772,-0.04487 -0.165203,-0.05554 -0.04543,-0.01068 -0.115337,-0.03288 -0.155346,-0.04935 -0.05377,-0.02212 -0.06667,-0.01411 -0.04947,0.03072 0.0128,0.03336 0.101294,0.08381 0.196647,0.112116 0.09535,0.0283 0.192411,0.06692 0.215684,0.08582 0.02327,0.0189 0.134784,0.0647 0.247805,0.101771 0.11302,0.03707 0.264056,0.09403 0.335635,0.126575 0.07158,0.03254 0.148443,0.05917 0.170808,0.05917 0.02236,0 0.0939,0.02776 0.158961,0.0617 0.06506,0.03393 0.149726,0.06181 0.188137,0.06195 0.03841,1.24e-4 0.08049,0.01748 0.0935,0.03854 0.01301,0.02106 0.0931,0.06042 0.177967,0.08748 0.08487,0.02705 0.210058,0.07235 0.278205,0.100655 0.06815,0.02831 0.207536,0.08535 0.309756,0.126775 0.102219,0.04142 0.213732,0.0975 0.247805,0.124627 0.03407,0.02712 0.09968,0.06076 0.145796,0.07475 0.04611,0.01399 0.423393,0.192749 0.838397,0.397242 0.415004,0.204494 0.76394,0.371807 0.775413,0.371807 0.06277,0 0.44494,0.201949 0.872659,0.461142 0.567579,0.343943 1.371926,0.776208 1.44619,0.777196 0.02839,3.72e-4 0.05163,-0.03695 0.05163,-0.08295 z m -6.814634,-3.137044 c 0,-0.02228 -0.05111,-0.05173 -0.113578,-0.06543 -0.06247,-0.01371 -0.228975,-0.06052 -0.370018,-0.104039 -0.141042,-0.04352 -0.284448,-0.07912 -0.31868,-0.07912 -0.03423,0 -0.123272,-0.02616 -0.197868,-0.05813 -0.0746,-0.03197 -0.213836,-0.07895 -0.309424,-0.104391 -0.09559,-0.02544 -0.23946,-0.108189 -0.319718,-0.183882 l -0.145923,-0.137623 0.02614,-0.821482 c 0.02441,-0.76708 0.01288,-0.955021 -0.09345,-1.523596 -0.0085,-0.04543 -0.03278,-0.175529 -0.05396,-0.289106 -0.05529,-0.296419 -0.241024,-0.921786 -0.331194,-1.115122 -0.04238,-0.09086 -0.145963,-0.313886 -0.23019,-0.49561 -0.26707,-0.576213 -0.670035,-1.092916 -1.011398,-1.296865 -0.301296,-0.180012 -0.730859,-0.367876 -0.942744,-0.412299 -0.269573,-0.05652 -0.29628,-0.05695 -0.29628,-0.0048 0,0.02271 0.03607,0.0413 0.08016,0.0413 0.04409,0 0.09014,0.01614 0.102337,0.03588 0.01219,0.01973 0.09668,0.04779 0.187749,0.06235 0.155766,0.02491 0.275018,0.0796 0.620969,0.284763 0.219485,0.130167 0.949919,0.907036 0.949919,1.010307 0,0.02316 0.02647,0.06408 0.05882,0.09093 0.0554,0.04598 0.174462,0.27708 0.400301,0.776988 0.05388,0.119256 0.111419,0.216829 0.127876,0.216829 0.01646,0 0.01914,0.02809 0.006,0.06242 -0.01318,0.03433 0.0043,0.150491 0.03888,0.25813 0.197673,0.615661 0.319123,1.955443 0.234885,2.591154 -0.107959,0.814737 -0.108509,0.810616 0.115422,0.864593 0.06177,0.01489 0.182011,0.04483 0.267194,0.06652 0.08518,0.0217 0.224573,0.05577 0.309756,0.07572 0.08518,0.01995 0.336,0.08445 0.557372,0.143329 0.221372,0.05888 0.430457,0.09633 0.464634,0.08321 0.03418,-0.01312 0.06214,-0.0033 0.06214,0.02187 0,0.02515 0.02788,0.04572 0.06195,0.04572 0.03407,0 0.06195,-0.01823 0.06195,-0.04051 z m -8.838375,-0.208504 c 0.147651,-0.04291 0.324212,-0.0875 0.392358,-0.0991 0.278698,-0.04743 0.540208,-0.118395 0.592801,-0.160861 0.06013,-0.04855 0.05688,-0.141816 -0.0356,-1.020932 -0.101489,-0.964769 0.134405,-2.361199 0.550865,-3.260987 0.438831,-0.94812 1.336316,-1.779235 1.994697,-1.847186 0.123405,-0.01274 0.235896,-0.0418 0.249978,-0.06459 0.03647,-0.05901 -0.46685,0.0028 -0.647539,0.07952 -0.0795,0.03376 -0.197168,0.08812 -0.261477,0.1208 -0.06431,0.03268 -0.140415,0.05942 -0.169127,0.05942 -0.02871,0 -0.08756,0.03907 -0.130783,0.08683 -0.04322,0.04776 -0.128342,0.112563 -0.189162,0.144014 -0.09478,0.04901 -0.612377,0.633526 -0.612377,0.69155 0,0.01115 -0.07478,0.14997 -0.166174,0.308493 -0.0914,0.158523 -0.196249,0.378534 -0.233008,0.488913 -0.03676,0.110378 -0.08357,0.222119 -0.104016,0.248311 -0.104703,0.134103 -0.353649,1.218476 -0.392039,1.707662 -0.01872,0.238512 -0.02909,0.731024 -0.02304,1.094471 0.01389,0.835154 -0.01601,0.959414 -0.269374,1.119563 -0.103946,0.0657 -0.199845,0.12056 -0.213109,0.121902 -0.148894,0.01507 -0.379313,0.0741 -0.396257,0.101515 -0.01184,0.01915 -0.122219,0.0474 -0.245299,0.06278 -0.141351,0.01766 -0.232575,0.05088 -0.247658,0.09018 -0.02823,0.07357 0.119688,0.05432 0.555342,-0.07227 z M 25.83064,23.157632 c 0,-0.08321 -0.312353,-0.712745 -0.561426,-1.131533 -0.135099,-0.227154 -0.285131,-0.48735 -0.333403,-0.578211 -0.184196,-0.346712 -0.424043,-0.801358 -0.653642,-1.239025 -0.131081,-0.24987 -0.321239,-0.612284 -0.422572,-0.805366 -0.101333,-0.193081 -0.325741,-0.611252 -0.498682,-0.929268 -0.172942,-0.318016 -0.426771,-0.793297 -0.564065,-1.056179 -0.137293,-0.262883 -0.328612,-0.62527 -0.425153,-0.805306 -0.09654,-0.180037 -0.175529,-0.34302 -0.175529,-0.362185 0,-0.01916 -0.03717,-0.0821 -0.0826,-0.139857 -0.04543,-0.05776 -0.0826,-0.138578 -0.0826,-0.179605 0,-0.04103 -0.01606,-0.08452 -0.0357,-0.09666 -0.01964,-0.01214 -0.169316,-0.296659 -0.332624,-0.632274 C 21.499337,14.866546 21.34776,14.564074 21.325807,14.53 c -0.02195,-0.03407 -0.06941,-0.127 -0.105469,-0.206504 -0.03606,-0.0795 -0.122476,-0.256065 -0.192046,-0.392357 -0.06957,-0.136293 -0.171445,-0.340732 -0.226389,-0.454309 -0.05495,-0.113578 -0.153029,-0.308724 -0.217966,-0.433659 -0.339471,-0.653126 -1.072319,-2.158061 -1.072319,-2.202054 0,-0.01122 -0.09045,-0.212654 -0.201011,-0.447629 C 19.200048,10.158514 18.993179,9.7060665 18.850895,9.3880502 18.708611,9.070034 18.531904,8.6797413 18.458212,8.5207332 18.38452,8.361725 18.282817,8.129408 18.232204,8.004473 18.14004,7.7769696 18.103013,7.6902698 17.949989,7.34366 17.818589,7.0460319 17.675171,6.6975039 17.465628,6.1665868 17.253125,5.6281732 17.057642,5.215772 16.997233,5.1784374 c -0.04986,-0.030815 -0.18218,0.1965079 -0.316995,0.544588 -0.0593,0.153097 -0.201275,0.5199679 -0.315508,0.8152687 -0.114234,0.2953008 -0.250321,0.6391301 -0.302417,0.7640651 -0.0521,0.1249349 -0.15352,0.3758374 -0.225387,0.557561 -0.07187,0.1817235 -0.185146,0.4449747 -0.25173,0.5850024 -0.06658,0.140028 -0.12106,0.2653635 -0.12106,0.2785236 0,0.01316 -0.08363,0.2017215 -0.185854,0.4190249 -0.10222,0.2173038 -0.185854,0.417723 -0.185854,0.4453764 0,0.027653 -0.02464,0.086939 -0.05476,0.1317446 -0.03012,0.044806 -0.134728,0.2673199 -0.232461,0.4944739 -0.09773,0.227155 -0.258944,0.582697 -0.358245,0.790093 -0.0993,0.207397 -0.180547,0.423606 -0.180547,0.480466 0,0.07791 0.13724,0.239381 0.557088,0.655436 0.306399,0.303629 0.664168,0.647735 0.795041,0.764678 0.130874,0.116944 0.366141,0.326812 0.522816,0.466374 0.279767,0.249208 0.603275,0.436173 0.699085,0.404022 0.06842,-0.02296 -0.346283,-0.410355 -0.921997,-0.861281 -0.124935,-0.09786 -0.471601,-0.420095 -0.770368,-0.716088 -0.432212,-0.428201 -0.552249,-0.571996 -0.587436,-0.703701 -0.05493,-0.205612 0.0023,-0.443719 0.215912,-0.898872 0.08287,-0.176543 0.150672,-0.333297 0.150672,-0.348342 0,-0.01505 0.03885,-0.112211 0.08632,-0.215924 0.04748,-0.103712 0.102309,-0.2257386 0.121849,-0.2711695 0.01954,-0.045431 0.120086,-0.2643301 0.223435,-0.4864422 0.103349,-0.2221124 0.187907,-0.4236839 0.187907,-0.4479366 0,-0.024253 0.02616,-0.093427 0.05814,-0.1537204 0.05872,-0.1107308 0.211234,-0.4426381 0.32555,-0.7084861 0.03419,-0.079504 0.13011,-0.3211138 0.213162,-0.5369106 0.08305,-0.2157967 0.244379,-0.5844104 0.358504,-0.8191415 0.177744,-0.3655827 0.227845,-0.4352847 0.34938,-0.4860651 0.12348,-0.051593 0.156892,-0.051519 0.257632,5.766e-4 0.13175,0.06813 0.302042,0.2977353 0.400923,0.5405651 0.037,0.090862 0.119124,0.2767154 0.1825,0.4130081 0.06338,0.1362927 0.156685,0.3500244 0.207357,0.4749593 0.272805,0.6726286 0.386253,0.927867 0.442019,0.9944716 0.03003,0.035862 0.05459,0.086704 0.05459,0.1129825 0,0.026279 0.10222,0.2612264 0.227155,0.5221059 0.124935,0.2608798 0.227154,0.4914082 0.227154,0.5122857 0,0.020878 0.07142,0.1840517 0.158712,0.3626092 0.173769,0.35545 0.305937,0.636184 0.493117,1.047415 0.254406,0.558927 0.398479,0.865723 0.698222,1.486829 0.169917,0.35209 0.325595,0.671851 0.345952,0.710582 0.02036,0.03873 0.411207,0.810023 0.868557,1.713983 0.45735,0.903961 0.845672,1.662151 0.862938,1.684866 0.02928,0.03853 0.136766,0.241686 0.775698,1.466179 0.249212,0.477608 0.476024,0.905902 0.601469,1.135772 0.03719,0.06815 0.101643,0.198244 0.143229,0.289106 0.07495,0.163767 0.272268,0.532995 0.518666,0.970569 0.416869,0.740307 0.700158,1.315416 0.766749,1.556589 0.04568,0.165433 -0.02195,0.35085 -0.15368,0.42135 -0.09162,0.04903 -0.416366,0.02179 -0.696229,-0.05841 -0.117073,-0.03355 -0.251974,-0.061 -0.299781,-0.061 -0.168643,0 -0.0047,0.151711 0.219988,0.203585 0.115529,0.02667 0.507418,0.167149 0.870865,0.312172 0.670887,0.267698 0.805366,0.305004 0.805366,0.223418 z m -8.704147,-4.4423 c -0.02839,-0.01146 -0.07486,-0.01146 -0.103252,0 -0.02839,0.01146 -0.0052,0.02083 0.05163,0.02083 0.05679,0 0.08002,-0.0094 0.05163,-0.02083 z"
         id="path93" />
      <path
         style="fill:#95b4e2;stroke-width:0.0413008"
         d="m 4.6798117,29.154899 c -0.240441,-0.194698 -0.09063,-0.547485 1.2646395,-2.978068 1.0050659,-1.802518 1.2980374,-2.334763 2.0233098,-3.675773 0.3132786,-0.579244 0.8106956,-1.489926 1.1053716,-2.023739 0.8072752,-1.462401 0.9841114,-1.785535 1.3222134,-2.416098 0.541444,-1.009794 1.468501,-2.807969 2.118636,-4.109431 0.346093,-0.692821 0.688088,-1.340243 0.75999,-1.438716 0.09072,-0.124252 0.199788,-0.209582 0.356401,-0.278843 0.124119,-0.05489 0.237295,-0.130093 0.251501,-0.167113 0.01421,-0.03702 0.0036,-0.181029 -0.02362,-0.320018 -0.06995,-0.357431 -0.02215,-0.498112 0.784031,-2.3074803 0.08857,-0.1987912 0.161042,-0.3702403 0.161042,-0.3809984 0,-0.010758 0.05806,-0.1454759 0.129032,-0.2993743 0.296971,-0.6439971 0.460051,-1.038228 1.048614,-2.5349272 0.352144,-0.8954924 0.584698,-1.37521 0.743757,-1.534237 0.148262,-0.148232 0.33808,-0.1518528 0.49181,-0.00938 0.133779,0.1239824 0.456129,0.7947307 0.952272,1.9814952 0.323774,0.7744594 1.291122,2.9508043 1.909182,4.295284 0.522835,1.137337 3.139163,6.291603 3.93107,7.744359 0.01871,0.03432 0.19227,0.359569 0.385688,0.722765 0.193418,0.363196 0.607261,1.134283 0.91965,1.713527 1.052007,1.95067 1.179579,2.240768 1.096323,2.493035 -0.02607,0.07898 -0.07432,0.165957 -0.107234,0.193271 -0.03291,0.02731 -0.05984,0.106239 -0.05984,0.17539 0,0.136069 0.139288,0.286746 0.892624,0.965614 0.341703,0.307925 0.402563,0.387281 0.696838,0.908618 0.17734,0.314174 0.477701,0.844691 0.667469,1.178925 0.378552,0.666735 0.761493,1.445373 0.84044,1.708874 0.04289,0.143165 0.04037,0.188402 -0.01668,0.298725 -0.07623,0.147404 -0.204309,0.194442 -0.419521,0.154068 -0.151022,-0.02833 -1.228528,-0.568486 -1.8145,-0.909609 -0.50737,-0.295366 -2.832336,-1.430816 -3.366016,-1.643871 -1.216062,-0.485475 -1.972848,-0.753527 -2.66075,-0.942434 -1.302134,-0.357583 -1.371697,-0.38699 -1.499352,-0.633848 -0.04998,-0.09666 -0.05744,-0.206692 -0.0364,-0.537008 0.07915,-1.242629 0.07809,-1.434289 -0.0108,-1.954893 -0.212833,-1.246501 -0.639231,-2.179548 -1.270417,-2.779935 -0.89401,-0.850386 -1.751151,-0.812567 -2.61938,0.115571 -0.78198,0.835939 -1.265407,2.395972 -1.180251,3.8087 0.0711,1.17952 0.07213,1.261488 0.01722,1.364445 -0.09228,0.173038 -0.287627,0.268099 -0.883614,0.430001 -0.315598,0.08573 -0.766264,0.209986 -1.00148,0.276117 -0.389935,0.10963 -1.471782,0.497608 -2.299395,0.824622 -0.3975825,0.157096 -2.6991629,1.267769 -3.0757045,1.484241 -0.1476504,0.08488 -0.5889478,0.326354 -0.9806608,0.5366 -1.0995827,0.590187 -1.3382582,0.667742 -1.5435,0.501548 z m 0.7785434,-0.492074 c 0.2137334,-0.104073 0.7358284,-0.388183 1.4358613,-0.781357 0.440275,-0.247281 2.4508507,-1.218053 3.0636573,-1.479234 0.086793,-0.03699 0.3436603,-0.137553 0.5708143,-0.223469 0.227155,-0.08592 0.68958,-0.261424 1.027613,-0.390018 0.338033,-0.128594 0.932765,-0.315032 1.321626,-0.414308 1.01288,-0.258588 1.180668,-0.311417 1.268714,-0.399464 0.09507,-0.09507 0.09488,-0.07942 0.01025,-0.821884 -0.05871,-0.515063 -0.06128,-0.68266 -0.01838,-1.197724 0.155748,-1.869813 0.872552,-3.283561 1.945136,-3.836381 0.301712,-0.155505 0.389735,-0.181421 0.793428,-0.233602 0.271055,-0.03504 0.772406,0.08444 1.080986,0.257609 0.296473,0.166374 0.738754,0.587436 1.00158,0.95353 0.287152,0.399977 0.547588,0.995206 0.75391,1.723072 0.09209,0.32488 0.211072,1.261323 0.211072,1.661258 0,0.223905 -0.02895,0.615322 -0.06433,0.869816 -0.09675,0.695879 -0.120558,0.669996 0.849044,0.92286 1.137854,0.296743 2.102432,0.631899 3.366017,1.169568 0.883357,0.375878 2.626222,1.231809 3.366016,1.65307 0.791388,0.45064 1.265862,0.682615 1.396195,0.682615 0.08742,0 0.09641,-0.01388 0.07356,-0.113577 -0.03288,-0.143476 -0.320038,-0.728031 -0.634015,-1.290651 -0.233687,-0.418746 -0.404407,-0.731356 -0.733034,-1.342276 -0.08553,-0.159008 -0.202285,-0.359331 -0.259446,-0.445163 -0.104684,-0.157188 -1.429163,-1.243159 -2.424559,-1.98795 -0.295301,-0.220955 -0.597313,-0.4477 -0.671138,-0.503878 -0.07382,-0.05618 -0.134228,-0.129226 -0.134228,-0.162331 0,-0.135121 0.438547,-0.0473 1.229278,0.246163 0.622823,0.231149 0.638981,0.235531 0.708233,0.192062 0.08325,-0.05225 -0.0112,-0.257707 -0.760773,-1.654838 -0.689685,-1.28551 -1.216628,-2.277952 -1.600811,-3.014959 -0.136171,-0.261228 -0.344666,-0.651521 -0.46332,-0.867318 C 23.048656,17.61827 22.82075,17.190806 22.660854,16.884148 22.3307,16.250962 19.75942,11.11501 19.75942,11.088738 c 0,-0.0094 -0.206702,-0.470287 -0.459338,-1.024122 C 18.554278,8.4296492 18.403408,8.0925578 18.183944,7.5708145 18.069284,7.2982291 17.933098,6.9822779 17.881307,6.8687006 17.829516,6.7551234 17.717975,6.4856356 17.633437,6.2698389 17.395022,5.6612456 17.09393,5.0469668 17.020165,5.0186606 16.890293,4.9688241 16.767076,5.1844691 16.427994,6.0550363 16.026489,7.0858681 15.202689,9.0359257 14.73497,10.062674 c -0.535777,1.176152 -0.603006,1.351634 -0.571967,1.492955 0.02697,0.122778 0.76654,0.915199 1.669323,1.788607 0.393046,0.380258 0.482534,0.551352 0.261647,0.50025 -0.315368,-0.07296 -1.375306,-0.608316 -1.924781,-0.972174 -0.384462,-0.254589 -0.508578,-0.288792 -0.616245,-0.169822 -0.036,0.03978 -0.409953,0.759963 -0.831006,1.600407 -0.421053,0.840444 -0.962412,1.899787 -1.20302,2.354096 -0.240608,0.454309 -0.582777,1.104797 -0.760375,1.445529 -0.396181,0.760095 -0.623105,1.184497 -0.662495,1.239024 -0.01641,0.02272 -0.1045675,0.180691 -0.1959068,0.351057 -0.091339,0.170366 -0.3760071,0.690756 -0.6325955,1.156423 -0.2565883,0.465667 -0.5628305,1.023227 -0.6805379,1.239024 -0.1177073,0.215797 -0.3581738,0.652553 -0.5343699,0.970569 -0.1761961,0.318017 -0.5531065,1.005675 -0.8375786,1.52813 -0.2844721,0.522456 -0.7127028,1.303041 -0.9516238,1.734635 -0.5655843,1.021687 -0.5873161,1.06059 -0.7959583,1.424878 -0.219583,0.38339 -0.4524509,0.88153 -0.4524509,0.967862 0,0.09961 0.1749842,0.07936 0.4433258,-0.0513 z M 6.2378221,27.55703 C 6.156975,27.346346 6.2707094,27.088564 7.0381015,25.743172 7.3477732,25.200256 7.7324011,24.497835 8.23671,23.554229 8.333832,23.372506 8.5498963,22.979024 8.7168532,22.679825 8.8838096,22.380626 9.0736811,22.036797 9.1387897,21.91576 c 0.065109,-0.121037 0.2204634,-0.405921 0.3452331,-0.633076 0.1247698,-0.227154 0.2970528,-0.543105 0.3828516,-0.702113 0.085799,-0.159009 0.1702216,-0.307691 0.1876076,-0.330407 0.028,-0.03659 0.145516,-0.2529 0.762861,-1.404228 0.08526,-0.159008 0.207764,-0.385053 0.272228,-0.502322 0.06447,-0.117269 0.280009,-0.526147 0.478986,-0.908618 0.198978,-0.382471 0.45895,-0.881255 0.577715,-1.108409 0.118766,-0.227155 0.467584,-0.914813 0.775152,-1.52813 0.307568,-0.613317 0.611311,-1.189464 0.674985,-1.280325 0.187628,-0.267747 0.401308,-0.242025 0.967657,0.116483 0.346364,0.219255 1.316417,0.716604 1.622143,0.83168 0.153439,0.05775 0.33931,0.105007 0.413046,0.105007 0.164308,0 0.35171,-0.139345 0.35171,-0.261518 0,-0.04968 0.03717,-0.113533 0.0826,-0.141905 0.115052,-0.07185 0.107927,-0.289616 -0.01492,-0.45613 -0.05364,-0.0727 -0.309103,-0.303985 -0.567699,-0.513959 -0.54825,-0.445168 -1.628388,-1.484452 -1.71314,-1.648343 -0.03211,-0.0621 -0.05838,-0.151347 -0.05838,-0.198333 0,-0.119651 0.166016,-0.573946 0.37024,-1.013145 0.09506,-0.204439 0.238323,-0.529683 0.318357,-0.7227643 0.08003,-0.1930813 0.197447,-0.4625691 0.260917,-0.5988618 0.138789,-0.2980262 0.243959,-0.5348133 0.311849,-0.7021138 0.02765,-0.068146 0.128236,-0.3097561 0.223517,-0.5369106 0.09528,-0.2271544 0.220478,-0.5431057 0.278217,-0.7021138 0.243309,-0.6700478 0.484292,-0.956083 0.66654,-0.7911511 0.09617,0.087034 0.380054,0.629044 0.544163,1.038956 0.07275,0.1817236 0.158241,0.3889714 0.189972,0.4605507 0.03173,0.071579 0.05769,0.1416531 0.05769,0.1557197 0,0.014066 0.077,0.1878186 0.1711,0.3861159 0.176238,0.3713675 0.469395,1.0197729 0.723196,1.5995649 0.316699,0.7234802 0.840878,1.8574822 1.011811,2.1889432 0.04686,0.09086 0.584871,1.15952 1.195585,2.374797 0.610715,1.215276 1.214096,2.404739 1.340848,2.643252 0.126753,0.238512 0.380393,0.721731 0.563645,1.073821 0.183253,0.352089 0.395633,0.748024 0.471956,0.879855 0.07632,0.131831 0.13877,0.246775 0.13877,0.255433 0,0.0087 0.114128,0.226039 0.253617,0.483071 0.927755,1.709537 1.197425,2.262578 1.183573,2.427276 -0.01181,0.140428 -0.01947,0.146915 -0.187747,0.159093 -0.09878,0.0071 -0.344833,-0.03345 -0.563138,-0.09293 -0.432652,-0.117868 -0.56459,-0.12706 -0.837458,-0.05835 -0.299799,0.07549 -0.435789,0.381123 -0.273499,0.614677 0.138243,0.198949 0.41248,0.434393 0.672157,0.577076 0.257672,0.141582 0.744153,0.450591 0.785015,0.498635 0.01136,0.01335 0.160041,0.117797 0.330406,0.232095 0.170366,0.114298 0.439854,0.313471 0.598862,0.442607 0.361638,0.293698 0.344869,0.280517 0.765109,0.601415 0.48614,0.371221 0.69192,0.569545 0.815442,0.785898 0.05836,0.10222 0.129752,0.213991 0.158648,0.24838 0.09992,0.118905 0.467218,0.895755 0.506786,1.071862 0.04956,0.220583 0.02414,0.29049 -0.105632,0.29049 -0.09296,0 -0.680053,-0.219354 -0.777426,-0.290468 -0.08657,-0.06322 -1.299641,-0.657476 -2.188943,-1.072306 -0.369928,-0.172559 -0.511982,-0.230619 -1.259675,-0.514852 -0.215797,-0.08203 -0.429528,-0.165712 -0.474959,-0.185951 -0.224592,-0.100052 -1.14708,-0.417775 -1.383578,-0.476532 -0.643477,-0.15987 -1.019842,-0.281768 -1.139352,-0.369017 -0.073,-0.05329 -0.08094,-0.137447 -0.10423,-1.103957 -0.02556,-1.060941 -0.0892,-1.567417 -0.271576,-2.161388 -0.348167,-1.133932 -0.938962,-2.069884 -1.561752,-2.474164 -0.419365,-0.272229 -0.580791,-0.342615 -1.00805,-0.43954 -0.292751,-0.06641 -0.905692,-0.02745 -1.202472,0.07644 -0.455573,0.159475 -0.875101,0.415054 -1.134844,0.691355 -0.548142,0.583082 -1.074464,1.722005 -1.258875,2.724117 -0.07931,0.430981 -0.113958,0.926171 -0.121052,1.730044 -0.0038,0.42907 -0.02536,0.814655 -0.04795,0.856858 -0.06297,0.117658 -0.300728,0.21872 -0.843669,0.358611 -0.677436,0.174544 -0.985348,0.266862 -1.300976,0.390059 -0.275543,0.107551 -0.586948,0.227628 -1.094472,0.422025 -0.8982927,0.344074 -0.9942468,0.387449 -2.5813005,1.166859 -1.2428191,0.610355 -1.3806165,0.671804 -1.5064851,0.671804 -0.052475,0 -0.1066903,-0.0294 -0.1204783,-0.06533 z M 23.352591,22.622523 c 0,-0.02406 0.01859,-0.03225 0.0413,-0.01821 0.02272,0.01404 0.0413,0.03372 0.0413,0.04374 0,0.01002 -0.01859,0.01821 -0.0413,0.01821 -0.02272,0 -0.0413,-0.01968 -0.0413,-0.04374 z"
         id="path91" />
      <path
         style="fill:#6793d2;stroke-width:0.0413008"
         d="m 4.6876204,29.082968 c -0.04708,-0.05985 -0.085599,-0.150419 -0.085599,-0.201261 0,-0.09914 0.3822283,-0.895223 0.7533844,-1.569104 0.1251109,-0.227154 0.4872524,-0.877642 0.8047588,-1.445528 0.7418346,-1.326832 1.1681741,-2.097728 1.5303592,-2.767155 0.6046106,-1.117502 1.5083754,-2.771981 1.5792501,-2.891057 0.1459934,-0.245282 1.3164021,-2.41034 1.6705941,-3.090317 0.841501,-1.61551 1.042902,-2.009453 1.629541,-3.187406 0.339379,-0.681464 0.674739,-1.316729 0.745245,-1.411701 0.08884,-0.119665 0.187966,-0.194754 0.322896,-0.244591 0.107087,-0.03955 0.217935,-0.08958 0.246329,-0.111162 0.06414,-0.04876 0.06576,-0.209416 0.0048,-0.473586 -0.06467,-0.280174 -0.02416,-0.395899 0.769661,-2.1987977 0.695553,-1.579709 0.859913,-1.9739161 1.403916,-3.367204 0.293607,-0.7519791 0.502792,-1.1867497 0.662064,-1.3760342 0.144398,-0.171606 0.330333,-0.1780097 0.484328,-0.01668 0.125857,0.1318507 0.406658,0.7187558 0.841177,1.7581542 0.627397,1.5007735 1.945841,4.4178847 2.54204,5.6243667 0.978446,1.980003 2.123589,4.232087 2.703757,5.317312 0.349085,0.652977 0.634701,1.194393 0.634701,1.203147 0,0.0088 0.197879,0.385183 0.439732,0.836509 0.241853,0.451326 0.489163,0.91352 0.549579,1.027097 0.06041,0.113577 0.311909,0.578211 0.558874,1.03252 0.907845,1.67004 1.017881,1.97017 0.816286,2.226485 -0.206202,0.262173 -0.11234,0.433005 0.545364,0.992572 0.284072,0.241686 0.561431,0.499074 0.616355,0.571975 0.146467,0.194406 1.335732,2.330237 1.587449,2.850939 0.118809,0.245767 0.237903,0.528685 0.264655,0.628705 0.04546,0.169976 0.04203,0.188932 -0.05255,0.290165 -0.08706,0.09318 -0.126305,0.105517 -0.281043,0.08832 -0.19444,-0.02161 -0.872988,-0.347685 -1.658033,-0.796764 -1.056904,-0.604592 -3.404436,-1.720448 -4.253984,-2.022052 -0.147651,-0.05242 -0.490389,-0.18186 -0.761641,-0.287647 -0.271252,-0.105787 -0.857552,-0.291857 -1.302889,-0.413488 -1.500372,-0.409784 -1.470601,-0.385098 -1.418461,-1.176202 0.08058,-1.222572 0.02018,-1.966102 -0.228133,-2.808455 -0.372414,-1.263334 -1.133307,-2.203569 -1.98556,-2.453551 -0.449693,-0.131903 -0.813934,-0.05798 -1.291559,0.262133 -1.066177,0.714566 -1.779264,2.541424 -1.669507,4.277109 0.01437,0.227155 0.0377,0.590606 0.05186,0.807671 0.02097,0.321557 0.01317,0.41897 -0.04212,0.525886 -0.105312,0.203651 -0.121325,0.209679 -1.673099,0.62979 -0.585759,0.158582 -1.10528,0.341846 -2.417611,0.852827 -0.6246897,0.243235 -2.7809317,1.3051 -3.9674579,1.953819 -1.2713909,0.695117 -1.4982734,0.770157 -1.6696854,0.552242 z m 0.9194761,-0.436739 c 0.2308915,-0.118334 0.6428272,-0.342815 0.9154125,-0.498845 0.5065939,-0.289979 1.5788308,-0.825807 2.684553,-1.341552 0.7568978,-0.353041 0.829302,-0.383977 1.424878,-0.6088 0.261228,-0.09861 0.623642,-0.237514 0.805366,-0.308675 0.489599,-0.191722 0.841182,-0.302598 1.50748,-0.475403 1.360957,-0.352967 1.34563,-0.344065 1.307783,-0.759455 -0.01369,-0.15029 -0.04452,-0.486671 -0.06851,-0.747514 -0.07119,-0.774248 0.09511,-1.98076 0.384583,-2.790122 0.190719,-0.533251 0.548081,-1.112564 0.908869,-1.473352 0.480574,-0.480574 0.938681,-0.693323 1.492918,-0.693323 0.575612,0 1.029333,0.199075 1.49109,0.654231 0.758873,0.748026 1.194743,1.781396 1.378538,3.268263 0.06027,0.487597 0.05534,0.762531 -0.02521,1.405311 -0.101458,0.809645 -0.117499,0.79134 0.935784,1.067859 1.167365,0.306469 1.507131,0.423286 3.138862,1.079194 0.668864,0.268864 2.615181,1.211087 3.324715,1.609514 0.898761,0.504683 1.541516,0.827824 1.646615,0.827824 0.21484,0 0.167025,-0.198676 -0.227705,-0.946137 C 28.494067,27.651939 28.311221,27.315701 28.226794,27.16805 28.142364,27.0204 27.912332,26.602229 27.715605,26.238782 27.518879,25.875335 27.297708,25.51005 27.224114,25.427039 27.099365,25.286326 24.893028,23.514048 24.457379,23.204611 24.349481,23.127971 24.2612,23.041708 24.2612,23.012914 c 0,-0.08557 0.252455,-0.02896 0.991879,0.22242 0.400485,0.136151 0.711693,0.220552 0.75374,0.204417 0.163246,-0.06264 0.07151,-0.274566 -0.898013,-2.074465 -0.232479,-0.431593 -0.539305,-1.00774 -0.681834,-1.280325 -0.14253,-0.272586 -0.319348,-0.607122 -0.39293,-0.743415 -0.125045,-0.231618 -0.216533,-0.40375 -0.691468,-1.300975 C 23.240378,17.847489 23.101407,17.587294 23.033758,17.462359 22.67723,16.803914 22.30138,16.065673 21.193909,13.848538 20.524465,12.508327 19.929274,11.309571 19.871261,11.184636 19.119603,9.5658907 18.296102,7.7117234 17.739621,6.3851036 17.127466,4.9257617 17.128706,4.9280067 16.949935,4.9553676 c -0.126038,0.01929 -0.252312,0.2730443 -0.71577,1.4383737 -0.221335,0.5565284 -0.427971,1.067626 -0.459191,1.1357723 -0.03122,0.068146 -0.133874,0.3097561 -0.228118,0.5369106 -0.09425,0.2271545 -0.209355,0.4966423 -0.255801,0.5988618 -0.687529,1.513141 -1.189846,2.708188 -1.189846,2.830728 0,0.157957 0.168444,0.350489 1.398571,1.598574 0.352752,0.357902 0.544931,0.582034 0.520062,0.606532 -0.07318,0.07208 -1.294658,-0.512107 -1.815381,-0.868234 -0.399653,-0.273326 -0.505642,-0.30938 -0.63205,-0.215002 -0.06171,0.04607 -0.417358,0.703516 -0.933884,1.726352 -0.458821,0.908569 -1.0349,2.032944 -1.280175,2.498611 -0.245275,0.465667 -0.558413,1.060398 -0.695863,1.321626 -0.314184,0.597118 -0.508306,0.960067 -0.640597,1.197724 -0.056901,0.102219 -0.265876,0.483219 -0.4643901,0.846666 -0.4988981,0.913403 -0.577299,1.055731 -0.6597627,1.197724 -0.039577,0.06815 -0.1372711,0.244707 -0.2170994,0.392358 -0.079828,0.14765 -0.191262,0.352089 -0.2476306,0.454308 -0.056369,0.10222 -0.1635248,0.297366 -0.2381249,0.433659 -0.0746,0.136293 -0.2136394,0.387195 -0.3089762,0.557561 -0.095337,0.170366 -0.2437635,0.439854 -0.3298371,0.598862 -0.086074,0.159008 -0.207699,0.382032 -0.2702786,0.49561 -0.1567907,0.284563 -0.5027233,0.916393 -1.0627896,1.941138 -0.2607141,0.477024 -0.5742436,1.040926 -0.6967322,1.253114 -0.1224887,0.212189 -0.3078111,0.559573 -0.4118277,0.771965 -0.3054564,0.623714 -0.2005485,0.696342 0.4926536,0.341067 z M 6.2808657,27.47897 c -0.03486,-0.09084 0.045732,-0.288918 0.2902023,-0.713244 0.120943,-0.209921 0.2198963,-0.387698 0.2198963,-0.395061 0,-0.0074 0.1672683,-0.314551 0.3717074,-0.682641 0.204439,-0.368089 0.3717073,-0.677359 0.3717073,-0.687267 0,-0.0099 0.05245,-0.107113 0.1165547,-0.216011 0.1190359,-0.202212 0.1616083,-0.279737 0.9025268,-1.643525 0.2344759,-0.431594 0.4441246,-0.812594 0.465886,-0.846667 0.035363,-0.05537 0.3148308,-0.564507 0.6234309,-1.135772 0.061355,-0.113577 0.1789188,-0.324448 0.2612528,-0.468602 0.082334,-0.144153 0.1496988,-0.270471 0.1496988,-0.280705 0,-0.01023 0.08597,-0.17107 0.191052,-0.357414 0.575884,-1.02126 0.557185,-0.986339 1.862221,-3.477669 0.190384,-0.363447 0.58631,-1.140384 0.879834,-1.726527 0.539445,-1.077225 0.707708,-1.370091 0.83127,-1.446848 0.06783,-0.04214 0.421628,0.116609 0.831697,0.373172 0.297169,0.185926 1.268347,0.677559 1.487201,0.752855 0.531024,0.182699 0.827754,0.146464 1.005976,-0.122847 0.09167,-0.138527 0.104327,-0.192422 0.08252,-0.351479 -0.03104,-0.226477 -0.207499,-0.495687 -0.449181,-0.685291 -0.239574,-0.187949 -0.334906,-0.269917 -0.958663,-0.824267 -0.807103,-0.717297 -1.05646,-1.003855 -1.05437,-1.21167 0.0014,-0.138382 0.07484,-0.318819 0.824651,-2.0260414 0.279347,-0.6360325 0.643211,-1.4870432 0.808587,-1.8911348 0.350338,-0.8560397 0.483701,-1.1031741 0.595315,-1.1031741 0.1077,0 0.377328,0.5055023 0.715954,1.3422764 0.147079,0.3634471 0.343411,0.8218577 0.436293,1.0186903 0.09288,0.1968327 0.278699,0.6057107 0.412929,0.9086179 0.634039,1.4307937 0.999881,2.1918127 2.270953,4.7240047 1.291536,2.572958 1.537884,3.054906 1.994025,3.901045 0.104088,0.193081 0.291968,0.546203 0.417512,0.784715 0.125544,0.238512 0.354418,0.665976 0.508608,0.949919 0.271224,0.49946 0.471663,0.882921 0.919528,1.759149 0.117191,0.22928 0.213075,0.464991 0.213075,0.523803 0,0.132645 -0.11463,0.176865 -0.300079,0.11576 -0.553979,-0.182536 -1.209667,-0.25831 -1.389273,-0.16055 -0.139708,0.07604 -0.250012,0.237832 -0.276842,0.406058 -0.01808,0.113356 0.0017,0.179706 0.094,0.315159 0.122418,0.179666 0.437726,0.459559 0.626026,0.555711 0.126783,0.06474 0.800312,0.504355 1.225513,0.799899 0.389941,0.271035 1.422827,1.083764 1.759726,1.384645 0.287055,0.256365 0.462467,0.518449 0.850543,1.270795 0.248483,0.481724 0.275552,0.628921 0.115653,0.628921 -0.05675,0 -0.516738,-0.202422 -1.022195,-0.449826 -1.558108,-0.762642 -2.057563,-0.995142 -2.550394,-1.18723 -0.261227,-0.101818 -0.540008,-0.210775 -0.619512,-0.242127 -0.882233,-0.347906 -1.349602,-0.514826 -1.713984,-0.612147 -0.938809,-0.250741 -1.160192,-0.32606 -1.249349,-0.425055 -0.09056,-0.100557 -0.09293,-0.126835 -0.09293,-1.033368 0,-1.451233 -0.165754,-2.233036 -0.69599,-3.28274 -0.498309,-0.986499 -1.127874,-1.558595 -1.985055,-1.803853 -0.298771,-0.08549 -1.058009,-0.08412 -1.347849,0.0024 -0.817474,0.244099 -1.431108,0.796668 -1.912423,1.72211 -0.524197,1.007894 -0.710474,1.911127 -0.711084,3.447948 -2.47e-4,0.585924 -0.01495,0.846371 -0.0503,0.890197 -0.120863,0.149821 -0.115545,0.147903 -1.2064,0.435098 -0.362674,0.09548 -0.908247,0.27288 -1.073822,0.349161 -0.144636,0.06663 -0.407075,0.169876 -0.598861,0.235587 -0.754559,0.258531 -1.8347499,0.743338 -3.4869967,1.565018 -0.7808243,0.388313 -0.9440449,0.442502 -0.9879806,0.328007 z"
         id="path89" />
      <path
         style="fill:#4a73ab;stroke-width:0.0413008"
         d="m 4.7116743,29.074961 c -0.037594,-0.04154 -0.068352,-0.126208 -0.068352,-0.18815 0,-0.114767 0.5591484,-1.256782 0.9628614,-1.966566 0.5087224,-0.894405 1.5574125,-2.772333 1.7413004,-3.118211 0.4846454,-0.911578 1.6159955,-2.981865 2.561657,-4.687642 0.5435189,-0.980396 1.2648289,-2.360875 2.1793999,-4.171045 1.307219,-2.58732 1.2916,-2.562543 1.692605,-2.685222 0.193499,-0.0592 0.223073,-0.157178 0.153337,-0.508021 -0.04772,-0.240078 -0.04438,-0.283022 0.0426,-0.547223 0.05191,-0.157686 0.16485,-0.444676 0.250974,-0.637758 0.554203,-1.242466 1.373849,-3.1743079 1.717274,-4.0474793 0.05807,-0.1476504 0.189642,-0.482187 0.292376,-0.7434146 0.37739,-0.9596032 0.586845,-1.2310665 0.855438,-1.1086875 0.134461,0.061265 0.436731,0.6629346 0.951216,1.8934029 0.289376,0.6920869 1.420673,3.2354231 1.993246,4.4811385 0.270062,0.587558 0.721201,1.495277 1.908979,3.840975 0.868612,1.715392 0.989003,1.948241 1.612219,3.118212 0.17545,0.329374 0.472997,0.896227 0.661217,1.259675 0.188219,0.363447 0.41116,0.781617 0.495424,0.929268 0.08426,0.14765 0.261603,0.472894 0.394088,0.722764 0.132485,0.24987 0.369085,0.686626 0.525779,0.970569 0.474006,0.858946 0.732236,1.43327 0.732236,1.628551 0,0.04952 -0.04646,0.153013 -0.103252,0.229986 -0.215048,0.29148 -0.12624,0.456787 0.552335,1.02812 0.571304,0.481015 0.603477,0.519698 0.965476,1.160823 0.147497,0.261227 0.42898,0.758488 0.625518,1.105022 0.460923,0.812697 0.892281,1.713096 0.892281,1.862511 0,0.156647 -0.116857,0.25393 -0.305021,0.25393 -0.159809,0 -0.939488,-0.379783 -1.979344,-0.964142 -0.643665,-0.361716 -2.66569,-1.35316 -3.187993,-1.563145 -0.862411,-0.346722 -2.11762,-0.807622 -2.395448,-0.879585 -0.159008,-0.04119 -0.577179,-0.156737 -0.929268,-0.256779 -0.9006,-0.255893 -0.974745,-0.344272 -0.893728,-1.065292 0.02297,-0.204439 0.04048,-0.650488 0.03891,-0.991219 -0.003,-0.654684 -0.06384,-1.043224 -0.284486,-1.817236 -0.201974,-0.708511 -0.703396,-1.562125 -1.13533,-1.932771 -0.423889,-0.363742 -1.030724,-0.599888 -1.399463,-0.544592 -0.882023,0.132268 -1.726239,1.059692 -2.167209,2.380817 -0.248429,0.744281 -0.355878,1.701987 -0.278772,2.484725 0.07801,0.791925 0.06835,0.989631 -0.05556,1.136892 -0.120206,0.142856 -0.263328,0.19422 -1.396225,0.50108 -0.710438,0.192432 -1.36523,0.417436 -2.546839,0.875159 -0.529805,0.205233 -2.7345972,1.270624 -3.3866663,1.636492 -0.2612276,0.146572 -0.7943678,0.431442 -1.1847559,0.633045 -0.7606277,0.392801 -0.9610002,0.445763 -1.1010382,0.291023 z m 0.6978974,-0.248722 c 0.180522,-0.08748 0.6906365,-0.36031 1.1335878,-0.606298 0.7154092,-0.397294 1.5442509,-0.813659 2.9323578,-1.473055 0.39013,-0.185325 0.7575907,-0.331309 2.1889437,-0.86962 0.418359,-0.157338 0.722228,-0.249879 1.424878,-0.433936 0.884928,-0.231803 1.037484,-0.282783 1.152639,-0.385178 l 0.120119,-0.106809 -0.0686,-0.512703 c -0.112312,-0.839415 -0.07764,-1.68064 0.101986,-2.474492 0.147812,-0.653249 0.265699,-0.95588 0.659619,-1.693334 0.0546,-0.102219 0.266545,-0.354497 0.470984,-0.560618 0.433649,-0.437216 0.750837,-0.61726 1.213645,-0.688896 0.889296,-0.13765 1.853236,0.519961 2.415182,1.647663 0.296068,0.594146 0.447076,1.090272 0.587441,1.929994 0.0677,0.404985 0.06592,0.852825 -0.0081,2.029093 -0.02214,0.352056 -0.01827,0.376301 0.07315,0.458588 0.106052,0.09546 0.290828,0.159203 0.943191,0.325393 0.798277,0.203361 1.2121,0.338381 2.208689,0.720638 1.24631,0.478042 1.318711,0.51006 2.768059,1.224161 1.141988,0.562662 1.386337,0.690082 2.076926,1.083052 0.465843,0.265081 1.060772,0.545404 1.157509,0.545404 0.04806,0 0.107034,-0.03673 0.131061,-0.08163 0.04884,-0.09126 -0.06294,-0.397956 -0.30892,-0.847638 C 28.543051,27.615694 28.441842,27.42998 27.911237,26.454704 27.624175,25.927069 27.3499,25.451722 27.301739,25.398379 27.197294,25.282696 25.915715,24.23227 25.466113,23.893837 25.08008,23.603256 24.734207,23.25045 24.807933,23.222465 c 0.05729,-0.02175 0.429848,0.08241 0.878109,0.245491 0.159008,0.05785 0.320977,0.105573 0.359929,0.106052 0.105036,0.0013 0.160005,-0.131419 0.116813,-0.282021 -0.03505,-0.122212 -0.338187,-0.741519 -0.579192,-1.183286 -0.06196,-0.113578 -0.18971,-0.350541 -0.283885,-0.526586 -0.220082,-0.41141 -0.45754,-0.853595 -0.626556,-1.166748 -0.07356,-0.136292 -0.230568,-0.433658 -0.348905,-0.660813 C 24.205954,19.5274 24.043469,19.220741 23.963213,19.073091 23.882957,18.92544 23.626499,18.442221 23.393306,17.99927 23.160113,17.556319 22.903977,17.073099 22.824115,16.925449 22.609043,16.52782 20.092007,11.50712 19.915005,11.122684 19.338939,9.8715085 18.189989,7.3102134 18.189989,7.2771944 c 0,-0.00881 -0.07562,-0.1879631 -0.168037,-0.398112 C 17.641688,6.0144227 17.362877,5.3568864 17.311925,5.2045829 17.286904,5.1297897 17.206214,4.9996921 17.132615,4.9154772 17.021076,4.7878521 16.98622,4.7697634 16.923255,4.8068311 16.81509,4.8705082 16.615103,5.2559566 16.35704,5.8981315 c -0.576181,1.4337972 -0.859525,2.1243471 -1.059147,2.5813008 -0.119081,0.2725854 -0.276822,0.635 -0.350536,0.8053659 -0.07371,0.1703659 -0.189572,0.430561 -0.257463,0.5782114 -0.240432,0.5228984 -0.29958,0.6565144 -0.29958,0.6767524 0,0.01126 -0.07639,0.184194 -0.169763,0.384299 -0.210814,0.451807 -0.240034,0.626235 -0.133179,0.795001 0.04354,0.06876 0.311458,0.362291 0.595381,0.652288 0.685321,0.699985 0.944763,1.018 0.846064,1.037077 -0.0404,0.0078 -0.09378,-0.0061 -0.118629,-0.03097 -0.02485,-0.02485 -0.07775,-0.04517 -0.117554,-0.04517 -0.103188,0 -0.634481,-0.287052 -1.057417,-0.571312 -0.438905,-0.294993 -0.506547,-0.319054 -0.665654,-0.236777 -0.102984,0.05326 -0.235654,0.288944 -0.823388,1.462753 -0.644035,1.286251 -0.8577,1.70213 -1.35057,2.628751 -0.09666,0.181723 -0.407881,0.776455 -0.691607,1.321626 -0.283726,0.54517 -0.552419,1.056268 -0.597097,1.135772 -0.04468,0.0795 -0.1614415,0.293236 -0.2594744,0.474959 -0.098033,0.181724 -0.2377568,0.432626 -0.3104966,0.557561 -0.07274,0.124935 -0.2070848,0.366545 -0.2985446,0.536911 -0.09146,0.170366 -0.3197298,0.588536 -0.5072674,0.929268 -0.187537,0.340732 -0.4250151,0.777488 -0.5277286,0.970569 -0.1027136,0.193081 -0.2209186,0.40039 -0.2626779,0.460685 -0.041759,0.06029 -0.075926,0.119701 -0.075926,0.132014 0,0.01231 -0.062805,0.13025 -0.1395668,0.26208 -0.1289033,0.221379 -0.4584803,0.824141 -0.8649865,1.581969 -0.091386,0.170366 -0.3831405,0.700049 -0.6483438,1.177073 -0.2652033,0.477025 -0.5530031,0.997415 -0.6395553,1.156423 -0.086552,0.159008 -0.2273388,0.413699 -0.3128592,0.56598 -0.1680211,0.299185 -0.4509487,0.907399 -0.4509487,0.969413 0,0.06647 0.095936,0.13729 0.1859733,0.13729 0.047768,0 0.2345512,-0.07157 0.4150732,-0.159047 z m 0.9526902,-1.402365 c -0.011313,-0.0183 0.00153,-0.07239 0.028538,-0.120199 0.027009,-0.0478 0.1766178,-0.33484 0.3324639,-0.637857 0.1558461,-0.303016 0.3254802,-0.62528 0.3769646,-0.716142 0.051484,-0.09086 0.1635139,-0.295301 0.2489543,-0.454309 0.08544,-0.159008 0.233482,-0.428496 0.3289813,-0.598861 0.095499,-0.170366 0.2439676,-0.439854 0.3299295,-0.598862 0.2388199,-0.441758 0.6408849,-1.175903 0.7577352,-1.383578 0.1124832,-0.199912 0.4222025,-0.767929 0.7093754,-1.300975 0.097902,-0.181724 0.191466,-0.348992 0.2079207,-0.371707 0.016455,-0.02272 0.099693,-0.171399 0.1849756,-0.330407 0.085282,-0.159008 0.2297616,-0.428496 0.3210666,-0.598862 0.0913,-0.170366 0.300079,-0.551366 0.463945,-0.846666 0.163866,-0.295301 0.419336,-0.769228 0.567711,-1.053171 0.148376,-0.283943 0.348179,-0.664943 0.444007,-0.846667 0.09583,-0.181723 0.286169,-0.544138 0.422981,-0.805366 0.136811,-0.261227 0.308781,-0.586471 0.382155,-0.722764 0.07337,-0.136293 0.376108,-0.731024 0.672744,-1.321626 0.296635,-0.590602 0.579351,-1.116427 0.628258,-1.168502 0.112835,-0.120143 0.117079,-0.118684 0.837626,0.287853 1.320438,0.745001 1.789591,0.923369 2.255955,0.857699 0.270083,-0.03803 0.458123,-0.254552 0.458123,-0.527508 0,-0.313071 -0.18831,-0.607671 -0.598534,-0.936371 -0.478252,-0.383209 -1.06039,-0.907436 -1.456181,-1.31132 -0.354087,-0.361328 -0.423334,-0.453061 -0.423334,-0.560805 0,-0.160314 0.115498,-0.45186 0.724025,-1.8276226 0.265449,-0.600131 0.564825,-1.2955859 0.665281,-1.5454558 0.100455,-0.2498699 0.199063,-0.4840171 0.219128,-0.5203271 0.02006,-0.03631 0.104674,-0.230753 0.18802,-0.4320957 0.171127,-0.4133996 0.286862,-0.5963577 0.37724,-0.5963577 0.06247,0 0.455704,0.7808143 0.626759,1.2445048 0.109444,0.2966755 0.445903,1.0605212 1.061828,2.4106171 0.165808,0.363447 0.398373,0.874545 0.516812,1.135772 0.118438,0.261228 0.806478,1.65513 1.528977,3.097561 1.187857,2.371493 1.451336,2.885842 2.041619,3.985529 0.878311,1.636275 1.589819,2.989826 1.715106,3.262764 0.07299,0.159008 0.170137,0.369481 0.215882,0.467717 0.0597,0.128197 0.07055,0.191237 0.03845,0.223339 -0.0321,0.0321 -0.06114,0.03111 -0.102868,-0.0035 -0.07715,-0.06403 -0.894932,-0.21257 -1.170299,-0.21257 -0.303568,0 -0.480523,0.09481 -0.591425,0.316868 -0.186796,0.374024 0.02211,0.730782 0.661814,1.130212 0.791705,0.494338 1.538918,1.019839 2.290323,1.610741 0.454309,0.357266 0.866527,0.69357 0.916041,0.747341 0.08787,0.09543 0.839243,1.501453 0.839243,1.57046 0,0.05675 -0.09481,0.03962 -0.227154,-0.04104 -0.06815,-0.04153 -0.281878,-0.145766 -0.47496,-0.231631 -0.193081,-0.08587 -0.83508,-0.385204 -1.426664,-0.665197 -1.577553,-0.746646 -3.057917,-1.309498 -4.396751,-1.671699 -0.193081,-0.05223 -0.416105,-0.124575 -0.495609,-0.160756 l -0.144553,-0.06578 -0.02698,-1.011629 c -0.0164,-0.614947 -0.05312,-1.165482 -0.09364,-1.403987 -0.342706,-2.017364 -1.370531,-3.436229 -2.709874,-3.740856 -0.339544,-0.07723 -1.070344,-0.06327 -1.382187,0.0264 -0.490969,0.14118 -1.026681,0.512451 -1.412736,0.979085 -0.265745,0.321212 -0.66622,1.072027 -0.838388,1.571818 -0.249055,0.722987 -0.376226,1.673723 -0.369442,2.761961 0.0041,0.658195 -0.0027,0.73347 -0.0728,0.803554 -0.04716,0.04716 -0.390874,0.164145 -0.880924,0.299833 -0.441978,0.122377 -0.840767,0.236331 -0.886197,0.253231 -1.75509,0.652883 -3.2030874,1.279465 -4.9598326,2.146233 -0.4023747,0.198529 -0.4143193,0.202603 -0.4456187,0.151959 z"
         id="path87" />
      <path
         style="fill:#2c5ea4;stroke-width:0.0413008"
         d="m 4.7341837,29.059627 c -0.067769,-0.06777 -0.062195,-0.219214 0.013451,-0.365498 0.090089,-0.174211 0.1085931,-0.15038 0.038185,0.04918 -0.093185,0.264115 0.054955,0.381242 0.3344738,0.264451 0.2120346,-0.08859 0.2757944,-0.07674 0.1012399,0.01883 -0.1642007,0.0899 -0.4135867,0.106803 -0.4873497,0.03304 z M 28.226087,28.773108 c -0.352089,-0.18153 -0.77026,-0.407371 -0.929268,-0.501869 -0.159008,-0.0945 -0.797642,-0.427837 -1.419186,-0.740754 -0.621545,-0.312916 -1.109159,-0.568939 -1.083586,-0.568939 0.02557,0 0.07877,0.01798 0.11821,0.03996 0.03944,0.02198 0.434131,0.214273 0.877082,0.427321 0.442952,0.213047 1.268204,0.641361 1.833894,0.951808 1.168507,0.641269 1.384026,0.734583 1.491192,0.645643 0.05292,-0.04392 0.06473,-0.09921 0.04807,-0.225134 -0.02014,-0.15228 -0.01689,-0.159887 0.03702,-0.08675 0.07199,0.09766 0.07696,0.277799 0.0095,0.345228 -0.111495,0.111495 -0.340397,0.04477 -0.98296,-0.286519 z M 5.3867366,28.902684 c 0,-0.02272 0.019682,-0.0413 0.043738,-0.0413 0.024056,0 0.032252,0.01858 0.018213,0.0413 -0.014039,0.02272 -0.033721,0.0413 -0.043738,0.0413 -0.010017,0 -0.018213,-0.01859 -0.018213,-0.0413 z m 0.1466179,-0.07736 c 0.02158,-0.01983 0.178626,-0.110196 0.3489919,-0.200806 0.1703659,-0.09061 0.5699513,-0.309805 0.8879675,-0.487098 0.5768338,-0.321584 1.6830863,-0.869975 2.3851221,-1.182352 0.039752,-0.01769 0.072276,-0.02229 0.072276,-0.01023 0,0.01206 -0.421868,0.227859 -0.9374843,0.479545 -0.5156164,0.251686 -1.0313603,0.513277 -1.1460976,0.581313 -0.1947967,0.11551 -0.3811573,0.215926 -1.2532292,0.675278 -0.3339052,0.175879 -0.437252,0.217602 -0.3575468,0.144347 z M 28.729791,27.878509 c -0.14159,-0.265817 -0.35291,-0.659865 -0.469598,-0.875662 -0.254875,-0.471351 -0.203338,-0.44729 0.08846,0.0413 0.223902,0.374903 0.677024,1.279217 0.653007,1.303234 -0.0079,0.0079 -0.130279,-0.203055 -0.27187,-0.468873 z M 5.1802326,27.855829 c 0,-0.03764 0.2326177,-0.470167 0.6808592,-1.26599 0.1855173,-0.329374 0.4547687,-0.808533 0.5983363,-1.064797 0.1435676,-0.256264 0.2792757,-0.47721 0.3015735,-0.490991 0.022298,-0.01378 -0.017595,0.07973 -0.08865,0.207805 -0.071055,0.128073 -0.1881429,0.339727 -0.2601942,0.470341 -1.1791599,2.137569 -1.2319245,2.229383 -1.2319248,2.143632 z m 1.4501011,-0.916574 c 0.1846988,-0.391561 0.5438023,-1.074735 0.7372559,-1.402587 0.040211,-0.06815 0.1385803,-0.244707 0.2185991,-0.392358 0.080019,-0.14765 0.3913695,-0.714504 0.6918902,-1.259674 0.3005206,-0.545171 0.6209427,-1.13061 0.7120494,-1.300976 0.091106,-0.170366 0.1884333,-0.346927 0.2162828,-0.392358 0.027849,-0.04543 0.3713629,-0.677333 0.7633642,-1.404227 0.3920017,-0.726895 0.7266277,-1.340212 0.7436147,-1.362927 0.01699,-0.02272 0.105229,-0.180691 0.196093,-0.351057 1.188454,-2.228291 1.47702,-2.781566 2.164857,-4.150732 0.59447,-1.183313 0.732079,-1.424694 0.812272,-1.424804 0.0565,-8.3e-5 0.314395,0.137665 0.730857,0.390354 0.457566,0.277628 1.360268,0.715189 1.656485,0.802937 0.569745,0.168775 0.899195,0.08354 1.057126,-0.273485 0.122184,-0.276217 0.05501,-0.574805 -0.196581,-0.873804 -0.102946,-0.122344 -0.579953,-0.534411 -1.030607,-0.890298 -0.306253,-0.241852 -1.133783,-1.059795 -1.199929,-1.186028 -0.07514,-0.14339 -0.03938,-0.245774 0.560242,-1.6042214 0.85581,-1.9388389 0.9181,-2.0817449 0.971398,-2.228598 0.165194,-0.4551575 0.530888,-1.1167679 0.617275,-1.1167679 0.03612,0 0.389294,0.7504493 0.592821,1.2596748 0.163038,0.407923 0.480467,1.127297 1.047895,2.3747965 0.160149,0.35209 0.421964,0.928236 0.581813,1.280325 0.159848,0.35209 0.304234,0.658748 0.320857,0.681464 0.01662,0.02271 0.563822,1.108671 1.215998,2.413234 0.652176,1.304563 1.320365,2.624124 1.484865,2.932358 0.164501,0.308233 0.40685,0.764863 0.538555,1.014733 0.131704,0.24987 0.305024,0.575114 0.385153,0.722764 1.070066,1.97175 1.535407,2.905401 1.47713,2.963679 -0.01976,0.01976 -0.365418,-0.03547 -0.98646,-0.157635 -0.551015,-0.10839 -0.972709,0.19577 -0.927256,0.66881 0.03391,0.352947 0.170788,0.488727 1.043302,1.034964 0.7412,0.464028 1.178791,0.778647 2.091254,1.503562 0.689711,0.547947 0.850974,0.696765 0.973768,0.898622 0.195308,0.321058 0.641026,1.228401 0.615816,1.25361 -0.01095,0.01095 -0.157005,-0.04694 -0.324576,-0.128627 -0.16757,-0.08169 -0.317243,-0.148529 -0.332606,-0.148529 -0.01536,0 -0.590458,-0.266789 -1.27799,-0.592863 -0.687531,-0.326075 -1.43591,-0.66293 -1.663065,-0.748566 -0.227154,-0.08564 -0.468764,-0.180813 -0.53691,-0.211503 -0.488664,-0.220071 -1.302571,-0.495111 -2.142187,-0.723901 -0.360447,-0.09822 -0.682189,-0.198201 -0.714983,-0.22218 -0.04828,-0.0353 -0.06241,-0.228121 -0.07425,-1.012862 -0.01826,-1.209915 -0.101292,-1.772016 -0.381124,-2.579995 -0.22155,-0.639702 -0.750295,-1.538188 -1.096614,-1.86346 -0.333712,-0.313431 -0.764047,-0.561131 -1.237039,-0.712038 -0.340553,-0.108652 -1.042441,-0.122081 -1.407741,-0.02693 -0.816477,0.212666 -1.47461,0.776341 -1.958585,1.677483 -0.56562,1.053161 -0.822856,2.29294 -0.789272,3.803987 0.01114,0.501155 0.0025,0.61852 -0.04927,0.67048 -0.03452,0.03464 -0.261503,0.118788 -0.504402,0.186993 -0.420903,0.118187 -0.549419,0.152115 -0.950636,0.250959 -0.09654,0.02378 -0.291687,0.08883 -0.433658,0.144553 -0.141972,0.05572 -0.383581,0.149011 -0.536911,0.207314 -0.153329,0.0583 -0.343829,0.13199 -0.423333,0.16375 -0.0795,0.03176 -0.358285,0.140468 -0.619512,0.241573 -0.5332186,0.206378 -0.7816925,0.318407 -1.8172361,0.81933 -0.3975204,0.192292 -0.908618,0.430135 -1.1357724,0.528539 -0.2271545,0.0984 -0.449668,0.203561 -0.4944743,0.233682 -0.1803323,0.121224 -0.1753323,0.04223 0.024088,-0.380536 z m 2.8073244,-0.116667 c 0.00946,-0.0083 0.063672,-0.03718 0.1204609,-0.06423 0.097357,-0.04637 0.098675,-0.04551 0.023082,0.01506 -0.065792,0.05271 -0.2002206,0.09876 -0.1435429,0.04917 z M 23.961778,26.618773 c -0.06247,-0.02468 -0.113577,-0.06036 -0.113577,-0.07927 0,-0.0284 0.226901,0.06496 0.285664,0.117538 0.03015,0.02698 -0.05475,0.0081 -0.172087,-0.03827 z M 9.9030634,26.602835 c 0.036604,-0.0366 0.3291336,-0.1374 0.3469766,-0.119558 0.01409,0.01409 -0.3012665,0.147863 -0.3485832,0.147863 -0.014684,0 -0.013961,-0.01274 0.00161,-0.0283 z M 27.91101,26.37301 c -0.05867,-0.113479 -0.05952,-0.126039 -0.0055,-0.08125 0.05797,0.04808 0.128384,0.215476 0.09064,0.215476 -0.0086,0 -0.04695,-0.0604 -0.08512,-0.134227 z m -4.393215,0.05163 c -0.03407,-0.02202 -0.04337,-0.04004 -0.02065,-0.04004 0.02272,0 0.06918,0.01802 0.103252,0.04004 0.03407,0.02202 0.04337,0.04003 0.02065,0.04003 -0.02272,0 -0.06918,-0.01801 -0.103252,-0.04003 z M 22.79503,26.170418 c -0.113577,-0.04648 -0.250898,-0.101743 -0.305159,-0.122806 -0.05426,-0.02106 -0.09016,-0.04679 -0.07978,-0.05717 0.02226,-0.02226 0.573517,0.181863 0.630678,0.233528 0.06288,0.05683 -0.0203,0.03871 -0.24574,-0.05355 z m 4.916045,-0.148465 c -0.112191,-0.218603 -0.111457,-0.21683 -0.08982,-0.21683 0.01076,0 0.0663,0.08364 0.123433,0.185854 0.05713,0.10222 0.09083,0.185854 0.07487,0.185854 -0.01595,0 -0.06477,-0.06969 -0.108489,-0.154878 z m -16.31507,0.0044 c 0.09086,-0.03499 0.202374,-0.08002 0.247805,-0.100065 0.273331,-0.120586 1.080747,-0.370935 1.181526,-0.366346 0.07898,0.0036 -0.08711,0.06727 -0.479412,0.183809 -0.181724,0.05398 -0.488229,0.154924 -0.681124,0.224316 -0.35616,0.128125 -0.571224,0.17476 -0.268795,0.05829 z M 21.909952,25.83396 c -0.123346,-0.04721 -0.205716,-0.09201 -0.183046,-0.09957 0.02267,-0.0076 0.160761,0.03224 0.306867,0.08843 0.146106,0.05619 0.228477,0.101 0.183046,0.09957 -0.04543,-0.0014 -0.183521,-0.04122 -0.306867,-0.08843 z m -0.760125,-0.214996 c -0.109822,-0.03018 -0.212041,-0.06734 -0.227155,-0.08259 -0.03778,-0.03811 0.244357,0.0172 0.435424,0.08536 0.199842,0.07129 0.05418,0.06936 -0.208269,-0.0028 z m -8.047582,-0.131159 c 0.02981,-0.01193 0.06544,-0.01046 0.07916,0.0033 0.01372,0.01372 -0.01067,0.02349 -0.05421,0.02169 -0.04811,-0.002 -0.0579,-0.01177 -0.02495,-0.02495 z m 0.193598,-0.05439 c 0.04543,-0.01952 0.110479,-0.03652 0.144553,-0.03777 0.05507,-0.002 0.05507,0.0022 0,0.03777 -0.03407,0.02202 -0.09912,0.03901 -0.144553,0.03777 l -0.0826,-0.0023 0.0826,-0.0355 z M 26.57222,24.728309 c -0.282934,-0.228801 -0.699041,-0.558692 -0.924682,-0.73309 -0.51746,-0.399946 -0.739977,-0.611332 -0.704296,-0.669066 0.03728,-0.06031 0.220627,-0.02044 0.581402,0.126427 0.569511,0.231845 0.753223,0.201924 0.704434,-0.114728 l -0.02393,-0.15533 0.05869,0.123902 c 0.08778,0.185318 0.07513,0.277346 -0.05981,0.435219 -0.06722,0.07865 -0.12291,0.180163 -0.123748,0.225594 -0.0031,0.169246 0.249404,0.473157 0.700281,0.842775 0.230817,0.189218 0.369822,0.334298 0.320299,0.334298 -0.0078,0 -0.245704,-0.1872 -0.528638,-0.416001 z M 14.315764,24.256343 c 8.43e-4,-0.06815 0.0101,-0.09103 0.02057,-0.05084 0.01047,0.04018 0.0098,0.09594 -0.0015,0.123902 -0.01131,0.02796 -0.01988,-0.0049 -0.01904,-0.07306 z m 5.382968,-0.22342 c 0.01034,-0.100166 0.02823,-0.191544 0.03974,-0.203063 0.03286,-0.03286 0.01657,0.167476 -0.02292,0.28193 -0.02686,0.07784 -0.031,0.05843 -0.01683,-0.07887 z m -5.425799,-0.623247 c 0,-0.05679 0.0094,-0.08002 0.02083,-0.05163 0.01146,0.02839 0.01146,0.07486 0,0.103252 -0.01146,0.02839 -0.02083,0.0052 -0.02083,-0.05163 z M 7.7028982,23.285774 c 0.060209,-0.126423 0.079286,-0.149854 0.079286,-0.09738 0,0.02216 -0.028903,0.07637 -0.06423,0.120461 -0.060563,0.07559 -0.061422,0.07428 -0.015056,-0.02308 z M 19.703074,22.981969 c -0.0172,-0.201166 -0.02257,-0.374463 -0.01193,-0.385104 0.02687,-0.02687 0.08063,0.575553 0.05999,0.672213 -0.0092,0.04326 -0.03086,-0.08594 -0.04807,-0.287109 z M 7.9121777,22.893416 c 0.081331,-0.187622 0.2000841,-0.378175 0.2002583,-0.321338 1.694e-4,0.05563 -0.1494367,0.33882 -0.2134004,0.40394 -0.022312,0.02272 -0.016398,-0.01446 0.013142,-0.0826 z M 25.982509,22.776928 c -0.440056,-0.814854 -0.694996,-1.317106 -0.656462,-1.293292 0.02478,0.01532 0.07136,0.07859 0.103518,0.140601 0.03215,0.06202 0.126582,0.233561 0.209837,0.381212 0.225744,0.400349 0.495215,0.948814 0.475739,0.96829 -0.0094,0.0094 -0.06909,-0.07916 -0.132632,-0.196811 z M 19.593914,22.30488 c -0.323642,-1.619417 -1.086867,-2.74915 -2.1154,-3.131235 -0.297557,-0.110539 -0.272601,-0.130776 0.04497,-0.03647 0.887583,0.263584 1.667391,1.306729 2.025119,2.708987 0.09274,0.363533 0.147777,0.696194 0.115182,0.696194 -0.01233,0 -0.04377,-0.106866 -0.06987,-0.237479 z M 8.1882816,22.36683 c 0.045335,-0.07383 0.2582866,-0.459472 0.4732252,-0.856992 0.5576114,-1.031282 0.7299262,-1.336582 0.7809071,-1.383577 0.040222,-0.03708 -0.4324381,0.891068 -0.5047802,0.991219 -0.025491,0.03529 -0.4009698,0.719185 -0.6745925,1.228699 -0.045746,0.08518 -0.099827,0.154878 -0.1201807,0.154878 -0.020354,0 8.68e-5,-0.0604 0.045421,-0.134227 z m 6.3880434,-0.918943 c 0.106868,-0.495659 0.574908,-1.319143 0.985308,-1.733582 0.26923,-0.27188 0.66374,-0.554557 0.709745,-0.508553 0.01034,0.01034 -0.08802,0.09158 -0.218566,0.180547 -0.508176,0.346297 -0.922347,0.892413 -1.279084,1.686568 -0.123265,0.274407 -0.212096,0.443166 -0.197403,0.37502 z m 10.5109,-0.351057 c -0.0486,-0.09527 -0.08108,-0.180492 -0.07218,-0.189394 0.0089,-0.0089 0.05854,0.05917 0.110301,0.15127 0.05176,0.0921 0.08424,0.177328 0.07218,0.189394 -0.01206,0.01207 -0.0617,-0.05601 -0.110302,-0.15127 z m -0.323713,-0.58284 c -0.07578,-0.12135 -0.136336,-0.292899 -0.09419,-0.266852 0.04476,0.02766 0.182916,0.313734 0.161741,0.334908 -0.0085,0.0085 -0.03888,-0.02214 -0.06755,-0.06806 z M 9.4755173,20.03953 c 0,-0.02272 0.015905,-0.05896 0.035343,-0.08054 0.019439,-0.02158 0.1333591,-0.225089 0.2531558,-0.452244 0.2929649,-0.555509 0.4200809,-0.771366 0.4415849,-0.749862 0.01889,0.01889 -0.6266237,1.217191 -0.6920582,1.284708 -0.023974,0.02474 -0.038026,0.02397 -0.038026,-0.0021 z M 24.019362,19.083416 c -0.04507,-0.105319 -0.04405,-0.107748 0.01402,-0.03341 0.03444,0.04409 0.06262,0.0952 0.06262,0.113577 0,0.06277 -0.02802,0.03347 -0.07664,-0.08017 z M 10.246561,18.631252 c 0.04536,-0.126523 0.229178,-0.430243 0.248621,-0.4108 0.02431,0.02431 -0.180195,0.426441 -0.233691,0.459503 -0.02524,0.0156 -0.03111,-0.0036 -0.01493,-0.0487 z M 23.660649,18.40953 c -0.01497,-0.02423 -0.01837,-0.05291 -0.0075,-0.06373 0.01082,-0.01083 0.03069,0.009 0.04414,0.04405 0.02793,0.07278 0.0041,0.08558 -0.0366,0.01968 z m -13.11131,-0.318414 c 0,-0.05009 0.162636,-0.339651 0.190772,-0.339651 0.01624,0 -0.140949,0.33042 -0.175199,0.368266 -0.0086,0.0095 -0.01557,-0.0034 -0.01557,-0.02862 z m 12.065665,-1.646268 c -0.04961,-0.110706 -0.04855,-0.113903 0.01668,-0.05004 0.03833,0.03752 0.06218,0.09074 0.053,0.118262 -0.0092,0.02752 -0.04053,-0.0032 -0.06968,-0.06822 z M 22.50858,16.235441 c -0.02241,-0.05886 -0.01767,-0.06361 0.02312,-0.02312 0.02823,0.02802 0.04091,0.06134 0.0282,0.07406 -0.01272,0.01272 -0.03581,-0.01021 -0.05132,-0.05094 z M 11.559127,16.120083 c 0.07556,-0.184846 0.320627,-0.60384 0.341167,-0.583299 0.01628,0.01628 -0.314528,0.64976 -0.36931,0.707201 -0.02166,0.02272 -0.009,-0.03304 0.02814,-0.123902 z m 10.562517,-0.650488 c -0.04469,-0.07382 -0.09392,-0.180691 -0.109403,-0.23748 -0.01879,-0.06893 0.0043,-0.04834 0.06957,0.06195 0.10414,0.176073 0.1633,0.309757 0.137082,0.309757 -0.0088,0 -0.05255,-0.0604 -0.09725,-0.134228 z M 12.036168,15.234553 c 0,-0.02138 0.01837,-0.05022 0.04083,-0.0641 0.02341,-0.01447 0.03034,0.0021 0.01623,0.03886 -0.02746,0.07155 -0.05706,0.08464 -0.05706,0.02523 z m 0.167089,-0.312194 c 0.0025,-0.06451 0.159641,-0.33666 0.161586,-0.279779 9.54e-4,0.02785 -0.03537,0.11148 -0.08072,0.185854 -0.04535,0.07437 -0.08174,0.116641 -0.08087,0.09393 z m 9.471261,-0.336267 c -0.139621,-0.30822 -0.139968,-0.309268 -0.09262,-0.280009 0.05776,0.0357 0.215398,0.388758 0.186487,0.417668 -0.01193,0.01193 -0.05416,-0.05002 -0.09386,-0.137659 z m -9.17106,-0.29357 c 0.0098,-0.01704 0.14196,-0.286525 0.293643,-0.598862 0.251689,-0.518266 0.367886,-0.717918 0.273797,-0.470447 -0.06735,0.177141 -0.539311,1.100284 -0.562527,1.100284 -0.01252,0 -0.01473,-0.01394 -0.0049,-0.03097 z m 8.931301,-0.204723 c -0.02241,-0.05886 -0.01767,-0.06361 0.02312,-0.02312 0.02823,0.02802 0.04092,0.06134 0.0282,0.07406 -0.01272,0.01272 -0.03581,-0.01021 -0.05132,-0.05094 z m -0.08016,-0.158256 c -0.03985,-0.103859 -0.0281,-0.130657 0.02059,-0.04693 0.02411,0.04146 0.03513,0.08407 0.0245,0.09471 -0.01063,0.01063 -0.03092,-0.01086 -0.04509,-0.04778 z m -6.265423,-0.69465 c -0.163791,-0.08547 -0.86011,-0.513748 -1.090752,-0.670873 -0.229813,-0.156561 -0.32928,-0.171998 -0.470571,-0.07303 -0.09313,0.06523 -0.09467,0.06461 -0.0495,-0.01978 0.02942,-0.05498 0.130917,-0.111616 0.275186,-0.153556 0.268883,-0.07817 0.320529,-0.163574 0.260492,-0.430778 -0.02178,-0.09692 -0.03276,-0.183055 -0.02441,-0.191406 0.0084,-0.0084 0.0782,0.06323 0.155216,0.159069 0.07702,0.09584 0.372843,0.413008 0.657388,0.704821 0.284544,0.291813 0.541179,0.575807 0.570299,0.631097 0.05009,0.09512 0.04676,0.100515 -0.06195,0.100275 -0.06319,-1.24e-4 -0.162821,-0.02526 -0.221396,-0.05583 z m 5.110781,-1.582182 c -0.01514,-0.01514 -0.02753,-0.04674 -0.02753,-0.07021 0,-0.02588 0.01924,-0.02344 0.04887,0.0062 0.02688,0.02688 0.03927,0.05847 0.02753,0.07021 -0.01174,0.01174 -0.03373,0.0089 -0.04887,-0.0062 z m -0.08683,-0.208164 c -0.02241,-0.05886 -0.01767,-0.06361 0.02312,-0.02312 0.02822,0.02802 0.04092,0.06134 0.0282,0.07406 -0.01272,0.01272 -0.03581,-0.01021 -0.05132,-0.05094 z m -0.160404,-0.323673 c -0.04012,-0.08413 -0.06423,-0.161688 -0.05357,-0.172344 0.02776,-0.02776 0.157147,0.23342 0.14045,0.283509 -0.0077,0.02299 -0.04676,-0.02703 -0.08688,-0.111165 z m -0.293904,-0.667547 c -0.02241,-0.05886 -0.01767,-0.0636 0.02312,-0.02312 0.02823,0.02802 0.04091,0.06134 0.0282,0.07406 -0.01272,0.01272 -0.03581,-0.01021 -0.05132,-0.05094 z M 19.47031,10.028213 C 19.446,9.982782 19.4354,9.945611 19.44675,9.945611 c 0.01136,0 0.04054,0.037171 0.06486,0.082602 0.02431,0.04543 0.03492,0.0826 0.02356,0.0826 -0.01136,0 -0.04054,-0.03717 -0.06486,-0.0826 z M 14.626321,9.7797645 c 0.02326,-0.088943 0.0944,-0.1550903 0.0944,-0.087773 0,0.070438 -0.0489,0.1710184 -0.08315,0.1710184 -0.01816,0 -0.02322,-0.03746 -0.01125,-0.083245 z M 19.330864,9.71686 c -0.03985,-0.1038587 -0.0281,-0.1306571 0.02059,-0.046932 0.02411,0.041456 0.03513,0.084074 0.0245,0.094708 C 19.365324,9.77527 19.345034,9.75377 19.330864,9.71686 Z M 14.747086,9.5119527 c 0.01308,-0.034073 0.03108,-0.061951 0.04001,-0.061951 0.0089,0 0.01623,0.027878 0.01623,0.061951 0,0.034073 -0.018,0.061951 -0.04001,0.061951 -0.022,0 -0.02931,-0.027878 -0.01623,-0.061951 z m 4.365773,-0.2495862 c -0.01345,-0.035053 -0.01523,-0.072961 -0.0039,-0.08424 0.01128,-0.011279 0.03042,0.0174 0.04254,0.063732 0.02574,0.098417 -0.0029,0.113614 -0.03859,0.020507 z M 14.970023,9.0060177 c 0.07729,-0.2153903 0.267039,-0.588347 0.299387,-0.5884416 0.01783,-4.13e-5 0.01506,0.032429 -0.0062,0.072181 -0.02122,0.039752 -0.096,0.1977277 -0.166182,0.351057 -0.128068,0.279813 -0.203249,0.3775732 -0.127046,0.1652032 z m 4.010624,-0.041301 c -0.02105,-0.039752 -0.06903,-0.1466179 -0.106641,-0.2374797 -0.05579,-0.1347881 -0.05711,-0.1537976 -0.0072,-0.103252 0.03366,0.034073 0.08812,0.140939 0.121007,0.2374797 0.06211,0.1823067 0.05892,0.2281287 -0.0072,0.103252 z m -0.24914,-0.557561 c -0.04096,-0.1228025 -0.03955,-0.1274037 0.01661,-0.054057 0.03376,0.044094 0.06138,0.104496 0.06138,0.1342277 0,0.092099 -0.03124,0.059984 -0.07799,-0.080171 z M 18.498162,7.8948782 c -0.07923,-0.1738543 -0.135302,-0.3248475 -0.12461,-0.3355403 0.01069,-0.010693 0.06834,0.089734 0.128093,0.223172 0.15036,0.3357472 0.185252,0.4284672 0.161239,0.4284672 -0.01137,0 -0.08549,-0.1422445 -0.164722,-0.3160989 z m -3.07442,0.1207501 c -0.001,-0.058357 0.306465,-0.8415486 0.392602,-0.9999214 0.100529,-0.1848333 0.0654,-0.043564 -0.08045,0.3235093 -0.186389,0.469104 -0.311029,0.7391918 -0.31215,0.6764121 z M 18.286843,7.40383 c -0.01345,-0.035053 -0.01523,-0.072961 -0.0039,-0.08424 0.01128,-0.011279 0.03042,0.017401 0.04254,0.063732 0.02574,0.098417 -0.0029,0.113614 -0.03859,0.020507 z M 18.167164,7.1303044 C 18.150462,7.0776815 18.082537,6.913659 18.016219,6.7658099 17.949902,6.6179608 17.879068,6.4598226 17.858811,6.4143917 17.732824,6.1318439 17.609437,5.8041042 17.623685,5.7898559 c 0.0092,-0.0092 0.111212,0.2019021 0.226699,0.4691099 0.346436,0.8015665 0.393175,0.9209894 0.369653,0.9445106 -0.01238,0.012378 -0.03617,-0.020549 -0.05287,-0.073172 z M 15.962663,6.668569 c -0.0016,-0.041926 0.02398,-0.1255603 0.05686,-0.1858537 0.03288,-0.060293 0.129222,-0.3038095 0.214099,-0.5411469 0.08488,-0.2373374 0.160843,-0.4119595 0.168814,-0.3880492 0.0153,0.045903 -0.211155,0.6908377 -0.353035,1.0054253 -0.04638,0.1028439 -0.08512,0.1518066 -0.08674,0.1096245 z m 0.493388,-1.2784234 c -0.0013,-0.060622 0.128966,-0.2847375 0.152054,-0.2616486 0.01252,0.012516 -0.01642,0.083939 -0.0643,0.1587161 -0.04788,0.074778 -0.08737,0.1210971 -0.08775,0.1029325 z m 0.275978,-0.5245344 c 0.06435,-0.1186059 0.105376,-0.1468248 0.22858,-0.1572101 0.12194,-0.010279 0.159555,0.00524 0.200169,0.082602 0.04861,0.092583 0.04772,0.093229 -0.03153,0.022983 -0.120887,-0.1071557 -0.226236,-0.089032 -0.357941,0.061579 l -0.117704,0.1346 z"
         id="path85" />
      <path
         style="fill:#0a2c5b;stroke-width:0.0413008"
         d="M 7.205023,26.673491 C 7.1030715,26.571539 7.0626811,26.417446 7.0991981,26.269758 c 0.041254,-0.166847 0.2529851,-0.577401 0.9105615,-1.76561 0.1634247,-0.295301 0.3949445,-0.722764 0.514488,-0.949919 0.1195436,-0.227154 0.2313242,-0.431593 0.2484013,-0.454309 0.017077,-0.02272 0.2445215,-0.431593 0.5054315,-0.908618 0.6151649,-1.124712 0.6848328,-1.252909 1.0548996,-1.941138 0.171001,-0.318016 0.416752,-0.764065 0.546113,-0.991219 0.129362,-0.227155 0.347243,-0.62674 0.48418,-0.887968 0.479351,-0.914432 1.451526,-2.794417 1.825235,-3.529628 0.207389,-0.408003 0.426312,-0.79322 0.486495,-0.856038 0.136801,-0.142789 0.344518,-0.213702 0.519275,-0.177277 0.07375,0.01537 0.487207,0.210077 0.918801,0.432679 0.776221,0.40035 1.346487,0.620546 1.602538,0.618788 0.186365,-0.0013 0.44651,-0.129476 0.576688,-0.284183 0.371275,-0.441236 0.182035,-0.848721 -0.775751,-1.670402 -0.981817,-0.842297 -1.30147,-1.168651 -1.431263,-1.461269 -0.0546,-0.123093 -0.06123,-0.197571 -0.03163,-0.355128 0.03261,-0.173528 0.312714,-0.865438 0.646606,-1.5972167 0.05701,-0.124935 0.186983,-0.4223008 0.28884,-0.660813 0.101857,-0.2385122 0.229771,-0.5172927 0.284252,-0.6195122 0.05448,-0.1022196 0.162165,-0.3438293 0.239295,-0.5369106 0.362369,-0.9071196 0.429077,-1.0325203 0.549257,-1.0325203 0.03127,0 0.06788,0.032524 0.08135,0.072276 0.01348,0.039752 0.09555,0.230252 0.182372,0.4233333 0.08682,0.1930813 0.211893,0.4997399 0.277929,0.6814634 0.114917,0.3162373 1.202104,2.7706981 1.609845,3.6344271 0.238053,0.504273 2.666648,5.347202 2.941016,5.86476 0.108377,0.204439 0.383494,0.72483 0.611372,1.156423 0.227878,0.431594 0.545584,1.026325 0.706014,1.321626 0.705177,1.298009 0.83494,1.609485 0.773126,1.855772 -0.04368,0.174015 -0.194825,0.238061 -0.635279,0.269183 -0.463836,0.03278 -0.671769,0.11393 -0.785413,0.306543 -0.117215,0.198664 -0.137336,0.329566 -0.08685,0.564995 0.05983,0.278957 0.22066,0.452905 0.684143,0.739921 0.906974,0.561654 1.516755,0.985923 2.160076,1.502925 1.121196,0.901044 1.268258,1.070921 1.228955,1.419616 -0.0516,0.457773 -0.304642,0.410236 -1.894254,-0.35586 -0.651179,-0.313828 -2.65819,-1.078003 -3.215767,-1.224412 -0.713187,-0.187268 -1.00188,-0.305882 -1.096699,-0.450595 -0.05669,-0.08651 -0.07566,-0.271667 -0.102891,-1.004153 -0.03266,-0.87855 -0.120104,-1.562398 -0.262698,-2.054504 -0.03291,-0.113577 -0.08139,-0.280846 -0.107722,-0.371707 -0.07698,-0.265597 -0.448476,-1.007489 -0.665952,-1.329943 -0.215512,-0.319543 -0.545573,-0.679677 -0.778998,-0.849978 -0.220909,-0.161168 -0.808938,-0.442681 -0.924681,-0.442681 -0.05663,0 -0.114451,-0.01859 -0.12849,-0.0413 -0.01509,-0.02441 -0.266473,-0.0413 -0.614715,-0.0413 -0.519659,0 -0.624942,0.01216 -0.89214,0.10304 -0.604483,0.205598 -1.0535,0.530169 -1.423538,1.029002 -0.541401,0.729841 -0.898731,1.624285 -1.096796,2.745429 -0.02562,0.145007 -0.06103,0.677093 -0.0787,1.182414 -0.02998,0.857434 -0.03829,0.927427 -0.124525,1.048535 -0.122121,0.171504 -0.331965,0.257844 -1.159343,0.477013 -0.14765,0.03911 -0.547236,0.174168 -0.887968,0.300125 -0.340731,0.125956 -0.731024,0.2703 -0.867317,0.320764 -0.6527215,0.241676 -1.0013185,0.389409 -1.6124744,0.683353 -0.3644057,0.175267 -0.7949842,0.37679 -0.9568412,0.44783 -0.3467322,0.152181 -0.5920949,0.168564 -0.7130484,0.04761 z"
         id="path83" />
      <path
         style="fill:#000103;stroke-width:0.0413008"
         d="m 7.4130678,26.460079 c -0.1833257,-0.195024 -0.1045557,-0.389487 0.8842901,-2.183086 0.3819656,-0.692821 0.8058,-1.464113 0.9418539,-1.713983 0.136054,-0.24987 0.2937029,-0.537944 0.3503309,-0.640163 0.056628,-0.10222 0.3491575,-0.641195 0.6500653,-1.197724 0.300907,-0.556528 0.694998,-1.281357 0.875756,-1.610731 0.180758,-0.329374 0.47387,-0.877643 0.651361,-1.218374 0.177491,-0.340732 0.401348,-0.768195 0.497459,-0.949919 0.09611,-0.181724 0.412219,-0.795041 0.702462,-1.362927 0.605452,-1.184619 0.727297,-1.386063 0.900116,-1.48815 0.252233,-0.148998 0.414217,-0.111626 1.191178,0.274821 0.393773,0.195856 0.808878,0.388003 0.922456,0.426995 0.113577,0.03899 0.238586,0.08771 0.277797,0.108269 0.03921,0.02056 0.207755,0.04144 0.37454,0.04642 0.292467,0.0087 0.311869,0.0032 0.545786,-0.156613 0.133396,-0.09111 0.276607,-0.226639 0.318246,-0.301172 0.0848,-0.15179 0.106492,-0.540553 0.03946,-0.707152 -0.04968,-0.123483 -0.645883,-0.740658 -0.936316,-0.969258 -0.113577,-0.0894 -0.433968,-0.388612 -0.711978,-0.664922 -0.50913,-0.506017 -0.668795,-0.739173 -0.670692,-0.9794 -0.0015,-0.190143 0.233061,-0.819379 0.611498,-1.6404039 0.227915,-0.4944649 0.46122,-1.0526747 0.461318,-1.1037609 4.2e-5,-0.027824 0.06515,-0.1710651 0.144651,-0.3183126 0.0795,-0.1472475 0.144553,-0.2882739 0.144553,-0.313392 0,-0.043931 0.154504,-0.3973724 0.273238,-0.6250532 0.03144,-0.060294 0.05717,-0.1402042 0.05717,-0.1775795 0,-0.092869 0.11672,-0.3116579 0.166264,-0.3116579 0.02213,0 0.04025,0.05111 0.04027,0.1135772 1.8e-5,0.062468 0.05771,0.2343821 0.128201,0.3820325 0.148538,0.3111186 0.366875,0.9007118 0.367172,0.9915066 1.65e-4,0.053189 0.181172,0.4781032 0.527656,1.2387373 0.04656,0.1022196 0.158478,0.353122 0.248701,0.557561 0.09022,0.2044394 0.210869,0.4739264 0.268104,0.5988614 0.05724,0.124935 0.200782,0.440887 0.318994,0.702114 0.327386,0.723466 2.891713,5.837091 3.344842,6.670082 0.06178,0.113577 0.21984,0.410943 0.351234,0.660813 0.131396,0.249869 0.336534,0.630869 0.455864,0.846666 0.370231,0.669527 0.844637,1.623797 0.88974,1.789716 0.05913,0.217521 0.01407,0.388411 -0.120321,0.456303 -0.06058,0.0306 -0.260897,0.07861 -0.445158,0.106695 -0.42127,0.0642 -0.625566,0.175975 -0.756952,0.414152 -0.191262,0.34672 -0.100005,0.81181 0.216501,1.103401 0.09535,0.08784 0.610113,0.449475 1.143926,0.803633 0.533813,0.354157 1.007932,0.678693 1.053599,0.72119 0.04567,0.0425 0.175763,0.150579 0.289105,0.24018 0.47744,0.377436 1.014233,0.864373 1.092526,0.991054 0.190218,0.30778 0.04437,0.497848 -0.309405,0.403227 -0.165783,-0.04434 -0.678117,-0.26195 -1.258508,-0.534541 -0.248087,-0.116519 -1.129712,-0.467229 -2.056972,-0.818264 -0.324936,-0.123012 -0.826741,-0.290861 -1.115122,-0.372999 -0.610406,-0.173859 -0.91429,-0.32158 -0.990717,-0.481598 -0.07881,-0.165013 -0.131809,-0.538687 -0.1333,-0.939872 -0.0065,-1.736951 -0.58755,-3.385606 -1.519828,-4.31199 -0.308889,-0.306936 -0.462774,-0.414311 -0.863134,-0.602257 -0.402654,-0.189022 -0.563972,-0.216795 -1.291984,-0.22243 -0.681232,-0.0053 -0.681579,-0.0052 -1.021696,0.131763 -0.401344,0.161651 -0.786906,0.409727 -1.038535,0.668208 -0.830902,0.853531 -1.405787,2.357055 -1.471453,3.848365 -0.01233,0.279945 -0.03292,0.680709 -0.04577,0.890587 -0.03821,0.624263 -0.145564,0.719704 -1.131398,1.005866 -0.610896,0.177328 -2.220582,0.772923 -2.8769717,1.0645 -0.2005196,0.08907 -0.6365893,0.285535 -0.9690431,0.436581 -0.7281273,0.330815 -0.8552387,0.359755 -0.9830284,0.223811 z"
         id="path81" />
    </g>
  </g>
</svg>
