<?xml version="1.0" encoding="UTF-8" standalone="no"?>
<!-- Created with Inkscape (http://www.inkscape.org/) -->

<svg
   xmlns:dc="http://purl.org/dc/elements/1.1/"
   xmlns:cc="http://creativecommons.org/ns#"
   xmlns:rdf="http://www.w3.org/1999/02/22-rdf-syntax-ns#"
   xmlns:svg="http://www.w3.org/2000/svg"
   xmlns="http://www.w3.org/2000/svg"
   xmlns:sodipodi="http://sodipodi.sourceforge.net/DTD/sodipodi-0.dtd"
   xmlns:inkscape="http://www.inkscape.org/namespaces/inkscape"
   width="128"
   height="128"
   viewBox="0 0 128 128"
   id="svg2"
   version="1.1"
   inkscape:version="0.91 r13725"
   sodipodi:docname="os_chrome.svg"
   inkscape:export-xdpi="90"
   inkscape:export-ydpi="90">
  <defs
     id="defs4">
    <linearGradient
       y2="110"
       x2="48.470699"
       y1="40.996201"
       x1="48.470699"
       gradientUnits="userSpaceOnUse"
       id="b-8">
      <stop
         id="stop26-4"
         style="stop-color:#50B848"
         offset="0.35" />
      <stop
         id="stop28-5"
         style="stop-color:#409A3C"
         offset="1" />
    </linearGradient>
    <radialGradient
       gradientUnits="userSpaceOnUse"
       r="34.9823"
       cy="45.313202"
       cx="65.405602"
       id="a-9">
      <stop
         id="stop37-9"
         style="stop-color:#F04E37"
         offset="0.25" />
      <stop
         id="stop39-1"
         style="stop-color:#EE3135"
         offset="1" />
    </radialGradient>
    <linearGradient
       y2="110"
       x2="87"
       y1="46.75"
       x1="87"
       gradientUnits="userSpaceOnUse"
       id="c-4">
      <stop
         id="stop15-4"
         style="stop-color:#FFDE17"
         offset="0.35" />
      <stop
         id="stop17-4"
         style="stop-color:#D5B718"
         offset="1" />
    </linearGradient>
    <linearGradient
       id="d-7"
       gradientUnits="userSpaceOnUse"
       x1="64"
       y1="50.3438"
       x2="64"
       y2="77.656303">
      <stop
         offset="0"
         style="stop-color:#6DCFF6"
         id="stop52-1" />
      <stop
         offset="1"
         style="stop-color:#1C75BC"
         id="stop54-0" />
    </linearGradient>
  </defs>
  <sodipodi:namedview
     id="base"
     pagecolor="#ffffff"
     bordercolor="#666666"
     borderopacity="1.0"
     inkscape:pageopacity="0.0"
     inkscape:pageshadow="2"
     inkscape:zoom="7.919596"
     inkscape:cx="44.442087"
     inkscape:cy="62.256967"
     inkscape:document-units="px"
     inkscape:current-layer="layer1"
     showgrid="false"
     units="px"
     inkscape:window-width="1366"
     inkscape:window-height="713"
     inkscape:window-x="0"
     inkscape:window-y="27"
     inkscape:window-maximized="1" />
  <metadata
     id="metadata7">
    <rdf:RDF>
      <cc:Work
         rdf:about="">
        <dc:format>image/svg+xml</dc:format>
        <dc:type
           rdf:resource="http://purl.org/dc/dcmitype/StillImage" />
        <dc:title />
        <dc:creator>
          <cc:Agent>
            <dc:title />
          </cc:Agent>
        </dc:creator>
        <dc:publisher>
          <cc:Agent>
            <dc:title />
          </cc:Agent>
        </dc:publisher>
        <cc:license
           rdf:resource="" />
      </cc:Work>
    </rdf:RDF>
  </metadata>
  <g
     inkscape:groupmode="layer"
     id="layer4"
     inkscape:label="Layer 4"
     style="display:inline">
    <g
       transform="matrix(0.575,0,0,0.575,8.8001065,8.7998568)"
       id="g4192"
       style="display:inline">
      <circle
         transform="matrix(-0.5,0.8660254,-0.8660254,-0.5,0,0)"
         r="40"
         cy="-131.13719"
         cx="35.137997"
         id="path4279-0"
         style="display:inline;fill:#f9f9f9;fill-opacity:1;stroke:none" />
      <path
         inkscape:connector-curvature="0"
         id="circle4206-3"
         d="m 95.999134,55.999002 6e-6,5.000011 a 35,35 0 0 1 34.99999,35.000002 35,35 0 0 1 -4.7168,17.484365 l 0.0274,0.0156 -35.921875,62.21875 a 80,80 0 0 0 5.611297,0.28131 80,80 0 0 0 80.000028,-80.000045 80,80 0 0 0 -10.83202,-39.999997 l -69.168009,1.9e-5 z"
         style="display:inline;fill:#ffce41;fill-opacity:1;stroke:none" />
      <path
         inkscape:connector-curvature="0"
         id="path4247-6"
         d="M 94.11046,16.020483 A 80,80 0 0 0 55.999134,26.717759 80,80 0 0 0 26.774544,56.098623 l 34.583967,59.900387 4.33008,-2.49999 a 35,35 0 0 1 12.81054,-47.810566 35,35 0 0 1 17.500007,-4.658205 l 1e-5,-0.03118 71.843722,2.4e-5 a 80,80 0 0 0 -2.56251,-5 80,80 0 0 0 -71.169887,-39.978545 z"
         style="display:inline;fill:#dc4c3d;fill-opacity:1;stroke:none" />
      <path
         inkscape:connector-curvature="0"
         id="path4238-3"
         d="m 29.766712,51.28025 a 80,80 0 0 0 -3.048845,4.718744 80,80 0 0 0 29.281271,109.281246 80,80 0 0 0 40.056635,10.6192 l 34.583977,-59.90043 -4.33007,-2.5 A 35,35 0 0 1 78.499132,126.30957 35,35 0 0 1 65.715935,113.4834 l -0.02737,0.0156 -35.921857,-62.218734 z"
         style="display:inline;fill:#119f5b;fill-opacity:1;stroke:none" />
      <path
         id="rect4259-0"
         d="m 132.00705,115.63398 -5.19616,-3 -36.436519,63.10991 a 80,80 0 0 0 6.835803,0.16004 l 34.796876,-60.26995 z"
         style="display:inline;fill:#ffce41;fill-opacity:1;stroke:none"
         inkscape:connector-curvature="0" />
    </g>
    <path
       style="display:inline;fill:#000000;fill-opacity:0.03137255;stroke:none"
       d="m 64.000107,43.874861 10e-7,23.999997 36.000002,-24.000002 -36.000003,5e-6 z"
       id="rect4836-4-8"
       inkscape:connector-curvature="0" />
    <path
       style="display:inline;fill:#000000;fill-opacity:0.03137255;stroke:none"
       d="M 81.427866,74.061393 60.643259,62.061395 63.427869,105.23831 81.427866,74.061393 Z"
       id="rect4836-4-8-3"
       inkscape:connector-curvature="0" />
    <path
       style="display:inline;fill:#000000;fill-opacity:0.03137255;stroke:none"
       d="M 46.571795,74.061206 67.356402,62.061207 28.571792,42.884293 46.571795,74.061206 Z"
       id="rect4836-4-8-5"
       inkscape:connector-curvature="0" />
  </g>
  <g
     inkscape:groupmode="layer"
     id="layer1"
     inkscape:label="Layer 5"
     style="display:inline">
    <circle
       style="display:inline;fill:#f9f9f9;fill-opacity:1;stroke:none"
       id="path5172"
       cx="64"
       cy="64.000496"
       r="20.125" />
    <circle
       style="display:inline;fill:#4587f3;fill-opacity:1;stroke:none"
       id="path4975"
       cx="64"
       cy="64.000496"
       r="16.674999" />
  </g>
</svg>
