<?xml version="1.0" encoding="UTF-8" standalone="no"?>
<!-- Created with Inkscape (http://www.inkscape.org/) -->

<svg
   xmlns:dc="http://purl.org/dc/elements/1.1/"
   xmlns:cc="http://creativecommons.org/ns#"
   xmlns:rdf="http://www.w3.org/1999/02/22-rdf-syntax-ns#"
   xmlns:svg="http://www.w3.org/2000/svg"
   xmlns="http://www.w3.org/2000/svg"
   xmlns:sodipodi="http://sodipodi.sourceforge.net/DTD/sodipodi-0.dtd"
   xmlns:inkscape="http://www.inkscape.org/namespaces/inkscape"
   width="128"
   height="128"
   viewBox="0 0 128 128"
   id="svg4168"
   version="1.1"
   inkscape:version="0.91 r13725"
   sodipodi:docname="os_cent.svg"
   inkscape:export-xdpi="90"
   inkscape:export-ydpi="90">
  <defs
     id="defs4170" />
  <sodipodi:namedview
     id="base"
     pagecolor="#ffffff"
     bordercolor="#666666"
     borderopacity="1.0"
     inkscape:pageopacity="0.0"
     inkscape:pageshadow="2"
     inkscape:zoom="1.979899"
     inkscape:cx="-23.277132"
     inkscape:cy="92.639532"
     inkscape:document-units="px"
     inkscape:current-layer="layer2"
     showgrid="false"
     units="px"
     inkscape:window-width="1366"
     inkscape:window-height="713"
     inkscape:window-x="0"
     inkscape:window-y="27"
     inkscape:window-maximized="1" />
  <metadata
     id="metadata4173">
    <rdf:RDF>
      <cc:Work
         rdf:about="">
        <dc:format>image/svg+xml</dc:format>
        <dc:type
           rdf:resource="http://purl.org/dc/dcmitype/StillImage" />
        <dc:title />
        <dc:creator>
          <cc:Agent>
            <dc:title />
          </cc:Agent>
        </dc:creator>
        <dc:publisher>
          <cc:Agent>
            <dc:title />
          </cc:Agent>
        </dc:publisher>
        <cc:license
           rdf:resource="" />
      </cc:Work>
    </rdf:RDF>
  </metadata>
  <g
     inkscape:groupmode="layer"
     id="layer6"
     inkscape:label="Layer 3"
     style="display:inline">
    <rect
       style="fill:#b3b3be;fill-opacity:1"
       id="rect4155"
       width="70"
       height="70"
       x="29"
       y="29" />
    <rect
       style="display:inline;fill:#b3b3be;fill-opacity:1"
       id="rect4155-0"
       width="70"
       height="70"
       x="-35"
       y="55.509666"
       transform="matrix(0.70710678,-0.70710678,0.70710678,0.70710678,0,0)" />
    <rect
       style="fill:#f2f2f2;fill-opacity:1"
       id="rect4172"
       width="24"
       height="24"
       x="52"
       y="52" />
  </g>
  <g
     inkscape:groupmode="layer"
     id="layer2"
     inkscape:label="Layer 2"
     style="display:inline">
    <path
       style="display:inline;fill:#f2f2f2;fill-opacity:1;stroke:none;stroke-width:16;stroke-miterlimit:4;stroke-dasharray:none;stroke-opacity:1"
       d="M 63.999994,112.0833 86.627411,89.455881 63.999994,66.828464 41.372577,89.455881 63.999994,112.0833 Z"
       id="path4188-1"
       inkscape:connector-curvature="0" />
    <path
       style="display:inline;fill:#f2f2f2;fill-opacity:1;stroke:none;stroke-width:16;stroke-miterlimit:4;stroke-dasharray:none;stroke-opacity:1"
       d="M 38.54415,86.627454 61.171567,64.000037 38.54415,41.37262 15.916727,64.000038 38.54415,86.627454 Z"
       id="path4186-1"
       inkscape:connector-curvature="0" />
    <path
       style="display:inline;fill:#f2f2f2;fill-opacity:1;stroke:none;stroke-width:16;stroke-miterlimit:4;stroke-dasharray:none;stroke-opacity:1"
       d="M 89.455837,86.627455 112.08328,64.00001 89.455865,41.372593 66.82842,64.000038 89.455837,86.627455 Z"
       id="path4184-6"
       inkscape:connector-curvature="0" />
    <path
       style="display:inline;fill:#f2f2f2;fill-opacity:1;stroke:none;stroke-width:16;stroke-miterlimit:4;stroke-dasharray:none;stroke-opacity:1"
       d="M 63.999993,61.171611 86.627438,38.544166 64.000021,15.916744 41.372576,38.544194 63.999993,61.171611 Z"
       id="rect4146-2"
       inkscape:connector-curvature="0" />
    <path
       inkscape:connector-curvature="0"
       style="display:inline;fill:#87bf14;fill-opacity:1;stroke:none;stroke-width:16;stroke-miterlimit:4;stroke-dasharray:none;stroke-opacity:1"
       d="M 63.999993,109.25487 83.798984,89.455881 63.999994,69.656893 44.201003,89.455882 63.999993,109.25487 Z"
       id="path4188-0-31" />
    <path
       inkscape:connector-curvature="0"
       style="display:inline;fill:#9b28b7;fill-opacity:1;stroke:none;stroke-width:16;stroke-miterlimit:4;stroke-dasharray:none;stroke-opacity:1"
       d="M 38.544149,83.799028 58.34314,64.000037 38.54415,44.201047 18.745157,64.000038 38.544149,83.799028 Z"
       id="path4188-0-1-6" />
    <path
       inkscape:connector-curvature="0"
       style="display:inline;fill:#ffce41;fill-opacity:1;stroke:none;stroke-width:16;stroke-miterlimit:4;stroke-dasharray:none;stroke-opacity:1"
       d="M 63.999993,58.343183 83.799011,38.544166 64.000021,18.745174 44.201003,38.544194 63.999993,58.343183 Z"
       id="path4188-0-2-7" />
    <path
       inkscape:connector-curvature="0"
       style="display:inline;fill:#2c5aa0;fill-opacity:1;stroke:none;stroke-width:16;stroke-miterlimit:4;stroke-dasharray:none;stroke-opacity:1"
       d="M 89.455837,83.799028 109.25485,64.00001 89.455865,44.20102 69.656847,64.000038 l 19.79899,19.79899 z"
       id="path4188-0-3-1" />
  </g>
  <g
     inkscape:label="Layer 1"
     inkscape:groupmode="layer"
     id="layer1"
     transform="translate(0,-924.36216)"
     style="display:inline">
    <path
       style="display:inline;fill:#f2f2f2;fill-opacity:1;stroke:none;stroke-width:16;stroke-miterlimit:4;stroke-dasharray:none;stroke-opacity:1"
       d="m 30.000002,954.36216 0,32 32,0 0,-32 -32,0 z"
       id="path4188"
       inkscape:connector-curvature="0" />
    <path
       style="display:inline;fill:#f2f2f2;fill-opacity:1;stroke:none;stroke-width:16;stroke-miterlimit:4;stroke-dasharray:none;stroke-opacity:1"
       d="m 66.000002,954.36216 0,32 32,0 0,-32 -32,0 z"
       id="path4186"
       inkscape:connector-curvature="0" />
    <path
       style="display:inline;fill:#f2f2f2;fill-opacity:1;stroke:none;stroke-width:16;stroke-miterlimit:4;stroke-dasharray:none;stroke-opacity:1"
       d="m 30.000002,990.36216 0,32.00004 32,0 0,-32.00004 -32,0 z"
       id="path4184"
       inkscape:connector-curvature="0" />
    <path
       style="display:inline;fill:#f2f2f2;fill-opacity:1;stroke:none;stroke-width:16;stroke-miterlimit:4;stroke-dasharray:none;stroke-opacity:1"
       d="m 66.000002,990.36216 0,32.00004 32,0 0,-32.00004 -32,0 z"
       id="rect4146"
       inkscape:connector-curvature="0" />
    <path
       inkscape:connector-curvature="0"
       style="display:inline;fill:#87bf14;fill-opacity:1;stroke:none;stroke-width:16;stroke-miterlimit:4;stroke-dasharray:none;stroke-opacity:1"
       d="m 32.000002,956.36216 0,28 28,0 0,-28 -28,0 z"
       id="path4188-0" />
    <path
       inkscape:connector-curvature="0"
       style="display:inline;fill:#9b28b7;fill-opacity:1;stroke:none;stroke-width:16;stroke-miterlimit:4;stroke-dasharray:none;stroke-opacity:1"
       d="m 68.000002,956.36216 0,28 28,0 0,-28 -28,0 z"
       id="path4188-0-1" />
    <path
       inkscape:connector-curvature="0"
       style="display:inline;fill:#ffce41;fill-opacity:1;stroke:none;stroke-width:16;stroke-miterlimit:4;stroke-dasharray:none;stroke-opacity:1"
       d="m 68.000002,992.36216 0,28.00004 28,0 0,-28.00004 -28,0 z"
       id="path4188-0-2" />
    <path
       inkscape:connector-curvature="0"
       style="display:inline;fill:#2c5aa0;fill-opacity:1;stroke:none;stroke-width:16;stroke-miterlimit:4;stroke-dasharray:none;stroke-opacity:1"
       d="m 32.000002,992.36216 0,28.00004 28,0 0,-28.00004 -28,0 z"
       id="path4188-0-3" />
  </g>
  <g
     inkscape:groupmode="layer"
     id="layer4"
     inkscape:label="Layer 4"
     style="display:inline">
    <path
       style="display:inline;fill:#f2f2f2;fill-opacity:1;stroke:none;stroke-width:16;stroke-miterlimit:4;stroke-dasharray:none;stroke-opacity:1"
       d="M 64.000002,15.916018 41.373049,38.544924 64.000002,61.171877 86.626955,38.544924 64.000002,15.916018 Z m 0,2.830078 L 83.79883,38.544924 64.000002,58.343752 44.201174,38.544924 64.000002,18.746096 Z M 38.544924,41.373049 15.916018,64.000002 38.544924,86.626955 61.171877,64.000002 38.544924,41.373049 Z m 50.910156,0 L 66.828127,64.000002 89.45508,86.626955 112.08398,64.000002 89.45508,41.373049 Z M 38.544924,44.201174 58.343752,64.000002 38.544924,83.79883 18.746096,64.000002 38.544924,44.201174 Z m 50.910156,0 19.79883,19.798828 L 89.45508,83.79883 69.656252,64.000002 89.45508,44.201174 Z M 64.000002,66.828127 41.373049,89.45508 64.000002,112.08398 86.626955,89.45508 64.000002,66.828127 Z m 0,2.828125 L 83.79883,89.45508 64.000002,109.25391 44.201174,89.45508 64.000002,69.656252 Z"
       id="path4188-1-3"
       inkscape:connector-curvature="0" />
  </g>
</svg>
