<?xml version="1.0" encoding="UTF-8" standalone="no"?>
<!-- Created with Inkscape (http://www.inkscape.org/) -->

<svg
   xmlns:dc="http://purl.org/dc/elements/1.1/"
   xmlns:cc="http://creativecommons.org/ns#"
   xmlns:rdf="http://www.w3.org/1999/02/22-rdf-syntax-ns#"
   xmlns:svg="http://www.w3.org/2000/svg"
   xmlns="http://www.w3.org/2000/svg"
   xmlns:sodipodi="http://sodipodi.sourceforge.net/DTD/sodipodi-0.dtd"
   xmlns:inkscape="http://www.inkscape.org/namespaces/inkscape"
   width="128"
   height="128"
   viewBox="0 0 128 128"
   id="svg2"
   version="1.1"
   inkscape:version="0.91 r13725"
   sodipodi:docname="os_deepin.svg"
   inkscape:export-xdpi="90"
   inkscape:export-ydpi="90">
  <defs
     id="defs4">
    <linearGradient
       id="g1"
       gradientUnits="userSpaceOnUse"
       x1="64"
       y1="18"
       x2="64"
       y2="110">
      <stop
         offset="0"
         style="stop-color:#00B9F2"
         id="stop11-7" />
      <stop
         offset="0.9212"
         style="stop-color:#1a59a6;stop-opacity:1"
         id="stop13-1" />
    </linearGradient>
  </defs>
  <sodipodi:namedview
     id="base"
     pagecolor="#ffffff"
     bordercolor="#666666"
     borderopacity="1.0"
     inkscape:pageopacity="0.0"
     inkscape:pageshadow="2"
     inkscape:zoom="7.919596"
     inkscape:cx="74.674384"
     inkscape:cy="80.755384"
     inkscape:document-units="px"
     inkscape:current-layer="layer2"
     showgrid="false"
     units="px"
     inkscape:window-width="1366"
     inkscape:window-height="713"
     inkscape:window-x="0"
     inkscape:window-y="27"
     inkscape:window-maximized="1" />
  <metadata
     id="metadata7">
    <rdf:RDF>
      <cc:Work
         rdf:about="">
        <dc:format>image/svg+xml</dc:format>
        <dc:type
           rdf:resource="http://purl.org/dc/dcmitype/StillImage" />
        <dc:title />
        <dc:creator>
          <cc:Agent>
            <dc:title />
          </cc:Agent>
        </dc:creator>
        <dc:publisher>
          <cc:Agent>
            <dc:title />
          </cc:Agent>
        </dc:publisher>
        <cc:license
           rdf:resource="" />
      </cc:Work>
    </rdf:RDF>
  </metadata>
  <g
     inkscape:label="Layer 1"
     inkscape:groupmode="layer"
     id="layer1"
     transform="translate(0,-924.36216)">
    <circle
       style="color:#000000;clip-rule:nonzero;display:inline;overflow:visible;visibility:visible;opacity:1;isolation:auto;mix-blend-mode:normal;color-interpolation:sRGB;color-interpolation-filters:linearRGB;solid-color:#000000;solid-opacity:1;fill:#008cff;fill-opacity:1;fill-rule:nonzero;stroke:none;stroke-width:2;stroke-linecap:butt;stroke-linejoin:miter;stroke-miterlimit:4;stroke-dasharray:none;stroke-dashoffset:0;stroke-opacity:1;color-rendering:auto;image-rendering:auto;shape-rendering:auto;text-rendering:auto;enable-background:accumulate"
       id="path4691"
       cx="988.36218"
       cy="-64"
       r="46"
       transform="matrix(0,1,-1,0,0,0)" />
  </g>
  <g
     inkscape:groupmode="layer"
     id="layer2"
     inkscape:label="Layer 2"
     style="display:inline">
    <path
       d="M 97.9,37.3 C 97.4,37.2 97,37.2 96.5,37.1 93.3,36.7 87.8,36.7 82.1,37.3 76.781529,38.12121 67.830995,39.435795 64.662928,44.103141 64.010096,47.984759 63.608797,49.514015 62.5,52.1 c -1.115673,2.426269 -2.7,4.8 -5.2,6.2 -0.2,-1 -0.2,-1.8 -0.2,-2.2 -0.3,-5.8 3,-11 8.4,-16.9 5.4,-5.8 10.3,-9.5 17.1,-14 -5.7,-2.7 -12,-4.3 -18.8,-4.3 -1.3,0 -2.6,0.1 -3.9,0.2 -3,6.5 -5.9,14.2 -8.2,22.6 -1.6,5.8 -3.4,14.3 0.9,21 0.8,1.2 3.8,5.9 8.8,6.3 4,0.3 7.1,-2.2 7.9,-2.9 2.7,-2.2 3.6,-4.8 4.5,-7.2 1.7,-4.6 1.4,-8.1 0.7,-14.9 -0.1,-0.9 -0.2,-1.7 -0.3,-2.4 0.9,0.1 1.7,0.2 2.6,0.5 0.2,0.9 0.5,1.9 0.7,3.2 0.6,2.8 1.1,5.6 1.1,9 0,3.4 -0.1,7.4 -2.3,11.5 -0.8,1.4 -4.1,6.8 -10.6,8.4 -6.3,1.6 -11.5,-1.3 -14,-2.7 -6.5,-3.6 -9.4,-8.9 -12.9,-15.3 0,0 -5.4,-9.8 -7.5,-22.5 -6.4,7.6 -10.4,17.5 -10.4,28.3 0,6.6 1.5,12.8 4.1,18.3 5.2,1.6 15.8,4.3 28.8,3.5 13.9,-0.8 19.4,-4.9 21.2,-6.3 1.6,-1.3 6.1,-4.9 8.1,-11 2.8,-8.5 -0.7,-18 -3.7,-23.7 3.2,1.6 5.3,4.3 6.1,5.3 2.2,2.9 3,5.7 3.8,8.4 1.6,5.6 1.4,10.6 1.1,13.8 -0.4,2.7 -1,7 -3.4,11.7 -2.5,5 -6.4,9 -12.8,13.3 -6.3,4.2 -12.8,7.1 -18.3,9 2.6,0.5 5.3,0.8 8.1,0.8 23.8,0 43.1,-19.3 43.1,-43.1 0,-10.1 -3.4,-19.3 -9.2,-26.7 z M 71.5,52.8 c 0,1.4 -0.1,4 -1.4,6.8 -0.8,1.8 -1.7,3.8 -4,4.9 -0.3,0.1 -2.7,1.2 -5,0.2 -1.2,-0.5 -2,-1.5 -2.6,-2.6 2,-0.8 3.6,-1.984327 5.4,-4.1 3.573996,-4.20078 4.584327,-10.710596 4.1,-13.8 0.9,-0.2 1.8,-0.4 2.9,-0.6 0.687148,3.208823 0.681137,6.503671 0.6,9.2 z"
       id="path17"
       inkscape:connector-curvature="0"
       style="fill:#f2f2f2;fill-opacity:1;stroke:none"
       sodipodi:nodetypes="cccccccccsccccccccccscccccscccccccccccssccccccsccc" />
  </g>
</svg>
