<?xml version="1.0" encoding="UTF-8" standalone="no"?>
<!-- Created with Inkscape (http://www.inkscape.org/) -->

<svg
   xmlns:dc="http://purl.org/dc/elements/1.1/"
   xmlns:cc="http://creativecommons.org/ns#"
   xmlns:rdf="http://www.w3.org/1999/02/22-rdf-syntax-ns#"
   xmlns:svg="http://www.w3.org/2000/svg"
   xmlns="http://www.w3.org/2000/svg"
   xmlns:sodipodi="http://sodipodi.sourceforge.net/DTD/sodipodi-0.dtd"
   xmlns:inkscape="http://www.inkscape.org/namespaces/inkscape"
   width="128"
   height="128"
   viewBox="0 0 128 128"
   id="svg4295"
   version="1.1"
   inkscape:version="0.91 r13725"
   sodipodi:docname="os_elementary.svg"
   inkscape:export-xdpi="90"
   inkscape:export-ydpi="90">
  <defs
     id="defs4297">
    <filter
       style="color-interpolation-filters:sRGB;"
       inkscape:label="Drop Shadow"
       id="filter4227">
      <feFlood
         flood-opacity="0.25098"
         flood-color="rgb(0,0,0)"
         result="flood"
         id="feFlood4229" />
      <feComposite
         in="flood"
         in2="SourceGraphic"
         operator="in"
         result="composite1"
         id="feComposite4231" />
      <feGaussianBlur
         in="composite1"
         stdDeviation="2"
         result="blur"
         id="feGaussianBlur4233" />
      <feOffset
         dx="1"
         dy="2"
         result="offset"
         id="feOffset4235" />
      <feComposite
         in="SourceGraphic"
         in2="offset"
         operator="over"
         result="composite2"
         id="feComposite4237" />
    </filter>
    <filter
       style="color-interpolation-filters:sRGB;"
       inkscape:label="Drop Shadow"
       id="filter4239">
      <feFlood
         flood-opacity="0.25098"
         flood-color="rgb(0,0,0)"
         result="flood"
         id="feFlood4241" />
      <feComposite
         in="flood"
         in2="SourceGraphic"
         operator="in"
         result="composite1"
         id="feComposite4243" />
      <feGaussianBlur
         in="composite1"
         stdDeviation="2"
         result="blur"
         id="feGaussianBlur4245" />
      <feOffset
         dx="1"
         dy="2"
         result="offset"
         id="feOffset4247" />
      <feComposite
         in="SourceGraphic"
         in2="offset"
         operator="over"
         result="composite2"
         id="feComposite4249" />
    </filter>
  </defs>
  <sodipodi:namedview
     id="base"
     pagecolor="#ffffff"
     bordercolor="#666666"
     borderopacity="1.0"
     inkscape:pageopacity="0.0"
     inkscape:pageshadow="2"
     inkscape:zoom="1.979899"
     inkscape:cx="77.782137"
     inkscape:cy="62.972671"
     inkscape:document-units="px"
     inkscape:current-layer="layer1"
     showgrid="false"
     units="px"
     inkscape:window-width="1366"
     inkscape:window-height="713"
     inkscape:window-x="0"
     inkscape:window-y="27"
     inkscape:window-maximized="1" />
  <metadata
     id="metadata4300">
    <rdf:RDF>
      <cc:Work
         rdf:about="">
        <dc:format>image/svg+xml</dc:format>
        <dc:type
           rdf:resource="http://purl.org/dc/dcmitype/StillImage" />
        <dc:title />
      </cc:Work>
    </rdf:RDF>
  </metadata>
  <g
     inkscape:label="Layer 1"
     inkscape:groupmode="layer"
     id="layer1"
     transform="translate(0,-924.36216)">
    <circle
       style="fill:#01a4f4;fill-opacity:1;stroke:none;stroke-width:1;stroke-linecap:round;stroke-linejoin:miter;stroke-miterlimit:4;stroke-dasharray:none;stroke-opacity:1;"
       id="path4225"
       cx="64"
       cy="988.36218"
       r="46" />
    <g
       id="g4137"
       style="">
      <path
         sodipodi:nodetypes="cccccccccccccccccccccsccccccccccsccc"
         d="m 102.25652,975.39693 c -1.18696,2.55652 -3.286955,6.4826 -6.482607,10.95652 -4.291304,6.11739 -15.156522,21.45655 -30.952174,23.00875 -5.478261,0.5478 -9.130435,-0.8217 -10.043478,-1.0957 -1.278261,-0.4565 -2.465218,-1.0956 -3.56087,-1.7347 3.652174,-2.0087 8.4,-5.1131 13.421739,-9.58702 3.378261,-3.01307 7.578261,-6.84785 11.230435,-13.14785 2.739131,-4.74783 3.469565,-8.03479 3.743478,-9.22174 0.456522,-2.64783 1.278261,-7.03044 -0.730434,-11.77826 C 78.334783,961.51867 76.6,957.68388 72.4,955.40127 c -3.469565,-1.91739 -6.732537,-1.96535 -9.015146,-1.78274 -7.030434,0.45652 -11.984854,4.43057 -14.267463,6.16535 -7.578261,5.84348 -10.591304,13.69565 -11.686956,17.62174 -1.004348,3.28696 -2.647826,9.31305 -0.730435,16.61739 0.365217,1.55218 2.008696,7.21309 6.482609,12.05219 -3.56087,1.2783 -8.491305,2.7392 -14.608696,3.287 l 3.104348,4.5652 c 3.743478,-0.8217 8.856522,-2.1913 14.517391,-4.7478 0.0913,0 0.182609,-0.091 0.365218,-0.1826 0.821739,0.6391 1.643478,1.1869 2.647826,1.7348 4.930434,2.8304 9.586956,3.013 11.686956,3.1043 6.391305,0.2739 11.139131,-1.7348 14.06087,-3.013 7.304348,-3.1957 11.778261,-7.7609 16.069565,-12.23482 3.56087,-3.74353 8.217391,-10.59135 12.600003,-18.99135 z m -59.986955,20.63475 c -2.191304,-5.29562 -1.643478,-10.04345 -1.278261,-13.1478 0.730435,-5.75217 2.830435,-9.76956 4.017392,-12.05217 1.369565,-2.64783 3.286956,-6.11739 6.93913,-9.22174 2.465217,-2.1 7.873949,-4.91707 12.542355,-5.00742 2.411803,0.0337 6.31854,0.36521 8.615864,2.58554 3.878117,3.76747 3.863807,8.77489 3.955111,10.69228 0.182609,4.2 -1.556808,7.79916 -2.65246,10.17308 -1.095653,2.37391 -3.013044,6.11739 -8.673913,11.50435 -3.286957,3.19565 -9.039131,8.5827 -17.895653,12.6914 -3.560869,-3.6522 -5.295652,-7.48702 -5.569565,-8.21752 z"
         id="path14"
         inkscape:connector-curvature="0"
         style="fill:#f2f2f2;fill-opacity:1;stroke:none;" />
      <path
         id="path4136-1"
         d="M 64.000001,946.36212 A 42,42 0 0 0 22,988.36212 42,42 0 0 0 64.000001,1030.3622 42,42 0 0 0 106,988.36212 a 42,42 0 0 0 -42,-42 z m 0,4 a 38,38 0 0 1 37.999999,38 38,38 0 0 1 -38,38.00008 38,38 0 0 1 -38,-38.00008 38,38 0 0 1 38,-38 z"
         style="fill:#f2f2f2;fill-opacity:1;stroke:none;stroke-width:0;stroke-linecap:round;stroke-linejoin:round;stroke-miterlimit:4;stroke-dasharray:none;stroke-opacity:1;"
         inkscape:connector-curvature="0" />
    </g>
  </g>
</svg>
