<?xml version="1.0" encoding="UTF-8" standalone="no"?>
<!-- Created with Inkscape (http://www.inkscape.org/) -->

<svg
   xmlns:dc="http://purl.org/dc/elements/1.1/"
   xmlns:cc="http://creativecommons.org/ns#"
   xmlns:rdf="http://www.w3.org/1999/02/22-rdf-syntax-ns#"
   xmlns:svg="http://www.w3.org/2000/svg"
   xmlns="http://www.w3.org/2000/svg"
   xmlns:sodipodi="http://sodipodi.sourceforge.net/DTD/sodipodi-0.dtd"
   xmlns:inkscape="http://www.inkscape.org/namespaces/inkscape"
   width="128"
   height="128"
   viewBox="0 0 128 128"
   id="svg2"
   version="1.1"
   inkscape:version="0.91 r13725"
   sodipodi:docname="os_freebsd.svg"
   inkscape:export-xdpi="90"
   inkscape:export-ydpi="90">
  <defs
     id="defs4">
    <linearGradient
       id="c-5"
       gradientUnits="userSpaceOnUse"
       x1="39.567699"
       y1="-62.572498"
       x2="73.974403"
       y2="-28.1658"
       gradientTransform="matrix(0.6428,-0.766,0.766,0.6428,32.7164,113.7844)">
      <stop
         offset="0.3333"
         style="stop-color:#B11116"
         id="stop15-2" />
      <stop
         offset="1"
         style="stop-color:#EF4136"
         id="stop17-3" />
    </linearGradient>
    <radialGradient
       gradientUnits="userSpaceOnUse"
       r="41.749901"
       cy="66"
       cx="62.792198"
       id="a-7">
      <stop
         id="stop24-0"
         style="stop-color:#9E0B0F"
         offset="0.3656" />
      <stop
         id="stop26-0"
         style="stop-color:#B11116"
         offset="0.6828" />
      <stop
         id="stop28-1"
         style="stop-color:#ED1C24"
         offset="0.9194" />
      <stop
         id="stop30-3"
         style="stop-color:#FFFFFF"
         offset="1" />
    </radialGradient>
    <linearGradient
       id="d-2"
       gradientUnits="userSpaceOnUse"
       x1="35.215199"
       y1="93.577202"
       x2="89.074402"
       y2="39.717899">
      <stop
         offset="0"
         style="stop-color:#EF4136"
         id="stop41-2" />
      <stop
         offset="1"
         style="stop-color:#B11116"
         id="stop43-6" />
    </linearGradient>
    <linearGradient
       id="b-8"
       gradientUnits="userSpaceOnUse"
       x1="73.222099"
       y1="-1.9605"
       x2="111.8761"
       y2="-5.3422999"
       gradientTransform="matrix(0.6428,0.766,-0.766,0.6428,31.6594,-34.5351)">
      <stop
         offset="0"
         style="stop-color:#EF4136"
         id="stop52-2" />
      <stop
         offset="0.7527"
         style="stop-color:#B11116"
         id="stop54-4" />
    </linearGradient>
    <radialGradient
       gradientUnits="userSpaceOnUse"
       r="41.749901"
       cy="66"
       cx="62.792198"
       id="a-7-9">
      <stop
         id="stop24-0-2"
         style="stop-color:#9E0B0F"
         offset="0.3656" />
      <stop
         id="stop26-0-7"
         style="stop-color:#B11116"
         offset="0.6828" />
      <stop
         id="stop28-1-0"
         style="stop-color:#ED1C24"
         offset="0.9194" />
      <stop
         id="stop30-3-7"
         style="stop-color:#FFFFFF"
         offset="1" />
    </radialGradient>
  </defs>
  <sodipodi:namedview
     id="base"
     pagecolor="#ffffff"
     bordercolor="#666666"
     borderopacity="1.0"
     inkscape:pageopacity="0.0"
     inkscape:pageshadow="2"
     inkscape:zoom="2.100234"
     inkscape:cx="84.914675"
     inkscape:cy="86.95956"
     inkscape:document-units="px"
     inkscape:current-layer="layer5"
     showgrid="false"
     units="px"
     inkscape:window-width="1366"
     inkscape:window-height="713"
     inkscape:window-x="0"
     inkscape:window-y="27"
     inkscape:window-maximized="1" />
  <metadata
     id="metadata7">
    <rdf:RDF>
      <cc:Work
         rdf:about="">
        <dc:format>image/svg+xml</dc:format>
        <dc:type
           rdf:resource="http://purl.org/dc/dcmitype/StillImage" />
        <dc:title />
        <dc:creator>
          <cc:Agent>
            <dc:title />
          </cc:Agent>
        </dc:creator>
        <dc:publisher>
          <cc:Agent>
            <dc:title />
          </cc:Agent>
        </dc:publisher>
        <cc:license
           rdf:resource="" />
      </cc:Work>
    </rdf:RDF>
  </metadata>
  <g
     inkscape:label="Layer 1"
     inkscape:groupmode="layer"
     id="layer1"
     transform="translate(0,-924.36216)"
     style="display:inline">
    <path
       inkscape:connector-curvature="0"
       style="display:inline;fill:#c21e1f;fill-opacity:1;stroke:none"
       id="path19-2"
       d="m 22.914246,948.5539 c -4.397927,5.21614 8.079913,23.01241 15.955271,30.78549 4.397928,-1.22733 8.489023,-3.78427 11.659622,-7.56853 3.170598,-3.78426 5.011591,-8.28447 5.420701,-12.78467 -8.898132,-6.44348 -28.637666,-15.64844 -33.035594,-10.43229 z" />
  </g>
  <g
     inkscape:groupmode="layer"
     id="layer2"
     inkscape:label="Layer 2"
     style="display:inline">
    <circle
       style="color:#000000;clip-rule:nonzero;display:inline;overflow:visible;visibility:visible;opacity:1;isolation:auto;mix-blend-mode:normal;color-interpolation:sRGB;color-interpolation-filters:linearRGB;solid-color:#000000;solid-opacity:1;fill:#f25f64;fill-opacity:1;fill-rule:nonzero;stroke:none;stroke-width:0.5;stroke-linecap:butt;stroke-linejoin:miter;stroke-miterlimit:4;stroke-dasharray:none;stroke-dashoffset:0;stroke-opacity:1;color-rendering:auto;image-rendering:auto;shape-rendering:auto;text-rendering:auto;enable-background:accumulate"
       id="path4878"
       cx="64"
       cy="64"
       r="43" />
    <circle
       style="fill:#a90f13;fill-opacity:1;stroke:none;stroke-width:2;stroke-linecap:butt;stroke-linejoin:miter;stroke-miterlimit:4;stroke-dasharray:none;stroke-opacity:1"
       id="path4259"
       cx="64"
       cy="64"
       r="37" />
  </g>
  <g
     inkscape:groupmode="layer"
     id="layer3"
     inkscape:label="Layer 3"
     style="display:inline">
    <path
       d="M 97.632143,59.444045 C 93.229762,58.829759 88.622619,58.93214 84.015476,59.955949 64.255952,64.35833 51.458333,83.298806 54.836905,102.75119 c 2.15,0.51191 4.402381,0.81905 6.757143,1.02381 4.095238,-0.20476 8.292857,-0.81905 12.490476,-1.74048 2.252381,-0.5119 4.402381,-1.12619 6.552381,-1.74048 1.12619,-0.5119 2.252381,-1.126186 3.378571,-1.740472 -3.071428,-15.357143 2.661905,-30.304762 13.616667,-39.109523 z"
       id="path36-2"
       inkscape:connector-curvature="0"
       style="display:inline;fill:#ba141a;stroke:none" />
    <path
       d="M 76.746429,34.053568 C 69.477381,33.029759 62.003571,33.234521 54.427381,34.974997 44.086905,37.227378 34.872619,41.936902 27.39881,48.386902 25.35119,53.198806 24.225,58.522616 24.225,64.051187 c 0,16.790477 10.340476,31.12381 24.980952,37.061913 1.842858,-0.61429 3.583334,-1.126198 5.426191,-1.842865 -5.528572,-25.595238 3.890476,-50.57619 22.114286,-65.216667 z"
       id="path38-4"
       inkscape:connector-curvature="0"
       style="display:inline;fill:#ba141a;stroke:none" />
  </g>
  <g
     inkscape:groupmode="layer"
     id="layer4"
     inkscape:label="Layer 4"
     style="display:inline">
    <path
       d="m 99.487181,45.641024 c 1.641029,3.897436 2.564099,8.205128 2.564099,12.717949 0,17.846155 -14.461534,32.307693 -32.30769,32.307693 -17.846155,0 -32.410257,-14.461538 -32.410257,-32.410257 0,-17.846155 14.461538,-32.410257 32.410257,-32.410257 4.512821,0 8.820514,0.923077 12.717949,2.564103 C 76.923078,25.641023 70.666667,23.999998 64,23.999998 c -22.051282,0 -40,17.948719 -40,40 C 24,86.051281 41.948718,104 64,104 c 22.051282,0 40,-17.948719 40,-40.000002 0,-6.666665 -1.64102,-12.923077 -4.51282,-18.358974 z"
       id="path45-9"
       style="display:inline;fill:#cd2724;fill-opacity:1;stroke:none"
       inkscape:connector-curvature="0" />
  </g>
  <g
     inkscape:groupmode="layer"
     id="layer5"
     inkscape:label="Layer 5"
     style="display:inline">
    <ellipse
       style="display:inline;fill:#790003;fill-opacity:1;stroke:none"
       id="ellipse49-9"
       ry="7.0569553"
       rx="16.568502"
       cy="-40.975025"
       cx="89.894905"
       transform="matrix(0.64281676,0.76601998,-0.76601998,0.64281676,0,0)" />
    <path
       inkscape:connector-curvature="0"
       style="display:inline;fill:#c21e1f;fill-opacity:1;stroke:none"
       id="path56-4"
       d="m 113.08545,22.491568 c -4.39793,-5.216146 -24.035179,3.988818 -32.933312,10.330015 0.40911,4.500205 2.250102,9.00041 5.420701,12.784673 3.1706,3.784263 7.261695,6.341197 11.659622,7.568526 7.773079,-7.670804 20.250919,-25.467068 15.852989,-30.683214 z" />
  </g>
</svg>
