<?xml version="1.0" encoding="UTF-8" standalone="no"?>
<!-- Created with Inkscape (http://www.inkscape.org/) -->

<svg
   xmlns:dc="http://purl.org/dc/elements/1.1/"
   xmlns:cc="http://creativecommons.org/ns#"
   xmlns:rdf="http://www.w3.org/1999/02/22-rdf-syntax-ns#"
   xmlns:svg="http://www.w3.org/2000/svg"
   xmlns="http://www.w3.org/2000/svg"
   xmlns:sodipodi="http://sodipodi.sourceforge.net/DTD/sodipodi-0.dtd"
   xmlns:inkscape="http://www.inkscape.org/namespaces/inkscape"
   width="128"
   height="128"
   viewBox="0 0 128 128"
   id="svg2"
   version="1.1"
   inkscape:version="0.91 r13725"
   sodipodi:docname="os_ghostbsd.svg"
   inkscape:export-xdpi="90"
   inkscape:export-ydpi="90">
  <defs
     id="defs4" />
  <sodipodi:namedview
     id="base"
     pagecolor="#ffffff"
     bordercolor="#666666"
     borderopacity="1.0"
     inkscape:pageopacity="0.0"
     inkscape:pageshadow="2"
     inkscape:zoom="3.959798"
     inkscape:cx="52.257089"
     inkscape:cy="66.61325"
     inkscape:document-units="px"
     inkscape:current-layer="layer1"
     showgrid="false"
     units="px"
     inkscape:window-width="1366"
     inkscape:window-height="713"
     inkscape:window-x="0"
     inkscape:window-y="27"
     inkscape:window-maximized="1" />
  <metadata
     id="metadata7">
    <rdf:RDF>
      <cc:Work
         rdf:about="">
        <dc:format>image/svg+xml</dc:format>
        <dc:type
           rdf:resource="http://purl.org/dc/dcmitype/StillImage" />
        <dc:title />
        <dc:creator>
          <cc:Agent>
            <dc:title />
          </cc:Agent>
        </dc:creator>
        <dc:publisher>
          <cc:Agent>
            <dc:title />
          </cc:Agent>
        </dc:publisher>
        <cc:license
           rdf:resource="" />
      </cc:Work>
    </rdf:RDF>
  </metadata>
  <g
     inkscape:label="Layer 1"
     inkscape:groupmode="layer"
     id="layer1"
     transform="translate(0,-924.36216)">
    <circle
       style="color:#000000;clip-rule:nonzero;display:inline;overflow:visible;visibility:visible;opacity:1;isolation:auto;mix-blend-mode:normal;color-interpolation:sRGB;color-interpolation-filters:linearRGB;solid-color:#000000;solid-opacity:1;fill:#33333d;fill-opacity:1;fill-rule:nonzero;stroke:none;stroke-width:1;stroke-linecap:butt;stroke-linejoin:miter;stroke-miterlimit:4;stroke-dasharray:none;stroke-dashoffset:0;stroke-opacity:1;color-rendering:auto;image-rendering:auto;shape-rendering:auto;text-rendering:auto;enable-background:accumulate"
       id="path4697"
       cx="64"
       cy="988.36218"
       r="46" />
  </g>
  <g
     inkscape:groupmode="layer"
     id="layer2"
     inkscape:label="Layer 2">
    <path
       id="path17-1"
       d="m 71.3,46.4 c -3,3.5 1,5.2 4.2,5.2 3.9,-0.1 7.9,-2.1 11.1,-4.3 2.8,-1.9 6.1,-4.4 7.1,-7.8 1.5,-4.6 -1.8,-6.4 -5.9,-6.6 -11.4,-0.7 -22.5,6.1 -30.9,13 -7,5.7 -15,13.7 -17.1,22.7 -1,4 0.1,8.9 4.6,9.8 4.2,0.8 8.5,-1.7 12,-3.8 6.4,-3.8 12.3,-8.4 17.9,-13.3 1.6,-1.4 3.2,-2.9 4.8,-4.4 0.6,-0.6 3.6,-2.5 3.8,-3.4 0.1,-0.4 -2.7,-0.9 -3,-0.7 -0.2,0.2 -0.3,0.7 -0.5,0.9 -0.9,0.9 -1.7,2.4 -2.4,3.4 -2.4,3.1 -4.9,6.2 -7.5,9.2 -6,7.2 -12.2,14.3 -18.2,21.5 -2.2,2.6 -4.3,6.3 -6.9,8.4 -2.3,1.9 1.3,-2 1.9,-2.5 9.3,-8.6 20.5,-15.4 30.9,-22.5 1.4,-1 -2.3,-2.1 -3.3,-1.4 -9.4,6.5 -18.9,12.8 -27.7,19.8 -1.4,1.1 -7,4.7 -6.7,7.1 0.2,1.9 3.7,2.3 5.1,2.1 3.2,-0.4 4.8,-3 6.6,-5.4 C 55.8,87.5 60.8,81.9 65.6,76.2 70.8,70.1 76,64.1 80.9,57.8 82.1,56.2 86.5,50.5 80.8,51.6 79,52 77.6,53.9 76.3,55 72,59 67.7,63 63.1,66.5 c -2.7,2.1 -5.5,4 -8.4,5.8 -2,1.2 -5.1,3.8 -7.5,3.8 -9.5,0.3 1.2,-16.2 3.2,-18.7 6.3,-8.3 15.4,-15.6 25,-19.7 3.1,-1.3 8.1,-3.5 11.5,-2.8 5,1 3.3,4.3 1.5,6.6 -1.5,2 -3.7,3.5 -5.8,4.8 -1,0.6 -2.1,1.2 -3.2,1.7 -0.8,0.4 -6.3,1.6 -4.3,-0.8 0.8,-0.9 -2.9,-1.9 -3.8,-0.8 l 0,0 z"
       inkscape:connector-curvature="0"
       style="display:inline;fill:#00aeef;stroke:none" />
  </g>
</svg>
