<?xml version="1.0" encoding="UTF-8" standalone="no"?>
<!-- Created with Inkscape (http://www.inkscape.org/) -->

<svg
   xmlns:dc="http://purl.org/dc/elements/1.1/"
   xmlns:cc="http://creativecommons.org/ns#"
   xmlns:rdf="http://www.w3.org/1999/02/22-rdf-syntax-ns#"
   xmlns:svg="http://www.w3.org/2000/svg"
   xmlns="http://www.w3.org/2000/svg"
   xmlns:sodipodi="http://sodipodi.sourceforge.net/DTD/sodipodi-0.dtd"
   xmlns:inkscape="http://www.inkscape.org/namespaces/inkscape"
   width="128"
   height="128"
   viewBox="0 0 128 128"
   id="svg2"
   version="1.1"
   inkscape:version="0.91 r13725"
   sodipodi:docname="os_gentoo.svg"
   inkscape:export-xdpi="90"
   inkscape:export-ydpi="90">
  <defs
     id="defs4">
    <linearGradient
       y2="64.440002"
       x2="106"
       y1="64.440002"
       x1="22"
       gradientUnits="userSpaceOnUse"
       id="a">
      <stop
         id="stop20-6"
         style="stop-color:#8781BD"
         offset="0.7347" />
      <stop
         id="stop22-4"
         style="stop-color:#E0DEF0"
         offset="1" />
    </linearGradient>
    <linearGradient
       y2="60.9231"
       x2="104.5181"
       y1="60.9231"
       x1="23.481899"
       gradientUnits="userSpaceOnUse"
       id="b-8">
      <stop
         id="stop29-4"
         style="stop-color:#B19ACA"
         offset="0" />
      <stop
         id="stop31-7"
         style="stop-color:#E0DEF0"
         offset="0.6633" />
      <stop
         id="stop33-0"
         style="stop-color:#EEEDF6"
         offset="1" />
    </linearGradient>
    <linearGradient
       y2="81.619202"
       x2="70.433098"
       y1="28.440701"
       x1="39.730499"
       gradientUnits="userSpaceOnUse"
       id="c">
      <stop
         id="stop38-3"
         style="stop-color:#FFFFFF"
         offset="0" />
      <stop
         id="stop40-1"
         style="stop-color:#9B95C9"
         offset="1" />
    </linearGradient>
  </defs>
  <sodipodi:namedview
     id="base"
     pagecolor="#ffffff"
     bordercolor="#666666"
     borderopacity="1.0"
     inkscape:pageopacity="0.0"
     inkscape:pageshadow="2"
     inkscape:zoom="1.979899"
     inkscape:cx="-1.2167192"
     inkscape:cy="47.232429"
     inkscape:document-units="px"
     inkscape:current-layer="layer7"
     showgrid="false"
     units="px"
     inkscape:window-width="1366"
     inkscape:window-height="713"
     inkscape:window-x="0"
     inkscape:window-y="27"
     inkscape:window-maximized="1" />
  <metadata
     id="metadata7">
    <rdf:RDF>
      <cc:Work
         rdf:about="">
        <dc:format>image/svg+xml</dc:format>
        <dc:type
           rdf:resource="http://purl.org/dc/dcmitype/StillImage" />
        <dc:title />
        <dc:creator>
          <cc:Agent>
            <dc:title />
          </cc:Agent>
        </dc:creator>
        <dc:publisher>
          <cc:Agent>
            <dc:title />
          </cc:Agent>
        </dc:publisher>
        <cc:license
           rdf:resource="" />
      </cc:Work>
    </rdf:RDF>
  </metadata>
  <g
     inkscape:label="Layer 1"
     inkscape:groupmode="layer"
     id="layer1"
     transform="translate(0,-924.36216)"
     style="display:inline">
    <path
       inkscape:connector-curvature="0"
       style="display:inline;fill:#8c8cf7;fill-opacity:1;stroke:none"
       id="path24"
       d="m 106.90502,982.68715 c -0.40955,-2.45407 -1.63822,-4.0901 -2.15016,-4.80587 -1.94539,-2.55631 -3.99317,-5.01038 -6.245717,-7.36219 -3.788383,-3.88559 -6.45049,-5.93064 -6.55288,-6.03289 -9.317375,-7.15768 -14.948756,-11.45229 -24.266131,-14.31535 -2.969275,-0.92028 -5.836159,-1.53379 -8.498267,-1.7383 l -0.307166,0 c -0.102389,0 -0.307166,0 -0.409554,0 -0.511944,0 -1.126277,-0.10228 -1.74061,-0.10228 l -0.614332,0 c -2.354941,0 -8.703043,0.40901 -15.870256,3.78335 -4.505104,2.04504 -9.010208,5.21487 -12.389037,8.48696 l -0.102389,0.10228 c -3.890772,4.29461 -5.73377,8.69146 -5.119437,12.67931 0.307166,2.55631 1.63822,4.60136 2.150164,5.41938 1.433441,2.1473 3.583606,3.78334 10.955595,7.05543 1.945386,0.81802 4.91466,1.9428 8.088711,3.06757 l -6.040936,4.90812 c -3.174051,2.65856 -6.348102,5.41938 -9.419764,8.28243 -0.716722,0.7158 -1.433443,1.4315 -2.047775,2.0451 -3.174052,3.3743 -3.890772,4.8058 -4.300328,5.9306 -0.81911,2.2496 -2.354941,7.9757 1.331054,13.0884 2.969274,4.0901 7.576767,5.2148 9.112598,5.6238 0.81911,0.2046 2.047776,0.5113 3.788384,0.5113 3.071662,0 7.064824,-0.818 12.18426,-2.3518 5.426604,-1.7383 10.64843,-3.8856 17.201309,-7.3623 5.631381,-2.9652 11.262762,-6.2373 16.586976,-9.7139 4.505106,-2.7608 8.907822,-5.7261 12.900983,-8.8959 1.945386,-1.53384 7.883935,-6.23745 10.648425,-12.1681 0.51194,-1.02252 1.53583,-3.27208 1.12628,-6.13515 z m -37.576669,-9.20273 c -0.204778,1.32928 -2.45733,2.35181 -5.221826,2.35181 -0.716721,0 -1.331054,-0.10228 -2.047775,-0.20451 -3.890772,-0.71576 -6.45049,-3.06757 -6.245713,-4.70362 0.204778,-1.32927 2.457329,-2.3518 5.221826,-2.3518 0.716721,0 1.331054,0.10228 2.047775,0.20451 3.890772,0.81802 6.45049,3.06757 6.245713,4.70361 z" />
  </g>
  <g
     inkscape:groupmode="layer"
     id="layer8"
     inkscape:label="Layer 8"
     style="display:inline">
    <path
       style="display:inline;fill:#a0a0f7;fill-opacity:1;stroke:none"
       d="M 82.028281,32.801976 A 46.842972,68.757626 37.57261 0 1 68.616857,67.593295 46.842972,68.757626 37.57261 0 1 28.046647,102.78654 c 1.872937,0.98656 3.594141,1.43344 4.421152,1.65368 0.81911,0.20455 2.048664,0.5119 3.789272,0.5119 3.071662,0 7.064223,-0.81778 12.18366,-2.35155 5.426603,-1.73832 10.647818,-3.885953 17.200697,-7.362584 5.631382,-2.965242 11.2646,-6.237504 16.588815,-9.714134 4.505105,-2.76079 8.906361,-5.726495 12.899522,-8.896293 1.945386,-1.533831 7.885455,-6.237015 10.649945,-12.167662 0.51195,-1.022524 1.53534,-3.271757 1.12579,-6.134823 -0.40955,-2.454067 -1.63964,-4.089315 -2.15158,-4.805077 -1.9454,-2.556314 -3.99225,-5.010776 -6.244804,-7.362585 -3.788384,-3.88559 -6.450352,-5.930596 -6.552741,-6.032842 -3.74708,-2.878534 -6.893815,-5.277055 -9.928094,-7.322594 z"
       id="path24-3"
       inkscape:connector-curvature="0" />
  </g>
  <g
     inkscape:groupmode="layer"
     id="layer10"
     inkscape:label="Layer 9"
     style="display:inline">
    <path
       style="display:inline;fill:#7878f7;fill-opacity:1;stroke:none;stroke-width:2;stroke-linecap:butt;stroke-linejoin:round;stroke-miterlimit:4;stroke-dasharray:none;stroke-opacity:0.1254902"
       d="M 62.338062,35.411475 A 17.06426,12.281096 0 0 0 45.273339,47.693117 17.06426,12.281096 0 0 0 62.338062,59.972758 17.06426,12.281096 0 0 0 79.402785,47.693117 17.06426,12.281096 0 0 0 62.338062,35.411475 Z m -1.303749,8.802309 c 0.716721,0 1.330886,0.101736 2.047607,0.203961 3.890772,0.818019 6.451577,3.069059 6.2468,4.705097 -0.204778,1.329285 -2.4585,2.351548 -5.222997,2.351548 -0.71672,0 -1.330886,-0.101735 -2.047606,-0.203961 -3.890773,-0.715761 -6.449579,-3.069048 -6.244802,-4.705096 0.204778,-1.329276 2.456502,-2.351549 5.220998,-2.351549 z"
       id="path4158"
       inkscape:connector-curvature="0" />
  </g>
  <g
     inkscape:groupmode="layer"
     id="layer6"
     inkscape:label="Layer 6"
     style="display:inline" />
  <g
     inkscape:groupmode="layer"
     id="layer2"
     inkscape:label="Layer 2"
     style="display:inline">
    <path
       inkscape:connector-curvature="0"
       style="display:inline;fill:#bebef7;fill-opacity:1;stroke:none"
       id="path35"
       d="m 105.36919,55.052889 c -0.30717,-1.840546 -1.22867,-3.067576 -1.74061,-3.578839 -2.15016,-2.760818 -4.300329,-5.112625 -6.245714,-7.055423 -3.788382,-3.783344 -6.45049,-5.726142 -6.45049,-5.726142 C 81.512612,31.739313 75.88123,27.54696 66.768633,24.888395 c -3.583607,-1.022526 -6.245714,-1.431535 -8.1911,-1.636041 -0.102388,0 -0.102388,0 -0.204778,0 -0.204777,0 -0.307166,0 -0.511944,0 -0.511943,0 -1.023887,-0.102258 -1.638219,-0.102258 l 0,0 0,0 c -0.102389,0 -0.204777,0 -0.307167,0 -0.102388,0 -0.102388,0 -0.204777,0 0,0 0,0 0,0 -2.047775,0 -8.088711,0.409011 -15.153534,3.476586 -3.993161,1.738293 -8.498266,4.601363 -11.979483,7.975697 -3.174051,3.374334 -5.119437,7.055424 -4.607493,10.53201 0.307166,2.147303 1.433442,3.783343 1.740608,4.294606 1.023888,1.431535 2.457329,2.863071 10.136486,6.135152 1.945386,0.81802 5.119437,1.942798 8.395876,3.067575 l 1.228666,0.40901 c 1.433442,0.511263 1.842997,2.249555 0.614332,3.169829 l -0.409555,0.306757 -7.064823,5.521636 c -2.45733,1.942798 -5.836158,4.703616 -9.522154,8.077949 -0.71672,0.715768 -1.433442,1.329283 -2.047774,1.942798 -3.174051,3.272081 -3.583606,4.396859 -3.890773,5.010374 -0.71672,1.840545 -2.047774,6.646414 1.023888,10.736515 2.457329,3.169828 6.245713,4.192353 7.679156,4.499111 0.716721,0.204505 1.740609,0.40901 3.174051,0.40901 l 0,0 c 2.866884,0 6.655268,-0.715768 11.672316,-2.249556 5.426604,-1.636039 10.64843,-3.783343 17.303698,-7.157676 5.73377,-2.86307 11.46754,-6.135151 16.996532,-9.611738 4.607493,-2.658565 9.010209,-5.623888 13.105759,-8.793716 1.842998,-1.431535 7.576763,-5.828394 10.238873,-11.145525 0.51195,-0.81802 1.43344,-2.556313 1.02389,-4.703616 z M 72.400013,46.054667 C 71.785681,49.429 66.871021,51.371798 61.34203,50.451525 55.915425,49.531252 51.922264,46.054667 52.536597,42.680334 53.15093,39.306 58.065589,37.363203 63.594581,38.283475 c 5.528992,0.920273 9.419764,4.396859 8.805432,7.771192 z" />
  </g>
  <g
     inkscape:groupmode="layer"
     id="layer7"
     inkscape:label="Layer 7"
     style="display:inline">
    <path
       style="display:inline;fill:#d2d2f7;fill-opacity:1;stroke:none"
       d="M 82.074272,32.330066 A 46.842972,68.757626 37.57261 0 1 68.616857,67.593295 46.842972,68.757626 37.57261 0 1 36.393045,98.661328 c 2.677095,-0.184893 6.045571,-0.892483 10.308021,-2.195578 5.426604,-1.63604 10.647408,-3.784292 17.302676,-7.158625 5.73377,-2.863071 11.467745,-6.135568 16.996737,-9.612155 4.607493,-2.658565 9.009932,-5.622483 13.105483,-8.79231 1.842997,-1.431536 7.577918,-5.828729 10.240028,-11.14586 0.51194,-0.81802 1.43336,-2.555794 1.0238,-4.703097 -0.30717,-1.840546 -1.22972,-3.06805 -1.74166,-3.579313 -2.15016,-2.760818 -4.299409,-5.113847 -6.244798,-7.056645 -3.788382,-3.783343 -6.450761,-5.7249 -6.450761,-5.7249 -3.320813,-2.451249 -6.160632,-4.544009 -8.858299,-6.362779 z"
       id="path35-8"
       inkscape:connector-curvature="0" />
  </g>
  <g
     inkscape:groupmode="layer"
     id="layer9"
     inkscape:label="Layer 10">
    <path
       style="display:inline;fill:#d2d2f7;fill-opacity:1;stroke:none"
       d="m 85.483617,34.721608 a 53.261178,51.192778 0 0 1 2.451529,15.169086 53.261178,51.192778 0 0 1 -12.997503,33.465573 c 2.039143,-1.191871 4.067444,-2.40661 6.062836,-3.661297 4.607493,-2.658565 9.009932,-5.622484 13.105483,-8.79231 1.842997,-1.431536 7.577918,-5.828729 10.240028,-11.14586 0.51194,-0.81802 1.43336,-2.555794 1.0238,-4.703097 -0.30717,-1.840546 -1.22972,-3.06805 -1.74166,-3.579313 -2.15016,-2.760818 -4.299409,-5.113847 -6.244798,-7.056645 -3.788382,-3.783343 -6.450761,-5.7249 -6.450761,-5.7249 -1.971535,-1.455283 -3.745584,-2.750986 -5.448954,-3.971237 z"
       id="path35-8-8"
       inkscape:connector-curvature="0" />
  </g>
  <g
     inkscape:groupmode="layer"
     id="layer3"
     inkscape:label="Layer 3"
     style="display:inline">
    <path
       inkscape:connector-curvature="0"
       style="display:inline;fill:#ebebf7;fill-opacity:1;stroke:none"
       id="path42"
       d="m 103.4238,53.519096 c -0.20477,-1.329283 -0.92149,-2.351808 -1.33105,-2.760819 -1.94539,-2.351807 -3.993162,-4.703615 -6.040936,-6.95317 C 92.365818,40.226268 89.8061,38.181217 89.8061,38.181217 80.591113,31.330299 75.062121,27.240197 66.359078,24.683885 63.594581,23.865864 61.034863,23.354601 58.679922,23.150096 l -0.819111,0 c -0.511943,0 -0.921498,0 -1.535831,-0.102257 l -0.409555,0 c -2.150163,0 -7.679155,0.40901 -14.232035,3.374333 -4.095549,1.840546 -8.293488,4.601364 -11.36515,7.566687 -2.150165,2.351808 -4.607494,5.726141 -4.095551,9.100475 0.204778,1.738292 1.228666,3.272081 1.433443,3.578838 0.614333,0.920272 1.535832,2.147302 9.317376,5.419383 1.842997,0.818021 4.91466,1.840546 8.293489,2.965324 l 1.228664,0.409009 c 1.331054,0.511263 2.354941,1.533789 2.559718,2.863071 0.204778,1.329283 -0.307165,2.556314 -1.433442,3.374334 l -0.409554,0.204504 -7.064824,5.521637 c -3.174051,2.556313 -6.348102,5.214879 -9.419764,7.975697 -0.716722,0.715767 -1.433443,1.329283 -1.945386,1.942798 -2.969274,2.965322 -3.27644,3.987848 -3.481217,4.499111 -0.614334,1.533787 -1.74061,5.623888 0.819109,8.998221 2.047774,2.658567 5.221826,3.476587 6.55288,3.783344 0.614332,0.204505 1.433442,0.306758 2.662107,0.306758 2.662108,0 6.245713,-0.715768 10.955596,-2.147304 5.324215,-1.63604 10.443651,-3.68109 16.996532,-7.055423 5.733769,-2.863071 11.36515,-6.0329 16.894142,-9.611738 4.505104,-2.658565 8.805432,-5.521635 12.900982,-8.589211 1.842997,-1.431536 7.2696,-5.62389 9.62454,-10.53201 0.30717,-0.511263 1.02389,-1.840546 0.71672,-3.476586 z M 74.345399,44.520874 c -0.614332,3.578838 -4.914659,6.135151 -10.341263,6.135151 -1.023887,0 -2.047774,-0.102257 -3.071662,-0.306757 -6.655268,-1.124778 -11.160373,-5.419384 -10.443652,-9.816242 0.614333,-3.578839 4.91466,-6.135152 10.341263,-6.135152 1.023888,0 2.047776,0.102247 3.071663,0.306758 6.757657,1.124778 11.262762,5.419383 10.443651,9.816242 z" />
  </g>
  <g
     inkscape:groupmode="layer"
     id="layer4"
     inkscape:label="Layer 4"
     style="display:inline">
    <path
       style="display:inline;fill:#e6e6f7;fill-opacity:1;stroke:none"
       d="M 70.292534,26.029276 A 38.209806,27.057662 0 0 1 83.85393,46.705306 38.209806,27.057662 0 0 1 45.645268,73.76211 38.209806,27.057662 0 0 1 34.081489,72.484355 c -1.124052,0.964506 -2.250948,1.926593 -3.353356,2.91744 -0.716722,0.715768 -1.433683,1.328112 -1.945627,1.941627 -2.969273,2.965323 -3.276554,3.987873 -3.481331,4.499136 -0.614333,1.533787 -1.739876,5.623939 0.819842,8.998272 2.047775,2.658567 5.221688,3.476516 6.552742,3.783273 0.614333,0.204506 1.432825,0.307942 2.661489,0.307942 2.662108,0 6.246013,-0.716052 10.955896,-2.147589 5.324215,-1.636039 10.443855,-3.682311 16.996736,-7.056644 5.733769,-2.863072 11.363765,-6.031316 16.892756,-9.610154 4.505105,-2.658567 8.805972,-5.522775 12.901522,-8.590351 1.842997,-1.431534 7.269212,-5.623857 9.624152,-10.531977 0.30717,-0.511263 1.02503,-1.839293 0.71786,-3.475333 -0.20477,-1.329283 -0.92219,-2.352459 -1.33174,-2.76147 -1.94539,-2.351807 -3.993067,-4.703109 -6.040842,-6.952664 -3.685995,-3.578839 -6.244801,-5.62492 -6.244801,-5.62492 C 82.057616,32.41979 76.908005,28.615406 70.292534,26.029276 Z"
       id="path42-9"
       inkscape:connector-curvature="0" />
  </g>
  <g
     inkscape:groupmode="layer"
     id="layer5"
     inkscape:label="Layer 5"
     style="display:inline" />
</svg>
