<?xml version="1.0" encoding="UTF-8" standalone="no"?>
<!-- Created with Inkscape (http://www.inkscape.org/) -->

<svg
   xmlns:dc="http://purl.org/dc/elements/1.1/"
   xmlns:cc="http://creativecommons.org/ns#"
   xmlns:rdf="http://www.w3.org/1999/02/22-rdf-syntax-ns#"
   xmlns:svg="http://www.w3.org/2000/svg"
   xmlns="http://www.w3.org/2000/svg"
   xmlns:sodipodi="http://sodipodi.sourceforge.net/DTD/sodipodi-0.dtd"
   xmlns:inkscape="http://www.inkscape.org/namespaces/inkscape"
   width="128"
   height="128"
   viewBox="0 0 128 128"
   id="svg2"
   version="1.1"
   inkscape:version="0.91 r13725"
   sodipodi:docname="os_kali.svg"
   inkscape:export-xdpi="90"
   inkscape:export-ydpi="90">
  <defs
     id="defs4" />
  <sodipodi:namedview
     id="base"
     pagecolor="#ffffff"
     bordercolor="#666666"
     borderopacity="1.0"
     inkscape:pageopacity="0.0"
     inkscape:pageshadow="2"
     inkscape:zoom="1.979899"
     inkscape:cx="-98.563541"
     inkscape:cy="62.835175"
     inkscape:document-units="px"
     inkscape:current-layer="layer1"
     showgrid="false"
     units="px"
     inkscape:window-width="1366"
     inkscape:window-height="713"
     inkscape:window-x="0"
     inkscape:window-y="27"
     inkscape:window-maximized="1" />
  <metadata
     id="metadata7">
    <rdf:RDF>
      <cc:Work
         rdf:about="">
        <dc:format>image/svg+xml</dc:format>
        <dc:type
           rdf:resource="http://purl.org/dc/dcmitype/StillImage" />
        <dc:title />
        <dc:creator>
          <cc:Agent>
            <dc:title />
          </cc:Agent>
        </dc:creator>
        <dc:publisher>
          <cc:Agent>
            <dc:title />
          </cc:Agent>
        </dc:publisher>
        <cc:license
           rdf:resource="" />
      </cc:Work>
    </rdf:RDF>
  </metadata>
  <g
     inkscape:label="Layer 1"
     inkscape:groupmode="layer"
     id="layer1"
     transform="translate(0,-924.36216)">
    <g
       transform="matrix(0.96339358,0,0,0.96325651,1.5237768,926.85272)"
       id="Layer_5-1"
       style="display:inline;fill:#c21e1f;fill-opacity:1">
      <path
         id="path13-7"
         style="fill:#c21e1f;fill-opacity:1"
         d="m 102.1,49.7 c -1.6,-2.2 -4,-5.1 -7.4,-7.9 -8.9,-7.4 -18.8,-9.2 -18.7,-9.4 0,-0.1 6.3,1 13.3,4.9 7.3,4 12,9 14.7,12.4 m 6.79925,28.80004 c -4,-2.8 -8,-3.90004 -11.600001,-5.00004 -2.2,-0.6 -6.5,-1.8 -12.2,-2 -6,-0.2 -8.1,0.8 -12.2,-0.7 -1.4,-0.5 -3.9,-1.5 -5.9,-3.9 -4.1,-5 -2.5,-11.3 -2.3,-11.7 0.3,-0.9 1.5,-5.1 5.6,-7.6 3.4,-2.1 6.7,-1.9 9.4,-1.8 4,0.2 6.6,1.4 11.4,3.5 2.7,1.2 4.8,2.1 6.6,3 l 0,2.7 5.400001,3 2.4,1.8 c 0.3,0.3 0.6,0.5 0.9,0.7 l 1.1,0.8 2.8,-1.8 -5,-2.8 c 0,0 0,0 -0.1,0 l 0,-2.2 -2.6,-3.7 -1.9,0 -4.700001,-4.9 0,2.8 -3.6,-4.4 0,2.2 -3.9,-3.3 0.5,2.3 c -0.3,-0.1 -0.6,-0.2 -0.9,-0.4 -2.6,-1 -7.8,-2.9 -13.3,-2.2 -1,-0.2 -2.2,-0.6 -3.4,-1.3 -0.4,-0.2 -3,-1.9 -4.1,-5 -1.1,-3.2 0.3,-5.6 0.1,-6.9 -0.9,-8.4 -55.3,-8.4 -55.3,-7.5 0,0.5 13.5,-0.2 36.4,4.2 2.8,0.5 15.9,3.1 15.7,4.2 -0.1,0.7 -5.6,0.2 -15.7,0.4 -3.9,0.1 -14.3,0.5 -26.6,2.5 -7.3,1.2 -15.1000004,3 -15.0000004,3.4 0.1,0.5 9.8000004,-1.4 24.5000004,-2.3 16.7,-1.1 33.8,-0.4 33.8,-0.4 0.5,0.4 0.5,0.6 0.5,0.6 -0.1,0.1 -0.4,0.1 -0.9,0.1 -0.4,0 -0.8,0.1 -1.2,0.1 -0.8,0 -3.8,0.3 -5.7,0.5 -4,0.5 -8.3,1.5 -9.8,1.9 -3.8,1 -7.6,2.3 -12.6,4.4 -11.6,4.9 -21,10.6 -20.8,11 0.1,0.2 4.6,-2.2 13.4,-5.7 4.4,-1.7 7.5,-2.8 12.8,-4.5 2.1,-0.7 10.7,-3.5 20.7,-4.4 1.9,-0.2 4.2,-0.3 5.6,1.2 1.4,1.5 1.1,4.1 1.1,5.8 -3.3,2 -5,4.7 -5.3,5.3 -0.5,0.7 -2.5,4.1 -2.3,8.9 0,0.9 0.3,8 5.7,12.3 3.5,2.8 7.6,3.1 10.7,3.4 3.4,0.30004 3.8,-0.3 7.6,0 1.4,0.1 5.2,0.50004 9.2,2.20004 1.3,0.5 5.800001,2.5 10.400001,7.7 8.5,9.6 9.2,20.9999 9.7,20.8999 0.4,-0.1 0.7,-11.8999 -7,-21.1999 -3.6,-4.4 -8,-6.8 -7.5,-7.6 0.4,-0.7 4.9,0.8 8.8,3.2 7.6,4.8 10.5,11.9 10.7,11.8 0.1,-0.2 -2.5,-8.2 -10.1,-13.6 z m -6.7,-25.80004 2.6,3.2 -2.6,-1.6 0,-1.6 z"
         inkscape:connector-curvature="0" />
    </g>
  </g>
  <g
     inkscape:groupmode="layer"
     id="layer2"
     inkscape:label="Layer 2" />
</svg>
