<?xml version="1.0" encoding="UTF-8" standalone="no"?>
<!-- Created with Inkscape (http://www.inkscape.org/) -->

<svg
   xmlns:dc="http://purl.org/dc/elements/1.1/"
   xmlns:cc="http://creativecommons.org/ns#"
   xmlns:rdf="http://www.w3.org/1999/02/22-rdf-syntax-ns#"
   xmlns:svg="http://www.w3.org/2000/svg"
   xmlns="http://www.w3.org/2000/svg"
   xmlns:sodipodi="http://sodipodi.sourceforge.net/DTD/sodipodi-0.dtd"
   xmlns:inkscape="http://www.inkscape.org/namespaces/inkscape"
   width="128"
   height="128"
   viewBox="0 0 128 128"
   id="svg4146"
   version="1.1"
   inkscape:version="0.91 r13725"
   sodipodi:docname="os_linuxmint.svg">
  <defs
     id="defs4148" />
  <sodipodi:namedview
     id="base"
     pagecolor="#ffffff"
     bordercolor="#666666"
     borderopacity="1.0"
     inkscape:pageopacity="0.0"
     inkscape:pageshadow="2"
     inkscape:zoom="2.8"
     inkscape:cx="27.749493"
     inkscape:cy="58.742833"
     inkscape:document-units="px"
     inkscape:current-layer="layer5"
     showgrid="false"
     units="px"
     inkscape:window-width="1366"
     inkscape:window-height="713"
     inkscape:window-x="0"
     inkscape:window-y="27"
     inkscape:window-maximized="1"
     inkscape:snap-bbox="true"
     inkscape:bbox-paths="false"
     inkscape:bbox-nodes="true"
     showguides="false" />
  <metadata
     id="metadata4151">
    <rdf:RDF>
      <cc:Work
         rdf:about="">
        <dc:format>image/svg+xml</dc:format>
        <dc:type
           rdf:resource="http://purl.org/dc/dcmitype/StillImage" />
        <dc:title />
      </cc:Work>
    </rdf:RDF>
  </metadata>
  <g
     inkscape:label="Layer 1"
     inkscape:groupmode="layer"
     id="layer1"
     transform="translate(0,-924.36216)"
     style="display:inline">
    <path
       style="fill:#f2f2f2;fill-opacity:1;stroke:#b3b3be;stroke-width:1;stroke-linecap:round;stroke-linejoin:miter;stroke-miterlimit:4;stroke-dasharray:none;stroke-opacity:1"
       d="m 12.5,21.5 0,27 10,0 0,5 0,10.5 0,10.5 c 0,17.72802 14.272,32 32,32 l 10.5,0 8.5,0 32,0 0,-32 0,-10.5 0,-10.5 c 0,-17.72804 -14.272,-32 -32,-32 l -10.5,0 -8.5,0 -32,0 -10,0 z"
       transform="translate(0,924.36216)"
       id="rect4694"
       inkscape:connector-curvature="0" />
  </g>
  <g
     inkscape:groupmode="layer"
     id="layer5"
     inkscape:label="Layer 5"
     style="display:none">
    <rect
       style="display:inline;fill:#e9e9e9;fill-opacity:1;stroke:none;stroke-width:1;stroke-linecap:round;stroke-linejoin:miter;stroke-miterlimit:4;stroke-dasharray:none;stroke-opacity:1"
       id="rect4144"
       width="45"
       height="34.000023"
       x="60"
       y="72.000023" />
  </g>
  <g
     inkscape:groupmode="layer"
     id="layer2"
     inkscape:label="Layer 2"
     style="display:inline">
    <path
       style="fill:#91c653;fill-opacity:1;stroke:none;stroke-width:1;stroke-linecap:round;stroke-linejoin:round;stroke-miterlimit:4;stroke-dasharray:none;stroke-opacity:1"
       d="m 20.5,29 0,12 3.5,0 a 6,6 0 0 1 6,6 L 30,55.353516 30,64 30,72.646484 C 30,87.246007 41.753996,99 56.353516,99 L 64,99 l 0.646484,0 7,0 L 86,99 A 12,12 0 0 0 98,87 L 98,72.646484 98,64 98,55.353516 C 98,40.75396 86.246004,29 71.646484,29 L 64,29 l -0.646484,0 -7,0 L 30,29 20.5,29 Z"
       id="rect4861"
       inkscape:connector-curvature="0" />
  </g>
  <g
     inkscape:groupmode="layer"
     id="layer4"
     inkscape:label="Layer 4">
    <path
       style="display:inline;fill:#9bcb4b;fill-opacity:1;stroke:none;stroke-width:1;stroke-linecap:round;stroke-linejoin:round;stroke-miterlimit:4;stroke-dasharray:none;stroke-opacity:1"
       d="M 20.5 29 L 20.5 36.279297 C 68.41125 40.144348 69.956783 70.285078 94.279297 95.667969 A 12 12 0 0 0 98 87 L 98 72.646484 L 98 64 L 98 55.353516 C 98 40.75396 86.246004 29 71.646484 29 L 64 29 L 63.353516 29 L 56.353516 29 L 30 29 L 20.5 29 z "
       id="rect4861-4" />
  </g>
  <g
     inkscape:groupmode="layer"
     id="layer3"
     inkscape:label="Layer 3"
     style="display:inline">
    <path
       style="color:#000000;font-style:normal;font-variant:normal;font-weight:normal;font-stretch:normal;font-size:medium;line-height:normal;font-family:sans-serif;text-indent:0;text-align:start;text-decoration:none;text-decoration-line:none;text-decoration-style:solid;text-decoration-color:#000000;letter-spacing:normal;word-spacing:normal;text-transform:none;direction:ltr;block-progression:tb;writing-mode:lr-tb;baseline-shift:baseline;text-anchor:start;white-space:normal;clip-rule:nonzero;display:inline;overflow:visible;visibility:visible;opacity:1;isolation:auto;mix-blend-mode:normal;color-interpolation:sRGB;color-interpolation-filters:linearRGB;solid-color:#000000;solid-opacity:1;fill:#f2f2f2;fill-opacity:1;fill-rule:nonzero;stroke:none;stroke-width:16;stroke-linecap:butt;stroke-linejoin:miter;stroke-miterlimit:4;stroke-dasharray:none;stroke-dashoffset:0;stroke-opacity:1;color-rendering:auto;image-rendering:auto;shape-rendering:auto;text-rendering:auto;enable-background:accumulate"
       d="m 36,38 0,36 c 0,8.72562 7.274378,16 16,16 l 8,0 0,-8 -8,0 c -4.432,0 -8,-3.568 -8,-8 l 0,-36 -8,0 z"
       id="rect4478-6"
       inkscape:connector-curvature="0" />
    <path
       style="display:inline;opacity:1;fill:#f2f2f2;fill-opacity:1;fill-rule:nonzero;stroke:none;stroke-width:0.80000001;stroke-linecap:butt;stroke-linejoin:miter;stroke-miterlimit:10;stroke-dasharray:none;stroke-dashoffset:0;stroke-opacity:1"
       d="m 64,46 c -6.648,0 -12,5.352 -12,12 l 0,12 0,2 8,0 0,-2 0,-12 c 0,-2.216 1.784,-4 4,-4 2.216,0 4,1.784 4,4 l 0,12 0,2 8,0 0,-2 0,-12 c 0,-2.216 1.784,-4 4,-4 2.216,0 4,1.784 4,4 l 0,12 0,2 8,0 0,-2 0,-12 C 92,51.352 86.648,46 80,46 76.91651,46 74.12115,47.162497 72,49.060547 69.87885,47.162497 67.08349,46 64,46 Z"
       id="rect4146-2"
       inkscape:connector-curvature="0" />
    <path
       inkscape:connector-curvature="0"
       style="color:#000000;font-style:normal;font-variant:normal;font-weight:normal;font-stretch:normal;font-size:medium;line-height:normal;font-family:sans-serif;text-indent:0;text-align:start;text-decoration:none;text-decoration-line:none;text-decoration-style:solid;text-decoration-color:#000000;letter-spacing:normal;word-spacing:normal;text-transform:none;direction:ltr;block-progression:tb;writing-mode:lr-tb;baseline-shift:baseline;text-anchor:start;white-space:normal;clip-rule:nonzero;display:inline;overflow:visible;visibility:visible;opacity:1;isolation:auto;mix-blend-mode:normal;color-interpolation:sRGB;color-interpolation-filters:linearRGB;solid-color:#000000;solid-opacity:1;fill:#cce1b4;fill-opacity:1;fill-rule:nonzero;stroke:none;stroke-width:16;stroke-linecap:butt;stroke-linejoin:miter;stroke-miterlimit:4;stroke-dasharray:none;stroke-dashoffset:0;stroke-opacity:1;color-rendering:auto;image-rendering:auto;shape-rendering:auto;text-rendering:auto;enable-background:accumulate"
       d="m 84,72 0,2 c 0,4.432 -3.568,8 -8,8 l -16,0 0,8 16,0 c 8.725622,0 16,-7.27438 16,-16 l 0,-2 -8,0 z"
       id="rect4478" />
  </g>
</svg>
