<?xml version="1.0" encoding="UTF-8" standalone="no"?>
<!-- Created with Inkscape (http://www.inkscape.org/) -->

<svg
   xmlns:dc="http://purl.org/dc/elements/1.1/"
   xmlns:cc="http://creativecommons.org/ns#"
   xmlns:rdf="http://www.w3.org/1999/02/22-rdf-syntax-ns#"
   xmlns:svg="http://www.w3.org/2000/svg"
   xmlns="http://www.w3.org/2000/svg"
   xmlns:sodipodi="http://sodipodi.sourceforge.net/DTD/sodipodi-0.dtd"
   xmlns:inkscape="http://www.inkscape.org/namespaces/inkscape"
   width="128"
   height="128"
   viewBox="0 0 128 128"
   id="svg2"
   version="1.1"
   inkscape:version="0.91 r13725"
   sodipodi:docname="os_linux.svg"
   inkscape:export-xdpi="90"
   inkscape:export-ydpi="90">
  <defs
     id="defs4">
    <radialGradient
       id="b-1"
       cx="65.467201"
       cy="61.952"
       r="39.291599"
       gradientTransform="matrix(1,0,0,3,0,-123.9039)"
       gradientUnits="userSpaceOnUse">
      <stop
         offset="0.42593944"
         style="stop-color:#303033;stop-opacity:1"
         id="stop6300" />
      <stop
         offset="0.8265"
         style="stop-color:#595859;stop-opacity:1"
         id="stop6302" />
    </radialGradient>
    <radialGradient
       gradientUnits="userSpaceOnUse"
       gradientTransform="matrix(1,0,0,3,0,-123.9039)"
       r="39.291599"
       cy="61.952"
       cx="65.467201"
       id="b-09">
      <stop
         id="stop9-7"
         style="stop-color:#222223"
         offset="0.5153" />
      <stop
         id="stop11-0"
         style="stop-color:#414042"
         offset="0.8265" />
    </radialGradient>
    <radialGradient
       gradientUnits="userSpaceOnUse"
       r="25.5763"
       cy="72.558296"
       cx="62.269001"
       id="w-0">
      <stop
         id="stop16-7-5"
         style="stop-color:#FFFFFF"
         offset="0" />
      <stop
         id="stop18-0-3"
         style="stop-color:#F1F2F2"
         offset="0.4235" />
      <stop
         id="stop20-0-7"
         style="stop-color:#E6E7E8"
         offset="0.6888" />
      <stop
         id="stop22-5-2"
         style="stop-color:#D1D3D4"
         offset="0.8724" />
      <stop
         id="stop24-1-9"
         style="stop-color:#BCBEC0"
         offset="1" />
    </radialGradient>
    <linearGradient
       y2="36.469898"
       x2="55.064201"
       y1="34.530899"
       x1="55.064201"
       gradientUnits="userSpaceOnUse"
       id="alpha2-9">
      <stop
         id="stop111-6"
         style="stop-color:#FFFFFF;stop-opacity:0.4"
         offset="0" />
      <stop
         id="stop113-2"
         style="stop-color:#FFFFFF;stop-opacity:0.1"
         offset="0.4133" />
      <stop
         id="stop115-4"
         style="stop-color:#FFFFFF;stop-opacity:0"
         offset="0.7806" />
    </linearGradient>
    <radialGradient
       gradientUnits="userSpaceOnUse"
       r="2.3979001"
       cy="36.276001"
       cx="55.452"
       id="b-7">
      <stop
         id="stop104-0-0-4"
         style="stop-color:#3D3D3E"
         offset="0" />
      <stop
         id="stop106-3-9-9"
         style="stop-color:#000000"
         offset="1" />
    </radialGradient>
    <linearGradient
       y2="35.888199"
       x2="66.455704"
       y1="33.270599"
       x1="66.455704"
       gradientUnits="userSpaceOnUse"
       id="alpha1-6">
      <stop
         id="stop95-7"
         style="stop-color:#FFFFFF;stop-opacity:0.4"
         offset="0" />
      <stop
         id="stop97-3"
         style="stop-color:#FFFFFF;stop-opacity:0.1"
         offset="0.4133" />
      <stop
         id="stop99-0"
         style="stop-color:#FFFFFF;stop-opacity:0"
         offset="0.7806" />
    </linearGradient>
    <radialGradient
       gradientUnits="userSpaceOnUse"
       r="3.1759"
       cy="35.742802"
       cx="67.2313"
       id="b-6">
      <stop
         id="stop88-6-2"
         style="stop-color:#3D3D3E"
         offset="0" />
      <stop
         id="stop90-3-6"
         style="stop-color:#000000"
         offset="1" />
    </radialGradient>
    <radialGradient
       gradientUnits="userSpaceOnUse"
       r="5.2070999"
       cy="35.866001"
       cx="55.521301"
       id="w-1">
      <stop
         id="stop79-2-9"
         style="stop-color:#FFFFFF"
         offset="0.5612" />
      <stop
         id="stop81-5-9"
         style="stop-color:#F1F2F2"
         offset="0.75" />
      <stop
         id="stop83-2-1"
         style="stop-color:#BCBEC0"
         offset="1" />
    </radialGradient>
    <radialGradient
       gradientUnits="userSpaceOnUse"
       r="6.3966999"
       cy="36.410301"
       cx="67.464699"
       id="w-7">
      <stop
         id="stop72-6-6"
         style="stop-color:#FFFFFF"
         offset="0.6735" />
      <stop
         id="stop74-0-0"
         style="stop-color:#BCBEC0"
         offset="1" />
    </radialGradient>
    <radialGradient
       gradientUnits="userSpaceOnUse"
       r="2.3979001"
       cy="36.276001"
       cx="55.452"
       id="b-0">
      <stop
         id="stop104"
         style="stop-color:#373738;stop-opacity:1"
         offset="0" />
      <stop
         id="stop106"
         style="stop-color:#1a1a1a;stop-opacity:1"
         offset="1" />
    </radialGradient>
    <linearGradient
       y2="43.391998"
       x2="72.872498"
       y1="43.391998"
       x1="51.662498"
       gradientUnits="userSpaceOnUse"
       id="y-5">
      <stop
         id="stop137-7"
         style="stop-color:#FFF33B"
         offset="0" />
      <stop
         id="stop139-2"
         style="stop-color:#FFE029"
         offset="5.948725e-002" />
      <stop
         id="stop141-5"
         style="stop-color:#FFD218"
         offset="0.1303" />
      <stop
         id="stop143-0"
         style="stop-color:#FEC90F"
         offset="0.2032" />
      <stop
         id="stop145-7"
         style="stop-color:#FDC70C"
         offset="0.2809" />
      <stop
         id="stop147-1"
         style="stop-color:#F3903F"
         offset="0.6685" />
      <stop
         id="stop149-9"
         style="stop-color:#ED683C"
         offset="1" />
    </linearGradient>
    <linearGradient
       y2="43.546501"
       x2="73.233902"
       y1="43.546501"
       x1="51.6357"
       gradientUnits="userSpaceOnUse"
       id="y-9">
      <stop
         id="stop120-8"
         style="stop-color:#FDB93E"
         offset="0" />
      <stop
         id="stop122-9"
         style="stop-color:#FDB83C"
         offset="6.566175e-003" />
      <stop
         id="stop124-6"
         style="stop-color:#FAAE29"
         offset="9.430166e-002" />
      <stop
         id="stop126-0"
         style="stop-color:#F8A71E"
         offset="0.1846" />
      <stop
         id="stop128-1"
         style="stop-color:#F8A51B"
         offset="0.2809" />
      <stop
         id="stop130-2"
         style="stop-color:#C87833"
         offset="0.6685" />
      <stop
         id="stop132-2"
         style="stop-color:#B04D2A"
         offset="1" />
    </linearGradient>
    <linearGradient
       y2="96.099297"
       x2="55.089001"
       y1="96.099297"
       x1="23.772301"
       gradientUnits="userSpaceOnUse"
       id="y-55">
      <stop
         id="stop48-0"
         style="stop-color:#ffd93b;stop-opacity:1;"
         offset="0" />
      <stop
         id="stop50-3"
         style="stop-color:#ffcc29;stop-opacity:1;"
         offset="0.05948725" />
      <stop
         id="stop52-5"
         style="stop-color:#ffbf18;stop-opacity:1;"
         offset="0.1303" />
      <stop
         id="stop54-0"
         style="stop-color:#feb20f;stop-opacity:1;"
         offset="0.2032" />
      <stop
         id="stop56-0"
         style="stop-color:#fda40c;stop-opacity:1;"
         offset="0.2809" />
      <stop
         id="stop58-2"
         style="stop-color:#f3923f;stop-opacity:1;"
         offset="0.66850001" />
      <stop
         id="stop60-8"
         style="stop-color:#ed683c;stop-opacity:1;"
         offset="1" />
    </linearGradient>
    <radialGradient
       gradientUnits="userSpaceOnUse"
       r="5.8449998"
       cy="84.420303"
       cx="88.170097"
       id="b-9">
      <stop
         id="stop65-3"
         style="stop-color:#000000"
         offset="0.3673" />
      <stop
         id="stop67-4"
         style="stop-color:#3D3D3E"
         offset="1" />
    </radialGradient>
    <radialGradient
       id="b-1-2"
       cx="65.467201"
       cy="61.952"
       r="39.291599"
       gradientTransform="matrix(1,0,0,3,0,-123.9039)"
       gradientUnits="userSpaceOnUse">
      <stop
         offset="0.42593944"
         style="stop-color:#18181a;stop-opacity:1"
         id="stop6300-6" />
      <stop
         offset="0.8265"
         style="stop-color:#333333;stop-opacity:1"
         id="stop6302-8" />
    </radialGradient>
    <radialGradient
       gradientUnits="userSpaceOnUse"
       r="25.5763"
       cy="72.558296"
       cx="62.269001"
       id="w-0-2">
      <stop
         id="stop16-7-5-2"
         style="stop-color:#FFFFFF"
         offset="0" />
      <stop
         id="stop18-0-3-8"
         style="stop-color:#F1F2F2"
         offset="0.4235" />
      <stop
         id="stop20-0-7-0"
         style="stop-color:#E6E7E8"
         offset="0.6888" />
      <stop
         id="stop22-5-2-8"
         style="stop-color:#D1D3D4"
         offset="0.8724" />
      <stop
         id="stop24-1-9-0"
         style="stop-color:#BCBEC0"
         offset="1" />
    </radialGradient>
  </defs>
  <sodipodi:namedview
     id="base"
     pagecolor="#ffffff"
     bordercolor="#666666"
     borderopacity="1.0"
     inkscape:pageopacity="0.0"
     inkscape:pageshadow="2"
     inkscape:zoom="7.9999996"
     inkscape:cx="35.823481"
     inkscape:cy="81.057173"
     inkscape:document-units="px"
     inkscape:current-layer="layer9"
     showgrid="false"
     units="px"
     inkscape:window-width="1366"
     inkscape:window-height="713"
     inkscape:window-x="0"
     inkscape:window-y="27"
     inkscape:window-maximized="1"
     inkscape:snap-nodes="false"
     showguides="false" />
  <metadata
     id="metadata7">
    <rdf:RDF>
      <cc:Work
         rdf:about="">
        <dc:format>image/svg+xml</dc:format>
        <dc:type
           rdf:resource="http://purl.org/dc/dcmitype/StillImage" />
        <dc:title />
        <dc:creator>
          <cc:Agent>
            <dc:title />
          </cc:Agent>
        </dc:creator>
        <dc:publisher>
          <cc:Agent>
            <dc:title />
          </cc:Agent>
        </dc:publisher>
        <cc:license
           rdf:resource="" />
      </cc:Work>
    </rdf:RDF>
  </metadata>
  <g
     inkscape:label="Layer 1"
     inkscape:groupmode="layer"
     id="layer1"
     transform="translate(0,-924.36216)"
     style="display:inline">
    <path
       inkscape:connector-curvature="0"
       style="display:inline;fill:#333333;fill-opacity:1;stroke:none"
       id="path13-0"
       d="m 40.702554,990.10999 c 1.539206,-4.42521 5.74716,-10.05041 7.382584,-11.63774 1.635424,-1.58732 1.93755,-2.41411 2.707283,-3.85735 0.769734,-1.44325 0.625388,-4.03985 0.481002,-5.00243 -0.144386,-0.96256 -0.662211,-5.66866 -0.854632,-8.65119 -0.192421,-2.98252 -0.206284,-6.21071 0.384801,-8.94663 0.591085,-2.73593 1.4567,-3.97771 3.340337,-6.14131 1.88364,-2.16361 6.409311,-3.35046 8.97331,-3.47872 2.563998,-0.12827 4.595489,0.0808 7.403093,1.40949 2.807606,1.3287 5.120748,3.19419 6.73836,6.95994 1.617613,3.76574 1.250535,7.53627 1.250604,9.71623 -0.03511,4.02085 0.675536,7.0838 1.731607,9.62004 1.539205,3.65561 2.597409,5.38722 3.270812,6.44542 3.827401,5.3015 8.593844,11.38702 10.774441,17.89327 1.134098,4.15459 2.012132,8.95419 1.487671,12.79469 -0.192401,1.443 -0.298909,3.1746 -0.683712,5.1948 -0.481002,2.5974 -1.28496,4.0403 -2.150764,5.8681 -0.481002,1.0582 -1.443006,2.5013 -3.463214,5.1949 -2.886011,3.9442 -3.463212,4.5214 -3.944214,4.81 -2.020208,1.443 -4.040416,1.924 -4.810019,2.1164 -0.962003,0.1924 -2.405008,0.481 -4.136615,0.2886 -3.970364,-1.5188 -7.902647,-1.6901 -12.698447,-1.5392 -3.35791,-0.045 -5.446775,0.2492 -8.561833,0.7696 -2.50121,0.481 -2.59741,0.5772 -3.270813,0.5772 -2.308809,0.1924 -4.136615,-1.1544 -6.253022,-2.5974 -2.982212,-2.1164 -4.521418,-4.5214 -5.002419,-5.1948 -0.769603,-1.2506 -1.346806,-2.7899 -2.50121,-5.8683 -1.058204,-2.7897 -1.539205,-4.5213 -1.635406,-5.0023 -0.384801,-1.5392 -0.577203,-2.5974 -0.865803,-4.2328 -0.481003,-2.6936 -0.652789,-3.2485 -0.384801,-4.1366 1.497706,-4.224 3.687638,-9.27973 5.291019,-13.37191 z"
       sodipodi:nodetypes="czzzzzzzzzccccccccccccccccccccc" />
  </g>
  <g
     inkscape:groupmode="layer"
     id="layer6"
     inkscape:label="Layer 2"
     style="display:inline">
    <path
       inkscape:connector-curvature="0"
       style="display:inline;fill:#e6e6e6;fill-opacity:1;stroke:none"
       d="m 70.390222,43.801745 c -0.468976,-0.01203 -0.925927,0.06088 -1.262629,0.108977 -2.597409,0.384802 -5.194444,0.09508 -7.791853,0.287474 -5.772022,0.481002 -6.54125,-0.09545 -7.310853,0.770354 -1.346805,1.539206 0.38405,3.174612 -0.770354,6.734026 -0.673402,2.020207 -1.346805,2.115656 -2.886011,5.001667 -1.250604,2.308809 -1.346806,3.367013 -2.405009,6.253024 -2.212608,5.964423 -3.270812,5.772397 -4.329017,9.52421 -0.935258,3.242256 -1.022127,5.867066 -0.860273,7.8603 0.985741,0.961717 2.49157,2.162872 5.681087,4.555008 2.119296,1.527275 4.48036,3.119489 5.735843,5.080362 0.59524,1.106305 1.156489,1.852629 1.096364,3.187409 -0.02164,0.480515 -0.300626,1.155531 -0.781628,1.636532 -0.577202,0.577204 -1.347932,0.576828 -1.636533,0.576828 -0.769603,0 -1.346053,-0.288601 -1.634654,-0.481001 -1.434584,-0.789021 -1.483703,-0.61786 -2.450103,-1.076619 2.173777,2.642838 4.561541,5.431463 8.703126,6.655114 6.060623,1.82781 11.254315,-0.768481 12.312519,-1.249481 2.308808,-1.1544 3.945342,-2.694737 5.96555,-4.522544 2.116408,-1.924006 3.559789,-3.269405 4.714193,-5.193315 2.020207,-3.367013 1.922504,-6.639329 1.826305,-12.122748 -0.0962,-3.174652 -0.191651,-7.406302 -2.115657,-12.31252 -0.288601,-0.769603 -1.249854,-2.789434 -3.077661,-6.829851 -1.250605,-2.78981 -1.732734,-3.849517 -2.598537,-5.869724 -1.154404,-2.886011 -1.731981,-4.327888 -1.828182,-5.097491 -0.192401,-1.443006 -0.192401,-2.406137 -0.962004,-3.07954 -0.384801,-0.288601 -0.865052,-0.384426 -1.334029,-0.396451 z"
       id="path26-2-5"
       sodipodi:nodetypes="sccccccccccsssccccccccccccs" />
  </g>
  <g
     inkscape:groupmode="layer"
     id="layer4"
     inkscape:label="Layer 8"
     style="display:inline">
    <path
       inkscape:connector-curvature="0"
       style="display:inline;fill:#dcdce1;fill-opacity:1;stroke:none"
       d="m 70.390468,43.802017 c -0.468977,-0.01203 -0.925929,0.06088 -1.26263,0.108977 -2.59741,0.384801 -5.194443,0.09507 -7.791853,0.287474 -5.772022,0.481002 -6.541249,-0.09545 -7.310851,0.770355 -0.283797,0.324338 -0.425999,0.653356 -0.492276,1.003339 8.953032,3.3838 15.758687,7.150562 23.277856,11.589138 -0.960529,-2.140909 -1.531095,-3.400949 -2.296031,-5.1858 -1.154404,-2.886012 -1.731983,-4.327891 -1.828182,-5.097494 -0.192402,-1.443005 -0.192402,-2.406135 -0.962005,-3.079538 -0.384801,-0.288601 -0.865052,-0.384426 -1.334028,-0.396451 z"
       id="path4265"
       sodipodi:nodetypes="sccccccccs" />
    <path
       inkscape:connector-curvature="0"
       style="display:inline;fill:#dcdce1;fill-opacity:1;stroke:none"
       d="m 48.784844,93.820609 c 2.173777,2.642838 4.561541,5.43146 8.703126,6.655111 6.060623,1.82781 11.254315,-0.768481 12.312519,-1.249491 2.227132,-1.11355 3.835041,-2.593112 5.75887,-4.336519 -7.282893,1.629674 -14.32383,1.544937 -21.167838,-0.0057 -0.56137,0.475744 -1.251321,0.494154 -1.521919,0.494154 -0.769603,0 -1.346054,-0.2886 -1.634655,-0.481002 -1.434584,-0.789021 -1.483703,-0.617857 -2.450103,-1.076617 z"
       id="path26-2-5-7" />
  </g>
  <g
     inkscape:groupmode="layer"
     id="layer7"
     inkscape:label="Layer 3"
     style="display:inline">
    <ellipse
       style="display:inline;fill:#d2d2d7;fill-opacity:1;stroke:none"
       id="ellipse76-7"
       ry="7.1188269"
       rx="4.8100181"
       cy="37.657314"
       cx="67.572845" />
    <ellipse
       style="display:inline;fill:#d2d2d7;fill-opacity:1;stroke:none"
       id="ellipse85-7"
       ry="6.4947524"
       rx="4.1366158"
       cy="37.706642"
       cx="56.365509" />
    <ellipse
       style="display:inline;fill:#e1e1e1;fill-opacity:1;stroke:none"
       id="ellipse76-7-4"
       ry="5.7720218"
       rx="3.8480144"
       cy="38.336025"
       cx="67.501953" />
    <ellipse
       style="display:inline;fill:#333333;fill-opacity:1;stroke:none"
       id="ellipse92-3"
       ry="3.0784118"
       rx="2.9822111"
       cy="37.36787"
       cx="67.395988" />
    <ellipse
       style="display:inline;fill:#4d4d4d;fill-opacity:1;stroke:none"
       id="ellipse101-5"
       ry="1.2506046"
       rx="1.1544044"
       cy="36.309631"
       cx="66.722588" />
    <ellipse
       style="display:inline;fill:#e6e6e6;stroke:none"
       id="ellipse85-7-7"
       ry="4.8100181"
       rx="3.3104241"
       cy="38.148506"
       cx="56.41927" />
    <ellipse
       style="display:inline;fill:#333333;fill-opacity:1;stroke:none"
       id="ellipse108-8"
       cy="37.67506"
       cx="56.337284"
       rx="2.5846157"
       ry="2.8" />
    <ellipse
       style="display:inline;fill:#4d4d4d;fill-opacity:1;stroke:none"
       id="ellipse101-5-4"
       cy="36.920532"
       cx="55.73106"
       rx="1.0769231"
       ry="1.1846155" />
  </g>
  <g
     inkscape:groupmode="layer"
     id="layer9"
     inkscape:label="Layer 5"
     style="display:inline">
    <path
       sodipodi:nodetypes="cscccccccccccccc"
       style="display:inline;fill:#e0a447;fill-opacity:1;stroke:none;stroke-width:0.2;stroke-miterlimit:10;stroke-dasharray:none;stroke-opacity:1"
       inkscape:connector-curvature="0"
       id="path45-9-2-6-6"
       d="m 82.70387,109.81962 c -0.865805,0 -1.635408,-0.0962 -2.501211,-0.3848 -0.577201,-0.1924 -1.924007,-0.6734 -2.982211,-2.0202 -1.250605,-1.63541 -1.250605,-3.65562 -1.154404,-5.19482 0.640632,-5.844056 1.075261,-10.841997 0.984344,-14.403053 -0.156688,-2.383568 -0.02807,-4.715929 2.482746,-5.377758 1.756631,-0.402388 2.757416,0.80016 4.131885,1.295683 0.940887,0.339111 2.204794,0.211721 3.451066,-0.734779 2.345717,-1.417511 3.823655,-1.873705 5.785022,-0.885977 1.719277,0.865585 2.241055,2.264405 2.40501,3.848014 0.328974,1.700552 0.666877,2.241814 1.737648,3.225794 0.911557,0.75314 1.799376,1.342335 3.032345,1.780958 1.44505,0.331046 2.22413,1.117848 2.25696,3.008886 -0.0209,1.514219 -0.58106,2.436297 -1.87465,3.523278 -3.686218,2.723814 -7.58832,6.181434 -10.828124,8.663164 -2.175798,1.74895 -4.512924,3.62657 -6.926426,3.65561 z"
       stroke-miterlimit="10" />
    <path
       sodipodi:nodetypes="ccccccccccccccccccc"
       style="display:inline;fill:#e0a447;fill-opacity:1;stroke:none;stroke-width:0.2;stroke-miterlimit:10;stroke-dasharray:none;stroke-opacity:1"
       inkscape:connector-curvature="0"
       id="path62-3-0-9-6"
       d="m 45.161285,108.07428 c -5.375047,-1.93183 -10.210202,-2.46735 -15.456372,-3.97664 -2.020207,-0.57721 -2.69361,-0.96201 -3.174612,-1.63541 -0.1924,-0.1924 -0.673402,-1.0582 -0.577202,-2.11641 0.885465,-2.145761 1.376651,-3.348241 1.771955,-4.646802 0.223745,-0.953 0.116377,-2.595243 -0.566031,-4.038249 -0.796605,-1.9943 -0.325652,-3.382167 0.30444,-4.329352 0.750916,-1.045823 2.14762,-1.051031 3.187949,-1.013186 1.850318,0.08975 3.17328,-0.491942 3.67112,-1.080545 0.539381,-0.712167 1.502602,-2.132243 2.597408,-3.362344 0.970684,-1.130882 1.817369,-1.51838 2.982212,-1.731605 l 0.577203,0 c 1.250603,0.1924 2.020206,1.154403 2.886009,2.116408 2.917779,3.201931 4.675557,6.900502 6.541625,10.293439 1.428144,2.328168 3.150615,3.854822 4.617617,6.156835 0.577203,0.8658 1.058204,1.731601 1.346806,2.886011 0.425605,1.93648 -0.03053,3.52031 -0.923816,4.75201 -1.336346,1.54308 -3.565348,2.20161 -5.397345,2.33422 -1.805319,0.10472 -3.222113,-0.21906 -4.388966,-0.60838 z"
       stroke-miterlimit="10" />
    <path
       style="fill:none;fill-rule:evenodd;stroke:none;stroke-width:1px;stroke-linecap:butt;stroke-linejoin:miter;stroke-opacity:1"
       d="m 60.455502,35.455575 2.186485,8.077841 -2.915312,9.899911 7.288279,-7.106072 z"
       id="path4232"
       inkscape:connector-curvature="0" />
    <path
       sodipodi:nodetypes="ccccccccccccccccccc"
       style="display:inline;fill:#fcbe51;fill-opacity:1;stroke:none;stroke-width:0.2;stroke-miterlimit:10;stroke-dasharray:none;stroke-opacity:1"
       inkscape:connector-curvature="0"
       id="path62-3-0-9"
       d="m 44.8877,108.30937 c -5.375047,-1.93183 -10.210203,-2.46735 -15.456372,-3.97665 -2.020207,-0.5772 -2.69361,-0.962 -3.174612,-1.6354 -0.192401,-0.19241 -0.673402,-1.05821 -0.577202,-2.11641 0.67289,-2.570911 2.354495,-3.858425 2.749799,-5.156986 0.223745,-0.953001 -0.861467,-2.085064 -1.543875,-3.528069 -0.796605,-1.9943 -0.325652,-3.382167 0.30444,-4.329352 0.750916,-1.045822 2.14762,-1.051031 3.18795,-1.013185 1.850317,0.08975 3.343339,0.188296 3.841178,-0.400307 0.539381,-0.712166 1.332543,-2.812482 2.427349,-4.042583 0.970684,-1.130882 1.817369,-1.51838 2.982211,-1.731605 l 0.577204,0 c 1.250603,0.192399 2.020206,1.154404 2.886009,2.116408 2.917778,3.201931 4.675557,6.900502 6.541625,10.293438 1.428144,2.328168 3.150615,3.854823 4.617617,6.15683 0.577203,0.8658 1.058204,1.731611 1.346806,2.886011 0.425605,1.93649 -0.03053,3.52032 -0.923816,4.75201 -1.336346,1.54308 -3.565349,2.20161 -5.397345,2.33423 -1.805319,0.10472 -3.222113,-0.21906 -4.388966,-0.60838 z"
       stroke-miterlimit="10" />
    <path
       sodipodi:nodetypes="cscccccccccccccc"
       style="display:inline;fill:#fcbe51;fill-opacity:1;stroke:none;stroke-width:0.2;stroke-miterlimit:10;stroke-dasharray:none;stroke-opacity:1"
       inkscape:connector-curvature="0"
       id="path45-9-2-6"
       d="m 82.403242,110 c -0.865803,0 -1.635406,-0.0962 -2.501208,-0.3848 -0.577203,-0.1924 -1.924008,-0.6734 -2.982212,-2.02021 -1.250605,-1.63541 -1.250605,-3.65561 -1.154403,-5.19482 0.640631,-5.84405 1.07526,-10.841992 0.984343,-14.403046 -0.156688,-2.38357 -0.02807,-4.715931 2.482745,-5.377759 1.756631,-0.402387 2.757418,0.80016 4.131885,1.295683 0.940887,0.339111 2.204796,0.21172 3.451067,-0.734779 2.345717,-1.417513 3.823656,-1.873704 5.785022,-0.885979 1.719278,0.865587 2.241055,2.264408 2.405009,3.848015 0.268849,2.121428 0.546627,2.722817 1.6174,3.706797 0.980005,0.79878 2.288964,1.107555 3.152594,1.299954 1.445056,0.331049 2.224126,1.117848 2.256956,3.008888 -0.0209,1.514219 -0.58106,2.436297 -1.87465,3.523277 -3.686215,2.723809 -7.588317,6.181439 -10.828122,8.663169 -2.175797,1.74895 -4.512923,3.62657 -6.926426,3.65561 z"
       stroke-miterlimit="10" />
    <path
       style="fill:#fcb24c;fill-opacity:1;fill-rule:evenodd;stroke:none;stroke-width:1px;stroke-linecap:butt;stroke-linejoin:miter;stroke-opacity:1"
       d="m 76.073187,105.86729 c 1.440712,4.18728 6.894492,5.13012 9.978196,2.80981 -4.590559,1.35941 -7.590408,-0.18324 -9.978196,-2.80981 z"
       id="path4316"
       inkscape:connector-curvature="0"
       sodipodi:nodetypes="ccc" />
    <path
       style="fill:#fcb24c;fill-opacity:1;fill-rule:evenodd;stroke:none;stroke-width:1px;stroke-linecap:butt;stroke-linejoin:miter;stroke-opacity:1"
       d="m 55.331987,105.43151 c -1.398438,3.72342 -7.851765,4.0122 -10.479937,2.74221 3.939806,0.24477 7.941418,-0.78433 10.479937,-2.74221 z"
       id="path4318"
       inkscape:connector-curvature="0"
       sodipodi:nodetypes="ccc" />
    <path
       style="display:inline;fill:#ceced3;fill-opacity:1;stroke:none"
       d="m 53.366605,45.76404 c 2.582341,2.539906 5.042969,5.79766 9.161902,5.752041 5.681896,-0.124771 7.864201,-3.767714 10.005283,-5.886265 -7.160676,1.532378 -14.264282,0.989091 -19.167185,0.134224 z"
       id="path151-8-2-2-3"
       inkscape:connector-curvature="0"
       sodipodi:nodetypes="cccc" />
    <path
       inkscape:connector-curvature="0"
       style="display:inline;fill:#e0a447;fill-opacity:1;stroke:none"
       id="path151-8-2-0"
       d="m 61.75341,50.558244 c -3.729472,-0.04052 -6.16588,-2.890133 -8.370243,-4.617029 -0.795558,-0.706927 -1.297881,-1.805432 -1.256919,-2.312255 0.04096,-0.506824 0.279645,-0.846037 1.28805,-1.50749 1.008407,-0.661453 1.630864,-0.921472 2.815866,-1.566741 1.185003,-0.645268 2.1938,-1.141804 2.931043,-1.545428 0.737241,-0.403625 0.978908,-0.541493 1.873397,-0.557106 1.081681,-0.01698 1.790008,0.08125 2.849636,0.521915 2.931548,1.332913 4.184759,1.550776 7.969275,3.106767 0.502226,0.294273 1.031413,0.497104 1.219517,1.062028 0.165484,0.798909 0.416924,1.722957 -0.938608,2.971473 -3.555402,2.854633 -6.651541,4.484389 -10.381014,4.443866 z"
       sodipodi:nodetypes="zczzzzcccccz" />
    <path
       style="display:inline;fill:#efaf4c;fill-opacity:1;fill-rule:evenodd;stroke:none;stroke-width:1px;stroke-linecap:butt;stroke-linejoin:miter;stroke-opacity:1"
       d="m 52.76445,43.944517 c 0,0 2.100553,1.053319 4.094856,1.673617 2.215706,0.689162 4.627378,0.634629 8.313478,0.183701 1.831055,-0.223995 7.565537,-1.77583 7.565537,-1.77583 0,0 -2.81162,1.736294 -6.838374,2.560533 -3.103794,0.690268 -6.372607,0.923161 -8.668413,0.286133 -2.295806,-0.637028 -4.467083,-2.928169 -4.467084,-2.928154 z"
       id="path4921"
       inkscape:connector-curvature="0"
       sodipodi:nodetypes="csscczc" />
    <path
       style="display:inline;fill:#efaf4c;fill-opacity:1;fill-rule:evenodd;stroke:none;stroke-width:1px;stroke-linecap:butt;stroke-linejoin:miter;stroke-opacity:1"
       d="m 53.477675,45.03051 c 2.267881,1.069225 5.989004,2.353045 6.792687,2.374674 0.803683,0.02163 3.200617,-0.06728 5.519255,-0.537985 2.318638,-0.470706 4.636294,-1.371766 6.297923,-2.052981 -1.992451,1.011005 -4.483668,2.33781 -6.655059,2.856831 -2.171391,0.519021 -3.928905,0.533248 -5.510549,0.382606 -1.581644,-0.150643 -4.445182,-1.401824 -6.444257,-3.023145 z"
       id="path4938"
       inkscape:connector-curvature="0"
       sodipodi:nodetypes="czzczzc" />
    <path
       inkscape:connector-curvature="0"
       style="display:inline;fill:#fcc454;fill-opacity:1;stroke:none"
       id="path151-8-2-0-2"
       d="m 54.511446,44.999394 c -1.411358,-0.684905 -2.442899,-1.188439 -2.381439,-1.512028 0.06146,-0.323589 -0.06444,-0.884303 0.91905,-1.496973 1.21145,-0.750022 1.757723,-0.923364 3.072251,-1.610982 1.314531,-0.687618 1.846726,-0.899075 2.67599,-1.391892 0.829264,-0.492827 1.259977,-0.751264 2.07511,-0.772132 0.815133,-0.02093 1.606373,0.01084 3.1614,0.677698 1.555029,0.666875 3.994481,1.67374 7.924808,3.057097 0.576585,0.247879 0.926312,0.627799 1.114416,1.192723 0.287816,0.917043 -1.058092,1.425149 -4.660937,2.246359 -3.602845,0.82121 -6.542207,1.028153 -8.561324,0.972288 -2.019117,-0.05587 -3.927967,-0.677253 -5.339325,-1.362158 z"
       sodipodi:nodetypes="zzczzzzcczzz" />
    <path
       style="display:inline;fill:#fcc454;fill-opacity:1;fill-rule:evenodd;stroke:none;stroke-width:1px;stroke-linecap:butt;stroke-linejoin:miter;stroke-opacity:1"
       d="m 52.364368,42.638523 c 0.194593,1.192963 2.390854,3.844547 7.635543,4.740222 -3.386385,-0.23418 -6.775218,-2.207934 -7.309977,-2.695637 -0.534758,-0.487693 -0.757073,-1.375233 -0.325566,-2.044585 z"
       id="path4234-1"
       inkscape:connector-curvature="0"
       sodipodi:nodetypes="cczc" />
    <path
       inkscape:connector-curvature="0"
       style="display:inline;fill:#fcbe51;fill-opacity:1;stroke:none"
       d="m 60.873048,38.21485 c -0.01367,3.5e-4 -0.02365,0.0034 -0.03711,0.0039 -0.293645,3.130683 -0.589183,5.866355 -0.851563,8.142578 2.014775,0.04445 4.896022,-0.16766 8.427734,-0.972656 3.602845,-0.82121 4.947973,-1.329051 4.660157,-2.246094 -0.188104,-0.564924 -0.536697,-0.94548 -1.113282,-1.193359 -3.930327,-1.383357 -6.370752,-2.389766 -7.925781,-3.056641 -1.555027,-0.666858 -2.345023,-0.698664 -3.160156,-0.677734 z"
       id="path151-8-2-0-2-4" />
  </g>
  <g
     inkscape:groupmode="layer"
     id="layer3"
     inkscape:label="Layer 11"
     style="display:inline">
    <path
       sodipodi:nodetypes="cccscccc"
       style="display:inline;fill:#4d4d4d;fill-opacity:1;stroke:none"
       inkscape:connector-curvature="0"
       id="path69-1"
       d="m 90.222588,87.861976 c -1.729725,0.990494 -3.243794,1.369534 -5.221935,0.877738 -0.384802,-0.192399 -1.539206,-0.577201 -2.40501,-1.731605 -0.962003,-1.250605 -0.962003,-2.59741 -0.962003,-3.078412 0,-0.577203 -0.0962,-2.212608 1.154404,-3.559413 1.346805,-1.539206 3.367012,-1.635407 4.617618,-1.635407 2.433848,0.202987 3.535512,0.556942 5.122668,2.501209 1.463959,2.514324 -0.09169,5.076531 -2.305742,6.62589 z" />
    <path
       sodipodi:nodetypes="ccsc"
       style="display:inline;fill:#333333;fill-opacity:1;stroke:none"
       inkscape:connector-curvature="0"
       id="path69-1-5"
       d="m 88.79338,87.965225 c -2.373313,1.043048 -4.859422,0.350608 -5.77478,-1.424668 -1.980621,-4.306497 1.212712,-6.951115 4.328332,-6.302041 4.272368,0.890058 7.47336,4.889502 1.446448,7.726709 z" />
    <path
       style="display:inline;fill:#4d4d4d;fill-opacity:1;fill-rule:evenodd;stroke:none;stroke-width:1px;stroke-linecap:butt;stroke-linejoin:miter;stroke-opacity:1"
       d="m 80.926749,64.260144 c 2.362754,5.145233 4.283625,10.755258 2.442732,16.314568 3.36832,-5.396941 3.088986,-9.784974 -2.442732,-16.314568 z"
       id="path4240"
       inkscape:connector-curvature="0"
       sodipodi:nodetypes="ccc" />
    <path
       style="display:inline;fill:#1a1a1a;fill-opacity:1;fill-rule:evenodd;stroke:none;stroke-width:1px;stroke-linecap:butt;stroke-linejoin:miter;stroke-opacity:1"
       d="m 43.390481,67.863385 c -3.246762,6.974526 -1.022129,12.32567 -1.022129,12.32567 0,0 -2.825884,-3.968264 -2.344883,-6.192897 0.481002,-2.224635 3.367012,-6.132773 3.367012,-6.132773 z"
       id="path4242"
       inkscape:connector-curvature="0"
       sodipodi:nodetypes="ccsc" />
  </g>
</svg>
