<?xml version="1.0" encoding="utf-8"?>
<svg version="1.1"
	 id="svg2" xmlns:inkscape="http://www.inkscape.org/namespaces/inkscape" xmlns:sodipodi="http://sodipodi.sourceforge.net/DTD/sodipodi-0.dtd" xmlns:cc="http://creativecommons.org/ns#" xmlns:rdf="http://www.w3.org/1999/02/22-rdf-syntax-ns#" xmlns:svg="http://www.w3.org/2000/svg" xmlns:dc="http://purl.org/dc/elements/1.1/" inkscape:export-ydpi="90"
	 xmlns="http://www.w3.org/2000/svg" xmlns:xlink="http://www.w3.org/1999/xlink" x="0px" y="0px" width="128" height="128" viewBox="0 0 128 128"
	 style="enable-background:new 0 0 128 128;" xml:space="preserve">
<style type="text/css">
	.st0{display:none;}
	.st1{display:inline;fill:#F26622;}
	.st2{display:inline;fill:#F1F2F2;}
	.st3{fill:#D3D3D3;}
	.st4{fill-rule:evenodd;clip-rule:evenodd;fill:#090909;}
	.st5{fill-rule:evenodd;clip-rule:evenodd;fill:#A4A4A4;}
	.st6{fill-rule:evenodd;clip-rule:evenodd;fill:#7C7C7C;}
</style>
<sodipodi:namedview  bordercolor="#666666" borderopacity="1.0" id="base" inkscape:current-layer="layer3" inkscape:cx="-12.194531" inkscape:cy="68.128478" inkscape:document-units="px" inkscape:pageopacity="0.0" inkscape:pageshadow="2" inkscape:window-height="713" inkscape:window-maximized="1" inkscape:window-width="1366" inkscape:window-x="0" inkscape:window-y="27" inkscape:zoom="3.959798" pagecolor="#ffffff" showgrid="false" units="px">
	</sodipodi:namedview>
<g id="layer1" transform="translate(0,-924.36216)" inkscape:groupmode="layer" inkscape:label="Layer 1" sodipodi:insensitive="true" class="st0">
	<circle id="path4734" class="st1" cx="64" cy="988.4" r="46"/>
</g>
<g id="layer3" inkscape:groupmode="layer" inkscape:label="Layer 3" class="st0">
	<path id="path15-0" inkscape:connector-curvature="0" class="st2" d="M36.2,56.9c2.3,1.6,3.8,4.2,3.8,7.1c0,3-1.5,5.6-3.8,7.1
		c0.6,2.5,1.6,4.9,3,7.2c2.3,4,5.4,7.2,9,9.6l4.5-7.8c-2.3-1.6-4.2-3.7-5.7-6.3c-5.2-8.9-2.5-20.2,5.7-26L48.2,40
		C42,44.1,37.9,50.2,36.2,56.9z"/>
	<path id="path17-7" inkscape:connector-curvature="0" class="st2" d="M37.8,64c0,3.6-2.9,6.5-6.5,6.5s-6.5-2.9-6.5-6.5
		s2.9-6.5,6.5-6.5S37.8,60.4,37.8,64z"/>
	<path id="path19-7" inkscape:connector-curvature="0" class="st2" d="M76,43.1c-2.6-1.5-4.1-4.1-4.3-6.8c-6.6-1.9-14-1.3-20.5,1.9
		l4.5,7.8c9.2-4.3,20.2-0.9,25.4,8.1c1.5,2.6,2.3,5.3,2.6,8.1h9c-0.3-4.3-1.5-8.6-3.8-12.6c-1.3-2.3-3-4.4-4.8-6.2
		C81.6,44.6,78.6,44.6,76,43.1z"/>
	<path id="path21-0" inkscape:connector-curvature="0" class="st2" d="M77.1,41.3c-3.1-1.8-4.2-5.7-2.4-8.8c1.8-3.1,5.7-4.2,8.8-2.4
		c3.1,1.8,4.2,5.7,2.4,8.8C84.2,42,80.2,43.1,77.1,41.3z"/>
	<path id="path23-6" inkscape:connector-curvature="0" class="st2" d="M73.9,81.1c-5.8,3.3-12.5,3.4-18.2,0.8l-4.5,7.8
		c6.3,3.1,13.6,3.9,20.5,1.9c0.2-2.8,1.7-5.4,4.3-6.8c2.6-1.5,5.6-1.5,8.1-0.3c5.2-5,8.1-11.8,8.6-18.8h-9
		C83.1,72,79.7,77.8,73.9,81.1z"/>
	<path id="path25-7" inkscape:connector-curvature="0" class="st2" d="M77.1,86.7c3.1-1.8,7.1-0.7,8.8,2.4c1.8,3.1,0.7,7.1-2.4,8.8
		c-3.1,1.8-7.1,0.7-8.8-2.4C73,92.5,74,88.5,77.1,86.7z"/>
</g>
<path class="st3" d="M102,110H26c-4.4,0-8-3.6-8-8V26c0-4.4,3.6-8,8-8h76c4.4,0,8,3.6,8,8v76C110,106.4,106.4,110,102,110z"/>
<g id="svgg">
	<path id="path0" class="st4" d="M34.5,40.4c-0.6,0.2-1.4,1.1-1.6,1.6c-0.1,0.3-0.2,3.2-0.2,20.9l0,20.5l-2.1,0l-2.1,0l0,0.8l0,0.8
		l1.8,1.4l1.8,1.4h32h32l1.8-1.4l1.8-1.4l0-0.8l0-0.8l-2.1,0l-2.1,0l0-20.5c0-23,0-20.8-0.8-21.8c-0.9-1,2.5-0.9-30.5-0.9
		C37.1,40.2,35,40.3,34.5,40.4 M92.9,42.6l0.2,0.2v20.3v20.3H81.8H70.5l-0.1,0.3c-0.2,0.5-0.6,1-1.1,1.2l-0.5,0.2l-4.7,0
		c-5.1,0-5,0-5.8-0.5c-0.2-0.1-0.4-0.4-0.5-0.7l-0.2-0.5H46.2H34.8V63.2V42.9l0.2-0.3l0.2-0.3H64h28.7L92.9,42.6 M65.7,47.6
		c-0.1,0.2-0.3,0.7-0.4,1.1c-0.4,1-0.7,1.8-1.5,4c-0.1,0.3-0.4,1-0.6,1.6c-0.2,0.5-0.5,1.3-0.6,1.6c-0.4,1-0.7,1.9-1,2.6
		c-0.1,0.4-0.3,0.9-0.4,1.1c-0.3,0.7-0.3,0.7,0.5,0.7c0.7,0,0.7,0,1.1-0.9c0.1-0.3,0.3-0.9,0.5-1.3s0.4-1,0.5-1.3
		c0.1-0.3,0.3-0.9,0.5-1.3s0.4-1,0.5-1.3s0.3-0.9,0.5-1.3c0.2-0.4,0.4-1,0.5-1.3c0.1-0.3,0.3-0.9,0.5-1.3s0.4-1,0.5-1.3
		c0.1-0.3,0.3-0.7,0.4-1l0.2-0.5h-0.7h-0.7L65.7,47.6 M59,50.4c-0.4,0.2-1.9,1-3.3,1.7c-1.4,0.7-3,1.5-3.4,1.8l-0.8,0.4v0.5v0.5
		l0.9,0.5c0.5,0.3,1.6,0.8,2.4,1.2c3.1,1.6,5,2.6,5.1,2.6c0,0,0.1-0.3,0.1-0.7v-0.7l-3.3-1.7c-1.8-0.9-3.3-1.7-3.3-1.8
		c0-0.1,1.5-0.9,3.3-1.8l3.3-1.7v-0.7c0-0.4,0-0.7,0-0.7C59.8,50,59.4,50.2,59,50.4 M68.2,50.7v0.7l3.4,1.7c1.9,0.9,3.4,1.7,3.4,1.8
		c0,0-1.6,0.8-3.4,1.7l-3.4,1.7v0.7c0,0.4,0,0.7,0.1,0.7c0.1,0,2.4-1.2,7-3.5l1.4-0.7v-0.6v-0.6l-2-1c-1.1-0.6-3-1.5-4.1-2.1
		c-1.2-0.6-2.2-1.1-2.2-1.1S68.2,50.3,68.2,50.7 M52.6,65v0.7h3.7h3.7V65v-0.7h-3.7h-3.7V65 M63.3,65v0.7h1.3h1.3V65v-0.7h-1.3h-1.3
		V65 M69.3,65v0.7h1.3h1.3V65v-0.7h-1.3h-1.3V65 M52.7,66.8c0,0.1,0,0.4,0,0.7l0,0.5l2.5,0l2.5,0l0-0.7l0-0.7l-2.4,0
		C53.1,66.6,52.7,66.7,52.7,66.8 M59.8,66.7c0,0-0.1,0.4-0.1,0.7v0.6l2.5,0l2.5,0v-0.7v-0.7l-2.4,0C60.9,66.7,59.8,66.7,59.8,66.7
		 M65.7,67.4v0.7h2.4h2.4v-0.7v-0.7h-2.4h-2.4V67.4 M72.8,67.4v0.7h2.4h2.4v-0.7v-0.7h-2.4h-2.4V67.4 M54,69.9v0.7h2.3h2.3v-0.7
		v-0.7h-2.3H54V69.9 M52.6,72.1v0.7h2.5h2.5v-0.7v-0.7h-2.5h-2.5V72.1 M61,72.1v0.7h1.9h1.9v-0.7v-0.7h-1.9H61V72.1 M52.7,73.9
		c0,0.1,0,0.4,0,0.7l0,0.5h6h6v-0.7v-0.7l-6,0C53.7,73.8,52.7,73.8,52.7,73.9 M68.1,74.5v0.7h2.4h2.4v-0.7v-0.7h-2.4h-2.4V74.5
		 M51.5,76.8v0.7l7.2,0l7.2,0l0-0.4c0-0.2,0-0.6,0-0.7l-0.1-0.2h-7.2h-7.2V76.8 M70.4,76.8l0,0.7h2.4h2.4v-0.7v-0.7l-2.5,0l-2.5,0
		L70.4,76.8"/>
	<path id="path1" class="st5" d="M49.8,42.4c7.8,0,20.7,0,28.5,0c7.8,0,1.4,0-14.2,0S41.9,42.4,49.8,42.4 M66.5,47.2
		c0.4,0,0.7,0.1,0.8,0.2c0.1,0.1,0.1,0.1,0,0C67.3,47.2,67.1,47.2,66.5,47.2l-0.7,0L66.5,47.2 M71,52.9c0,0,0.1,0.1,0.3,0.2
		c0.2,0.1,0.3,0.1,0.3,0.1c0,0-0.1-0.1-0.3-0.2C71.1,52.9,71,52.8,71,52.9 M72,53.4c0,0,0.1,0.1,0.3,0.2s0.3,0.1,0.3,0.1
		c0,0-0.1-0.1-0.3-0.2C72.2,53.4,72,53.4,72,53.4 M73,53.9c0,0,0.1,0.1,0.3,0.2c0.2,0.1,0.3,0.1,0.3,0.1s-0.1-0.1-0.3-0.2
		C73.2,53.9,73,53.9,73,53.9 M51.4,54.2c-0.1,0.1-0.1,0.4-0.1,0.7l0,0.5l0-0.6c0-0.3,0.1-0.6,0.1-0.7c0.1-0.1,0.1-0.1,0.1-0.1
		S51.5,54.1,51.4,54.2 M76.6,54.8c0,0.3,0,0.5,0,0.3c0-0.2,0-0.5,0-0.6C76.6,54.3,76.6,54.5,76.6,54.8 M53.3,56.4
		c0,0,0.1,0.1,0.3,0.2c0.2,0.1,0.3,0.1,0.3,0.1c0,0-0.1-0.1-0.3-0.2C53.5,56.4,53.3,56.4,53.3,56.4 M52.5,64.9c0,0.4,0,0.8,0.1,0.8
		c0,0,0.1-0.2,0-0.5C52.6,64.2,52.6,64.1,52.5,64.9 M63.2,65c0,0.4,0,0.6,0,0.4c0-0.2,0-0.6,0-0.8C63.2,64.3,63.2,64.5,63.2,65
		 M71.8,65c0,0.4,0,0.8,0,0.8c0,0,0.1-0.3,0.1-0.8C71.9,64,71.8,64,71.8,65 M52.6,66.7c0,0.1,0,0.4,0,0.8l0,0.6l0-0.8
		C52.7,66.5,52.7,66.4,52.6,66.7 M57.6,67.1c0.1,1,0.1,1.1,0.1,0.3c0-0.4,0-0.8-0.1-0.8C57.6,66.5,57.6,66.8,57.6,67.1 M59.7,66.7
		c0,0.1,0,0.4,0,0.8l0,0.6l0-0.8C59.8,66.5,59.8,66.4,59.7,66.7 M64.7,67.1c0.1,1,0.1,1.1,0.1,0.3c0-0.4,0-0.8-0.1-0.8
		C64.7,66.5,64.7,66.8,64.7,67.1 M70.6,67.3c0,0.4,0,0.6,0,0.4c0-0.2,0-0.6,0-0.8C70.7,66.7,70.6,66.9,70.6,67.3 M77.7,67.4
		c0,0.4,0,0.6,0,0.4c0-0.2,0-0.6,0-0.8C77.8,66.8,77.7,66.9,77.7,67.4 M52.5,72c0,0.4,0,0.8,0.1,0.8c0,0,0.1-0.2,0-0.5
		C52.6,71.4,52.6,71.2,52.5,72 M57.6,72.1c0,0.4,0,0.8,0,0.8c0,0,0.1-0.3,0.1-0.8C57.7,71.1,57.6,71.1,57.6,72.1 M64.7,72.1
		c0,0.4,0,0.8,0,0.8c0,0,0.1-0.3,0.1-0.8C64.8,71.1,64.7,71.1,64.7,72.1 M52.6,73.8c0,0.1,0,0.4,0,0.8l0,0.6l0-0.8
		C52.7,73.7,52.7,73.5,52.6,73.8 M64.7,74.2c0.1,1,0.1,1.1,0.1,0.3c0-0.4,0-0.8-0.1-0.8C64.7,73.7,64.7,73.9,64.7,74.2 M55.1,76.1
		c2,0,5.2,0,7.2,0c2,0,0.3,0-3.6,0C54.7,76,53.1,76,55.1,76.1 M70.4,76.1c-0.1,0.1-0.1,1.4,0,1.5c0,0,0.1-0.3,0-0.7L70.4,76.1l2.5,0
		l2.5,0l-2.4,0C71.5,76,70.4,76,70.4,76.1 M75.4,76.8c0,0.4,0,0.7,0,0.7C75.5,77.5,75.5,77.1,75.4,76.8l0-0.8L75.4,76.8 M29.5,83.4
		c0.6,0,1.6,0,2.1,0c0.6,0,0.1,0-1.1,0C29.4,83.3,28.9,83.4,29.5,83.4 M39,83.4c10.7,0.1,18.7,0.1,18.7,0c0,0-5.2-0.1-11.4-0.1
		C40,83.3,36.7,83.4,39,83.4 M70.4,83.4c0,0-0.1,0.1-0.1,0.2c0,0.1,0,0.1,0.1,0c0.1-0.1,2.5-0.1,11.4-0.2l11.3,0l-11.3,0
		C75.5,83.3,70.4,83.3,70.4,83.4 M96.4,83.4c0.6,0,1.6,0,2.1,0c0.6,0,0.1,0-1.1,0C96.3,83.3,95.8,83.4,96.4,83.4 M57.9,84.1
		c0,0,0.1,0.2,0.3,0.3l0.3,0.3l-0.3-0.3C58,84.1,57.9,84.1,57.9,84.1 M69.7,84.4l-0.3,0.3L69.7,84.4c0.2-0.1,0.4-0.3,0.4-0.3
		C70.1,84.1,70,84.1,69.7,84.4"/>
	<path id="path2" class="st6" d="M95.3,63c0,11.1,0,15.7,0,10.1c0-5.6,0-14.7,0-20.3C95.4,47.3,95.3,51.8,95.3,63 M32.7,63.1
		c0,11.1,0,15.7,0,10.1c0-5.5,0-14.6,0-20.2C32.7,47.5,32.7,52,32.7,63.1 M59.9,65c0,0.4,0,0.7,0,0.6C60,65.6,60,65.3,59.9,65l0-0.7
		L59.9,65 M53.9,66.6c0.7,0,1.8,0,2.4,0c0.7,0,0.1,0-1.3,0C53.8,66.6,53.2,66.6,53.9,66.6 M61,66.6c0.7,0,1.8,0,2.4,0
		c0.7,0,0.1,0-1.3,0C60.9,66.6,60.3,66.6,61,66.6 M66.9,66.6c0.7,0,1.8,0,2.5,0c0.7,0,0.1,0-1.2,0S66.2,66.6,66.9,66.6 M74,66.6
		c0.7,0,1.8,0,2.5,0c0.7,0,0.1,0-1.2,0S73.3,66.6,74,66.6 M55.2,70.7c0.7,0,1.7,0,2.3,0c0.6,0,0.1,0-1.2,0
		C55,70.6,54.5,70.7,55.2,70.7 M60.9,72.1l0,0.7l1.9,0l1.9,0l-1.8,0l-1.8,0L60.9,72.1l0-0.7L60.9,72.1 M53.9,72.8c0.7,0,1.8,0,2.4,0
		c0.7,0,0.1,0-1.3,0C53.8,72.8,53.2,72.8,53.9,72.8 M55.7,73.7c1.7,0,4.4,0,6,0c1.6,0,0.3,0-3,0C55.4,73.7,54,73.7,55.7,73.7
		 M68,73.8c0,0.1,0,0.4,0,0.8l0,0.6l0-0.7L68,73.8l2.5-0.1l2.5,0l-2.5,0C68.5,73.7,68,73.7,68,73.8 M55.1,77.6c2,0,5.2,0,7.2,0
		c2,0,0.3,0-3.6,0C54.7,77.6,53.1,77.6,55.1,77.6 M71.7,77.6c0.7,0,1.8,0,2.4,0c0.7,0,0.1,0-1.3,0C71.5,77.6,71,77.6,71.7,77.6"/>
</g>
</svg>
