<?xml version="1.0" encoding="UTF-8" standalone="no"?>
<!-- Created with Inkscape (http://www.inkscape.org/) -->

<svg
   xmlns:dc="http://purl.org/dc/elements/1.1/"
   xmlns:cc="http://creativecommons.org/ns#"
   xmlns:rdf="http://www.w3.org/1999/02/22-rdf-syntax-ns#"
   xmlns:svg="http://www.w3.org/2000/svg"
   xmlns="http://www.w3.org/2000/svg"
   xmlns:sodipodi="http://sodipodi.sourceforge.net/DTD/sodipodi-0.dtd"
   xmlns:inkscape="http://www.inkscape.org/namespaces/inkscape"
   width="128"
   height="128"
   viewBox="0 0 128 128"
   id="svg4437"
   version="1.1"
   inkscape:version="0.91 r13725"
   sodipodi:docname="os_openbsd.svg">
  <defs
     id="defs4439" />
  <sodipodi:namedview
     id="base"
     pagecolor="#ffffff"
     bordercolor="#666666"
     borderopacity="1.0"
     inkscape:pageopacity="0.0"
     inkscape:pageshadow="2"
     inkscape:zoom="3.959798"
     inkscape:cx="56.804403"
     inkscape:cy="66.703998"
     inkscape:document-units="px"
     inkscape:current-layer="layer1"
     showgrid="false"
     units="px"
     inkscape:window-width="1366"
     inkscape:window-height="713"
     inkscape:window-x="0"
     inkscape:window-y="27"
     inkscape:window-maximized="1" />
  <metadata
     id="metadata4442">
    <rdf:RDF>
      <cc:Work
         rdf:about="">
        <dc:format>image/svg+xml</dc:format>
        <dc:type
           rdf:resource="http://purl.org/dc/dcmitype/StillImage" />
        <dc:title />
      </cc:Work>
    </rdf:RDF>
  </metadata>
  <g
     inkscape:label="Layer 1"
     inkscape:groupmode="layer"
     id="layer1"
     transform="translate(0,-924.36216)"
     style="display:inline">
    <path
       style="display:inline;fill:#fdd378;fill-opacity:1;fill-rule:evenodd;stroke:none;stroke-width:1px;stroke-linecap:butt;stroke-linejoin:miter;stroke-opacity:1"
       d="m 18.288945,996.26407 c 0,0 0.540777,-11.2724 3.187536,-12.0291 3.152484,-0.90129 5.720625,5.23836 6.845916,11.66859 1.125292,6.43024 0.921089,15.98304 -1.815397,16.44434 -4.210582,0.7096 -6.865421,-8.4064 -6.865421,-8.4064 0,0 -0.341013,17.2674 8.339804,17.589 8.680815,0.3214 10.315954,-10.532 8.386885,-22.42794 -1.929071,-11.89597 -5.131488,-24.81245 -14.154593,-24.41877 -9.467747,0.41308 -3.92473,21.58028 -3.92473,21.58028 z"
       id="path4316"
       inkscape:connector-curvature="0"
       sodipodi:nodetypes="cssscsssc" />
    <path
       style="display:inline;fill:#fbb040;fill-opacity:1;fill-rule:evenodd;stroke:none;stroke-width:1px;stroke-linecap:butt;stroke-linejoin:miter;stroke-opacity:1"
       d="m 68.779336,935.15787 c 0,0 -0.528188,6.76723 -2.742372,11.56936 -8.212448,0.51659 -14.748313,2.94725 -20.169777,6.72865 -6.456054,-1.40425 -12.439979,-6.58972 -12.439979,-6.58972 0,0 4.860523,5.88772 5.864567,12.33991 -0.329409,0.35277 -0.656115,0.70907 -0.976598,1.07326 -4.15415,4.72062 -7.609982,11.77675 -9.154293,19.3921 -6.303014,1.85041 -13.352546,1.52364 -13.352546,1.52364 0,0 8.028772,2.26199 12.531358,4.97655 -0.197437,4.09356 0.226454,8.20417 1.45029,12.07414 0.895711,2.83254 2.090925,5.45274 3.467205,7.85364 -4.510597,7.6641 -8.582694,11.0158 -8.582694,11.0158 0,0 6.750921,-3.3996 12.960603,-4.7012 4.418086,5.3784 9.345788,9.0537 12.38838,10.8395 0.343258,0.2016 0.745252,0.4081 1.193865,0.6167 0.464955,7.1555 -0.966653,13.365 -0.966653,13.365 0,0 3.688472,-6.9718 7.099144,-11.2367 4.634511,1.256 10.430862,2.232 15.668164,2.2155 4.35221,6.0288 4.514044,9.5893 4.514044,9.5893 0,0 -0.119051,-5.7997 0.596161,-9.9841 1.492718,-0.2502 2.867228,-0.627 4.064286,-1.1557 2.486385,-1.0979 5.137597,-2.4255 7.730114,-3.9716 5.449527,1.4393 9.661552,5.5631 9.661552,5.5631 0,0 -3.155641,-3.5202 -4.407441,-9.1102 1.270111,-0.9762 2.47985,-2.011 3.596515,-3.1042 7.057479,1.4079 11.496009,4.9396 11.496009,4.9396 0,0 -4.72112,-4.6349 -7.14484,-10.3521 0.28741,-0.4828 0.55387,-0.9732 0.79757,-1.4718 3.46442,0.5089 5.77909,1.366 5.77909,1.366 0,0 -2.99763,-2.773 -4.42921,-4.8503 0.42462,-1.2097 0.83708,-2.3299 1.2262,-3.3696 4.44923,-0.6811 8.77291,0.3768 8.77291,0.3768 0,0 -4.96752,-2.3533 -6.81381,-5.83868 0.7439,-2.38883 1.13477,-4.52516 0.9334,-6.92569 1.87243,-0.99957 3.37955,-1.21747 3.37955,-1.21747 0,0 -2.11625,-0.31068 -3.6708,-0.75654 -0.0261,-0.12633 -0.0513,-0.25182 -0.0805,-0.38014 -0.54862,-2.40547 -1.1598,-4.10397 -1.74651,-5.40765 2.26147,-3.22607 5.27059,-4.59549 5.27059,-4.59549 0,0 -4.48712,0.89619 -7.56072,0.059 -0.0191,-0.0571 -0.0378,-0.11456 -0.0553,-0.17282 -0.58374,-1.94578 -1.66797,-12.38453 -7.669506,-19.48659 1.148496,-4.98071 5.168646,-10.52284 5.168646,-10.52284 0,0 -4.154085,4.24069 -10.045735,6.12969 -2.721737,-2.02558 -9.36693,-6.10296 -19.549069,-6.82593 -4.048553,-7.07336 -4.051855,-11.58024 -4.051855,-11.58024 z"
       id="path4159"
       inkscape:connector-curvature="0" />
  </g>
  <g
     inkscape:groupmode="layer"
     id="layer10"
     inkscape:label="Layer 2"
     transform="translate(0,-924.36216)"
     style="display:inline">
    <path
       style="display:inline;fill:#fcc664;fill-opacity:1;fill-rule:evenodd;stroke:none;stroke-width:1px;stroke-linecap:butt;stroke-linejoin:miter;stroke-opacity:1"
       d="m 93.786953,954.70947 c 0,0 -8.070681,-7.72967 -23.075334,-8.07067 -15.004648,-0.34102 -24.894076,5.11521 -32.396399,13.64057 -7.502324,8.52538 -12.731216,24.66674 -8.525367,37.96629 4.205847,13.29974 15.004646,21.93874 20.23354,25.00784 5.228892,3.0692 23.416338,7.275 32.169051,3.4101 8.752715,-3.8647 19.551516,-10.5713 22.620656,-19.6651 3.06912,-9.09379 5.68357,-12.95867 4.20584,-19.43794 -1.47773,-6.47928 -3.41015,-7.84334 -4.09218,-10.11677 -0.68202,-2.27344 -2.04609,-16.14137 -11.139808,-22.73432 z"
       id="path4221"
       inkscape:connector-curvature="0" />
    <path
       style="display:inline;fill:#fcc664;fill-opacity:1;fill-rule:evenodd;stroke:none;stroke-width:1px;stroke-linecap:butt;stroke-linejoin:miter;stroke-opacity:1"
       d="m 85.147778,934.36216 c 0,0 -5.342435,12.04914 -8.979927,14.66359 -0.548572,0.39429 -0.875552,0.76456 -1.024458,1.1087 a 13.754261,13.35641 0 0 0 8.185766,2.64259 13.754261,13.35641 0 0 0 3.349102,-0.41493 c -2.422599,-7.27343 -1.530483,-17.99995 -1.530483,-17.99995 z"
       id="path4224-6"
       inkscape:connector-curvature="0" />
    <path
       style="display:inline;fill:#fcc664;fill-opacity:1;fill-rule:evenodd;stroke:none;stroke-width:1px;stroke-linecap:butt;stroke-linejoin:miter;stroke-opacity:1"
       d="m 48.65929,936.74926 c 0,0 3.410103,11.02619 1.932372,16.36875 -0.148265,0.53604 -0.160641,0.92923 -0.06652,1.20661 a 15.231992,12.674381 0 0 0 9.823178,-4.89231 C 53.393397,944.7088 48.659288,936.74926 48.659288,936.74926 Z"
       id="path4230-5"
       inkscape:connector-curvature="0" />
    <path
       style="display:inline;fill:#fcc664;fill-opacity:1;fill-rule:evenodd;stroke:none;stroke-width:1px;stroke-linecap:butt;stroke-linejoin:miter;stroke-opacity:1"
       d="m 17.399739,962.55267 c 0,0 11.367203,7.72976 14.77735,13.64067 0.131898,0.22863 0.265629,0.41665 0.400647,0.57347 a 16.652886,14.208946 0 0 0 4.600769,-9.78091 16.652886,14.208946 0 0 0 -0.158208,-1.82451 c -11.941205,-0.16237 -19.620558,-2.60872 -19.620558,-2.60872 z"
       id="path4235-4"
       inkscape:connector-curvature="0" />
    <path
       style="display:inline;fill:#fcc664;fill-opacity:1;fill-rule:evenodd;stroke:none;stroke-width:1px;stroke-linecap:butt;stroke-linejoin:miter;stroke-opacity:1"
       d="m 31.382009,990.99835 c -8.84334,9.81535 -18.652973,11.65715 -18.652973,11.65715 0,0 15.314092,-1.8942 22.47327,0.2626 a 14.307275,16.3971 0 0 0 0.03264,-0.745 14.307275,16.3971 0 0 0 -3.852933,-11.17475 z"
       id="path4240-3"
       inkscape:connector-curvature="0" />
    <path
       style="display:inline;fill:#fcc664;fill-opacity:1;fill-rule:evenodd;stroke:none;stroke-width:1px;stroke-linecap:butt;stroke-linejoin:miter;stroke-opacity:1"
       d="m 41.92598,1014.655 c -0.847473,7.315 -5.72656,13.7212 -5.72656,13.7212 0,0 9.110413,-6.5599 13.151489,-7.728 -1.613346,-2.743 -4.488454,-5.1789 -7.424929,-5.9932 z"
       id="path4248-1"
       inkscape:connector-curvature="0"
       sodipodi:nodetypes="cccc" />
    <path
       style="display:inline;fill:#fcc664;fill-opacity:1;fill-rule:evenodd;stroke:none;stroke-width:1px;stroke-linecap:butt;stroke-linejoin:miter;stroke-opacity:1"
       d="m 65.617667,1025.0003 a 15.914833,14.628786 0 0 0 -4.256379,0.5331 c 4.046374,8.8313 3.291902,16.8288 3.291902,16.8288 0,0 3.832266,-14.1014 6.55708,-16.4101 a 15.914833,14.628786 0 0 0 -5.592603,-0.9518 z"
       id="path4256-6"
       inkscape:connector-curvature="0" />
    <path
       style="display:inline;fill:#fcc664;fill-opacity:1;fill-rule:evenodd;stroke:none;stroke-width:1px;stroke-linecap:butt;stroke-linejoin:miter;stroke-opacity:1"
       d="m 87.078596,1019.8563 a 10.690267,11.333289 0 0 0 -8.67936,4.7337 c 9.987841,8.4898 11.492598,13.7533 11.492598,13.7533 0,0 -1.695759,-13.5675 -0.979705,-18.3077 a 10.690267,11.333289 0 0 0 -1.833533,-0.1793 z"
       id="path4261-4"
       inkscape:connector-curvature="0" />
  </g>
  <g
     inkscape:groupmode="layer"
     id="layer2"
     inkscape:label="Layer 7"
     style="display:inline">
    <path
       style="display:inline;fill:#f4c061;fill-opacity:1;fill-rule:evenodd;stroke:none;stroke-width:1px;stroke-linecap:butt;stroke-linejoin:miter;stroke-opacity:1"
       d="M 107.56029,75.077804 A 59.508469,53.641192 0 0 1 58.195536,98.79634 59.508469,53.641192 0 0 1 48.664487,98.03815 c 0.483787,0.31899 0.942511,0.6085 1.359023,0.85297 2.22535,1.30617 6.80356,2.81494 11.996964,3.82315 3.29737,8.1985 2.632215,15.28544 2.632215,15.28544 0,0 2.617381,-9.61661 5.06415,-14.2626 4.218035,0.28353 8.306711,0.0519 11.4462,-1.03715 7.492434,7.02138 8.728152,11.2817 8.728152,11.2817 0,0 -1.122846,-9.07863 -1.137288,-14.97609 6.956027,-3.952463 13.731817,-9.471542 16.059727,-16.369089 1.01468,-3.006482 1.96282,-5.411871 2.74666,-7.558677 z"
       id="path4219" />
  </g>
  <g
     inkscape:groupmode="layer"
     id="layer11"
     inkscape:label="Layer 3"
     transform="translate(0,-924.36216)"
     style="display:inline">
    <path
       style="display:inline;fill:#fbb040;fill-opacity:1;fill-rule:evenodd;stroke:none;stroke-width:1px;stroke-linecap:butt;stroke-linejoin:miter;stroke-opacity:1"
       d="m 95.524965,973.93765 c 0,0 -1.435715,5.65432 1.359533,10.01383 2.55248,3.98088 3.978512,5.54149 3.978512,5.54149 l -17.334918,1.19356 c 3.732361,-2.33103 5.696404,-4.09941 7.41932,-6.5912 2.331372,-3.37178 2.487318,-6.26344 4.577553,-10.15768 z"
       id="path4226-9"
       inkscape:connector-curvature="0"
       sodipodi:nodetypes="cscccc" />
    <path
       style="display:inline;fill:#fbb040;fill-opacity:1;fill-rule:evenodd;stroke:none;stroke-width:1px;stroke-linecap:butt;stroke-linejoin:miter;stroke-opacity:1"
       d="m 100.42594,1000.6775 c 0,0 -1.245859,1.7684 -2.290768,2.8133 -1.044912,1.0449 -4.983438,6.0283 -4.983438,6.0283 0,0 1.671918,-3.3883 1.205673,-5.6264 -0.44224,-2.123 -2.330961,-3.6973 -2.330961,-3.6973 z"
       id="path4203-9"
       inkscape:connector-curvature="0"
       sodipodi:nodetypes="cscscc" />
    <path
       inkscape:connector-curvature="0"
       style="display:inline;fill:#fcca70;fill-opacity:1;fill-rule:evenodd;stroke:none;stroke-width:1px;stroke-linecap:butt;stroke-linejoin:miter;stroke-opacity:1"
       d="m 63.963168,951.51387 a 31.343042,35.124517 0 0 0 -31.34285,35.1246 31.343042,35.124517 0 0 0 31.34285,35.12443 31.343042,35.124517 0 0 0 2.655032,-0.1477 c 3.632991,-0.179 13.710161,-0.9975 19.731212,-4.6719 4.62196,-2.8206 7.295191,-7.9147 7.98809,-9.3663 0.852801,-1.4138 1.9024,-3.0711 2.466984,-3.6357 1.044915,-1.0449 2.652538,-2.1701 2.652538,-2.1701 l -7.000608,-0.5834 a 31.343042,35.124517 0 0 0 2.725273,-11.76157 l 5.425691,-0.58683 c 0,0 -3.192107,-2.12653 -4.262912,-5.17206 -1.882616,-5.35443 -0.819632,-9.72962 -0.819632,-9.72962 -0.0055,0.01 -0.0097,0.0191 -0.01493,0.0289 l 0.0064,-0.0183 c 0,0 -1.62224,-5.64575 -5.577365,-10.4243 C 81.09947,952.84424 68.808725,951.94253 68.808725,951.94253 l 0.03886,0.0442 a 31.343042,35.124517 0 0 0 -4.88486,-0.47276 z"
       id="path4226-6-1" />
    <path
       style="display:inline;fill:#fbb040;fill-opacity:1;fill-rule:evenodd;stroke:none;stroke-width:1.03334355px;stroke-linecap:butt;stroke-linejoin:miter;stroke-opacity:1"
       d="m 45.078813,1001.4287 c -0.09973,0 -0.199422,0.01 -0.299009,0.011 -0.806216,6.741 -4.643353,11.5814 -4.643353,11.5814 0,0 7.385751,-6.0715 11.589884,-7.0429 0.0035,-8e-4 -0.562199,0.1115 -0.55873,0.1105 -1.192028,-2.7665 -3.223889,-4.6562 -6.088792,-4.6603 z"
       id="path4255"
       inkscape:connector-curvature="0"
       sodipodi:nodetypes="cccccc" />
    <path
       style="display:inline;fill:#fbb040;fill-opacity:1;fill-rule:evenodd;stroke:none;stroke-width:1px;stroke-linecap:butt;stroke-linejoin:miter;stroke-opacity:1"
       d="m 41.12686,982.92697 c -3.914987,3.70626 -8.495353,5.99759 -8.495353,5.99759 0,0 6.988073,1.19808 9.55059,2.84557 a 9.0368901,9.1505619 0 0 0 0.680074,-3.47063 9.0368901,9.1505619 0 0 0 -1.735311,-5.37253 z"
       id="path4263"
       inkscape:connector-curvature="0" />
    <path
       style="display:inline;fill:#fbb040;fill-opacity:1;fill-rule:evenodd;stroke:none;stroke-width:1px;stroke-linecap:butt;stroke-linejoin:miter;stroke-opacity:1"
       d="m 39.224638,963.57589 c 0,0 4.871373,3.46641 6.267388,8.81176 a 8.3548608,7.0476375 0 0 0 4.644905,-6.3109 8.3548608,7.0476375 0 0 0 -0.01865,-0.44945 c -0.15197,-0.0831 -0.333805,-0.12675 -0.549531,-0.11904 -3.182804,0.11367 -10.344113,-1.93237 -10.344113,-1.93237 z"
       id="path4268"
       inkscape:connector-curvature="0" />
    <path
       style="display:inline;fill:#fbb040;fill-opacity:1;fill-rule:evenodd;stroke:none;stroke-width:1px;stroke-linecap:butt;stroke-linejoin:miter;stroke-opacity:1"
       d="m 53.547255,958.91544 c 0,0 1.131109,2.45287 0.47338,5.8972 a 4.3763557,4.4331915 0 0 0 0.265441,0.0136 4.3763557,4.4331915 0 0 0 3.931573,-2.49838 c -0.0037,-6.3e-4 -0.0063,-0.002 -0.0099,-0.003 -2.500776,-0.45468 -4.660447,-3.41001 -4.660447,-3.41001 z"
       id="path4273"
       inkscape:connector-curvature="0" />
    <path
       style="display:inline;fill:#fbb040;fill-opacity:1;fill-rule:evenodd;stroke:none;stroke-width:1px;stroke-linecap:butt;stroke-linejoin:miter;stroke-opacity:1"
       d="m 65.369011,950.50371 c 0,0 1.012315,3.82858 -1.331866,7.7873 a 6.9339664,6.3656083 0 0 0 1.559387,0.1697 6.9339664,6.3656083 0 0 0 4.937386,-1.90439 c 0.0078,-0.16316 -0.07652,-0.2941 -0.276941,-0.36926 -1.818746,-0.68203 -4.887966,-5.68335 -4.887966,-5.68335 z"
       id="path4278"
       inkscape:connector-curvature="0" />
    <path
       style="display:inline;fill:#fbb040;fill-opacity:1;fill-rule:evenodd;stroke:none;stroke-width:1px;stroke-linecap:butt;stroke-linejoin:miter;stroke-opacity:1"
       d="m 48.578477,992.338 c -1.457863,3.20304 -4.465873,4.65729 -4.465873,4.65729 0,0 4.546597,-0.56822 6.024327,0.11379 0.07702,0.0357 0.14737,0.053 0.211047,0.054 a 4.3763557,4.546863 0 0 0 0.130235,-1.0776 4.3763557,4.546863 0 0 0 -1.899736,-3.74788 z"
       id="path4283"
       inkscape:connector-curvature="0" />
    <path
       style="display:inline;fill:#fbb040;fill-opacity:1;fill-rule:evenodd;stroke:none;stroke-width:1px;stroke-linecap:butt;stroke-linejoin:miter;stroke-opacity:1"
       d="m 41.95271,976.53431 c 0,0 3.039938,1.42596 4.429818,3.32113 1.044046,-0.97884 1.316837,-2.06633 1.155943,-3.32771 -1.619202,0.3787 -5.585762,0.007 -5.585762,0.007 z"
       id="path4290"
       inkscape:connector-curvature="0"
       sodipodi:nodetypes="cccc" />
    <path
       style="display:inline;fill:#fbb040;fill-opacity:1;fill-rule:evenodd;stroke:none;stroke-width:1px;stroke-linecap:butt;stroke-linejoin:miter;stroke-opacity:1"
       d="m 75.258396,1015.8647 a 7.6159957,4.6605344 0 0 0 -5.239508,1.2819 c 4.081452,3.2535 5.807993,7.2436 5.807993,7.2436 0,0 0.706606,-5.8247 2.119175,-8.2196 a 7.6159957,4.6605344 0 0 0 -2.68766,-0.3059 z"
       id="path4295"
       inkscape:connector-curvature="0" />
    <path
       style="display:inline;fill:#fbb040;fill-opacity:1;fill-rule:evenodd;stroke:none;stroke-width:1px;stroke-linecap:butt;stroke-linejoin:miter;stroke-opacity:1"
       d="m 81.68088,1007.5667 c -1.740172,0 -2.78263,0.9194 -3.673097,2.4145 4.090196,1.6606 5.776112,5.2017 5.776112,5.2017 0,0 -0.79566,-6.0247 -0.340969,-7.1614 0.01583,-0.039 0.02453,-0.077 0.02893,-0.1135 -0.570672,-0.2237 -1.177968,-0.3394 -1.790948,-0.3413 z"
       id="path4300"
       inkscape:connector-curvature="0"
       sodipodi:nodetypes="cccccc" />
    <path
       style="display:inline;fill:#fbb040;fill-opacity:1;fill-rule:evenodd;stroke:none;stroke-width:1px;stroke-linecap:butt;stroke-linejoin:miter;stroke-opacity:1"
       d="m 92.953295,1007.9484 a 7.8433385,7.9570104 0 0 0 -5.713819,3.5624 c 5.618603,1.5111 7.589934,3.9967 7.589934,3.9967 0,0 -1.92658,-5.3003 -1.876115,-7.5591 z"
       id="path4305"
       inkscape:connector-curvature="0" />
    <path
       style="display:inline;fill:#fbb040;fill-opacity:1;fill-rule:evenodd;stroke:none;stroke-width:1px;stroke-linecap:butt;stroke-linejoin:miter;stroke-opacity:1"
       d="m 80.809337,953.70516 c 0,0 -0.885384,2.44879 -2.529452,3.59152 a 3.2954957,3.4160626 0 0 0 2.529452,1.23117 3.2954957,3.4160626 0 0 0 1.243286,-0.25518 c -1.029503,-1.08168 -1.243286,-4.56751 -1.243286,-4.56751 z"
       id="path4310"
       inkscape:connector-curvature="0" />
    <path
       style="display:inline;fill:#c87137;fill-opacity:1;fill-rule:evenodd;stroke:none;stroke-width:1px;stroke-linecap:butt;stroke-linejoin:miter;stroke-opacity:1"
       d="m 100.89678,990.6457 c 0,0 -0.44208,0.76359 -0.48227,1.56737 -0.0402,0.80379 0.80378,3.57683 0.80378,3.57683 0,0 -1.286047,-1.92908 -1.647741,-2.61229 -0.361703,-0.68322 1.326231,-2.53191 1.326231,-2.53191 z"
       id="path4272"
       inkscape:connector-curvature="0"
       sodipodi:nodetypes="cscsc" />
    <path
       style="display:inline;fill:#fbb040;fill-opacity:1;fill-rule:evenodd;stroke:none;stroke-width:1px;stroke-linecap:butt;stroke-linejoin:miter;stroke-opacity:1"
       d="m 79.201636,979.34572 c 0,0 -0.964536,-0.16076 -1.607564,-0.16076 -0.64302,0 -2.411337,0 -2.411337,0 0,0 2.813227,-0.96454 3.375871,-0.80378 0.562645,0.16075 0.64303,0.96454 0.64303,0.96454 z"
       id="path4321"
       inkscape:connector-curvature="0" />
  </g>
  <g
     inkscape:groupmode="layer"
     id="layer12"
     inkscape:label="Layer 4"
     transform="translate(0,-924.36216)"
     style="display:inline">
    <path
       style="display:inline;fill:#fbb040;fill-opacity:1;fill-rule:evenodd;stroke:none;stroke-width:1px;stroke-linecap:butt;stroke-linejoin:miter;stroke-opacity:1"
       d="m 100.07132,966.06552 c 0,0 -3.784633,4.16593 -4.416391,8.4251 -0.692461,4.6685 0.271782,6.86239 2.921612,7.33799 2.649829,0.47561 3.841619,-2.04412 4.144609,-6.38677 0.40766,-5.84322 -2.64983,-9.37632 -2.64983,-9.37632 z"
       id="path4196-7-7"
       inkscape:connector-curvature="0"
       sodipodi:nodetypes="csssc" />
    <path
       style="display:inline;fill:#c87137;fill-opacity:1;fill-rule:evenodd;stroke:none;stroke-width:1px;stroke-linecap:butt;stroke-linejoin:miter;stroke-opacity:1"
       d="m 99.909555,966.19534 c 0,0 -3.93779,4.40652 -4.514608,8.29532 -0.632252,4.26253 0.248143,6.26565 2.667558,6.69991 2.419405,0.43425 3.507575,-1.86637 3.784205,-5.8314 0.24432,-3.50208 -0.87461,-6.09532 -1.67233,-7.46388 -0.417539,-0.71631 -0.264825,-1.69995 -0.264825,-1.69995 z"
       id="path4196-7"
       inkscape:connector-curvature="0"
       sodipodi:nodetypes="cssssc" />
    <path
       style="display:inline;fill:#fbb040;fill-opacity:1;fill-rule:evenodd;stroke:none;stroke-width:1px;stroke-linecap:butt;stroke-linejoin:miter;stroke-opacity:1"
       d="m 85.312293,963.58334 c 0,0 -5.304329,4.9159 -6.106225,8.55322 -0.94128,4.26954 -0.261172,9.10183 2.922527,9.97011 3.183698,0.86828 7.525104,-1.54361 7.814528,-7.33215 0.289425,-5.78855 -4.63083,-11.19118 -4.63083,-11.19118 z"
       id="path4194-8-3"
       inkscape:connector-curvature="0"
       sodipodi:nodetypes="csssc" />
    <path
       style="display:inline;fill:#c87137;fill-opacity:1;fill-rule:evenodd;stroke:none;stroke-width:1px;stroke-linecap:butt;stroke-linejoin:miter;stroke-opacity:1"
       d="m 85.298569,963.64198 c 0,0 -5.653447,5.25813 -6.386604,8.58368 -0.860593,3.90359 -0.238786,8.32167 2.672023,9.11553 2.910808,0.79386 6.880095,-1.4113 7.14471,-6.70368 0.199863,-3.99725 -2.156651,-7.59226 -3.400667,-9.21077 -0.403081,-0.52441 -0.02948,-1.78476 -0.02948,-1.78476 z"
       id="path4194-8"
       inkscape:connector-curvature="0"
       sodipodi:nodetypes="cssssc" />
    <path
       inkscape:connector-curvature="0"
       style="display:inline;fill:#e4d9ac;fill-opacity:1;fill-rule:evenodd;stroke:none;stroke-width:1px;stroke-linecap:butt;stroke-linejoin:miter;stroke-opacity:1"
       d="m 82.959597,972.72646 a 11.907097,6.2803547 0 0 0 -3.867232,0.34842 c -0.775738,3.55072 -0.205761,7.55863 2.440259,8.28027 2.652467,0.7234 6.269314,-1.28588 6.510444,-6.10856 0.03287,-0.65709 -0.01676,-1.30775 -0.123702,-1.94231 a 11.907097,6.2803547 0 0 0 -4.959769,-0.57782 z"
       id="path4194-0-5" />
    <ellipse
       style="display:inline;fill:#fff6d5;fill-opacity:1;stroke:none;stroke-width:0;stroke-linecap:round;stroke-linejoin:round;stroke-miterlimit:4;stroke-dasharray:none;stroke-opacity:1"
       id="path4246"
       cx="83.098763"
       cy="975.34509"
       rx="3.5756259"
       ry="4.8007932" />
    <path
       style="display:inline;fill:#fbb040;fill-opacity:1;fill-rule:evenodd;stroke:none;stroke-width:1px;stroke-linecap:butt;stroke-linejoin:miter;stroke-opacity:1"
       d="m 84.185165,965.92258 c 0,0 -4.41942,4.09578 -5.087518,7.1262 -0.0018,0.009 -0.0037,0.0174 -0.0055,0.0261 a 11.907097,6.2803547 0 0 1 3.867231,-0.34843 11.907097,6.2803547 0 0 1 4.95977,0.57782 c -0.677994,-4.02291 -3.734201,-7.38168 -3.734201,-7.38168 z m -5.0928,7.1523 c -0.04816,0.22044 -0.0911,0.44241 -0.128681,0.66546 0.03763,-0.223 0.08057,-0.44508 0.128681,-0.66546 z m 8.827314,0.23125 c 0.02609,0.15515 0.04852,0.31117 0.06747,0.4681 -0.01868,-0.15695 -0.04139,-0.31296 -0.06747,-0.4681 z m 0.06903,0.48053 c 0.01712,0.14392 0.03031,0.28873 0.04074,0.43391 -0.01025,-0.14526 -0.02371,-0.28993 -0.04074,-0.43391 z m -9.032754,0.003 c -0.01611,0.0976 -0.03168,0.19528 -0.04569,0.29311 0.01401,-0.0978 0.02957,-0.19555 0.04569,-0.29311 z m -0.04569,0.29311 c -0.03232,0.22527 -0.05914,0.45084 -0.0802,0.67603 0.02106,-0.22513 0.04789,-0.45081 0.0802,-0.67603 z m -0.0802,0.67603 c -0.01053,0.11257 -0.01968,0.22504 -0.02738,0.33725 0.0073,-0.11221 0.01685,-0.22468 0.02738,-0.33725 z m -0.02738,0.33725 c -0.0073,0.1122 -0.01391,0.22407 -0.01868,0.33568 0.0045,-0.11161 0.01098,-0.22349 0.01868,-0.33568 z m -0.01868,0.33568 c -0.0045,0.11152 -0.0082,0.2228 -0.0096,0.33351 0.0018,-0.1108 0.0045,-0.22189 0.0096,-0.33351 z m -0.0096,0.33351 c -0.0037,0.22164 -0.0018,0.44133 0.0073,0.65832 -0.0082,-0.21694 -0.01071,-0.43674 -0.0073,-0.65832 z m 9.259974,-1.48417 c 0.0092,0.13342 0.013,0.26761 0.01556,0.4019 -0.0027,-0.13442 -0.0073,-0.26835 -0.01556,-0.4019 z m 0.01803,0.48643 c 0.0018,0.15932 -9.18e-4,0.31908 -0.0094,0.47928 0.0082,-0.16011 0.01062,-0.32002 0.0094,-0.47928 z m -9.270854,1.65761 c 0.0045,0.10628 0.0099,0.21189 0.01713,0.31673 -0.0073,-0.10483 -0.01291,-0.21045 -0.01713,-0.31673 z m 9.108288,0.10382 c -0.07837,0.40273 -0.182911,0.78101 -0.309888,1.13449 0.127051,-0.3536 0.231488,-0.73162 0.309888,-1.13449 z m -9.085599,0.28129 c 0.0064,0.0853 0.01337,0.17064 0.02179,0.25488 -0.0082,-0.0842 -0.01538,-0.16949 -0.02179,-0.25488 z m 0.02179,0.25488 c 0.01025,0.10259 0.02179,0.20448 0.03516,0.30521 -0.01328,-0.10083 -0.0249,-0.20251 -0.03516,-0.30521 z m 0.05191,0.41835 c 0.0096,0.0669 0.01877,0.1339 0.02984,0.19986 -0.01098,-0.0659 -0.02023,-0.13306 -0.02984,-0.19986 z m 0.117181,0.64093 c 0.01098,0.0493 0.02143,0.0991 0.03324,0.14763 -0.0119,-0.0486 -0.02225,-0.0984 -0.03324,-0.14763 z m 0.05567,0.23247 c 0.0174,0.0675 0.03442,0.13508 0.05347,0.20111 -0.01905,-0.066 -0.03616,-0.13363 -0.05347,-0.20111 z m 0.176546,0.57907 c 0.01932,0.0544 0.03809,0.10915 0.05878,0.16225 -0.0206,-0.0531 -0.03937,-0.10792 -0.05878,-0.16225 z m 0.08085,0.2154 c 0.02719,0.0678 0.05494,0.13525 0.08423,0.20079 -0.02929,-0.0656 -0.05704,-0.13302 -0.08423,-0.20079 z m 0.123087,0.28254 c 0.02554,0.0545 0.05054,0.10941 0.07773,0.16225 -0.0271,-0.0529 -0.05219,-0.10773 -0.07773,-0.16225 z m 7.050663,0.16877 c -0.106689,0.12758 -0.216051,0.25058 -0.330093,0.36522 0.113995,-0.1146 0.223441,-0.2377 0.330093,-0.36522 z m -6.942189,0.0495 c 0.03196,0.0602 0.06418,0.1203 0.09822,0.1781 -0.03406,-0.0579 -0.06628,-0.11786 -0.09822,-0.1781 z m 0.09822,0.1781 c 0.0444,0.0753 0.09055,0.14862 0.138633,0.21975 -0.04797,-0.0711 -0.09427,-0.14444 -0.138633,-0.21975 z m 0.138633,0.21975 c 0.04797,0.0711 0.09786,0.13985 0.1495,0.20639 -0.05164,-0.0665 -0.101507,-0.13533 -0.1495,-0.20639 z m 0.560097,0.64713 c 0.03489,0.0314 0.06894,0.0638 0.105051,0.0935 -0.03607,-0.0297 -0.07022,-0.0622 -0.105051,-0.0935 z"
       id="path4194"
       inkscape:connector-curvature="0" />
    <path
       inkscape:connector-curvature="0"
       style="display:inline;fill:#e4d9ac;fill-opacity:1;fill-rule:evenodd;stroke:none;stroke-width:1px;stroke-linecap:butt;stroke-linejoin:miter;stroke-opacity:1"
       d="m 99.300068,974.37474 a 8.3548608,4.3195199 0 0 0 -3.890544,0.4998 c -0.01053,0.0607 -0.02206,0.12139 -0.03113,0.18213 -0.579252,3.90521 0.227386,5.74055 2.443989,6.1384 2.216587,0.39785 3.213447,-1.71003 3.466887,-5.3427 0.0326,-0.46642 0.0382,-0.91488 0.0228,-1.34523 a 8.3548608,4.3195199 0 0 0 -2.011943,-0.1324 z"
       id="path4196-3-4" />
    <ellipse
       style="display:inline;fill:#fff6d5;fill-opacity:1;stroke:none;stroke-width:0;stroke-linecap:round;stroke-linejoin:round;stroke-miterlimit:4;stroke-dasharray:none;stroke-opacity:1"
       id="path4249"
       cx="98.078041"
       cy="976.90387"
       rx="2.4723568"
       ry="3.8932514" />
    <path
       style="display:inline;fill:#fbb040;fill-opacity:1;fill-rule:evenodd;stroke:none;stroke-width:1px;stroke-linecap:butt;stroke-linejoin:miter;stroke-opacity:1"
       d="m 99.072544,968.00912 c 0,0 -3.056815,3.36694 -3.66302,6.86542 a 8.3548608,4.3195199 0 0 1 3.890544,-0.4998 8.3548608,4.3195199 0 0 1 2.011942,0.1324 c -0.14699,-4.07941 -2.239466,-6.49802 -2.239466,-6.49802 z m 2.239466,6.49802 c 0.002,0.0513 0.002,0.10363 0.004,0.15542 -9.2e-4,-0.0518 -0.002,-0.10418 -0.004,-0.15542 z m 0.008,0.37268 c 4.8e-4,0.0617 -1.3e-4,0.12407 -6.4e-4,0.18648 4.8e-4,-0.0625 9.2e-4,-0.12474 6.4e-4,-0.18648 z m -0.005,0.42365 c -9.2e-4,0.0465 -0.002,0.093 -0.004,0.13986 0.002,-0.047 0.003,-0.0933 0.004,-0.13986 z m -6.116956,2.02562 c 0.0018,0.18936 0.0092,0.37105 0.02143,0.54548 -0.01263,-0.17443 -0.01968,-0.35612 -0.02143,-0.54548 z m 0.02143,0.54548 c 0.01263,0.17443 0.03086,0.34156 0.05438,0.50136 -0.02353,-0.15981 -0.04175,-0.32693 -0.05438,-0.50136 z m 0.05438,0.50136 c 0.04706,0.3196 0.115726,0.61015 0.206384,0.8731 -0.09064,-0.26296 -0.159333,-0.55349 -0.206384,-0.8731 z m 0.278493,1.06518 c 0.05082,0.12459 0.107056,0.24237 0.168773,0.3534 -0.06171,-0.11104 -0.117978,-0.22881 -0.168773,-0.3534 z m 0.370497,0.66672 c 0.0726,0.0977 0.150855,0.18906 0.234363,0.27383 -0.08359,-0.0849 -0.161705,-0.17603 -0.234363,-0.27383 z"
       id="path4196"
       inkscape:connector-curvature="0" />
    <circle
       style="display:inline;fill:#552200;fill-opacity:1;stroke:none;stroke-width:0;stroke-linecap:round;stroke-linejoin:round;stroke-miterlimit:4;stroke-dasharray:none;stroke-opacity:1"
       id="path4200"
       cx="81.435249"
       cy="975.42413"
       r="1.6709721" />
    <circle
       style="display:inline;fill:#552200;fill-opacity:1;stroke:none;stroke-width:0;stroke-linecap:round;stroke-linejoin:round;stroke-miterlimit:4;stroke-dasharray:none;stroke-opacity:1"
       id="path4202"
       cx="97.432877"
       cy="976.62744"
       r="1.4322618" />
    <path
       style="display:inline;fill:#fcc664;fill-opacity:1;fill-rule:evenodd;stroke:none;stroke-width:1px;stroke-linecap:butt;stroke-linejoin:miter;stroke-opacity:1"
       d="m 80.136607,972.43939 c 0,0 0.486516,-1.52514 1.203303,-2.49793 0.795697,-1.07987 2.273427,-2.5714 2.273427,-2.5714 0,0 1.096164,1.72766 1.491528,2.47438 0.485124,0.91627 0.993787,2.50077 0.993787,2.50077 0,0 -2.672463,-0.27728 -3.24082,-0.27728 -0.568365,0 -2.721225,0.37146 -2.721225,0.37146 z"
       id="path4251"
       inkscape:connector-curvature="0"
       sodipodi:nodetypes="cscscsc" />
    <path
       style="display:inline;fill:#fcc664;fill-opacity:1;fill-rule:evenodd;stroke:none;stroke-width:1px;stroke-linecap:butt;stroke-linejoin:miter;stroke-opacity:1"
       d="m 96.154335,974.16408 c 0,0 0.120853,-0.9267 0.721035,-1.97545 0.43401,-0.75837 1.148142,-1.80781 1.148142,-1.80781 0,0 0.613905,0.88368 1.009256,1.63041 0.485123,0.91626 0.91341,1.89793 0.91341,1.89793 0,0 -1.265849,-0.11652 -1.834206,-0.11652 -0.568357,0 -1.957637,0.37144 -1.957637,0.37144 z"
       id="path4251-9"
       inkscape:connector-curvature="0"
       sodipodi:nodetypes="cscscsc" />
  </g>
  <g
     inkscape:groupmode="layer"
     id="layer13"
     inkscape:label="Layer 5"
     transform="translate(0,-924.36216)"
     style="display:inline">
    <path
       style="display:inline;fill:#fcca70;fill-opacity:1;fill-rule:evenodd;stroke:none;stroke-width:1px;stroke-linecap:butt;stroke-linejoin:miter;stroke-opacity:1"
       d="m 80.75607,979.75864 c 3.73596,1.11871 5.287713,2.24509 5.557014,3.55347 1.348207,6.55007 -4.632918,4.81859 -5.799881,4.46134 -2.975199,-0.91076 -5.822551,-5.58002 -5.768249,-6.55757 0.187503,-2.76308 2.685564,-2.32565 6.011116,-1.45724 z"
       id="path4304-3"
       inkscape:connector-curvature="0"
       sodipodi:nodetypes="csscc" />
    <ellipse
       style="fill:#fccd76;fill-opacity:1;stroke:none;stroke-width:0;stroke-linecap:round;stroke-linejoin:round;stroke-miterlimit:4;stroke-dasharray:none;stroke-opacity:1"
       id="path4201"
       cx="67.29937"
       cy="992.66077"
       rx="14.731192"
       ry="13.872721" />
    <path
       style="display:inline;fill:#fbb040;fill-opacity:1;fill-rule:evenodd;stroke:none;stroke-width:1px;stroke-linecap:butt;stroke-linejoin:miter;stroke-opacity:1"
       d="m 87.011394,986.74771 c 0,0 -1.44411,1.85828 -1.794365,3.18149 -0.361707,1.36643 -0.0055,2.77521 -0.08038,3.75018 -0.08038,1.04491 -2.036685,2.22419 -2.036685,2.22419 0,0 0.712759,-1.8365 0.643021,-2.37115 -0.120569,-0.92435 -1.326234,-2.41134 -1.004728,-3.45625 0.321515,-1.04491 4.273133,-3.32846 4.273133,-3.32846 z"
       id="path4269-3"
       inkscape:connector-curvature="0"
       sodipodi:nodetypes="csscssc" />
    <path
       style="display:inline;fill:#c87137;fill-opacity:1;fill-rule:evenodd;stroke:none;stroke-width:1px;stroke-linecap:butt;stroke-linejoin:miter;stroke-opacity:1"
       d="m 86.455133,994.03984 c 0,0 1.681055,4.58002 3.807993,6.53616 2.142286,1.9703 5.626742,2.3302 5.626742,2.3302 0,0 -4.850709,0.8072 -6.195097,-0.5682 -2.662192,-2.72364 -3.239639,-8.29816 -3.239639,-8.29816 z"
       id="path4270"
       inkscape:connector-curvature="0"
       sodipodi:nodetypes="cscsc" />
    <path
       style="display:inline;fill:#fbb040;fill-opacity:1;fill-rule:evenodd;stroke:none;stroke-width:1px;stroke-linecap:butt;stroke-linejoin:miter;stroke-opacity:1"
       d="m 83.329159,990.62969 c 0,0 2.387113,0.0569 3.978509,-0.6252 1.591404,-0.68203 2.621227,-1.75968 3.864832,-1.93242 2.046088,-0.28417 4.092184,0.39786 4.774206,0.28418 0.682033,-0.11366 2.387105,-1.13671 3.182809,-0.79569 0.7957,0.34101 1.875575,1.25039 1.875575,2.3871 0,1.13672 -1.307215,3.06913 -1.307215,3.06913 0,0 2.202455,3.0089 1.932405,5.11517 -0.28417,2.21674 -1.818735,4.20594 -3.52381,4.54704 -1.705073,0.3409 -5.569906,0.9094 -8.070684,-1.8188 -2.500777,-2.72824 -3.069135,-5.56998 -3.751157,-6.82037 -0.682033,-1.25039 -2.95547,-3.41014 -2.95547,-3.41014 z"
       id="path4308"
       inkscape:connector-curvature="0"
       sodipodi:nodetypes="cssssscssssc" />
    <path
       style="display:inline;fill:#c87137;fill-opacity:1;fill-rule:evenodd;stroke:none;stroke-width:1px;stroke-linecap:butt;stroke-linejoin:miter;stroke-opacity:1"
       d="m 83.944255,990.94026 c 0,0 4.38646,1.99128 6.489384,2.27546 2.102924,0.28417 3.488385,0.30067 5.086804,-0.82412 0.905738,-0.63736 1.76191,-1.93242 1.76191,-1.93242 l -1.079878,2.07451 c 0,0 0.937784,-0.34101 1.818739,-0.0852 0.88096,0.25576 1.600318,0.53995 1.600318,0.53995 0,0 -0.719366,-0.1421 -1.770822,-0.22735 -1.05146,-0.0852 -1.287132,0.15184 -0.860857,0.54969 0.856691,0.83629 1.160627,1.34652 1.230292,3.28673 0.05209,0.0444 -0.207684,-1.79492 -1.904004,-3.0123 -0.711238,-0.51043 -1.941687,0.9507 -5.115222,0.3126 -3.573457,-0.71853 -7.256663,-2.95749 -7.256663,-2.95749 z"
       id="path4311"
       inkscape:connector-curvature="0"
       sodipodi:nodetypes="cssccscsccssc" />
    <path
       style="display:inline;fill:#fcc664;fill-opacity:1;fill-rule:evenodd;stroke:none;stroke-width:1px;stroke-linecap:butt;stroke-linejoin:miter;stroke-opacity:1"
       d="m 93.985874,989.43614 c 0.227341,0.6252 -1.19355,1.50615 -2.273436,1.84717 -1.079876,0.341 -2.784946,0.17049 -2.927041,-0.25578 -0.0082,-0.73772 0.668994,-1.46615 1.634289,-1.90618 1.241563,-0.56598 3.292813,-0.23736 3.566188,0.31479 z"
       id="path4184"
       inkscape:connector-curvature="0"
       sodipodi:nodetypes="cscsc" />
    <path
       style="display:inline;fill:#fcc664;fill-opacity:1;fill-rule:evenodd;stroke:none;stroke-width:1px;stroke-linecap:butt;stroke-linejoin:miter;stroke-opacity:1"
       d="m 96.332785,995.22019 c 0.682034,0.34102 1.233746,2.28665 1.176908,2.85497 -0.05685,0.5684 -0.511518,1.1935 -1.193552,1.3072 -1.737106,0.403 -5.860756,-1.72306 -5.797253,-3.55221 0.162931,-0.42056 1.785739,0.0588 3.205085,-0.13116 1.341047,-0.17948 2.220946,-0.66412 2.608812,-0.4788 z"
       id="path4186"
       inkscape:connector-curvature="0"
       sodipodi:nodetypes="csccsc" />
    <path
       style="display:inline;fill:#fbb040;fill-opacity:1;fill-rule:evenodd;stroke:none;stroke-width:1px;stroke-linecap:butt;stroke-linejoin:miter;stroke-opacity:1"
       d="m 68.40977,983.43997 c 0,0 -2.983879,2.6997 -3.097552,5.88249 -0.11367,3.1828 1.733493,8.24118 1.733493,8.24118 0,0 0.487683,-3.89355 0.539938,-6.7066 0.06836,-3.67984 0.824138,-7.41721 0.824121,-7.41707 z"
       id="path4225-9"
       inkscape:connector-curvature="0"
       sodipodi:nodetypes="cscsc" />
    <path
       style="display:inline;fill:#c87137;fill-opacity:1;fill-rule:evenodd;stroke:none;stroke-width:1px;stroke-linecap:butt;stroke-linejoin:miter;stroke-opacity:1"
       d="m 68.40977,983.43997 c 0,0 -2.983879,2.6997 -3.097552,5.88249 -0.11367,3.1828 1.733493,8.24118 1.733493,8.24118 0,0 -0.517478,-4.01004 -0.653614,-6.82028 -0.158987,-3.28199 2.017689,-7.30353 2.017673,-7.30339 z"
       id="path4225"
       inkscape:connector-curvature="0"
       sodipodi:nodetypes="cscsc" />
    <path
       style="display:inline;fill:#fbb040;fill-opacity:1;fill-rule:evenodd;stroke:none;stroke-width:1px;stroke-linecap:butt;stroke-linejoin:miter;stroke-opacity:1"
       d="m 73.070307,983.41155 c 0,0 -3.097553,2.98387 -3.296478,6.05301 -0.198925,3.06913 1.562988,7.3318 1.562988,7.3318 0.515429,-6.10564 0.811299,-7.88952 1.73349,-13.38481 z"
       id="path4222-4"
       inkscape:connector-curvature="0"
       sodipodi:nodetypes="cscc" />
    <path
       style="display:inline;fill:#c87137;fill-opacity:1;fill-rule:evenodd;stroke:none;stroke-width:1px;stroke-linecap:butt;stroke-linejoin:miter;stroke-opacity:1"
       d="m 73.070307,983.41155 c 0,0 -3.097553,2.98387 -3.296478,6.05301 -0.198925,3.06913 1.562988,7.3318 1.562988,7.3318 -0.678123,-5.93515 -0.439085,-8.68522 1.73349,-13.38481 z"
       id="path4222"
       inkscape:connector-curvature="0"
       sodipodi:nodetypes="cscc" />
    <path
       style="display:inline;fill:#c87137;fill-opacity:1;fill-rule:evenodd;stroke:none;stroke-width:1px;stroke-linecap:butt;stroke-linejoin:miter;stroke-opacity:1"
       d="m 85.64733,987.68551 c 0,0 -2.185662,1.38593 -2.266038,2.75235 -0.08038,1.36643 0.683211,2.00945 0.843964,2.97398 0.160753,0.96454 -1.125287,2.49173 -1.125287,2.49173 0,0 0.712757,-1.8365 0.64302,-2.37115 -0.120568,-0.92435 -1.326232,-2.41134 -1.004727,-3.45625 0.321515,-1.04491 2.909068,-2.39066 2.909068,-2.39066 z"
       id="path4269"
       inkscape:connector-curvature="0"
       sodipodi:nodetypes="csscssc" />
    <path
       style="display:inline;fill:#c87137;fill-opacity:1;fill-rule:evenodd;stroke:none;stroke-width:1px;stroke-linecap:butt;stroke-linejoin:miter;stroke-opacity:1"
       d="m 87.478171,983.63889 c 0,0 0.363365,0.40576 0.438047,0.77964 0.140362,0.70272 -0.371459,1.69592 -0.371459,1.69592 0,0 1.074465,-0.79762 1.070135,-1.32161 -0.0073,-0.83304 -1.136723,-1.15395 -1.136723,-1.15395 z"
       id="path4199"
       inkscape:connector-curvature="0"
       sodipodi:nodetypes="cscsc" />
    <path
       style="fill:#fdda8a;fill-opacity:1;fill-rule:evenodd;stroke:none;stroke-width:1px;stroke-linecap:butt;stroke-linejoin:miter;stroke-opacity:1"
       d="m 73.014347,989.57264 c 0,-1.6877 1.576673,-3.26795 4.317474,-3.26144 2.233559,0.006 4.033924,1.18423 4.033927,2.54748 -0.05605,1.94747 -2.073838,4.60909 -4.091628,4.60899 -2.054827,0.0183 -4.214586,-2.49875 -4.259773,-3.89503 z"
       id="path4204"
       inkscape:connector-curvature="0"
       sodipodi:nodetypes="csccc" />
    <path
       style="display:inline;fill:#fccd76;fill-opacity:1;fill-rule:evenodd;stroke:none;stroke-width:1px;stroke-linecap:butt;stroke-linejoin:miter;stroke-opacity:1"
       d="m 104.15766,989.00623 c -0.17455,-1.28215 0.52331,-2.67936 2.02121,-3.01634 1.22079,-0.27373 2.32609,0.39639 2.46709,1.43206 0.17085,1.48647 -0.65618,3.76025 -1.75845,4.01192 -1.12061,0.27024 -2.56075,-1.37251 -2.72985,-2.42764 z"
       id="path4204-6"
       inkscape:connector-curvature="0"
       sodipodi:nodetypes="csccc" />
  </g>
  <g
     inkscape:groupmode="layer"
     id="layer14"
     inkscape:label="Layer 6"
     transform="translate(0,-924.36216)"
     style="display:inline">
    <path
       style="display:inline;fill:#552200;fill-opacity:1;fill-rule:evenodd;stroke:none;stroke-width:1px;stroke-linecap:butt;stroke-linejoin:miter;stroke-opacity:1"
       d="m 90.695681,955.55384 c -4.27382,5.92039 -6.824221,3.9217 -10.780399,5.82622 -5.32612,2.56401 -5.455944,9.28483 -5.455944,9.28483 0,0 3.826516,-4.98696 6.64782,-6.14606 3.177793,-1.30555 6.240235,-0.68202 7.84779,-2.77185 1.607556,-2.08982 1.740733,-6.19314 1.740733,-6.19314 z"
       id="path4285-5"
       inkscape:connector-curvature="0"
       sodipodi:nodetypes="cscssc" />
    <path
       inkscape:connector-curvature="0"
       style="display:inline;fill:#fbb040;fill-opacity:1;fill-rule:evenodd;stroke:none;stroke-width:1px;stroke-linecap:butt;stroke-linejoin:miter;stroke-opacity:1"
       d="m 59.308007,1006.3527 a 5.425511,5.1843772 0 0 0 -2.61338,0.6455 c -2.763453,5.9114 -3.644072,9.4394 -3.776472,12.0543 -0.321513,6.3498 2.812989,13.9857 3.054123,13.9857 0.241134,0 6.189254,-5.4657 7.716436,-11.6549 0.985285,-3.993 -0.231898,-10.4675 -1.025398,-13.9083 a 5.425511,5.1843772 0 0 0 -3.355309,-1.1223 z"
       id="path4325-9" />
    <path
       style="display:inline;fill:#fcc664;fill-opacity:1;fill-rule:evenodd;stroke:none;stroke-width:1px;stroke-linecap:butt;stroke-linejoin:miter;stroke-opacity:1"
       d="m 59.364842,1005.9833 c -0.914131,0 -1.64257,0.2802 -2.442871,0.7024 -2.763454,5.9113 -2.82079,9.7048 -2.953189,12.3198 -0.161514,3.1898 0.356645,9.0961 0.356645,9.0961 l 1.807857,-5.5126 c -0.676019,2.8731 -0.978194,3.9811 -0.96174,6.6924 0.08916,2.2046 0.739518,3.7568 0.800734,3.7568 0.241134,0 4.944581,-5.4657 6.471761,-11.6549 0.985287,-3.993 0.899107,-10.6949 0.105604,-14.1356 -0.954788,-0.7236 -1.966193,-1.261 -3.184801,-1.2644 z"
       id="path4325"
       inkscape:connector-curvature="0"
       sodipodi:nodetypes="ccscccsscc" />
    <path
       style="display:inline;fill:#552200;fill-opacity:1;fill-rule:evenodd;stroke:none;stroke-width:1px;stroke-linecap:butt;stroke-linejoin:miter;stroke-opacity:1"
       d="m 97.286674,959.49236 c 0,0 -0.920902,3.0441 -0.381797,3.93851 0.884161,1.4669 2.89361,1.06501 5.425513,3.75768 2.5319,2.69266 3.71747,5.36522 3.71747,5.36522 0,0 1.24587,-4.82267 -1.68793,-8.19855 -2.9338,-3.37587 -7.073256,-4.86286 -7.073256,-4.86286 z"
       id="path4287-7"
       inkscape:connector-curvature="0"
       sodipodi:nodetypes="csscsc" />
  </g>
</svg>
