<?xml version="1.0" encoding="UTF-8" standalone="no"?>
<!-- Created with Inkscape (http://www.inkscape.org/) -->

<svg
   xmlns:dc="http://purl.org/dc/elements/1.1/"
   xmlns:cc="http://creativecommons.org/ns#"
   xmlns:rdf="http://www.w3.org/1999/02/22-rdf-syntax-ns#"
   xmlns:svg="http://www.w3.org/2000/svg"
   xmlns="http://www.w3.org/2000/svg"
   xmlns:sodipodi="http://sodipodi.sourceforge.net/DTD/sodipodi-0.dtd"
   xmlns:inkscape="http://www.inkscape.org/namespaces/inkscape"
   width="128"
   height="128"
   viewBox="0 0 128 128"
   id="svg4295"
   version="1.1"
   inkscape:version="0.91 r13725"
   sodipodi:docname="os_remixos.svg">
  <defs
     id="defs4297" />
  <sodipodi:namedview
     id="base"
     pagecolor="#ffffff"
     bordercolor="#666666"
     borderopacity="1.0"
     inkscape:pageopacity="0.0"
     inkscape:pageshadow="2"
     inkscape:zoom="1.979899"
     inkscape:cx="-69.100651"
     inkscape:cy="128.05572"
     inkscape:document-units="px"
     inkscape:current-layer="layer1"
     showgrid="false"
     units="px"
     inkscape:window-width="1366"
     inkscape:window-height="713"
     inkscape:window-x="0"
     inkscape:window-y="27"
     inkscape:window-maximized="1" />
  <metadata
     id="metadata4300">
    <rdf:RDF>
      <cc:Work
         rdf:about="">
        <dc:format>image/svg+xml</dc:format>
        <dc:type
           rdf:resource="http://purl.org/dc/dcmitype/StillImage" />
        <dc:title />
      </cc:Work>
    </rdf:RDF>
  </metadata>
  <g
     inkscape:label="Layer 1"
     inkscape:groupmode="layer"
     id="layer1"
     transform="translate(0,-924.36216)">
    <circle
       style="fill:#008cff;fill-opacity:1;stroke:none;stroke-width:0;stroke-miterlimit:4;stroke-dasharray:none;stroke-opacity:1"
       id="path4283"
       cx="988.36218"
       cy="-64"
       r="46"
       transform="matrix(0,1,-1,0,0,0)" />
    <path
       style="display:inline;fill:#f1f2f2;fill-opacity:1;fill-rule:evenodd;stroke:none;stroke-width:1px;stroke-linecap:butt;stroke-linejoin:miter;stroke-opacity:1"
       d="m 92.12932,979.64743 c -2.983458,-0.0761 -4.623791,3.55319 -0.283826,3.08407 -0.259195,3.60779 -4.460397,9.56079 -6.055345,9.75809 -1.969938,-0.0906 2.874067,-8.65485 2.821083,-8.98563 -0.374054,-0.74443 -0.910317,-1.07189 -1.704432,-1.27833 -0.595257,0.28998 -6.236405,10.01228 -3.14157,11.06732 3.184666,1.08566 7.164915,-2.1181 8.675947,-5.07452 0.92192,-1.80372 1.944236,-4.02903 2.08959,-5.77294 0.272909,-0.0509 0.524129,-0.10919 0.74946,-0.1746 -0.01643,0.066 -0.03078,0.13284 -0.04024,0.2005 -0.394869,2.8105 1.068231,4.06439 0.952103,5.76 -0.116138,1.69559 -0.929333,3.11258 -1.765516,3.1358 -0.696828,0.0465 -1.207784,-0.5339 -1.649108,-0.60359 -0.441325,-0.0697 -1.672346,0.0228 -1.718802,0.25511 -0.04648,0.23226 1.138517,1.18469 2.323115,1.27758 1.184607,0.0929 5.656252,0.23289 5.876432,-3.34491 0.18581,-3.01959 -1.728943,-4.24474 -1.34732,-5.89939 0.465363,-2.01771 2.135489,-1.95038 2.805279,-1.72673 0.16198,0.0541 0.28383,-0.0388 0.28383,-0.0388 0,-0.97557 -1.857799,-1.48619 -3.042404,-1.25393 -0.950803,0.18646 -2.013232,0.85318 -2.48551,1.74468 -0.292164,0.0384 -0.604635,0.0646 -0.926234,0.0726 -0.03961,-0.84302 -0.347666,-1.52699 -1.069219,-1.91999 -0.467515,-0.18488 -0.921098,-0.27155 -1.347315,-0.2824 z m -48.03316,0.44262 c -3.416017,-0.0626 -7.726641,1.02573 -11.473324,3.30685 -5.617754,3.4203 -8.489108,10.57943 -1.537732,11.15281 0,0 -0.04741,-0.43968 -0.419636,-0.83495 -0.470676,-0.49987 -1.654016,-0.31772 -1.48456,-2.2915 0.119923,-1.39668 2.600327,-4.3284 6.268043,-6.23283 5.098886,-2.64756 13.25662,-4.11553 13.076435,-1.47091 -0.202977,2.97925 -7.823721,5.11619 -7.823721,5.11619 0,0 1.12577,-2.37902 1.21868,-2.75068 0.09295,-0.37162 -0.544892,-2.19735 -1.381086,-2.12767 -1.706376,2.70072 -7.22391,11.84632 -7.409835,14.77297 0,1.20781 1.812076,3.01987 2.183717,3.11277 0.371642,0.093 3.716417,-9.70919 3.716417,-9.70919 0.470832,2.56179 1.96134,6.9645 5.667318,7.29341 0.566009,0 1.679676,-0.86034 2.466836,-1.53412 1.934244,1.22994 5.878757,0.37092 8.142773,-2.57891 0,0 0.295429,0.62401 0.656767,1.01818 0.361338,0.39421 0.95282,1.05158 1.182757,0.98588 0.12141,-0.0346 1.093257,-2.75616 2.258443,-5.28791 1.041624,-2.26327 2.296944,-4.31022 2.52792,-4.41198 0.223626,-0.0986 0.798015,0.009 0.633769,0.43615 -0.689935,2.22303 -2.334427,5.01771 -2.39497,6.1229 -0.04959,0.90449 0.537239,1.31216 1.347305,1.91715 1.367018,-3.53046 3.312356,-8.29449 3.966472,-8.74639 0.158289,-0.10935 0.71938,-0.3835 0.767436,-0.0225 -0.156365,1.87257 -3.355785,6.54529 -1.288393,8.11978 0.427038,0.29565 0.952508,0.85376 1.937966,0.0654 0.985458,-0.78839 1.642235,-2.13507 1.576535,-1.70804 -0.06571,0.42703 0.4564,1.33881 1.511146,1.3473 1.290774,0.0104 2.299397,-1.1497 2.299397,-1.1497 0,0 0.656768,0.39407 1.116651,0.32839 0.459884,-0.0657 2.529345,-2.79236 2.529345,-2.79236 1.448461,2.5941 2.9288,2.47865 3.801207,2.03856 1.520577,-0.76701 1.534332,-2.22491 1.441443,-2.06369 -0.262793,0.52555 -1.328985,0.92315 -1.760484,0.84648 -1.077402,-0.19146 -1.866828,-2.45967 -1.866828,-2.45967 0,0 3.312065,-3.81433 3.34492,-4.07712 0.03286,-0.2628 -0.820816,-1.51095 -1.083597,-1.4781 -0.262793,0.0328 -3.057487,3.39882 -3.057487,3.39882 -0.377537,-1.08584 -0.636545,-1.76429 -0.730069,-2.64936 -0.164236,0.0328 -1.778606,1.16497 -1.797124,1.8963 -0.0209,0.82417 0.713526,2.64649 0.713526,2.64649 -0.570979,0.85643 -2.629824,3.25532 -3.720721,4.03687 -0.485898,0.34811 -0.878043,0.19024 -0.628747,-0.76672 0.523152,-1.86767 2.21571,-4.72397 2.18875,-5.67953 -0.01497,-0.52953 -0.441657,-1.67758 -1.371021,-1.76263 -0.60501,-0.0148 -2.116125,4.08425 -2.582528,5.39856 -0.75628,2.05917 -1.759007,3.73273 -2.316646,3.39308 -0.361338,-0.22994 2.523075,-7.10289 2.407186,-7.79859 -0.119434,-0.71701 -0.98004,-1.09243 -1.641913,-1.03544 -1.144755,0.0986 -2.436653,1.11737 -2.436653,1.11737 -0.342279,-0.50429 -0.659283,-0.83622 -1.09438,-0.89247 -1.131384,-0.14632 -2.435696,0.93953 -3.181797,1.78493 0,0 -0.558429,-1.01873 -0.919767,-1.21582 -0.361328,-0.19708 -0.788262,0.55834 -0.788262,0.55834 -0.950991,1.90206 -2.109481,5.62497 -4.164801,7.69367 -2.745464,2.76333 -6.080861,2.85759 -5.854147,0.0589 2.617576,-0.50249 4.562831,-1.31979 6.217023,-2.48693 2.399171,-1.69277 2.211406,-4.69005 -0.598563,-5.27429 -5.590107,-0.71885 -10.009611,7.1101 -7.873316,10.56292 -1.45944,0.31483 -1.990982,-0.12913 -2.580364,-1.01317 -1.114925,-1.67238 -1.811504,-5.06373 -1.811504,-5.06373 7.491339,-3.13547 8.538536,-6.34434 7.859664,-8.3368 -0.619534,-1.81826 -2.937741,-2.76879 -5.951871,-2.82396 z m 47.012081,0.42037 c 0.555362,-0.0287 1.233392,0.56834 0.937734,1.31066 -1.474652,0.0466 -1.940587,-0.58725 -1.289111,-1.18491 0.101581,-0.0791 0.22322,-0.11912 0.351377,-0.12575 z m -17.385665,1.94659 c -0.409665,0.0225 -0.822844,0.31445 -1.069229,0.75593 -0.36165,0.64799 -0.257095,1.41077 0.233534,1.7037 0.490733,0.29303 1.181821,0.005 1.543482,-0.6431 0.36165,-0.648 0.257094,-1.41077 -0.233534,-1.70373 -0.140083,-0.0836 -0.302594,-0.12222 -0.474253,-0.1128 z m -19.806514,5.89295 c 1.036352,-0.0144 1.292043,0.87414 0.715689,1.70513 -0.969061,1.32652 -4.204997,2.46022 -5.226835,2.25342 0.797921,-2.177 2.440728,-3.52949 4.019644,-3.89387 0.17978,-0.0418 0.343454,-0.0626 0.491502,-0.0647 z m 33.797684,7.91858 c -0.464552,0 -9.386105,0.48162 -20.249866,2.23903 -13.392628,2.16653 -21.201054,4.23183 -21.363647,4.85903 0.0021,0.4341 0.912822,1.6819 3.030183,1.8251 4.738421,-0.2788 6.06488,-1.955 19.629749,-4.5565 16.826591,-3.31358 20.389357,-2.92511 20.570353,-3.25218 -0.02766,-0.5971 -1.000679,-1.08311 -1.616772,-1.11448 z"
       id="path4221"
       inkscape:connector-curvature="0" />
  </g>
</svg>
