<?xml version="1.0" encoding="UTF-8" standalone="no"?>
<!-- Created with Inkscape (http://www.inkscape.org/) -->

<svg
   xmlns:dc="http://purl.org/dc/elements/1.1/"
   xmlns:cc="http://creativecommons.org/ns#"
   xmlns:rdf="http://www.w3.org/1999/02/22-rdf-syntax-ns#"
   xmlns:svg="http://www.w3.org/2000/svg"
   xmlns="http://www.w3.org/2000/svg"
   xmlns:sodipodi="http://sodipodi.sourceforge.net/DTD/sodipodi-0.dtd"
   xmlns:inkscape="http://www.inkscape.org/namespaces/inkscape"
   width="128"
   height="128"
   viewBox="0 0 128 128"
   id="svg2"
   version="1.1"
   inkscape:version="0.91 r13725"
   sodipodi:docname="os_rosa.svg"
   inkscape:export-xdpi="90"
   inkscape:export-ydpi="90">
  <defs
     id="defs4">
    <inkscape:path-effect
       effect="spiro"
       id="path-effect4182"
       is_visible="true" />
  </defs>
  <sodipodi:namedview
     id="base"
     pagecolor="#ffffff"
     bordercolor="#666666"
     borderopacity="1.0"
     inkscape:pageopacity="0.0"
     inkscape:pageshadow="2"
     inkscape:zoom="0.35"
     inkscape:cx="-2.9394212"
     inkscape:cy="97.234471"
     inkscape:document-units="px"
     inkscape:current-layer="layer1"
     showgrid="false"
     units="px"
     inkscape:window-width="1366"
     inkscape:window-height="713"
     inkscape:window-x="0"
     inkscape:window-y="27"
     inkscape:window-maximized="1" />
  <metadata
     id="metadata7">
    <rdf:RDF>
      <cc:Work
         rdf:about="">
        <dc:format>image/svg+xml</dc:format>
        <dc:type
           rdf:resource="http://purl.org/dc/dcmitype/StillImage" />
        <dc:title />
        <dc:creator>
          <cc:Agent>
            <dc:title>Munlika</dc:title>
          </cc:Agent>
        </dc:creator>
        <dc:publisher>
          <cc:Agent>
            <dc:title>Munlika</dc:title>
          </cc:Agent>
        </dc:publisher>
        <cc:license
           rdf:resource="http://creativecommons.org/licenses/by/3.0/" />
      </cc:Work>
      <cc:License
         rdf:about="http://creativecommons.org/licenses/by/3.0/">
        <cc:permits
           rdf:resource="http://creativecommons.org/ns#Reproduction" />
        <cc:permits
           rdf:resource="http://creativecommons.org/ns#Distribution" />
        <cc:requires
           rdf:resource="http://creativecommons.org/ns#Notice" />
        <cc:requires
           rdf:resource="http://creativecommons.org/ns#Attribution" />
        <cc:permits
           rdf:resource="http://creativecommons.org/ns#DerivativeWorks" />
      </cc:License>
    </rdf:RDF>
  </metadata>
  <g
     inkscape:groupmode="layer"
     id="layer1"
     inkscape:label="Layer 4"
     style="display:inline">
    <circle
       style="display:inline;fill:#2c55a2;fill-opacity:1;stroke:none;stroke-width:0;stroke-linecap:round;stroke-linejoin:round;stroke-miterlimit:4;stroke-dasharray:none;stroke-opacity:1"
       id="path4138"
       cx="58.178493"
       cy="69.334427"
       r="46"
       transform="matrix(0.9961947,-0.08715574,0.08715574,0.9961947,0,0)" />
    <path
       inkscape:connector-curvature="0"
       style="fill:#f2f2f2;fill-opacity:1;stroke:none;stroke-width:0;stroke-linecap:round;stroke-linejoin:round;stroke-miterlimit:4;stroke-dasharray:none;stroke-opacity:1"
       d="M 60.339456,22.159783 A 42,42 0 0 0 22.159819,67.660501 42,42 0 0 0 67.660546,105.84022 42,42 0 0 0 105.84017,60.339419 42,42 0 0 0 60.339455,22.159783 Z m 0.348623,3.984779 A 38,38 0 0 1 101.8554,60.688042 38,38 0 0 1 67.311922,101.85544 38,38 0 0 1 26.144598,67.311878 38,38 0 0 1 60.688078,26.144562 Z"
       id="path4136-1" />
    <path
       style="fill:#f2f2f2;fill-opacity:1;stroke:none;stroke-width:0;stroke-linecap:round;stroke-linejoin:round;stroke-miterlimit:4;stroke-dasharray:none;stroke-opacity:1"
       d="M 59.181145,43.341379 A 24,24 0 0 0 37.36421,69.341789 24,24 0 0 0 63.364621,91.158724 24,24 0 0 0 85.181556,65.158313 24,24 0 0 0 85.133722,64.768421 c 0.0016,-0.02786 0.009,-0.05393 0.0065,-0.08291 L 83.131183,41.722445 c -0.02294,-0.262246 -0.214305,-0.457673 -0.428558,-0.438928 l -23.134287,2.023988 c -0.0233,0.002 -0.04306,0.01463 -0.06479,0.02136 a 24,24 0 0 0 -0.322402,0.01252 z m 0.741653,3.950393 19.137835,-1.674344 c 0.217539,-0.01903 0.408856,0.146516 0.428606,0.372264 L 81.1612,65.100287 c 0.0022,0.02506 -0.0055,0.04709 -0.0075,0.07123 a 19.950512,20 85 0 1 0.04732,0.384056 A 19.950512,20 85 0 1 63.015998,87.173943 19.950512,20 85 0 1 41.353245,69.041806 19.950512,20 85 0 1 59.53845,47.425385 a 19.950512,20 85 0 1 0.13282,-0.0057 c 0.06377,-0.07048 0.150677,-0.119055 0.251531,-0.127878 z"
       id="path4166"
       inkscape:connector-curvature="0" />
    <path
       style="fill:none;fill-opacity:1;fill-rule:evenodd;stroke:#f2f2f2;stroke-width:4;stroke-linecap:butt;stroke-linejoin:miter;stroke-miterlimit:4;stroke-dasharray:none;stroke-opacity:1"
       d="M 81.179355,43.932659 C 72.812469,66.971366 69.418254,74.485797 48.002191,84.860703"
       id="path4186"
       inkscape:connector-curvature="0"
       sodipodi:nodetypes="cc" />
  </g>
  <g
     inkscape:groupmode="layer"
     id="layer2"
     inkscape:label="Layer 5" />
</svg>
