<?xml version="1.0" encoding="UTF-8" standalone="no"?>
<!-- Created with Inkscape (http://www.inkscape.org/) -->

<svg
   xmlns:dc="http://purl.org/dc/elements/1.1/"
   xmlns:cc="http://creativecommons.org/ns#"
   xmlns:rdf="http://www.w3.org/1999/02/22-rdf-syntax-ns#"
   xmlns:svg="http://www.w3.org/2000/svg"
   xmlns="http://www.w3.org/2000/svg"
   xmlns:sodipodi="http://sodipodi.sourceforge.net/DTD/sodipodi-0.dtd"
   xmlns:inkscape="http://www.inkscape.org/namespaces/inkscape"
   width="128"
   height="128"
   viewBox="0 0 128 128"
   id="svg2"
   version="1.1"
   inkscape:version="0.91 r13725"
   sodipodi:docname="os_steam.svg"
   inkscape:export-xdpi="90"
   inkscape:export-ydpi="90">
  <defs
     id="defs4" />
  <sodipodi:namedview
     id="base"
     pagecolor="#ffffff"
     bordercolor="#666666"
     borderopacity="1.0"
     inkscape:pageopacity="0.0"
     inkscape:pageshadow="2"
     inkscape:zoom="2.9002426"
     inkscape:cx="-47.940091"
     inkscape:cy="40.434877"
     inkscape:document-units="px"
     inkscape:current-layer="layer5"
     showgrid="false"
     units="px"
     inkscape:window-width="1366"
     inkscape:window-height="713"
     inkscape:window-x="0"
     inkscape:window-y="27"
     inkscape:window-maximized="1" />
  <metadata
     id="metadata7">
    <rdf:RDF>
      <cc:Work
         rdf:about="">
        <dc:format>image/svg+xml</dc:format>
        <dc:type
           rdf:resource="http://purl.org/dc/dcmitype/StillImage" />
        <dc:title />
        <dc:creator>
          <cc:Agent>
            <dc:title>Munlika</dc:title>
          </cc:Agent>
        </dc:creator>
        <dc:publisher>
          <cc:Agent>
            <dc:title>Munlika</dc:title>
          </cc:Agent>
        </dc:publisher>
        <cc:license
           rdf:resource="http://creativecommons.org/licenses/by/3.0/" />
      </cc:Work>
      <cc:License
         rdf:about="http://creativecommons.org/licenses/by/3.0/">
        <cc:permits
           rdf:resource="http://creativecommons.org/ns#Reproduction" />
        <cc:permits
           rdf:resource="http://creativecommons.org/ns#Distribution" />
        <cc:requires
           rdf:resource="http://creativecommons.org/ns#Notice" />
        <cc:requires
           rdf:resource="http://creativecommons.org/ns#Attribution" />
        <cc:permits
           rdf:resource="http://creativecommons.org/ns#DerivativeWorks" />
      </cc:License>
    </rdf:RDF>
  </metadata>
  <g
     inkscape:groupmode="layer"
     id="layer5"
     inkscape:label="Layer 5"
     style="display:inline">
    <path
       style="fill:#2d3852;fill-opacity:1;stroke:none;stroke-width:1;stroke-miterlimit:4;stroke-dasharray:none;stroke-opacity:1"
       d="M 64,18.000004 A 46,46 0 0 0 18.037104,63.242192 c 6.27288,4.756379 7.3914,11.715443 3.05079,17.308593 A 46,46 0 0 0 64,110 a 46,46 0 0 0 46,-45.999996 46,46 0 0 0 -46,-46 z"
       id="path4167"
       inkscape:connector-curvature="0" />
  </g>
  <g
     inkscape:groupmode="layer"
     id="layer4"
     inkscape:label="Layer 4"
     style="display:inline">
    <path
       style="display:inline;fill:#f2f2f2;fill-opacity:1;stroke:none;stroke-width:1;stroke-miterlimit:4;stroke-dasharray:none;stroke-opacity:1"
       d="M 77.976548,30.804673 A 19.505579,19.505579 0 0 0 63.898424,36.51561 19.505579,19.505579 0 0 0 58.197252,50.314438 l -13.41211,19.167969 a 13.859227,13.859227 0 0 0 -7.292968,2.013672 L 18.078115,62.443344 a 46,46 0 0 0 -0.0781,1.556641 46,46 0 0 0 3.23242,16.90625 l 9.74805,4.544922 a 13.859227,13.859227 0 0 0 3.880859,7.6875 13.859227,13.859227 0 0 0 19.601563,0 13.859227,13.859227 0 0 0 4.05664,-9.925781 L 77.687486,69.802719 a 19.505579,19.505579 0 0 0 13.796875,-5.701172 19.505579,19.505579 0 0 0 0,-27.585937 19.505579,19.505579 0 0 0 -13.507813,-5.710937 z m -0.09766,6.671874 a 12.832618,12.832618 0 0 1 8.886719,3.757813 12.832618,12.832618 0 0 1 0,18.148437 12.832618,12.832618 0 0 1 -18.148437,0 12.832618,12.832618 0 0 1 0,-18.148437 12.832618,12.832618 0 0 1 9.261718,-3.757813 z m -0.04492,3.080079 a 9.7527895,9.7527895 0 0 0 -7.039062,2.855468 9.7527895,9.7527895 0 0 0 0,13.792969 9.7527895,9.7527895 0 0 0 13.792969,0 9.7527895,9.7527895 0 0 0 0,-13.792969 9.7527895,9.7527895 0 0 0 -6.753907,-2.855468 z M 44.810531,73.072251 a 10.266094,10.266094 0 0 1 0.002,0 10.266094,10.266094 0 0 1 7.109375,3.005859 10.266094,10.266094 0 0 1 0,14.519531 10.266094,10.266094 0 0 1 -14.519531,0 10.266094,10.266094 0 0 1 -2.136719,-3.148437 l 6.136719,2.861328 c 3.865912,1.802704 8.429717,0.141303 10.232422,-3.724609 1.802704,-3.865914 0.141302,-8.429718 -3.72461,-10.232422 l -6.144531,-2.865235 a 10.266094,10.266094 0 0 1 3.044922,-0.416015 z"
       id="rect4339"
       inkscape:connector-curvature="0" />
  </g>
  <g
     inkscape:groupmode="layer"
     id="layer2"
     inkscape:label="Layer 2"
     style="display:inline" />
  <g
     inkscape:groupmode="layer"
     id="layer3"
     inkscape:label="Layer 3"
     style="display:inline" />
</svg>
