<?xml version="1.0" encoding="UTF-8" standalone="no"?>
<!-- Created with Inkscape (http://www.inkscape.org/) -->

<svg
   xmlns:dc="http://purl.org/dc/elements/1.1/"
   xmlns:cc="http://creativecommons.org/ns#"
   xmlns:rdf="http://www.w3.org/1999/02/22-rdf-syntax-ns#"
   xmlns:svg="http://www.w3.org/2000/svg"
   xmlns="http://www.w3.org/2000/svg"
   xmlns:sodipodi="http://sodipodi.sourceforge.net/DTD/sodipodi-0.dtd"
   xmlns:inkscape="http://www.inkscape.org/namespaces/inkscape"
   width="128"
   height="128"
   viewBox="0 0 128 128"
   id="svg2"
   version="1.1"
   inkscape:version="0.91 r13725"
   sodipodi:docname="os_slackware.svg"
   inkscape:export-xdpi="90"
   inkscape:export-ydpi="90">
  <defs
     id="defs4" />
  <sodipodi:namedview
     id="base"
     pagecolor="#ffffff"
     bordercolor="#666666"
     borderopacity="1.0"
     inkscape:pageopacity="0.0"
     inkscape:pageshadow="2"
     inkscape:zoom="3.959798"
     inkscape:cx="22.563284"
     inkscape:cy="66.61325"
     inkscape:document-units="px"
     inkscape:current-layer="layer1"
     showgrid="false"
     units="px"
     inkscape:window-width="1366"
     inkscape:window-height="713"
     inkscape:window-x="0"
     inkscape:window-y="27"
     inkscape:window-maximized="1" />
  <metadata
     id="metadata7">
    <rdf:RDF>
      <cc:Work
         rdf:about="">
        <dc:format>image/svg+xml</dc:format>
        <dc:type
           rdf:resource="http://purl.org/dc/dcmitype/StillImage" />
        <dc:title />
        <dc:creator>
          <cc:Agent>
            <dc:title />
          </cc:Agent>
        </dc:creator>
        <dc:publisher>
          <cc:Agent>
            <dc:title />
          </cc:Agent>
        </dc:publisher>
        <cc:license
           rdf:resource="" />
      </cc:Work>
    </rdf:RDF>
  </metadata>
  <g
     inkscape:label="Layer 1"
     inkscape:groupmode="layer"
     id="layer1"
     transform="translate(0,-924.36216)">
    <circle
       style="color:#000000;clip-rule:nonzero;display:inline;overflow:visible;visibility:visible;opacity:1;isolation:auto;mix-blend-mode:normal;color-interpolation:sRGB;color-interpolation-filters:linearRGB;solid-color:#000000;solid-opacity:1;fill:#333333;fill-opacity:1;fill-rule:nonzero;stroke:none;stroke-width:1;stroke-linecap:butt;stroke-linejoin:miter;stroke-miterlimit:4;stroke-dasharray:none;stroke-dashoffset:0;stroke-opacity:1;color-rendering:auto;image-rendering:auto;shape-rendering:auto;text-rendering:auto;enable-background:accumulate"
       id="path4701"
       cx="64"
       cy="988.36218"
       r="46" />
  </g>
  <g
     inkscape:groupmode="layer"
     id="layer2"
     inkscape:label="Layer 2">
    <path
       id="path17"
       d="m 77.6,34 0,15.9 -1.4,0 c -0.5,-3 -1.3,-5.5 -2.5,-7.3 -0.6,-0.9 -1.3,-1.7 -2.2,-2.4 -0.9,-0.7 -1.8,-1.3 -2.8,-1.8 -1,-0.5 -2.1,-0.9 -3.2,-1.2 -1.1,-0.3 -2.3,-0.4 -3.5,-0.4 -1.3,0 -2.5,0.2 -3.6,0.6 -1.1,0.4 -2.1,0.9 -2.9,1.6 -0.8,0.7 -1.5,1.4 -1.9,2.3 -0.4,0.7 -0.6,1.5 -0.6,2.4 0,1.3 0.3,2.4 1,3.3 0.7,0.9 1.6,1.8 2.7,2.6 1.1,0.8 2.5,1.6 4,2.3 1.5,0.7 3.2,1.5 5,2.4 2,1 4,1.9 5.8,2.8 1.8,0.9 3.5,1.9 4.8,3.1 1.4,1.1 2.5,2.4 3.3,3.8 0.8,1.4 1.2,3.2 1.2,5.2 0,1.7 -0.4,3.3 -1.2,4.9 -0.8,1.5 -1.9,2.9 -3.3,4.1 -1.4,1.2 -3.1,2.1 -5.1,2.8 -2,0.7 -4.1,1 -6.5,1 -0.9,0 -1.6,0 -2.3,0 -0.6,0 -1.2,-0.1 -1.8,-0.2 C 60,81.7 59.4,81.6 58.8,81.4 58.2,81.2 57.4,81 56.6,80.7 56,80.5 55.4,80.3 54.8,80.1 c -0.6,-0.2 -1.2,-0.3 -1.7,-0.4 -0.5,-0.1 -1,-0.2 -1.3,-0.3 -0.3,-0.1 -0.6,-0.1 -0.7,-0.1 -0.6,0 -1.1,0.2 -1.5,0.5 -0.4,0.3 -0.6,1 -0.8,2.1 l -1.4,0 0,-15.6 1.4,0 c 0.3,1.6 0.7,3.1 1.2,4.3 0.4,1.2 0.9,2.3 1.5,3.1 0.6,0.8 1.3,1.6 2.2,2.3 0.9,0.7 1.9,1.3 3,1.8 1.1,0.5 2.3,0.9 3.5,1.2 1.2,0.3 2.6,0.4 3.9,0.4 1.6,0 3,-0.2 4.3,-0.6 1.3,-0.4 2.3,-1 3.2,-1.6 0.9,-0.7 1.6,-1.5 2,-2.4 0.4,-0.9 0.7,-1.9 0.7,-2.9 0,-1.5 -0.3,-2.7 -1,-3.7 -0.7,-1 -1.6,-1.9 -2.7,-2.7 -1.1,-0.8 -2.5,-1.5 -4,-2.3 -1.5,-0.7 -3.1,-1.5 -4.8,-2.4 -1.9,-1 -3.8,-2 -5.5,-2.9 -1.7,-0.9 -3.3,-1.9 -4.7,-3 -1.4,-1.1 -2.4,-2.3 -3.3,-3.7 -0.8,-1.4 -1.2,-3.1 -1.2,-5 0,-1.6 0.4,-3.2 1.1,-4.6 0.8,-1.5 1.8,-2.8 3.1,-3.9 1.3,-1.1 2.9,-2 4.7,-2.6 1.8,-0.6 3.8,-1 6,-1 2.7,0 5.5,0.6 8.6,1.8 1.4,0.6 2.4,0.8 3,0.8 0.7,0 1.2,-0.2 1.6,-0.5 0.4,-0.3 0.7,-1.1 1,-2.1 l 1.4,0 z"
       inkscape:connector-curvature="0"
       style="display:inline;fill:#f2f2f2;stroke:none;fill-opacity:1" />
    <path
       style="fill:#f2f2f2;fill-opacity:1;stroke:none;stroke-width:1;stroke-linecap:round;stroke-linejoin:miter;stroke-miterlimit:4;stroke-dasharray:none;stroke-opacity:1"
       d="M 38 82 C 36.892 82 36 82.892 36 84 L 36 90 C 36 91.108 36.892 92 38 92 L 90 92 C 91.108 92 92 91.108 92 90 C 92 88.892 91.108 88 90 88 L 40 88 L 40 84 C 40 82.892 39.108 82 38 82 z "
       id="rect4137" />
  </g>
</svg>
