<?xml version="1.0" encoding="UTF-8" standalone="no"?>
<!-- Created with Inkscape (http://www.inkscape.org/) -->

<svg
   xmlns:dc="http://purl.org/dc/elements/1.1/"
   xmlns:cc="http://creativecommons.org/ns#"
   xmlns:rdf="http://www.w3.org/1999/02/22-rdf-syntax-ns#"
   xmlns:svg="http://www.w3.org/2000/svg"
   xmlns="http://www.w3.org/2000/svg"
   xmlns:sodipodi="http://sodipodi.sourceforge.net/DTD/sodipodi-0.dtd"
   xmlns:inkscape="http://www.inkscape.org/namespaces/inkscape"
   width="128"
   height="128"
   viewBox="0 0 128 128"
   id="svg2"
   version="1.1"
   inkscape:version="0.91 r13725"
   sodipodi:docname="os_ubuntu.svg"
   inkscape:export-xdpi="90"
   inkscape:export-ydpi="90">
  <defs
     id="defs4" />
  <sodipodi:namedview
     id="base"
     pagecolor="#ffffff"
     bordercolor="#666666"
     borderopacity="1.0"
     inkscape:pageopacity="0.0"
     inkscape:pageshadow="2"
     inkscape:zoom="3.959798"
     inkscape:cx="-12.194531"
     inkscape:cy="68.128478"
     inkscape:document-units="px"
     inkscape:current-layer="layer3"
     showgrid="false"
     units="px"
     inkscape:window-width="1366"
     inkscape:window-height="713"
     inkscape:window-x="0"
     inkscape:window-y="27"
     inkscape:window-maximized="1" />
  <metadata
     id="metadata7">
    <rdf:RDF>
      <cc:Work
         rdf:about="">
        <dc:format>image/svg+xml</dc:format>
        <dc:type
           rdf:resource="http://purl.org/dc/dcmitype/StillImage" />
        <dc:title />
        <dc:creator>
          <cc:Agent>
            <dc:title />
          </cc:Agent>
        </dc:creator>
        <dc:publisher>
          <cc:Agent>
            <dc:title />
          </cc:Agent>
        </dc:publisher>
        <cc:license
           rdf:resource="" />
      </cc:Work>
    </rdf:RDF>
  </metadata>
  <g
     inkscape:label="Layer 1"
     inkscape:groupmode="layer"
     id="layer1"
     transform="translate(0,-924.36216)"
     sodipodi:insensitive="true">
    <circle
       style="color:#000000;clip-rule:nonzero;display:inline;overflow:visible;visibility:visible;opacity:1;isolation:auto;mix-blend-mode:normal;color-interpolation:sRGB;color-interpolation-filters:linearRGB;solid-color:#000000;solid-opacity:1;fill:#f26622;fill-opacity:1;fill-rule:nonzero;stroke:none;stroke-width:1;stroke-linecap:butt;stroke-linejoin:miter;stroke-miterlimit:4;stroke-dasharray:none;stroke-dashoffset:0;stroke-opacity:1;color-rendering:auto;image-rendering:auto;shape-rendering:auto;text-rendering:auto;enable-background:accumulate"
       id="path4734"
       cx="64"
       cy="988.36218"
       r="46" />
  </g>
  <g
     inkscape:groupmode="layer"
     id="layer3"
     inkscape:label="Layer 3"
     style="display:inline">
    <path
       id="path15-0"
       d="m 36.2,56.9 c 2.3,1.6 3.8,4.2 3.8,7.1 0,3 -1.5,5.6 -3.8,7.1 0.6,2.5 1.6,4.9 3,7.2 2.3,4 5.4,7.2 9,9.6 l 4.5,-7.8 C 50.4,78.5 48.5,76.4 47,73.8 41.8,64.9 44.5,53.6 52.7,47.8 L 48.2,40 C 42,44.1 37.9,50.2 36.2,56.9 Z"
       inkscape:connector-curvature="0"
       style="display:inline;fill:#f1f2f2;stroke:none" />
    <path
       id="path17-7"
       d="m 37.8,64 c 0,3.6 -2.9,6.5 -6.5,6.5 -3.6,0 -6.5,-2.9 -6.5,-6.5 0,-3.6 2.9,-6.5 6.5,-6.5 3.6,0 6.5,2.9 6.5,6.5 z"
       inkscape:connector-curvature="0"
       style="display:inline;fill:#f1f2f2;stroke:none" />
    <path
       id="path19-7"
       d="M 76,43.1 C 73.4,41.6 71.9,39 71.7,36.3 65.1,34.4 57.7,35 51.2,38.2 l 4.5,7.8 c 9.2,-4.3 20.2,-0.9 25.4,8.1 1.5,2.6 2.3,5.3 2.6,8.1 l 9,0 c -0.3,-4.3 -1.5,-8.6 -3.8,-12.6 -1.3,-2.3 -3,-4.4 -4.8,-6.2 -2.5,1.2 -5.5,1.2 -8.1,-0.3 z"
       inkscape:connector-curvature="0"
       style="display:inline;fill:#f1f2f2;stroke:none" />
    <path
       id="path21-0"
       d="m 77.1,41.3 c -3.1,-1.8 -4.2,-5.7 -2.4,-8.8 1.8,-3.1 5.7,-4.2 8.8,-2.4 3.1,1.8 4.2,5.7 2.4,8.8 -1.7,3.1 -5.7,4.2 -8.8,2.4 z"
       inkscape:connector-curvature="0"
       style="display:inline;fill:#f1f2f2;stroke:none" />
    <path
       id="path23-6"
       d="m 73.9,81.1 c -5.8,3.3 -12.5,3.4 -18.2,0.8 l -4.5,7.8 c 6.3,3.1 13.6,3.9 20.5,1.9 0.2,-2.8 1.7,-5.4 4.3,-6.8 2.6,-1.5 5.6,-1.5 8.1,-0.3 5.2,-5 8.1,-11.8 8.6,-18.8 l -9,0 c -0.6,6.3 -4,12.1 -9.8,15.4 z"
       inkscape:connector-curvature="0"
       style="display:inline;fill:#f1f2f2;stroke:none" />
    <path
       id="path25-7"
       d="m 77.1,86.7 c 3.1,-1.8 7.1,-0.7 8.8,2.4 1.8,3.1 0.7,7.1 -2.4,8.8 -3.1,1.8 -7.1,0.7 -8.8,-2.4 -1.7,-3 -0.7,-7 2.4,-8.8 z"
       inkscape:connector-curvature="0"
       style="display:inline;fill:#f1f2f2;stroke:none" />
  </g>
</svg>
