<?xml version="1.0" encoding="UTF-8" standalone="no"?>
<!-- Created with Inkscape (http://www.inkscape.org/) -->

<svg
   xmlns:dc="http://purl.org/dc/elements/1.1/"
   xmlns:cc="http://creativecommons.org/ns#"
   xmlns:rdf="http://www.w3.org/1999/02/22-rdf-syntax-ns#"
   xmlns:svg="http://www.w3.org/2000/svg"
   xmlns="http://www.w3.org/2000/svg"
   xmlns:sodipodi="http://sodipodi.sourceforge.net/DTD/sodipodi-0.dtd"
   xmlns:inkscape="http://www.inkscape.org/namespaces/inkscape"
   version="1.1"
   id="svg2"
   width="128"
   height="128"
   viewBox="0 0 128 128"
   sodipodi:docname="os_ubuntustudio1.svg"
   inkscape:version="0.92.5 (2060ec1f9f, 2020-04-08)">
  <metadata
     id="metadata8">
    <rdf:RDF>
      <cc:Work
         rdf:about="">
        <dc:format>image/svg+xml</dc:format>
        <dc:type
           rdf:resource="http://purl.org/dc/dcmitype/StillImage" />
        <dc:title></dc:title>
      </cc:Work>
    </rdf:RDF>
  </metadata>
  <defs
     id="defs6" />
  <sodipodi:namedview
     pagecolor="#ffffff"
     bordercolor="#666666"
     borderopacity="1"
     objecttolerance="10"
     gridtolerance="10"
     guidetolerance="10"
     inkscape:pageopacity="0"
     inkscape:pageshadow="2"
     inkscape:window-width="1920"
     inkscape:window-height="1016"
     id="namedview4"
     showgrid="false"
     inkscape:pagecheckerboard="true"
     inkscape:zoom="0.72021485"
     inkscape:cx="-444.71321"
     inkscape:cy="72.200677"
     inkscape:window-x="0"
     inkscape:window-y="27"
     inkscape:window-maximized="1"
     inkscape:current-layer="g3717" />
  <g
     id="g842"
     transform="matrix(0.192,0,0,0.192,16,16)">
    <ellipse
       cx="244.89221"
       cy="250.07458"
       rx="221.2751"
       ry="223.89153"
       id="path4565"
       style="display:inline;fill:#ffffff;fill-opacity:1;stroke:none;stroke-width:2.88559771" />
    <g
       transform="matrix(3.0535551,0,0,3.0574128,-55.236979,-38.883476)"
       style="display:inline;fill:#009bf9;fill-opacity:1"
       id="g3717">
      <path
         inkscape:connector-curvature="0"
         id="path3721"
         d="M 92.130169,176.0565 C 68.023347,173.55849 46.343689,160.80922 32.630838,141.0664 19.149946,121.65753 14.791338,97.452107 20.608999,74.30338 24.187065,60.0661 31.803982,46.79682 42.411095,36.322381 55.423308,23.472928 71.062732,15.835409 89.890169,13.135956 c 4.365408,-0.625906 16.720551,-0.531109 21.280001,0.163274 18.27962,2.783906 34.01924,10.640192 46.67787,23.298831 19.97928,19.979271 28.1691,48.446746 21.93861,76.257679 -2.54687,11.36838 -8.91574,24.38934 -16.28796,33.3002 -13.40147,16.19845 -31.4718,26.40689 -52.16852,29.47146 -3.92388,0.58101 -15.283892,0.8349 -19.200001,0.4291 z m 29.920001,-15.51783 c 7.42929,-2.49197 15.54725,-6.89864 21.44,-11.63826 3.38475,-2.72241 6.45441,-5.85436 7.08077,-7.22447 1.90101,-4.15827 -1.16038,-8.8 -5.80391,-8.8 -2.07537,0 -3.14815,0.56599 -5.90771,3.11688 -6.45736,5.9691 -14.24607,10.44654 -22.61017,12.99775 -3.35992,1.02483 -4.6566,1.87827 -5.61515,3.6957 -1.70305,3.22904 -0.37087,7.17855 2.93617,8.70485 1.99154,0.91916 3.71474,0.74593 8.48,-0.85245 z M 109.91874,140.605 c 9.22033,-2.14259 16.89912,-6.3676 23.33143,-12.83738 6.6075,-6.64599 10.96543,-14.69235 13.00478,-24.01168 0.47248,-2.15912 0.59522,-4.072729 0.59522,-9.280003 0,-5.207274 -0.12274,-7.120886 -0.59522,-9.28 -4.38335,-20.030832 -20.2071,-34.814416 -40.10257,-37.466448 -3.96954,-0.529133 -12.578432,-0.195472 -16.143673,0.625693 -6.074944,1.399209 -11.268944,3.645718 -16.378029,7.083827 -3.991683,2.686163 -7.393549,5.735952 -8.232538,7.380506 -2.44432,4.79126 2.101047,10.35575 7.312768,8.95238 0.872675,-0.234988 2.084218,-1.033721 3.497248,-2.305628 9.194554,-8.276276 20.88432,-11.26489 32.458154,-8.298279 9.93746,2.547178 18.58482,9.87609 22.73064,19.264938 5.79501,13.123696 2.98732,28.322154 -7.0892,38.374884 -5.71238,5.6989 -12.96125,9.1048 -21.11229,9.91968 -9.68771,0.9685 -19.299352,-2.2984 -26.803694,-9.11031 -2.88688,-2.6205 -4.50216,-3.15966 -7.211661,-2.40716 -2.575827,0.71538 -4.409936,3.23821 -4.409936,6.06592 0,2.2287 0.837072,3.70762 3.427971,6.05642 6.072685,5.50525 14.546746,9.80677 22.332029,11.33598 4.019834,0.78959 4.141139,0.79744 10.560001,0.68339 4.64363,-0.0825 6.72933,-0.25892 8.82857,-0.74673 z m -3.70857,-22.29183 c 8.40088,-2.27883 15.04211,-8.96103 17.48934,-17.59723 1.00915,-3.561235 1.00534,-8.855753 -0.009,-12.480003 -2.4088,-8.606992 -9.10361,-15.344346 -17.48037,-17.591459 -6.16081,-1.652672 -13.201678,-0.628768 -18.965275,2.757984 -2.350602,1.381238 -6.966963,5.9976 -8.348202,8.348201 -4.731072,8.051367 -4.731072,17.399181 0,25.450547 0.59041,1.00477 2.299248,3.05262 3.797415,4.55079 3.785261,3.78526 7.566841,5.88479 12.430086,6.90118 2.666064,0.55719 8.430176,0.3804 11.085976,-0.34001 z m -9.600001,-12.10726 c -3.702042,-1.22784 -6.068592,-3.26258 -7.6316,-6.561573 -0.911075,-1.922976 -1.0084,-2.421808 -1.0084,-5.1684 0,-2.746592 0.09732,-3.245424 1.0084,-5.1684 0.554621,-1.170621 1.612842,-2.732842 2.3516,-3.4716 0.738758,-0.738758 2.300979,-1.796979 3.4716,-2.3516 1.922976,-0.911075 2.421808,-1.0084 5.1684,-1.0084 2.746591,0 3.245421,0.09732 5.168401,1.0084 2.70107,1.279722 4.54348,3.122131 5.8232,5.8232 0.91107,1.922976 1.0084,2.421808 1.0084,5.1684 0,2.746592 -0.0973,3.245424 -1.0084,5.1684 -2.01267,4.248073 -5.76741,6.712463 -10.49708,6.889653 -1.544201,0.0579 -3.086774,-0.0734 -3.854521,-0.32808 z m -53.925637,9.76725 c 0.6191,-0.49188 1.459049,-1.53398 1.866553,-2.31577 0.859605,-1.64916 0.824548,-2.8181 -0.229773,-7.66145 -1.595293,-7.328477 -1.595293,-15.711529 0,-23.040003 1.054321,-4.84335 1.089378,-6.012294 0.229773,-7.66145 -1.976231,-3.791408 -6.630632,-4.789315 -9.776952,-2.096182 -1.589998,1.360979 -2.10161,2.608234 -3.116886,7.59863 -1.223909,6.015895 -1.647073,12.66001 -1.182022,18.559002 0.397487,5.041973 1.59257,11.751403 2.494805,14.006313 0.665392,1.66298 2.723186,3.41934 4.406434,3.76095 1.830898,0.37159 3.978522,-0.0937 5.308068,-1.15004 z m 20.835307,-5.28207 c 1.883565,-0.99478 3.255872,-3.18591 3.293018,-5.25789 0.01498,-0.83449 -0.242189,-2.66926 -0.571446,-4.07726 -0.42888,-1.834029 -0.598647,-3.785085 -0.598647,-6.880003 0,-3.094918 0.169767,-5.045974 0.598647,-6.88 0.842316,-3.602003 0.752784,-5.257843 -0.383498,-7.092422 -2.232586,-3.604621 -7.422154,-3.999706 -10.13823,-0.771834 -3.706605,4.40505 -3.706605,25.083459 0,29.488509 1.84624,2.19413 5.224518,2.83119 7.800156,1.4709 z M 147.58292,55.467079 c 3.1591,-1.620086 4.47669,-5.353184 2.94741,-8.350838 -1.17625,-2.305638 -6.63425,-7.096882 -12.48016,-10.95558 -6.49007,-4.283881 -18.12805,-9.200915 -21.76,-9.193577 -4.76068,0.0096 -7.80342,4.887716 -5.72578,9.179536 0.86868,1.79446 2.35662,2.789735 5.70619,3.816848 8.34819,2.559884 16.27346,7.1134 22.57959,12.973256 1.232,1.144813 2.672,2.313703 3.2,2.597533 1.33505,0.717664 4.06702,0.684493 5.53275,-0.06718 z"
         style="display:inline;fill:#009bf9;fill-opacity:1;stroke-width:0.31999999" />
    </g>
  </g>
</svg>
