<?xml version="1.0" encoding="UTF-8" standalone="no"?>
<!-- Created with Inkscape (http://www.inkscape.org/) -->

<svg
   xmlns:dc="http://purl.org/dc/elements/1.1/"
   xmlns:cc="http://creativecommons.org/ns#"
   xmlns:rdf="http://www.w3.org/1999/02/22-rdf-syntax-ns#"
   xmlns:svg="http://www.w3.org/2000/svg"
   xmlns="http://www.w3.org/2000/svg"
   xmlns:sodipodi="http://sodipodi.sourceforge.net/DTD/sodipodi-0.dtd"
   xmlns:inkscape="http://www.inkscape.org/namespaces/inkscape"
   width="128"
   height="128"
   viewBox="0 0 128 128"
   id="svg2"
   version="1.1"
   inkscape:version="0.91 r13725"
   sodipodi:docname="os_win.svg"
   inkscape:export-xdpi="90"
   inkscape:export-ydpi="90">
  <defs
     id="defs4" />
  <sodipodi:namedview
     id="base"
     pagecolor="#ffffff"
     bordercolor="#666666"
     borderopacity="1.0"
     inkscape:pageopacity="0.0"
     inkscape:pageshadow="2"
     inkscape:zoom="0.50000001"
     inkscape:cx="6.5680896"
     inkscape:cy="36.282127"
     inkscape:document-units="px"
     inkscape:current-layer="layer1"
     showgrid="false"
     units="px"
     inkscape:window-width="1366"
     inkscape:window-height="713"
     inkscape:window-x="0"
     inkscape:window-y="27"
     inkscape:window-maximized="1" />
  <metadata
     id="metadata7">
    <rdf:RDF>
      <cc:Work
         rdf:about="">
        <dc:format>image/svg+xml</dc:format>
        <dc:type
           rdf:resource="http://purl.org/dc/dcmitype/StillImage" />
        <dc:title />
        <dc:creator>
          <cc:Agent>
            <dc:title />
          </cc:Agent>
        </dc:creator>
        <dc:publisher>
          <cc:Agent>
            <dc:title />
          </cc:Agent>
        </dc:publisher>
        <cc:license
           rdf:resource="" />
      </cc:Work>
    </rdf:RDF>
  </metadata>
  <g
     inkscape:label="Layer 1"
     inkscape:groupmode="layer"
     id="layer1"
     transform="translate(0,-924.36216)"
     style="display:inline">
    <path
       d="m 62.825045,985.58585 c 3.078076,-10.64496 6.264806,-21.36997 9.342883,-32.01492 -13.176802,-9.41132 -22.589324,-9.75966 -36.569245,-5.55872 -3.078076,10.64495 -6.264807,21.36997 -9.342881,32.01492 13.97992,-4.20093 23.383787,-3.75517 36.569243,5.55872 z"
       id="path12"
       inkscape:connector-curvature="0"
       style="fill:#f15026;fill-opacity:1;stroke:none" />
    <path
       d="m 66.186557,987.7525 c 13.176802,9.41132 22.589323,9.75966 36.569243,5.55871 3.07808,-10.64494 6.26481,-21.36996 9.34289,-32.01491 -13.979931,4.20093 -23.39245,3.8526 -36.569251,-5.55871 -3.078076,10.64494 -6.264807,21.36995 -9.342882,32.01491 z"
       id="path14"
       inkscape:connector-curvature="0"
       style="fill:#74c046;fill-opacity:1;stroke:none" />
    <path
       d="m 65.174958,991.13843 c -3.078081,10.64497 -6.264808,21.37007 -9.342879,32.01497 13.176799,9.4113 22.589313,9.7596 36.569231,5.5587 3.078081,-10.645 6.264815,-21.37 9.34289,-32.01495 -13.979917,4.20095 -23.383787,3.75515 -36.569242,-5.55872 z"
       id="path16"
       inkscape:connector-curvature="0"
       style="fill:#ffc315;fill-opacity:1;stroke:none" />
    <path
       d="m 61.813447,988.97178 c -13.176803,-9.41132 -22.589325,-9.75966 -36.569245,-5.55871 -3.078077,10.64495 -6.264805,21.37003 -9.342884,32.01503 13.97992,-4.2011 23.392442,-3.8527 36.569241,5.5586 3.07807,-10.6449 6.264805,-21.36989 9.342888,-32.01492 z"
       id="path18"
       inkscape:connector-curvature="0"
       style="fill:#1d95d2;fill-opacity:1;stroke:none" />
  </g>
</svg>
