<?xml version="1.0" encoding="UTF-8" standalone="no"?>
<!-- Created with Inkscape (http://www.inkscape.org/) -->

<svg
   xmlns:dc="http://purl.org/dc/elements/1.1/"
   xmlns:cc="http://creativecommons.org/ns#"
   xmlns:rdf="http://www.w3.org/1999/02/22-rdf-syntax-ns#"
   xmlns:svg="http://www.w3.org/2000/svg"
   xmlns="http://www.w3.org/2000/svg"
   xmlns:sodipodi="http://sodipodi.sourceforge.net/DTD/sodipodi-0.dtd"
   xmlns:inkscape="http://www.inkscape.org/namespaces/inkscape"
   width="128"
   height="128"
   viewBox="0 0 128 128"
   id="svg2"
   version="1.1"
   inkscape:version="0.91 r13725"
   sodipodi:docname="os_android.svg">
  <defs
     id="defs4" />
  <sodipodi:namedview
     id="base"
     pagecolor="#ffffff"
     bordercolor="#666666"
     borderopacity="1.0"
     inkscape:pageopacity="0.0"
     inkscape:pageshadow="2"
     inkscape:zoom="4.1484374"
     inkscape:cx="57.184847"
     inkscape:cy="57.283149"
     inkscape:document-units="px"
     inkscape:current-layer="layer2"
     showgrid="false"
     units="px"
     inkscape:window-width="1366"
     inkscape:window-height="713"
     inkscape:window-x="0"
     inkscape:window-y="27"
     inkscape:window-maximized="1" />
  <metadata
     id="metadata7">
    <rdf:RDF>
      <cc:Work
         rdf:about="">
        <dc:format>image/svg+xml</dc:format>
        <dc:type
           rdf:resource="http://purl.org/dc/dcmitype/StillImage" />
        <dc:title />
      </cc:Work>
    </rdf:RDF>
  </metadata>
  <g
     inkscape:groupmode="layer"
     id="layer2"
     inkscape:label="Layer 2"
     style="display:inline">
    <path
       style="fill:#91c653;fill-opacity:1;stroke:none;stroke-width:0;stroke-miterlimit:4;stroke-dasharray:none;stroke-opacity:1"
       d="M 63.992188,23.999553 A 43.039765,44.428189 0 0 0 21,67.462444 l 0,5 0,27.537111 c 0,2.216005 1.784,4.000005 4,4.000005 l 78,0 c 2.216,0 4,-1.784 4,-4.000005 l 0,-28.537111 0,-4 A 43.039765,44.428189 0 0 0 63.992188,23.999553 Z M 45.525391,43.696819 a 5.0860207,5.0860207 0 0 1 5.085937,5.085937 5.0860207,5.0860207 0 0 1 -5.085937,5.085938 5.0860207,5.0860207 0 0 1 -5.085938,-5.085938 5.0860207,5.0860207 0 0 1 5.085938,-5.085937 z m 36.949218,0 a 5.0860207,5.0860207 0 0 1 5.085938,5.085937 5.0860207,5.0860207 0 0 1 -5.085938,5.085938 5.0860207,5.0860207 0 0 1 -5.085937,-5.085938 5.0860207,5.0860207 0 0 1 5.085937,-5.085937 z"
       id="path4202"
       inkscape:connector-curvature="0" />
    <g
       id="g4249"
       transform="matrix(0.92473103,0,0,0.92473103,7.4738276,2.8546826)"
       style="fill:#93c756;fill-opacity:1">
      <rect
         transform="matrix(0.52991927,0.84804809,-0.84804809,0.52991927,0,0)"
         ry="2"
         rx="2"
         y="-16.423658"
         x="28.102875"
         height="4"
         width="23"
         id="rect4232"
         style="fill:#93c756;fill-opacity:1;stroke:none;stroke-width:0;stroke-miterlimit:4;stroke-dasharray:none;stroke-opacity:1" />
      <rect
         transform="matrix(-0.52991927,0.84804809,0.84804809,0.52991927,0,0)"
         ry="2"
         rx="2"
         y="87.25386"
         x="-36.68203"
         height="4"
         width="23"
         id="rect4232-7"
         style="fill:#93c756;fill-opacity:1;stroke:none;stroke-width:0;stroke-miterlimit:4;stroke-dasharray:none;stroke-opacity:1" />
    </g>
  </g>
  <g
     inkscape:groupmode="layer"
     id="layer5"
     inkscape:label="Layer 4"
     style="display:inline">
    <rect
       style="display:inline;fill:#8bbe50;fill-opacity:1;stroke:#000000;stroke-width:0;stroke-miterlimit:4;stroke-dasharray:none;stroke-opacity:1"
       id="rect4211-3-0"
       width="85.999992"
       height="36.537991"
       x="21.000004"
       y="67.462448"
       rx="4"
       ry="4" />
    <rect
       style="fill:#88ba4e;fill-opacity:1;stroke:none;stroke-width:0;stroke-miterlimit:4;stroke-dasharray:none;stroke-opacity:1"
       id="rect4253-5"
       width="85.999992"
       height="4"
       x="21.000004"
       y="67.46244" />
  </g>
</svg>
