<?xml version="1.0" encoding="UTF-8" standalone="no"?>
<!-- Created with Inkscape (http://www.inkscape.org/) -->

<svg
   version="1.1"
   id="svg2"
   width="128"
   height="128"
   viewBox="0 0 512 512"
   sodipodi:docname="os_astos.svg"
   inkscape:version="1.2 (dc2aedaf03, 2022-05-15)"
   inkscape:export-filename="os_astos.png"
   inkscape:export-xdpi="96"
   inkscape:export-ydpi="96"
   xmlns:inkscape="http://www.inkscape.org/namespaces/inkscape"
   xmlns:sodipodi="http://sodipodi.sourceforge.net/DTD/sodipodi-0.dtd"
   xmlns="http://www.w3.org/2000/svg"
   xmlns:svg="http://www.w3.org/2000/svg">
  <defs
     id="defs6" />
  <sodipodi:namedview
     id="namedview4"
     pagecolor="#505050"
     bordercolor="#ffffff"
     borderopacity="1"
     inkscape:showpageshadow="0"
     inkscape:pageopacity="0"
     inkscape:pagecheckerboard="1"
     inkscape:deskcolor="#505050"
     showgrid="false"
     inkscape:zoom="4"
     inkscape:cx="74"
     inkscape:cy="82.375"
     inkscape:window-width="1280"
     inkscape:window-height="994"
     inkscape:window-x="0"
     inkscape:window-y="30"
     inkscape:window-maximized="1"
     inkscape:current-layer="g8" />
  <g
     inkscape:groupmode="layer"
     inkscape:label="Image"
     id="g8">
    <g
       id="svg"
       transform="translate(64,64)">
      <path
         style="display:inline;fill:#ededeb;stroke-width:0;stroke-dasharray:none;fill-opacity:1"
         d="M -4,192 C -4,-0.5 -3.5,-4 192,-4 387.5,-4 387.55012,-4.1833856 388,192 388.45918,392.24127 399.00134,389.44349 192,388 -5.150883,386.6252 -4,390.66819 -4,192 Z M 69.273829,371.25454 C 78.164271,367.0917 86.057367,359.21244 90.291388,350.27383 93.269065,343.98754 93.5,342.74428 93.5,333 93.5,320.11337 90.492578,312.56341 81.77361,303.56157 76.382379,297.99543 76.382379,297.99543 81.44119,288.45254 86.5,278.90964 86.5,278.90964 90,279.70482 c 3.744799,0.8508 19.02009,1.00201 25.31634,0.25062 3.81634,-0.45544 3.81634,-0.45544 8.85775,8.82967 5.0414,9.28512 5.0414,9.28512 -0.0815,14.40796 -30.915065,30.91507 0.28631,82.83799 41.9808,69.8612 30.29611,-9.42921 39.49777,-47.38782 16.95266,-69.93293 -10.13439,-10.13439 -27.4671,-14.789 -40.24312,-10.80709 -5.51077,1.71755 -4.75101,2.36562 -11.14338,-9.50527 -4.68004,-8.69101 -4.68004,-8.69101 0.32203,-13.36986 15.74989,-14.73218 17.03872,-39.73877 2.95297,-57.29516 -3.7059,-4.61901 -3.7059,-4.61901 1.33659,-11.91321 6.32623,-9.15123 5.66018,-8.86223 12.07772,-5.2404 27.9201,15.75713 66.42208,15.75713 94.34218,0 6.41902,-3.62267 5.74899,-3.91444 12.0965,5.26756 5.06126,7.32137 5.06126,7.32137 1.6693,11.40484 -24.24896,29.19256 -3.14838,71.44374 34.46483,69.01134 4.72906,-0.30582 9.72328,-0.82953 11.09828,-1.1638 2.31272,-0.56222 2.87896,0.10738 7.55881,8.93869 5.05881,9.54645 5.05881,9.54645 -0.33242,15.11259 C 300.50742,312.56341 297.5,320.11337 297.5,333 c 0,13.07006 3.08711,20.71754 11.93478,29.56522 8.86022,8.86022 16.48999,11.93478 29.61708,11.93478 10.16551,0 10.82789,-0.13642 18.09054,-3.72581 9.21672,-4.55516 15.66317,-15.05482 20.08946,-24.39848 4.71868,-9.96089 4.80184,-20.63815 0.0832,-30.59904 -8.88103,-18.7474 -30.35388,-29.0197 -49.14629,-23.51087 -5.12164,1.50137 -5.12164,1.50137 -10.14518,-7.81729 C 315.2606,279.32325 313,274.85421 313,274.51731 c 0,-0.3369 2.21524,-2.82779 4.92275,-5.5353 8.54028,-8.54028 11.57725,-16.28009 11.57725,-29.50495 0,-10.78423 -0.0973,-11.26745 -3.76588,-18.69533 -9.91632,-20.07802 -34.87456,-29.31227 -54.25109,-20.07224 -1.90186,0.90692 -3.6231,1.45581 -3.825,1.21973 C 265.13844,198.98315 257,186.96804 257,186.19434 c 0,-0.56446 1.79611,-2.44882 3.99135,-4.18749 9.99003,-7.91225 23.12942,-28.22554 27.81842,-43.00685 4.71164,-14.85266 6.09867,-35.15279 3.31384,-48.5 C 283.93129,51.235702 256.40551,22.247088 217.97754,12.41348 205.90548,9.3242763 181.45563,9.791274 169.5,13.339412 108.6785,31.389746 79.898705,97.869687 108.60283,154.00893 c 4.85201,9.48951 15.31351,23.17272 21.40582,27.99792 2.19524,1.73867 3.99135,3.62303 3.99135,4.18749 0,0.7737 -8.13844,12.78881 -10.65803,15.73488 -0.2019,0.23608 -1.92314,-0.31281 -3.825,-1.21973 -19.37653,-9.24003 -44.334766,-0.006 -54.251086,20.07224 -3.668546,7.42788 -3.765884,7.9111 -3.765884,18.69533 0,13.22486 3.036972,20.96467 11.577249,29.50495 2.707513,2.70751 4.922751,5.1984 4.922751,5.5353 0,0.3369 -2.260596,4.80594 -5.023547,9.9312 -5.023547,9.31866 -5.023547,9.31866 -10.145187,7.81729 -18.792408,-5.50883 -40.265254,4.76347 -49.146286,23.51087 -4.7090056,9.94047 -4.717657,24.48819 -0.02046,34.40294 10.184225,21.49666 34.791773,30.82248 55.609309,21.07493 z"
         id="path1302"
         inkscape:label="outer_white"
         sodipodi:nodetypes="ssssssssssssscssssssssssssssssssssssssssssssssssssssscsssssssss" />
      <path
         style="display:inline;fill:#fefefe"
         d="m 44.5,361.65674 c -18.163816,-5.99677 -26.544659,-24.4901 -18.655606,-41.16583 10.675814,-22.56634 40.442137,-22.68742 52.387468,-0.21311 3.222945,6.06375 3.222945,19.38065 0,25.4444 C 71.367038,358.63789 56.552809,365.63596 44.5,361.65674 Z m 103,0.42145 c -9.11745,-2.5086 -16.96537,-9.13479 -20.56605,-17.36443 -9.49016,-21.69051 10.47446,-46.07997 32.9968,-40.31001 23.11295,5.92126 30.40031,33.19852 13.40873,50.1901 -6.27584,6.27584 -17.94618,9.65613 -25.83948,7.48434 z m 184.17233,-0.45513 c -13.62264,-3.81879 -22.55519,-16.81196 -21.41672,-31.15247 2.36714,-29.81698 42.09847,-37.03931 54.9,-9.97968 10.57232,22.34759 -10.06345,47.69736 -33.48328,41.13215 z M 94.891388,267.68116 C 81.676714,263.95304 73.405967,252.0332 74.165857,237.81142 c 1.38284,-25.88063 30.666823,-37.20557 48.874883,-18.9013 21.01084,21.12186 0.40321,56.82627 -28.149352,48.77104 z m 184.587702,-0.42177 c -21.3051,-7.62494 -27.22963,-32.51415 -11.50885,-48.34927 18.3347,-18.46805 47.58092,-6.9306 48.86042,19.27514 0.99912,20.46333 -18.65814,35.76437 -37.35157,29.07413 z M 179.16391,202.94419 C 162.0327,199.88619 144.14504,190.90966 131.75,179.15055 126,173.69556 126,173.69556 126,133.397 c 0,-25.8244 0.40081,-42.201896 1.11594,-45.597779 6.1324,-29.12078 39.63619,-42.394371 62.65435,-24.822511 6.31275,4.819098 5.62722,4.759466 10.05206,0.874403 10.10033,-8.868203 28.17839,-11.396889 40.43029,-5.655226 8.01875,3.757862 16.0663,11.675759 20.01373,19.691309 3.23363,6.566114 3.23363,6.566114 3.52298,51.507004 0.28935,44.94088 0.28935,44.94088 -3.5,48.86741 -8.8524,9.17287 -24.13274,17.922 -39.00103,22.331 -9.85327,2.92185 -32.00274,4.15834 -42.12441,2.35158 z m 31.83354,-49.86706 c 13.46581,-21.41243 14.02017,-22.49895 12.3019,-24.11113 -1.69556,-1.59088 -21.3427,-19.18042 -25.90626,-23.19317 -2.08919,-1.83703 -2.20696,-1.76299 -14,8.8012 -6.5412,5.85959 -13.1918,11.90991 -14.77912,13.44515 -2.88602,2.79134 -2.88602,2.79134 9.89861,23.13608 15.77912,25.11 16.53664,26.19598 17.55847,25.17178 0.45383,-0.45487 7.17071,-10.91733 14.9264,-23.24991 z m -43.452,-54.531675 C 174.51593,91.574976 165.94777,80.87293 157.07152,85.463015 153.83506,87.136656 153,88.786905 153,93.509207 c 0,6.811363 9.48591,10.095793 14.54545,5.036248 z m 68,0 C 242.17206,91.918847 234.69918,81.396682 225.94237,85.02387 222.29707,86.533802 221,88.721972 221,93.361678 c 0,6.954452 9.41826,10.310972 14.54545,5.183777 z"
         id="path1300"
         inkscape:label="inner_white" />
      <path
         style="display:inline;fill:#feaa00"
         d="m 193.5029,171.36409 c -12.10619,-18.4764 -25.48073,-40.77896 -24.82904,-41.40339 0.45438,-0.43537 6.64945,-6.00661 13.76682,-12.38055 12.94068,-11.58897 12.94068,-11.58897 15.5,-9.26903 1.40763,1.27597 7.50932,6.78695 13.55932,12.24663 6.05,5.45968 10.85427,10.36737 10.67616,10.90598 -0.35613,1.07694 -25.05546,40.54852 -26.17988,41.83762 -0.38443,0.44074 -1.50645,-0.43103 -2.49338,-1.93726 z"
         id="path1278"
         inkscape:label="beak" />
      <path
         style="display:inline;fill:#000000"
         d="M 43.165676,373.508 C 9.0393245,365.875 -0.32750567,320.2943 27.962668,299.5274 c 9.594,-7.04264 25.93806,-9.79515 36.268156,-6.10794 4.432037,1.58197 3.850128,2.13752 10.654663,-10.17199 5.114678,-9.25253 5.114678,-9.25253 1.029983,-12.9428 C 51.279423,248.04748 61.122047,207.58824 93.17,199.37794 c 7.3156,-1.87417 16.0464,-1.45565 22.83,1.09437 8.38764,3.15301 7.9696,3.32759 14.29835,-5.97133 6.15113,-9.03797 6.1191,-9.02336 11.20165,-5.10606 1.1,0.84781 1.5163,1.55578 0.92511,1.57328 -1.92484,0.057 -12.82115,16.20177 -11.82991,17.52811 0.49764,0.66587 2.58584,3.4141 4.64044,6.10718 12.62148,16.54367 10.88807,39.17764 -4.15539,54.25909 -6.04828,6.06356 -6.36279,3.93041 3.06315,20.77521 2.87498,5.13779 2.87498,5.13779 8.00393,3.63429 18.52378,-5.43009 40.39618,4.51013 48.3543,21.97528 15.89761,34.88943 -19.45126,71.19896 -53.94241,55.40838 -26.65978,-12.20525 -31.86909,-48.88115 -9.77769,-68.8394 3.95076,-3.56928 3.95076,-3.56928 -1.4483,-13.3924 -2.96949,-5.40271 -5.55828,-9.98232 -5.75287,-10.17692 -0.1946,-0.19459 -3.91973,0.36875 -8.27809,1.25186 -6.56166,1.32957 -9.0315,1.40606 -14.363276,0.44485 -11.708848,-2.11087 -10.731374,-2.59853 -16.663282,8.31328 -5.304134,9.75702 -5.304134,9.75702 -0.0056,15.14085 29.012608,29.47987 2.787722,79.03277 -37.104404,70.11014 z m 20.004845,-12.11466 c 6.063446,-1.94901 13.22675,-8.31772 16.612783,-14.76999 3.903428,-7.4382 3.903428,-19.8085 0,-27.2467 C 64.918082,291.05014 21,301.2284 21,333 c 0,21.6 20.456175,35.37311 42.170521,28.39334 z m 104.553329,-1.50717 c 22.33832,-10.71628 22.40438,-42.37533 0.11215,-53.74728 -26.72359,-13.63252 -55.04383,13.68376 -41.88933,40.40434 7.66991,15.5798 25.34619,21.22531 41.77718,13.34294 z M 116.5,266.74255 c 29.7742,-15.30246 18.54253,-58.68915 -15.03765,-58.08879 -25.469174,0.45535 -38.787351,31.24861 -22.075295,51.04078 8.391815,9.93846 25.257125,13.14131 37.112945,7.04801 z M 331,373.67942 c -32.36506,-7.27697 -43.73632,-46.72571 -20.24139,-70.22064 5.33129,-5.33129 5.33129,-5.33129 -0.004,-15.14504 -5.9605,-10.96461 -5.00281,-10.47969 -16.56977,-8.39002 -35.29409,6.37616 -60.46777,-36.42217 -38.4209,-65.32023 2.0546,-2.69308 4.1428,-5.44131 4.64044,-6.10718 0.99124,-1.32634 -9.90507,-17.47116 -11.82991,-17.52811 -0.59119,-0.0175 -0.17489,-0.72547 0.92511,-1.57328 5.08255,-3.9173 5.05052,-3.93191 11.20165,5.10606 6.32875,9.29892 5.91071,9.12434 14.29835,5.97133 6.7836,-2.55002 15.5144,-2.96854 22.83,-1.09437 32.04795,8.2103 41.89058,48.66954 17.25453,70.92673 -4.0847,3.69027 -4.0847,3.69027 1.02998,12.9428 6.88994,12.464 6.25975,11.88459 11.07745,10.1848 15.11419,-5.33259 34.87934,1.44211 44.85647,15.37501 21.60279,30.16795 -5.42477,72.88177 -41.04843,64.87214 z m 19.49012,-12.36775 c 3.51547,-1.14966 6.66599,-3.30778 10.6611,-7.30289 22.94623,-22.94623 -1.57032,-60.01037 -32.82174,-49.61993 -20.72489,6.89058 -27.02626,35.25489 -11.16877,50.27387 9.07295,8.59319 20.44634,10.86209 33.32941,6.64895 z m -49.43931,-94.00514 c 19.11683,-8.47649 24.10773,-33.12445 9.8632,-48.71024 -16.87478,-18.46369 -47.92435,-10.13137 -52.9791,14.21723 -5.08328,24.48605 20.15269,44.675 43.1159,34.49301 z M 118.65629,167.75 C 104.86414,149.20286 99,131.52658 99,108.5 99,36.86063 171.59066,-10.285546 235.85152,19.617682 292.96571,46.195268 310.1038,118.82372 271.19497,169.39748 266.5,175.5 266.5,175.5 266,130 265.5,84.5 265.5,84.5 262.39545,77.948542 251.31037,54.555978 222.69957,47.090561 200.28249,61.741404 c -5.21751,3.40994 -5.21751,3.40994 -8.54219,0.874082 -14.75133,-11.251384 -36.29637,-11.18542 -51.22374,0.156831 -6.21739,4.724156 -11.63688,12.376923 -14.11528,19.931943 -1.74973,5.333755 -1.90128,9.243204 -1.90128,49.04522 0,23.78722 -0.10179,43.24972 -0.22621,43.25 -0.12441,2.9e-4 -2.65229,-3.26198 -5.6175,-7.24948 z M 156.48832,97.987095 C 152.85543,93.972798 155.99982,85 161.03946,85 164.39419,85 168,88.922864 168,92.57258 c 0,6.480257 -7.39811,9.95996 -11.51168,5.414515 z m 67.90973,-0.502342 c -2.29349,-3.500315 -2.05635,-7.15512 0.65126,-10.037245 C 229.24623,82.980091 236,86.140946 236,92.57258 c 0,6.816012 -8.10581,10.24795 -11.60195,4.912173 z"
         id="path1274"
         inkscape:label="penguin_black"
         sodipodi:nodetypes="ssssssssssssssssssssssscssssssssssssssscscssssssssssssccssssssssssssssssssssssssssssss" />
    </g>
  </g>
</svg>
