<?xml version="1.0" encoding="UTF-8" standalone="no"?>
<!-- Created with Inkscape (http://www.inkscape.org/) -->

<svg
   xmlns:dc="http://purl.org/dc/elements/1.1/"
   xmlns:cc="http://creativecommons.org/ns#"
   xmlns:rdf="http://www.w3.org/1999/02/22-rdf-syntax-ns#"
   xmlns:svg="http://www.w3.org/2000/svg"
   xmlns="http://www.w3.org/2000/svg"
   xmlns:sodipodi="http://sodipodi.sourceforge.net/DTD/sodipodi-0.dtd"
   xmlns:inkscape="http://www.inkscape.org/namespaces/inkscape"
   width="128"
   height="128"
   viewBox="0 0 128 128"
   id="svg4151"
   version="1.1"
   inkscape:version="0.91 r13725"
   sodipodi:docname="os_altlinux.svg"
   inkscape:export-xdpi="90"
   inkscape:export-ydpi="90">
  <defs
     id="defs4153" />
  <sodipodi:namedview
     id="base"
     pagecolor="#ffffff"
     bordercolor="#666666"
     borderopacity="1.0"
     inkscape:pageopacity="0.0"
     inkscape:pageshadow="2"
     inkscape:zoom="1.979899"
     inkscape:cx="5.7715401"
     inkscape:cy="46.065263"
     inkscape:document-units="px"
     inkscape:current-layer="layer3"
     showgrid="false"
     units="px"
     inkscape:window-width="1366"
     inkscape:window-height="713"
     inkscape:window-x="0"
     inkscape:window-y="27"
     inkscape:window-maximized="1"
     showguides="false" />
  <metadata
     id="metadata4156">
    <rdf:RDF>
      <cc:Work
         rdf:about="">
        <dc:format>image/svg+xml</dc:format>
        <dc:type
           rdf:resource="http://purl.org/dc/dcmitype/StillImage" />
        <dc:title />
        <cc:license
           rdf:resource="" />
        <dc:creator>
          <cc:Agent>
            <dc:title />
          </cc:Agent>
        </dc:creator>
        <dc:publisher>
          <cc:Agent>
            <dc:title />
          </cc:Agent>
        </dc:publisher>
      </cc:Work>
    </rdf:RDF>
  </metadata>
  <g
     inkscape:label="Layer 1"
     inkscape:groupmode="layer"
     id="layer1"
     transform="translate(0,-924.3622)"
     style="display:inline">
    <rect
       style="opacity:1;fill:#fcc454;fill-opacity:1;stroke:none;stroke-width:2;stroke-linecap:butt;stroke-linejoin:miter;stroke-miterlimit:4;stroke-dasharray:none;stroke-dashoffset:0;stroke-opacity:1"
       id="rect4791"
       width="78"
       height="44"
       x="25"
       y="990.36218"
       rx="0"
       ry="0" />
  </g>
  <g
     inkscape:groupmode="layer"
     id="layer2"
     inkscape:label="Layer 2"
     transform="translate(0,-325.5433)"
     style="display:inline">
    <path
       style="display:inline;fill:#f2f2f2;fill-opacity:1;stroke:#333333;stroke-width:0.99979901;stroke-opacity:1"
       d="m 71.8125,355.63551 c -1.5,0.0999 -2.525,0.69383 -3.125,1.09331 -1.1,0.69907 -1.875,1.59446 -2.875,3.0925 -0.9,1.49803 -1.4125,2.60729 -2.3125,4.90428 l -0.5,1.31197 c -2.2,5.19318 -2.49375,5.57303 -3.09375,5.87264 -0.5,0.29961 -1,0.40609 -1.5,0.40609 -0.4,0 -0.71875,0.006 -1.21875,-0.0937 -0.6,-0.0999 -1.19375,-0.21867 -2.09375,-0.21867 -0.6,0 -1.20625,0.1188 -1.90625,0.21867 -0.6,0.0999 -2.3875,0.38191 -4.1875,1.28073 -1.8,0.99869 -3.3,2.40141 -5,4.99799 -2.8,4.39423 -4.9,9.88265 -6,15.77491 -0.6,2.89619 -1.0125,5.20707 -0.8125,8.40287 0.1,2.09725 0.4125,3.40625 0.8125,4.90428 0.4,1.59791 0.7875,3.48285 1.1875,6.77852 0.2,2.19711 0.21875,2.98694 0.21875,3.68602 0,0.69908 -0.0125,1.41366 0.1875,3.31117 0,0.39947 0.09375,0.69383 0.09375,1.09331 0.3,2.29698 0.50625,4.00591 -0.59375,5.40408 -0.2,0.19974 -0.3,0.39378 -0.5,0.59351 -0.2,0.0999 -0.29375,0.2939 -0.59375,0.59351 l 13.3125,0 c 0.4,-0.0999 0.975,-0.31283 1.375,-0.81217 0.4,-0.49935 0.525,-0.98113 0.625,-1.28074 0.3,-1.39817 0.075,-2.994 -0.125,-4.5919 C 53.0875,421.36 53,420.44614 53,419.54732 c 0,-0.79895 0.4125,-1.99532 1.3125,-4.5919 l 0.09375,-0.40609 c 0.7,-1.89751 1.1,-2.87476 1.5,-3.87344 0.4,-0.89882 0.6875,-1.69434 1.1875,-3.09251 0.3,-0.99869 1.11875,-3.40761 1.71875,-6.40368 0.5,-2.79632 0.5875,-5.2928 0.6875,-6.5911 0.1,-1.19842 0.10625,-1.31197 0.40625,-1.31197 0.3,0 0.28125,0.10078 0.28125,0.9996 0,0.99869 0.10625,2.79472 0.40625,5.0917 0.2,1.39817 0.6125,3.42518 1.3125,5.12294 0.7,1.79765 1.1,2.69349 2,3.59231 0.5,0.49934 1,0.69999 1.5,0.9996 0.7,0.39947 1.39375,0.788 2.09375,1.68682 0.3,0.39948 0.79375,1.09422 1.09375,2.09291 0.2,0.69908 0.09375,1.09377 0.09375,1.59311 0,0.39948 -0.1,0.80031 0,1.49939 0.1,1.5979 0.7,2.80567 1,3.40488 0.4,0.89882 0.825,1.2935 1.125,1.59311 0.3,0.29961 0.575,0.58781 0.875,1.18703 1.1,2.29697 0.525,4.79346 0.125,6.5911 0,0.0999 -0.125,0.21251 -0.125,0.31237 l 9.84375,0 c 1.123487,-0.95572 2.579993,-2.28186 3.15625,-3.18622 1.5,-2.49671 1.625,-5.1063 1.625,-7.40327 0.1,-2.89621 -0.525,-4.39354 -1.125,-6.0913 -0.5,-1.39817 -1.075,-2.98875 -1.375,-5.68522 -0.5,-4.99344 0.4,-9.29917 1,-12.49497 0.4,-1.99738 0.79375,-3.27469 1.09375,-4.37324 0.5,-1.69777 0.79375,-2.60685 0.59375,-4.40448 -0.2,-1.79764 -0.70625,-2.61254 -1.40625,-3.81097 -0.6,-0.99869 -1.38125,-2.38247 -2.28125,-4.77933 C 82.2125,375.31645 80.7,371.01825 80,365.7252 l -0.09375,-0.40609 c -0.3,-1.79764 -0.59375,-3.98789 -2.09375,-6.18501 -0.7,-0.99869 -1.5,-1.80608 -2.5,-2.40528 -0.7,-0.39948 -1.8125,-1.09331 -3.3125,-1.09331 l -0.1875,0 z"
       id="path22"
       inkscape:connector-curvature="0" />
  </g>
  <g
     inkscape:groupmode="layer"
     id="layer5"
     inkscape:label="Layer 5"
     style="display:inline">
    <path
       d="m 67.615503,19.150858 c 2.112521,1.495578 3.017888,3.689092 3.319677,4.486733 0.502981,1.196463 0.502981,1.994104 0.603577,2.29322 0,0.498526 0.100596,1.296167 -0.201192,2.293219 -0.100597,0.398821 -0.201193,0.797642 -0.603578,1.196463 -0.80477,1.096757 -2.011925,1.196462 -2.011925,1.495578 0,0.19941 0.905366,0.0997 1.911329,0.498525 1.005962,0.398821 1.60954,0.997053 2.011925,1.495578 1.005963,1.196463 1.408348,2.592336 1.710137,4.686144 0.502981,3.489682 0.100596,4.287323 0.502981,7.976416 0.301789,2.69204 0.502981,2.69204 0.603577,4.586439 0.100597,2.49263 -0.301788,4.486733 -0.603577,5.782901 -0.502981,2.592335 -0.905366,2.69204 -1.710137,6.181722 -0.603577,2.592334 -1.005962,3.888502 -1.005962,5.683196 -0.100597,1.994103 0.201192,3.489682 0.704174,6.580542 0.201192,0.997052 0.502981,2.89145 1.408347,5.18467 0,0 0.704174,1.595283 2.213118,2.891451 0.301789,0.299116 0.704174,0.498525 1.106559,0.498525 0.603578,-0.0997 0.905366,-0.797641 1.005963,-0.997052 0.80477,-1.694987 -0.100597,-3.489681 -0.301789,-6.480837 -0.201193,-2.791745 0.301789,-4.885554 0.502981,-5.38408 0,-0.0997 0.402385,-1.096757 1.106559,-3.090861 1.508944,-3.988208 -0.100596,0.19941 1.207155,-3.090861 0.603578,-1.595283 0.905367,-2.392915 1.60954,-2.592335 0.301789,-0.09971 0.804771,-0.199411 1.005963,0.09971 0.301789,0.398821 -0.100596,1.096767 -0.301789,1.495578 0,0 -0.301788,0.598231 -2.213117,4.586439 -1.005963,2.093809 -1.307752,3.988207 -1.408348,4.98526 -0.201193,1.395872 -0.201193,2.592334 -0.201193,3.290271 0,0.997052 0,1.994104 0.301789,3.290271 0.201193,0.897347 0.402385,2.093809 1.106559,3.290272 0.704174,1.196462 1.005963,1.096757 2.213118,2.69204 0.603577,0.897347 1.207155,1.595283 1.60954,2.69204 0.502981,1.196462 0.603578,2.193514 0.80477,3.389976 0.100596,1.296168 0.301789,2.293219 0,3.689092 -0.301789,1.495579 -0.80477,2.49263 -1.207155,3.190566 -0.80477,1.296175 -1.810733,2.093811 -2.514907,2.692051 -1.005962,0.79764 -1.810732,1.29616 -3.017888,1.9941 -1.710136,0.99705 -2.41431,1.19646 -2.514906,1.29617 l 21.628197,0 c 0.100596,-0.49853 -1.508944,-0.89735 -5.331602,-3.7888 -0.502982,-0.398806 -1.408348,-1.096764 -2.011926,-2.293216 -0.502981,-0.897356 -0.603577,-1.794703 -0.704173,-2.392935 -0.301789,-3.190566 0.502981,-5.782891 0.502981,-5.782891 1.710136,-5.782905 2.313714,-13.36051 2.41431,-14.556973 0.201193,-2.492629 -0.201192,-5.284374 -0.905366,-10.96757 C 91.054432,57.337957 90.450855,56.64001 87.734756,44.675387 87.332371,42.780988 87.030582,42.182757 86.527601,41.185705 85.521638,39.391021 84.515675,39.291307 83.912098,37.696024 83.409116,36.399866 83.710905,35.801625 83.610309,33.508406 83.509713,31.514301 83.409116,29.619913 82.50375,27.62581 82.101365,26.728453 81.195999,24.834054 79.083477,23.637601 78.278707,23.139076 77.976918,23.238771 76.669167,22.83995 72.242931,20.646446 71.337565,19.350268 68.822658,18.552627 66.911329,17.954405 65.379614,17.876312 65,18.153816 c 0.513393,-0.04322 1.207155,0 2.615503,0.997052 z"
       id="path28"
       inkscape:connector-curvature="0"
       style="display:inline;fill:#333333;fill-opacity:1;stroke:none"
       sodipodi:nodetypes="cccccsscscccccccccccccccccccscscccccccccccccccccccccccccc" />
    <path
       d="M 32.501646,102.88986 C 31.500987,103.49538 30.700461,103.79814 30,103.99998 l 11.207373,0 c 0.100065,-0.10092 0.300197,-0.20184 0.400263,-0.30276 0.600395,-0.50461 1.500987,-1.21105 2.001316,-2.52303 0.400264,-1.11013 0.200132,-2.321171 -0.200131,-4.642347 -0.200132,-1.009215 -0.400264,-2.220258 -1.000659,-4.036837 -0.70046,-2.422107 -1.000658,-2.321187 -1.801184,-4.844213 -0.300198,-0.807365 -1.100725,-3.43131 -1.500988,-6.559852 -0.100066,-0.504607 0,0 -0.200131,-2.321187 -0.100066,-1.211053 -0.200132,-2.018418 0.100065,-2.926703 0.100066,-0.302769 0.300198,-1.009215 0.600395,-1.110134 0.400264,0 0.700461,0.908285 0.700461,1.110134 0.200132,0.706446 0.100066,1.311972 0.100066,1.412892 0,0 -0.200132,0.908284 -0.100066,3.330391 0,1.311972 0.100066,3.330391 1.000658,3.633149 0.50033,0.201849 1.20079,-0.403678 1.601054,-0.807366 1.100724,-0.908284 1.500987,-2.119337 1.701119,-2.623945 1.000658,-2.926703 1.300855,-5.14697 1.300855,-5.14697 1.000659,-7.266309 1.000659,-6.660782 1.000659,-7.165379 0.100065,-5.046051 -1.601054,-6.458943 -0.600395,-10.193022 0.500329,-1.917499 1.400921,-3.229472 1.701119,-3.734069 0.800526,-1.110133 3.202106,-4.440524 6.70441,-4.137766 2.601712,0.201849 4.502962,2.422106 5.203423,4.137766 0.900592,2.018419 0,2.724865 0.600395,5.34881 0.800527,3.53223 2.801843,3.633149 4.302831,7.367228 1.701119,4.238675 0.70046,7.972754 1.300855,8.073674 0.600395,0.100919 1.400922,-2.724865 1.801185,-4.137757 0.500329,-1.816579 0.600395,-2.523025 1.000658,-4.036837 0.800527,-3.330391 1.500988,-3.53224 1.901251,-5.348809 0.800527,-4.036847 -1.400921,-7.669996 -2.001316,-8.477362 -1.400922,-2.220267 -2.901909,-3.330391 -5.703753,-5.348809 -2.201448,-1.614741 -3.802501,-2.724865 -6.204081,-3.53224 -1.100724,-0.403678 -5.103357,-1.71565 -9.606319,-0.302758 -4.603028,1.412891 -7.104674,4.743282 -8.405529,6.458943 -5.703753,7.669986 -5.103358,17.358401 -4.80316,23.211817 0.700461,11.000377 4.603028,22.404442 1.601053,26.138531 -1.400921,1.816547 -3.202106,2.926697 -3.202106,2.926697 z"
       id="path26"
       inkscape:connector-curvature="0"
       style="display:inline;fill:#333333;fill-opacity:1;stroke:none" />
  </g>
  <g
     inkscape:groupmode="layer"
     id="layer3"
     inkscape:label="Layer 3"
     style="display:inline">
    <path
       d="m 67.925101,55.2356 c -0.09173,-0.42816 -0.275195,-1.541377 -1.284241,-2.568963 -0.458658,-0.428161 -1.100779,-1.027585 -2.109826,-0.941953 -0.642121,0.08563 -1.375973,0.42816 -1.742899,0.941953 -0.458658,0.685056 0,1.370114 -0.275195,1.455746 -1.986085,-1.611944 -3.62371,-4.001221 -6.986449,-3.921126 2.109825,0.658074 3.858666,2.46538 4.592519,3.835494 0.825583,1.62701 0.375835,2.312066 0.742762,4.281606 0.812052,-0.11567 1.107054,-0.682405 1.559436,-0.941954 0.550389,-0.342528 1.19251,-0.685056 1.926363,-0.599424 0.917315,0.08563 1.009047,0.856321 1.834631,0.856321 1.482262,-0.224747 1.819732,-1.160465 1.742899,-2.3977 z"
       id="path30"
       inkscape:connector-curvature="0"
       style="fill:#f26622;fill-opacity:1;stroke:none"
       sodipodi:nodetypes="cccccccccccc" />
    <path
       d="m 66.1,65.115621 c 0.3,-0.19992 0.8,-0.19992 1.1,0 0.4,0.199919 0.6,0.799678 0.6,2.498995 0.1,1.399437 0.1,2.099156 -0.1,3.198714 -0.3,1.999196 -1,4.198312 -1.3,4.198312 -0.3,0 0.2,-1.699317 -0.1,-4.398232 -0.2,-3.198714 -1,-4.89803 -0.2,-5.497789 z"
       id="path32"
       inkscape:connector-curvature="0"
       style="fill:#f26622;fill-opacity:1;stroke:none" />
    <path
       d="m 66.712662,18.10807 c 2.89418,0.712269 4.259764,1.485745 6.15683,3.363234 1.316748,1.322536 1.696759,1.688978 2.880779,3.279516 0.288361,0.491562 0.288361,0.786499 0.192241,0.983124 -0.09612,0.294938 -0.384482,0.491563 -0.576723,0.589875 -0.576723,0.09831 -1.249567,-0.7865 -2.306893,-2.457813 -2.165513,-3.184448 -4.380436,-4.87831 -6.346234,-5.757936 z"
       id="path34"
       inkscape:connector-curvature="0"
       style="fill:#f26622;fill-opacity:1;stroke:none"
       sodipodi:nodetypes="ccccccc" />
    <path
       d="m 80.370538,28.733104 c -0.376791,-0.157773 -1.346846,-0.235025 -2.002702,0.145774 -0.562162,0.476 -0.843244,0.951998 -1.030631,1.427998 -0.468468,0.856798 -0.281081,1.237597 -0.655856,1.427997 -1.673869,0.494076 -2.451166,-0.646038 -3.466666,-1.523195 -0.627186,-0.562149 -0.952413,-0.861756 -1.445078,-0.974308 -0.317287,0.650901 -0.429761,0.929484 -1.679282,1.690914 4.536717,1.120021 4.680359,6.661563 4.665051,10.665342 0.835491,-2.572091 0.391494,-5.114745 0.145803,-7.478752 0,-0.475999 0,-0.761598 0.281081,-1.047198 0.468469,-0.475999 1.405405,-0.475999 1.967568,-0.0952 0.466958,0.92985 0.895646,1.364777 1.842307,1.713061 0.655855,0.1904 0.968503,0.190936 1.436972,0.09573 0.374775,-0.0952 0.655856,-0.380799 0.843243,-0.571199 1.56274,-1.84224 0.488452,-4.508962 -0.90181,-5.476964 z"
       id="path36"
       inkscape:connector-curvature="0"
       style="fill:#f26622;fill-opacity:1;stroke:none"
       sodipodi:nodetypes="cccccccccsccccc" />
  </g>
  <g
     inkscape:groupmode="layer"
     id="layer4"
     inkscape:label="Layer 4"
     style="display:inline">
    <path
       d="m 61.2,87.606581 c 0.2,0.09996 0.8,0.599759 1,1.299478 0.1,0.499799 0,0.699718 -0.2,1.499397 -0.1,0.399839 -0.3,1.399437 -0.1,2.498995 0.1,0.599759 0.3,1.099558 0.8,1.999196 0.7,1.399438 0.9,1.499397 1.1,2.199116 0.1,0.29988 0.3,1.299478 -0.1,2.299076 -0.6,1.199511 -1.6,0.999591 -2.2,2.199101 -0.4,0.79968 -0.4,1.69932 0,2.39904 l 1.4,0 c -0.1,-0.39984 -0.2,-0.89964 0,-1.19952 0.2,-0.19992 0.5,-0.19992 0.6,-0.1 0.3,0.1 0.4,0.59976 0.3,1.29948 l 9.9,0 c 0,-0.1 0,-0.19992 0,-0.29988 0,-2.89883 -0.1,-4.298261 -0.1,-4.398221 -0.3,-2.498955 -1.1,-2.398996 -2.1,-6.097509 -0.3,-1.299477 -0.4,-1.999196 -0.9,-3.698513 -0.7,-2.199115 -1.2,-2.898834 -1.6,-3.398633 -0.5,-0.599759 -1.4,-1.599357 -2.8,-1.799277 -0.6,-0.09996 -1.6,0 -2.4,0.499799 -0.4,0.19992 -0.5,0.39984 -1,0.599759 -0.6,0.29988 -0.8,0.19992 -1.5,0.499799 -0.4,0.19992 -1.5,0.599759 -1.5,0.899639 0,0.299879 0.6,0.299879 1.4,0.799678 z"
       id="path14-8"
       inkscape:connector-curvature="0"
       style="display:inline;fill:#333333;fill-opacity:1;stroke:none" />
    <path
       stroke-miterlimit="10"
       d="m 70.399999,99.601778 c -0.5,-0.999614 -0.8,-0.999614 -1.1,-1.799292 -0.3,-0.699719 0,-0.799679 -0.3,-1.799277 -0.1,-0.399839 -0.3,-1.299477 -1,-2.299075 -0.5,-0.699719 -0.7,-0.699719 -0.9,-1.199518 -0.1,-0.599759 0.2,-0.999598 -0.1,-1.299478 -0.2,-0.199919 -0.5,-0.09996 -1.4,-0.09996 -0.7,0 -1.6,-0.09996 -1.6,-0.199919 0,-0.19992 1.5,0 2.4,-0.899638 0.8,-0.799679 0.8,-1.799277 0.8,-1.999197 0,-0.299879 0,-1.299477 -0.8,-1.999196 -0.5,-0.499799 -1.1,-0.499799 -1.3,-0.599759 -0.7,-0.09996 -1.6,0.09996 -2,0.799679 -0.4,0.799678 0.3,1.499397 -0.1,1.999196 -0.3,0.299879 -0.799999,0.19992 -1.299999,0.09996 0.1,0.199919 0.2,0.399839 0.3,0.599759 0.1,0.499799 0,0.699718 -0.2,1.499397 -0.1,0.399839 -0.3,1.399437 -0.1,2.498995 0.1,0.599759 0.3,1.099558 0.799999,1.999196 0.7,1.399438 0.9,1.499397 1.1,2.199116 0,0.19992 0.1,0.599759 0.1,1.099558 0.4,0.19992 0.7,0.399839 1,0.799678 0.6,0.899655 0.6,1.499407 0.6,1.499407 0,0.39984 0,0.59976 0.1,1.09955 0.1,0.19992 0.2,0.4998 0.6,0.79968 0.3,0.19992 0.9,0.39984 1.1,0.1 0.2,-0.19992 0,-0.4998 0.2,-0.79968 0.2,-0.29988 0.6,-0.39983 1,-0.49979 0.1,0 0.4,-0.1 0.8,-0.1 0.3,0 0.6,0 1,0.19992 0.4,0.19991 0.5,0.49979 0.6,0.39983 0.3,-0.1 0.2,-1.09955 -0.3,-2.099142 z"
       id="path16"
       inkscape:connector-curvature="0"
       style="display:inline;fill:#f2f2f2;stroke:#333333;stroke-width:0.49989951;stroke-miterlimit:10;stroke-opacity:1" />
    <rect
       x="64.400002"
       y="86.507019"
       width="1.6"
       height="0.7996785"
       id="rect18"
       style="display:inline;fill:#414042;stroke:none" />
  </g>
</svg>
