<?xml version="1.0" encoding="UTF-8" standalone="no"?>
<!-- Created with Inkscape (http://www.inkscape.org/) -->

<svg
   version="1.1"
   id="svg2"
   width="128"
   height="128"
   viewBox="0 0 1163.6364 1163.6364"
   sodipodi:docname="os_bedrock.svg"
   inkscape:version="1.2 (dc2aedaf03, 2022-05-15)"
   inkscape:export-filename="bedrock_blackbg.png"
   inkscape:export-xdpi="96"
   inkscape:export-ydpi="96"
   xmlns:inkscape="http://www.inkscape.org/namespaces/inkscape"
   xmlns:sodipodi="http://sodipodi.sourceforge.net/DTD/sodipodi-0.dtd"
   xmlns="http://www.w3.org/2000/svg"
   xmlns:svg="http://www.w3.org/2000/svg">
  <defs
     id="defs6" />
  <sodipodi:namedview
     id="namedview4"
     pagecolor="#505050"
     bordercolor="#ffffff"
     borderopacity="1"
     inkscape:showpageshadow="0"
     inkscape:pageopacity="0"
     inkscape:pagecheckerboard="1"
     inkscape:deskcolor="#505050"
     showgrid="false"
     inkscape:zoom="4.411215"
     inkscape:cx="69.595338"
     inkscape:cy="70.162076"
     inkscape:window-width="1280"
     inkscape:window-height="994"
     inkscape:window-x="0"
     inkscape:window-y="30"
     inkscape:window-maximized="1"
     inkscape:current-layer="layer1"
     showguides="false" />
  <g
     inkscape:groupmode="layer"
     id="layer1"
     inkscape:label="bg">
    <rect
       style="fill:#22222b;stroke:#000000;stroke-width:0;stroke-linecap:round;stroke-linejoin:round;fill-opacity:1"
       id="rect551"
       width="872.72729"
       height="872.72729"
       x="145.45454"
       y="145.45454"
       rx="119.06652"
       ry="129.61641" />
  </g>
  <g
     inkscape:groupmode="layer"
     inkscape:label="Image"
     id="g8"
     transform="translate(0,0.93760576)">
    <path
       style="fill:#86bece;stroke:none;stroke-width:1.03486"
       d="m 200.00001,236.15376 c 9.11551,21.15407 23.18375,41.13469 34.74634,61.05725 19.39416,33.41653 38.55858,66.96636 57.95265,100.38227 61.98387,106.79948 123.25845,214.01085 185.24192,320.80929 24.9869,43.05364 50.01623,86.10833 74.65852,129.35859 6.89534,12.10278 13.89933,24.14038 20.83294,36.2204 2.58512,4.50272 5.57589,12.61402 10.0165,15.49405 6.44207,4.17881 22.9182,1.06384 30.49862,1.06384 h 79.68489 109.69609 c 12.87273,0 34.56048,4.22228 46.46147,-0.62401 4.89699,-1.99524 7.55557,-9.56529 10.02062,-13.86414 7.33309,-12.79098 14.68997,-25.57678 22.15655,-38.29014 24.40117,-41.54687 47.59051,-83.82125 72.24418,-125.21911 7.12922,-11.97136 13.96246,-24.14039 20.90539,-36.2204 2.64199,-4.5969 8.32241,-11.15693 8.59663,-16.5579 0.38602,-7.59801 -9.56941,-19.47418 -13.36013,-25.87172 C 958.37354,623.6769 946.66091,603.26204 935.04761,582.83478 915.16675,547.8676 894.77775,513.18707 874.73441,478.31303 L 858.6122,450.37158 c -2.08733,-3.64171 -4.1167,-9.14616 -7.89708,-11.35457 -4.19328,-2.45058 -11.64538,-1.06385 -16.34057,-1.06385 h -38.29014 -123.1494 -36.2204 c -4.91251,0 -11.83786,1.23252 -16.46165,-0.62404 -5.02843,-2.02005 -7.77601,-9.46076 -10.2897,-13.86412 l -19.6625,-34.15067 c -20.73982,-36.33632 -41.84183,-72.47558 -62.84345,-108.66122 -5.79319,-9.98214 -11.58121,-19.98021 -17.28747,-30.01118 -2.28914,-4.02409 -4.67659,-10.77466 -8.61943,-13.42456 -4.86389,-3.26958 -16.43164,-1.06361 -22.13585,-1.06361 H 420.42705 200.00001 M 302.452,295.14128 h 119.00991 32.08095 c 3.83107,0 9.66566,-1.05826 13.06106,1.06364 4.09602,2.56006 6.64489,9.35179 8.96197,13.42452 5.51275,9.69144 11.15796,19.30422 16.70278,28.97632 21.79434,38.01591 43.59282,76.05044 65.78453,113.83557 6.04157,10.28658 11.69816,20.80085 17.81217,31.04605 2.25601,3.78141 4.61862,9.98752 8.46315,12.38944 4.00185,2.50128 11.61848,1.06386 16.16569,1.06386 h 38.29014 125.21912 35.18554 c 4.77488,0 11.88959,-1.30808 16.33747,0.62401 7.44897,3.23604 14.01108,21.41766 17.96842,28.3523 14.61028,25.59541 29.57862,50.98487 44.1889,76.58029 8.88642,15.5696 18.0181,31.00053 26.90659,46.56909 3.11598,5.45893 9.98131,13.31462 10.46044,19.66249 0.47811,6.33652 -7.40965,15.35228 -10.46044,20.69739 -9.87162,17.29473 -19.93366,34.47872 -29.85598,51.74344 -13.49779,23.4853 -27.25741,46.82677 -40.65068,70.37106 -4.38473,7.70874 -10.1831,24.1704 -17.70556,28.94735 -3.36125,2.13493 -9.24242,1.06385 -13.04969,1.06385 H 770.21267 660.51659 631.54026 c -3.94076,0 -9.69775,1.01831 -13.23286,-1.06385 -6.15435,-3.62513 -10.14171,-15.67102 -13.6851,-21.70327 C 593.7241,800.2286 582.90248,781.60718 572.26195,762.90193 534.64448,696.77485 496.3088,631.03999 458.12111,565.24202 406.09826,475.60479 350.74624,386.83063 302.452,295.14128 m 364.27381,344.61127 v 58.98753 h 100.38226 v -58.98753 z"
       id="bedrock_svg"
       inkscape:highlight-color="#c09860" />
  </g>
</svg>
