<?xml version="1.0" encoding="UTF-8" standalone="no"?>
<!-- Created with Inkscape (http://www.inkscape.org/) -->

<svg
   xmlns:dc="http://purl.org/dc/elements/1.1/"
   xmlns:cc="http://creativecommons.org/ns#"
   xmlns:rdf="http://www.w3.org/1999/02/22-rdf-syntax-ns#"
   xmlns:svg="http://www.w3.org/2000/svg"
   xmlns="http://www.w3.org/2000/svg"
   xmlns:sodipodi="http://sodipodi.sourceforge.net/DTD/sodipodi-0.dtd"
   xmlns:inkscape="http://www.inkscape.org/namespaces/inkscape"
   width="128"
   height="128"
   viewBox="0 0 128 128"
   id="svg2"
   version="1.1"
   inkscape:version="0.91 r13725"
   sodipodi:docname="os_chakra.svg"
   inkscape:export-xdpi="90"
   inkscape:export-ydpi="90">
  <defs
     id="defs4" />
  <sodipodi:namedview
     id="base"
     pagecolor="#ffffff"
     bordercolor="#666666"
     borderopacity="1.0"
     inkscape:pageopacity="0.0"
     inkscape:pageshadow="2"
     inkscape:zoom="5.6"
     inkscape:cx="117.04075"
     inkscape:cy="68.297191"
     inkscape:document-units="px"
     inkscape:current-layer="layer1"
     showgrid="false"
     units="px"
     inkscape:window-width="1366"
     inkscape:window-height="713"
     inkscape:window-x="0"
     inkscape:window-y="27"
     inkscape:window-maximized="1" />
  <metadata
     id="metadata7">
    <rdf:RDF>
      <cc:Work
         rdf:about="">
        <dc:format>image/svg+xml</dc:format>
        <dc:type
           rdf:resource="http://purl.org/dc/dcmitype/StillImage" />
        <dc:title />
        <dc:creator>
          <cc:Agent>
            <dc:title>Munlika</dc:title>
          </cc:Agent>
        </dc:creator>
        <dc:publisher>
          <cc:Agent>
            <dc:title>Munlika</dc:title>
          </cc:Agent>
        </dc:publisher>
        <cc:license
           rdf:resource="http://creativecommons.org/licenses/by/3.0/" />
      </cc:Work>
      <cc:License
         rdf:about="http://creativecommons.org/licenses/by/3.0/">
        <cc:permits
           rdf:resource="http://creativecommons.org/ns#Reproduction" />
        <cc:permits
           rdf:resource="http://creativecommons.org/ns#Distribution" />
        <cc:requires
           rdf:resource="http://creativecommons.org/ns#Notice" />
        <cc:requires
           rdf:resource="http://creativecommons.org/ns#Attribution" />
        <cc:permits
           rdf:resource="http://creativecommons.org/ns#DerivativeWorks" />
      </cc:License>
    </rdf:RDF>
  </metadata>
  <g
     inkscape:groupmode="layer"
     id="layer1"
     inkscape:label="Layer 4"
     style="display:inline">
    <circle
       style="display:inline;fill:#1756b6;fill-opacity:1;stroke:none;stroke-width:0;stroke-linecap:round;stroke-linejoin:round;stroke-miterlimit:4;stroke-dasharray:none;stroke-opacity:1"
       id="path4138"
       cx="64"
       cy="64"
       r="46" />
    <path
       inkscape:connector-curvature="0"
       style="fill:#f2f2f2;fill-opacity:1;stroke:none;stroke-width:0;stroke-linecap:round;stroke-linejoin:round;stroke-miterlimit:4;stroke-dasharray:none;stroke-opacity:1"
       d="M 64.000001,21.99996 A 42,42 0 0 0 22,63.99996 42,42 0 0 0 64.000001,106.00004 42,42 0 0 0 106,63.99996 a 42,42 0 0 0 -42,-42 z m 0,4 a 38,38 0 0 1 37.999999,38 38,38 0 0 1 -38,38.00008 38,38 0 0 1 -38,-38.00008 38,38 0 0 1 38,-38 z"
       id="path4136-1" />
  </g>
  <g
     inkscape:groupmode="layer"
     id="layer3"
     inkscape:label="Layer 3"
     style="display:none">
    <path
       style="fill:#f2f2f2;fill-opacity:1;fill-rule:evenodd;stroke:none;stroke-width:0.1;stroke-linecap:butt;stroke-linejoin:miter;stroke-miterlimit:4;stroke-dasharray:none;stroke-opacity:1"
       d="m 67.003714,64.423941 c 6.035573,-15.612 -15.671063,-9.710932 -29.145595,-9.928685 -1.903113,-0.247958 -3.890956,-0.591269 -3.504533,-2.121636 1.155963,-1.932199 2.022438,-3.325998 2.808621,-5.77456 1.147961,-3.575325 0.531395,-6.403799 2.471435,-7.450595 2.477249,-1.336657 8.444678,-2.045135 17.058199,1.348652 11.320467,4.919103 16.810639,13.4402 10.311873,23.926824 z"
       id="path4199"
       inkscape:connector-curvature="0"
       sodipodi:nodetypes="cccsscc" />
    <path
       style="fill:#f2f2f2;fill-opacity:1;fill-rule:evenodd;stroke:none;stroke-width:0.1;stroke-linecap:butt;stroke-linejoin:miter;stroke-miterlimit:4;stroke-dasharray:none;stroke-opacity:1"
       d="M 65.601923,61.127185 C 52.619123,50.562638 51.523652,73.030407 47.152698,85.778159 46.32878,87.511504 45.387997,89.295967 44.051942,88.455546 42.571523,86.75908 41.513697,85.504303 39.42792,83.999951 36.382323,81.80334 33.501756,81.515683 33.1057,79.347117 32.599974,76.578064 33.770208,70.68377 39.659616,63.540564 47.836178,54.294245 57.63678,51.705944 65.601923,61.127185 Z"
       id="path4199-4"
       inkscape:connector-curvature="0"
       sodipodi:nodetypes="cccsscc" />
    <path
       style="fill:#f2f2f2;fill-opacity:1;fill-rule:evenodd;stroke:none;stroke-width:0.1;stroke-linecap:butt;stroke-linejoin:miter;stroke-miterlimit:4;stroke-dasharray:none;stroke-opacity:1"
       d="m 62.033345,61.441612 c -14.059386,9.082752 6.970212,17.067529 17.743346,25.163824 1.393905,1.319227 2.80031,2.765392 1.588161,3.776357 -2.070909,0.883721 -3.591161,1.502034 -5.666423,3.020839 -3.030244,2.217756 -4.193967,4.868451 -6.378781,4.574994 C 66.529843,97.602911 61.285658,94.668512 56.311993,86.859986 50.044919,76.226344 50.61185,66.105589 62.033345,61.441612 Z"
       id="path4199-8"
       inkscape:connector-curvature="0"
       sodipodi:nodetypes="cccsscc" />
    <path
       style="fill:#f2f2f2;fill-opacity:1;fill-rule:evenodd;stroke:none;stroke-width:0.1;stroke-linecap:butt;stroke-linejoin:miter;stroke-miterlimit:4;stroke-dasharray:none;stroke-opacity:1"
       d="m 61.229632,64.932692 c 4.293621,16.177995 18.386099,-1.35491 29.415214,-9.098875 1.685395,-0.91802 3.495394,-1.8087 4.082296,-0.343474 0.200529,2.242637 0.318787,3.879548 1.121978,6.322584 1.172805,3.567252 3.334158,5.493127 2.379915,7.480328 -1.218462,2.53747 -5.629784,6.618208 -14.593087,8.935477 C 71.58612,80.903097 62.135902,77.236428 61.229632,64.932692 Z"
       id="path4199-40"
       inkscape:connector-curvature="0"
       sodipodi:nodetypes="cccsscc" />
    <path
       style="fill:#f2f2f2;fill-opacity:1;fill-rule:evenodd;stroke:none;stroke-width:0.1;stroke-linecap:butt;stroke-linejoin:miter;stroke-miterlimit:4;stroke-dasharray:none;stroke-opacity:1"
       d="m 64.301485,66.775871 c 16.712991,0.915799 4.393021,-17.904909 0.436256,-30.78724 -0.35227,-1.886591 -0.64004,-3.883231 0.934836,-3.98863 2.194842,0.502301 3.788181,0.895663 6.359846,0.886719 3.755075,-0.01306 6.254584,-1.473496 7.84965,0.04811 2.03675,1.942953 4.554591,7.399385 3.988626,16.640067 -1.180122,12.286492 -7.587612,20.14112 -19.569214,17.200971 z"
       id="path4199-48"
       inkscape:connector-curvature="0"
       sodipodi:nodetypes="cccsscc" />
  </g>
  <g
     inkscape:groupmode="layer"
     id="layer2"
     inkscape:label="Layer 5">
    <path
       style="display:inline;fill:#f2f2f2;fill-opacity:1;fill-rule:evenodd;stroke:none;stroke-width:0.1;stroke-linecap:butt;stroke-linejoin:miter;stroke-miterlimit:4;stroke-dasharray:none;stroke-opacity:1"
       d="m 67.003721,64.423938 c 6.035572,-15.612 -15.671064,-9.710932 -29.145596,-9.928685 -1.903114,-0.247958 -3.890957,-0.59127 -3.504533,-2.121637 1.155963,-1.932198 2.022438,-3.325999 2.80862,-5.77456 1.147961,-3.575325 0.531397,-6.403799 2.47144,-7.450593 2.47725,-1.336657 8.444679,-2.045135 17.0582,1.348653 11.320467,4.919102 16.81064,13.4402 10.311873,23.926823 z"
       id="path4199-0"
       inkscape:connector-curvature="0"
       sodipodi:nodetypes="cccsscc" />
    <path
       style="display:inline;fill:#f2f2f2;fill-opacity:1;fill-rule:evenodd;stroke:none;stroke-width:0.1;stroke-linecap:butt;stroke-linejoin:miter;stroke-miterlimit:4;stroke-dasharray:none;stroke-opacity:1"
       d="m 64.525013,66.987704 c 16.712988,0.915796 4.39302,-17.90491 0.436256,-30.787241 -0.352272,-1.886591 -0.640041,-3.883232 0.934836,-3.98863 2.194842,0.502303 3.78818,0.895663 6.359844,0.886719 3.755076,-0.01306 6.254586,-1.473496 7.849653,0.04811 2.036748,1.942955 4.554588,7.399385 3.988628,16.640069 -1.180127,12.28649 -7.587616,20.141118 -19.569217,17.200969 z"
       id="path4199-0-8"
       inkscape:connector-curvature="0"
       sodipodi:nodetypes="cccsscc" />
    <path
       style="display:inline;fill:#f2f2f2;fill-opacity:1;fill-rule:evenodd;stroke:none;stroke-width:0.1;stroke-linecap:butt;stroke-linejoin:miter;stroke-miterlimit:4;stroke-dasharray:none;stroke-opacity:1"
       d="m 61.320766,65.422562 c 4.293623,16.177994 18.386099,-1.354911 29.415217,-9.098875 1.685396,-0.91802 3.495388,-1.808701 4.082292,-0.343473 0.200525,2.242639 0.318785,3.879547 1.121979,6.322581 1.172804,3.567255 3.334151,5.49313 2.379917,7.480332 -1.218469,2.53747 -5.629787,6.618207 -14.59309,8.935476 C 71.677254,81.392968 62.227037,77.726298 61.320766,65.422562 Z"
       id="path4199-0-5"
       inkscape:connector-curvature="0"
       sodipodi:nodetypes="cccsscc" />
    <path
       style="display:inline;fill:#f2f2f2;fill-opacity:1;fill-rule:evenodd;stroke:none;stroke-width:0.1;stroke-linecap:butt;stroke-linejoin:miter;stroke-miterlimit:4;stroke-dasharray:none;stroke-opacity:1"
       d="m 61.819136,61.891489 c -14.059384,9.082752 6.970214,17.067529 17.743347,25.163826 1.393905,1.319224 2.800311,2.765393 1.58816,3.776353 -2.070911,0.883723 -3.591159,1.502029 -5.666423,3.020851 -3.030243,2.217743 -4.193966,4.868435 -6.378783,4.574984 C 66.315633,98.052791 61.071449,95.118395 56.097782,87.309863 49.830708,76.676221 50.39764,66.555467 61.819136,61.891489 Z"
       id="path4199-0-3"
       inkscape:connector-curvature="0"
       sodipodi:nodetypes="cccsscc" />
    <path
       style="display:inline;fill:#f2f2f2;fill-opacity:1;fill-rule:evenodd;stroke:none;stroke-width:0.1;stroke-linecap:butt;stroke-linejoin:miter;stroke-miterlimit:4;stroke-dasharray:none;stroke-opacity:1"
       d="M 65.331391,61.274306 C 52.348591,50.709761 51.253121,73.177529 46.882166,85.925281 46.05825,87.658626 45.117464,89.443088 43.78141,88.602669 42.300992,86.9062 41.243166,85.651426 39.157389,84.147074 36.111792,81.950462 33.231224,81.662805 32.835167,79.494239 32.329443,76.725186 33.499677,70.830892 39.389085,63.687684 47.565647,54.441367 57.366248,51.853067 65.331391,61.274306 Z"
       id="path4199-0-4"
       inkscape:connector-curvature="0"
       sodipodi:nodetypes="cccsscc" />
  </g>
</svg>
