<?xml version="1.0" encoding="UTF-8" standalone="no"?>
<!-- Created with Inkscape (http://www.inkscape.org/) -->

<svg
   xmlns:dc="http://purl.org/dc/elements/1.1/"
   xmlns:cc="http://creativecommons.org/ns#"
   xmlns:rdf="http://www.w3.org/1999/02/22-rdf-syntax-ns#"
   xmlns:svg="http://www.w3.org/2000/svg"
   xmlns="http://www.w3.org/2000/svg"
   xmlns:sodipodi="http://sodipodi.sourceforge.net/DTD/sodipodi-0.dtd"
   xmlns:inkscape="http://www.inkscape.org/namespaces/inkscape"
   width="128"
   height="128"
   viewBox="0 0 128 128"
   id="svg2"
   version="1.1"
   inkscape:version="0.91 r13725"
   sodipodi:docname="os_debian.svg"
   inkscape:export-xdpi="90"
   inkscape:export-ydpi="90">
  <defs
     id="defs4" />
  <sodipodi:namedview
     id="base"
     pagecolor="#ffffff"
     bordercolor="#666666"
     borderopacity="1.0"
     inkscape:pageopacity="0.0"
     inkscape:pageshadow="2"
     inkscape:zoom="1.4"
     inkscape:cx="-92.568934"
     inkscape:cy="69.13863"
     inkscape:document-units="px"
     inkscape:current-layer="layer1"
     showgrid="false"
     units="px"
     inkscape:window-width="1366"
     inkscape:window-height="716"
     inkscape:window-x="0"
     inkscape:window-y="0"
     inkscape:window-maximized="1" />
  <metadata
     id="metadata7">
    <rdf:RDF>
      <cc:Work
         rdf:about="">
        <dc:format>image/svg+xml</dc:format>
        <dc:type
           rdf:resource="http://purl.org/dc/dcmitype/StillImage" />
        <dc:title />
        <dc:creator>
          <cc:Agent>
            <dc:title />
          </cc:Agent>
        </dc:creator>
        <dc:publisher>
          <cc:Agent>
            <dc:title />
          </cc:Agent>
        </dc:publisher>
        <cc:license
           rdf:resource="" />
      </cc:Work>
    </rdf:RDF>
  </metadata>
  <g
     inkscape:label="Layer 1"
     inkscape:groupmode="layer"
     id="layer1"
     transform="translate(0,-924.36216)">
    <path
       style="fill:#df3056;fill-opacity:1;stroke:none;stroke-miterlimit:10"
       d="M 69.371094 18 C 67.944164 18.11962 66.525091 18.190394 65.121094 18.371094 L 65.740234 18.455078 C 66.77221 18.077558 68.276265 18.24857 69.371094 18 z M 63.136719 18.652344 C 60.816259 18.793174 57.596089 20.002907 58.589844 18.904297 C 54.805082 20.590817 48.084521 22.957714 44.3125 26.490234 L 44.193359 25.699219 C 42.464905 27.771739 36.656262 31.888096 36.193359 34.572266 L 35.730469 34.679688 C 34.830994 36.200777 34.248621 37.925024 33.535156 39.490234 C 32.358788 41.492334 31.811192 40.260329 31.978516 40.574219 C 29.664851 45.259639 28.516342 49.196971 27.523438 52.425781 C 28.230957 53.481981 27.541048 58.783904 27.808594 63.027344 C 26.646665 83.985794 42.533464 104.33395 59.900391 109.03125 C 62.445932 109.94065 66.231236 109.9066 69.451172 110 C 65.65197 108.9141 65.160764 109.42427 61.460938 108.13477 C 58.79139 106.87917 58.207089 105.44669 56.316406 103.80859 L 57.064453 105.12695 C 53.356134 103.81705 54.907562 103.50508 51.890625 102.55078 L 52.689453 101.50977 C 51.487604 101.41777 49.506737 99.486616 48.964844 98.416016 L 47.650391 98.466797 C 46.070575 96.519797 45.227908 95.116897 45.289062 94.029297 L 44.865234 94.785156 C 44.383645 93.959656 39.052832 87.484588 41.818359 88.992188 C 41.304494 88.522987 40.621504 88.227413 39.880859 86.882812 L 40.443359 86.242188 C 39.112407 84.531888 37.995142 82.339775 38.080078 81.609375 C 38.790146 82.567175 39.281996 82.744503 39.769531 82.908203 C 36.408601 74.579113 36.219369 82.449088 33.673828 74.429688 L 34.212891 74.386719 C 33.800101 73.765729 33.548898 73.091397 33.216797 72.429688 L 33.451172 70.097656 C 31.033035 67.307446 32.775911 58.220378 33.125 53.236328 C 33.367068 51.209618 35.145861 49.051179 36.498047 45.667969 L 35.673828 45.527344 C 37.248547 42.783784 44.664785 34.507724 48.099609 34.933594 C 49.763511 32.845804 47.768665 34.926001 47.443359 34.400391 C 51.098168 30.622691 52.248293 31.732264 54.714844 31.052734 C 57.375049 29.475654 52.432055 31.667712 53.693359 30.451172 C 58.291811 29.277912 56.95212 27.78304 62.951172 27.1875 C 63.583947 27.5472 61.482532 27.744338 60.955078 28.210938 C 64.786554 26.338628 73.079033 26.76434 78.464844 29.25 C 84.716157 32.16747 91.738732 40.79179 92.015625 48.90625 L 92.332031 48.990234 C 92.1732 52.215654 92.826409 55.946567 91.693359 59.373047 L 92.464844 57.75 C 92.555724 60.2153 91.743616 61.411817 91.009766 63.529297 L 89.689453 64.1875 C 88.610761 66.28122 89.795254 65.518284 89.021484 67.183594 C 87.336347 68.680074 83.909028 71.86442 82.8125 72.15625 C 82.009852 72.13845 83.353479 71.212699 83.529297 70.849609 C 81.273389 72.396999 81.717691 73.173311 78.267578 74.113281 L 78.167969 73.888672 C 69.6582 77.886972 57.838707 69.963694 57.994141 59.152344 C 57.903261 59.838664 57.735433 59.665949 57.546875 59.943359 C 57.107754 54.380739 60.118924 48.794872 65.197266 46.513672 C 70.165191 44.057702 75.988044 45.064993 79.546875 48.376953 C 77.592491 45.820023 73.70214 43.109621 69.091797 43.363281 C 64.575733 43.434581 60.351348 46.300369 58.941406 49.412109 C 56.627741 50.867029 56.359757 55.02113 55.351562 55.78125 C 53.994281 65.73832 57.902229 70.039219 64.513672 75.099609 C 65.553292 75.800369 64.804317 75.905853 64.945312 76.439453 C 62.74886 75.412143 60.737694 73.861491 59.083984 71.962891 C 59.961376 73.244741 60.90888 74.493666 62.132812 75.472656 C 60.062066 74.771916 57.296025 70.460766 56.488281 70.285156 C 60.058154 76.669836 70.971286 81.48105 76.6875 79.09375 C 74.042583 79.19175 70.68201 79.147381 67.710938 78.050781 C 66.462373 77.410281 64.76624 76.080531 65.070312 75.832031 C 72.868314 78.741831 80.924535 78.035962 87.671875 72.632812 C 89.389287 71.297513 91.264747 69.025531 91.806641 68.994141 C 90.990403 70.220001 91.947143 69.584366 91.320312 70.666016 C 93.03008 67.910576 90.577174 69.54312 93.087891 65.90625 L 94.015625 67.183594 C 93.670784 64.895594 96.859612 62.11736 96.535156 58.5 C 97.267307 57.39375 97.350537 59.691278 96.574219 62.236328 C 97.651211 59.413018 96.858723 58.958476 97.134766 56.628906 C 97.433742 57.411936 97.827998 58.244023 98.029297 59.070312 C 97.326874 56.342022 98.747124 54.476185 99.099609 52.890625 C 98.75222 52.737075 98.016933 54.095917 97.849609 50.873047 C 97.873389 49.473267 98.238762 50.139352 98.378906 49.794922 C 98.103713 49.637122 97.38248 48.563949 96.943359 46.505859 C 97.261021 46.022299 97.794237 47.760771 98.226562 47.832031 C 97.94882 46.195561 97.469604 44.946956 97.449219 43.691406 C 96.183668 41.049646 97.001489 44.042941 95.974609 42.556641 C 94.628369 38.359861 97.091338 41.582871 97.257812 39.675781 C 99.30053 42.630581 100.4649 47.210522 101 49.107422 C 100.59146 46.794832 99.932999 44.554249 99.126953 42.386719 C 99.748687 42.647159 98.129801 37.627342 99.935547 40.951172 C 98.006644 33.865762 91.683371 27.245322 85.865234 24.138672 C 86.57615 24.789352 87.475102 25.606275 87.152344 25.734375 C 84.259413 24.013925 84.768005 23.881327 84.353516 23.154297 C 81.997383 22.196507 81.84238 23.23145 80.28125 23.15625 C 75.839081 20.80293 74.982515 21.052555 70.894531 19.578125 L 71.082031 20.445312 C 68.138988 19.466323 67.650718 20.817799 64.470703 20.449219 C 64.277048 20.298219 65.48943 19.902883 66.488281 19.757812 C 63.642915 20.132782 63.776401 19.197918 60.992188 19.861328 C 61.678474 19.380318 62.404568 19.061244 63.136719 18.652344 z M 66.488281 19.757812 L 67.025391 19.710938 L 67.064453 19.638672 L 66.488281 19.757812 z M 67.064453 19.638672 C 67.955435 19.443552 68.156907 19.2647 65.435547 19.1875 C 66.250086 19.33342 67.198652 19.444402 67.064453 19.638672 z M 29.509766 37.697266 C 29.747588 39.896186 27.853843 40.750601 29.929688 39.300781 C 31.042352 36.797301 29.494478 38.608386 29.509766 37.697266 z M 27.816406 44.679688 C 26.494797 46.367057 27.209608 46.72719 27.070312 47.875 C 27.548503 46.40906 27.633793 45.528037 27.816406 44.679688 z M 82.208984 54.873047 C 82.020107 54.877818 81.778134 55.355051 81.65625 55.878906 C 81.940787 56.026516 82.166213 57.814374 82.441406 56.708984 C 82.533987 55.336354 82.397862 54.868276 82.208984 54.873047 z M 98.898438 59.498047 L 98.675781 60.058594 C 98.264689 62.975224 97.376305 65.861419 96.015625 68.537109 C 97.518148 65.713809 98.489894 62.626757 98.898438 59.498047 z M 81.220703 60.525391 C 81.016856 61.536621 80.470133 62.408768 79.951172 63.330078 C 77.099011 65.124328 79.68252 62.264464 79.949219 61.177734 C 76.883018 65.035174 79.526433 63.490949 79.416016 64.568359 C 80.325684 63.315349 80.987978 61.943831 81.220703 60.525391 z M 75.001953 66.414062 C 73.761034 66.716923 72.496955 66.723642 71.224609 66.607422 C 69.698303 66.628622 71.513253 67.392969 73.505859 67.699219 C 74.057096 67.269109 74.556887 66.836543 75.001953 66.414062 z M 55.740234 66.613281 C 56.076582 67.849321 56.764981 68.910284 57.40625 69.990234 L 56.9375 68.607422 C 56.406648 68.020362 56.09187 67.315711 55.740234 66.613281 z M 54.564453 68.701172 L 54.351562 69.769531 C 55.354661 71.129431 56.150801 72.604139 57.431641 73.667969 C 56.510082 71.872019 55.824058 71.129992 54.564453 68.701172 z "
       transform="translate(0,924.36216)"
       id="path10" />
  </g>
</svg>
