<?xml version="1.0" encoding="UTF-8" standalone="no"?>
<svg
   width="128"
   height="128"
   inkscape:version="1.1.1 (3bf5ae0d25, 2021-09-20)"
   sodipodi:docname="os_endeavour.svg"
   version="1.1"
   viewBox="0 0 127.99999 128"
   id="svg23"
   inkscape:export-filename="/home/cmd/Desktop/os_endeavour.png"
   inkscape:export-xdpi="192"
   inkscape:export-ydpi="192"
   xmlns:inkscape="http://www.inkscape.org/namespaces/inkscape"
   xmlns:sodipodi="http://sodipodi.sourceforge.net/DTD/sodipodi-0.dtd"
   xmlns="http://www.w3.org/2000/svg"
   xmlns:svg="http://www.w3.org/2000/svg"
   xmlns:rdf="http://www.w3.org/1999/02/22-rdf-syntax-ns#"
   xmlns:cc="http://creativecommons.org/ns#"
   xmlns:dc="http://purl.org/dc/elements/1.1/">
  <defs
     id="defs25" />
  <sodipodi:namedview
     id="cvfa"
     bordercolor="#666666"
     borderopacity="1.0"
     inkscape:current-layer="g21"
     inkscape:cx="82.946385"
     inkscape:cy="68.344577"
     inkscape:document-rotation="0"
     inkscape:document-units="px"
     inkscape:pageopacity="0.0"
     inkscape:pageshadow="2"
     inkscape:window-height="1017"
     inkscape:window-maximized="1"
     inkscape:window-width="1920"
     inkscape:window-x="0"
     inkscape:window-y="0"
     inkscape:zoom="4.930896"
     pagecolor="#ffffff"
     showgrid="false"
     inkscape:pagecheckerboard="0"
     units="px"
     fit-margin-top="0"
     fit-margin-right="0"
     fit-margin-bottom="0"
     fit-margin-left="0"
     scale-x="1"
     viewbox-width="123.82024"
     width="64px" />
  <title
     id="title3">EndeavourOS Logo</title>
  <metadata
     id="metadata5">
    <rdf:RDF>
      <cc:Work
         rdf:about="">
        <dc:format>image/svg+xml</dc:format>
        <dc:type
           rdf:resource="http://purl.org/dc/dcmitype/StillImage" />
        <dc:title>EndeavourOS Logo</dc:title>
      </cc:Work>
    </rdf:RDF>
  </metadata>
  <g
     transform="translate(-69.848902,-131.78084)"
     inkscape:groupmode="layer"
     inkscape:label="Layer 1"
     id="g21">
    <g
       transform="matrix(1.9854372,0,0,1.9854542,102.1085,-114.79914)"
       id="g19">
      <g
         transform="matrix(1.47,0,0,1.47,-519,105)"
         id="g17">
        <g
           transform="matrix(0.963,0,0,0.983,13.5,0.76)"
           id="g15">
          <g
             transform="matrix(0.678,0,0,0.678,452,49.2)"
             id="g13">
            <path
               d="m -127,-42.3 c 4.57,6.45 23.8,31.4 10.7,36.6 -6.12,2.81 -34,-1.65 -33.6,-0.921 -2,3.28 -3.59,5.92 -3.59,5.92 0,0 21.5,0.967 38.1,-1.27 23.7,-3.18 -4.88,-33.5 -11.6,-40.3 z"
               style="fill:#7f7fff;stroke-width:0.585"
               inkscape:connector-curvature="0"
               id="path7" />
            <path
               d="m -127,-42.3 c -1.52,0.209 -29.4,34.5 -29.4,34.5 0,0 2.01,0.57 6.58,1.23 1.48,-1.15 22.3,-36.2 22.9,-35.7 -0.0107,-0.0141 -0.028,-0.0193 -0.0522,-0.016 z"
               style="fill:#ff7f7f;stroke-width:0.585"
               inkscape:connector-curvature="0"
               id="path9" />
            <path
               d="m -127,-42.3 c -0.96,-0.156 -22.9,35.7 -22.9,35.7 0,0 19.9,2.1 28.1,1.96 23.1,-0.39 0.176,-30.6 -5.16,-37.7 -0.007,-0.007 -0.0151,-0.0108 -0.0248,-0.0124 z"
               style="fill:#7f3fbf;stroke-width:0.585"
               inkscape:connector-curvature="0"
               id="path11" />
          </g>
        </g>
      </g>
    </g>
  </g>
</svg>
