<?xml version="1.0" encoding="UTF-8" standalone="no"?>
<!-- Created with Inkscape (http://www.inkscape.org/) -->

<svg
   xmlns:dc="http://purl.org/dc/elements/1.1/"
   xmlns:cc="http://creativecommons.org/ns#"
   xmlns:rdf="http://www.w3.org/1999/02/22-rdf-syntax-ns#"
   xmlns:svg="http://www.w3.org/2000/svg"
   xmlns="http://www.w3.org/2000/svg"
   xmlns:sodipodi="http://sodipodi.sourceforge.net/DTD/sodipodi-0.dtd"
   xmlns:inkscape="http://www.inkscape.org/namespaces/inkscape"
   width="128"
   height="128"
   viewBox="0 0 128 128"
   id="svg2"
   version="1.1"
   inkscape:version="0.91 r13725"
   sodipodi:docname="os_fedora.svg"
   inkscape:export-xdpi="90"
   inkscape:export-ydpi="90">
  <defs
     id="defs4" />
  <sodipodi:namedview
     id="base"
     pagecolor="#ffffff"
     bordercolor="#666666"
     borderopacity="1.0"
     inkscape:pageopacity="0.0"
     inkscape:pageshadow="2"
     inkscape:zoom="4"
     inkscape:cx="48.3021"
     inkscape:cy="57.215366"
     inkscape:document-units="px"
     inkscape:current-layer="layer2"
     showgrid="false"
     units="px"
     inkscape:window-width="1366"
     inkscape:window-height="713"
     inkscape:window-x="0"
     inkscape:window-y="27"
     inkscape:window-maximized="1" />
  <metadata
     id="metadata7">
    <rdf:RDF>
      <cc:Work
         rdf:about="">
        <dc:format>image/svg+xml</dc:format>
        <dc:type
           rdf:resource="http://purl.org/dc/dcmitype/StillImage" />
        <dc:title />
        <dc:creator>
          <cc:Agent>
            <dc:title />
          </cc:Agent>
        </dc:creator>
        <dc:publisher>
          <cc:Agent>
            <dc:title />
          </cc:Agent>
        </dc:publisher>
        <cc:license
           rdf:resource="" />
      </cc:Work>
    </rdf:RDF>
  </metadata>
  <g
     inkscape:label="Layer 1"
     inkscape:groupmode="layer"
     id="layer1"
     transform="translate(0,-924.36216)"
     style="display:inline">
    <path
       style="fill:#2c55a2;fill-opacity:1;stroke:none;stroke-width:16;stroke-miterlimit:4;stroke-dasharray:none;stroke-opacity:1"
       d="m 64,945.36213 a 43,43 0 0 0 -43,43.00004 l 0,31.00003 a 12,12 0 0 0 12,12 l 31,0 a 43,43 0 0 0 43,-43.00003 43,43 0 0 0 -43,-43.00004 z"
       id="path4439"
       inkscape:connector-curvature="0" />
  </g>
  <g
     inkscape:groupmode="layer"
     id="layer2"
     inkscape:label="Layer 2"
     style="display:inline">
    <path
       style="fill:#5475b4;fill-opacity:1;stroke:none;stroke-width:16;stroke-miterlimit:4;stroke-dasharray:none;stroke-opacity:1"
       d="M 76,34 A 18,18 0 0 0 58,52 l 0,10 -10,0 A 18,18 0 0 0 30,80 18,18 0 0 0 48,98 18,18 0 0 0 66,80 l 0,-10 10,0 A 18,18 0 0 0 94,52 18,18 0 0 0 76,34 Z m 0,8 A 10,10 0 0 1 86,52 10,10 0 0 1 76,62 L 66,62 66,52 A 10,10 0 0 1 76,42 Z m -28,28 10,0 0,10 A 10,10 0 0 1 48,90 10,10 0 0 1 38,80 10,10 0 0 1 48,70 Z"
       id="path4266"
       inkscape:connector-curvature="0" />
  </g>
  <g
     inkscape:groupmode="layer"
     id="layer3"
     inkscape:label="Layer 3">
    <path
       style="fill:#f2f2f2;fill-opacity:1;stroke:none;stroke-width:16;stroke-miterlimit:4;stroke-dasharray:none;stroke-opacity:1"
       d="M 76,34 A 18,18 0 0 0 58,52 l 0,10 -10,0 a 4,4 0 0 0 -4,4 4,4 0 0 0 4,4 l 10,0 0,10 a 10,10 0 0 1 -10,9.998047 10,10 0 0 1 -7.050781,-2.917969 4,4 0 0 0 -0.01367,-0.01563 4,4 0 0 0 -5.65625,0 4,4 0 0 0 0,5.65625 4,4 0 0 0 0.25,0.228516 A 18,18 0 0 0 48,98 18,18 0 0 0 66,80 l 0,-10 10,0 a 4,4 0 0 0 4,-4 4,4 0 0 0 -4,-4 l -10,0 0,-10 a 10,10 0 0 1 10,-9.998047 10,10 0 0 1 7.064453,2.933594 l 0.0059,-0.0059 a 4,4 0 0 0 5.65625,0 4,4 0 0 0 0,-5.65625 4,4 0 0 0 -0.09961,-0.09375 18,18 0 0 0 -0.08789,-0.0918 A 18,18 0 0 0 76,34 Z"
       id="path4266-9"
       inkscape:connector-curvature="0" />
  </g>
</svg>
