<?xml version="1.0" encoding="UTF-8" standalone="no"?>
<!-- Created with Inkscape (http://www.inkscape.org/) -->

<svg
   xmlns:dc="http://purl.org/dc/elements/1.1/"
   xmlns:cc="http://creativecommons.org/ns#"
   xmlns:rdf="http://www.w3.org/1999/02/22-rdf-syntax-ns#"
   xmlns:svg="http://www.w3.org/2000/svg"
   xmlns="http://www.w3.org/2000/svg"
   xmlns:sodipodi="http://sodipodi.sourceforge.net/DTD/sodipodi-0.dtd"
   xmlns:inkscape="http://www.inkscape.org/namespaces/inkscape"
   width="128"
   height="128"
   viewBox="0 0 128 128"
   id="svg2"
   version="1.1"
   inkscape:version="0.91 r13725"
   sodipodi:docname="os_fatdog.svg"
   inkscape:export-xdpi="90"
   inkscape:export-ydpi="90">
  <defs
     id="defs4" />
  <sodipodi:namedview
     id="base"
     pagecolor="#ffffff"
     bordercolor="#666666"
     borderopacity="1.0"
     inkscape:pageopacity="0.0"
     inkscape:pageshadow="2"
     inkscape:zoom="7.919596"
     inkscape:cx="34.326857"
     inkscape:cy="89.089143"
     inkscape:document-units="px"
     inkscape:current-layer="layer1"
     showgrid="false"
     units="px"
     inkscape:window-width="1366"
     inkscape:window-height="716"
     inkscape:window-x="0"
     inkscape:window-y="0"
     inkscape:window-maximized="1" />
  <metadata
     id="metadata7">
    <rdf:RDF>
      <cc:Work
         rdf:about="">
        <dc:format>image/svg+xml</dc:format>
        <dc:type
           rdf:resource="http://purl.org/dc/dcmitype/StillImage" />
        <dc:title />
        <dc:creator>
          <cc:Agent>
            <dc:title />
          </cc:Agent>
        </dc:creator>
        <dc:publisher>
          <cc:Agent>
            <dc:title />
          </cc:Agent>
        </dc:publisher>
        <cc:license
           rdf:resource="" />
      </cc:Work>
    </rdf:RDF>
  </metadata>
  <g
     inkscape:label="Layer 1"
     inkscape:groupmode="layer"
     id="layer1"
     transform="translate(0,-924.36216)"
     style="display:inline">
    <path
       stroke-miterlimit="10"
       d="m 112.47778,962.16552 c -1.4,-4.8 -5.5,-6.9 -8.2,-8.2 -2.4,-1.2 -10.300002,-4.7 -17.400002,-0.3 -0.4,0.3 -2.5,1.5 -3.8,3.1 -1.6,-0.5 -3.1,-0.9 -4.3,-1.2 -5.736422,-1.1 -5.974619,-1.07373 -11.426269,-1.50508 -6.925381,0.17881 -6.974619,0.22627 -14.573731,1.90508 -2.2,-2.9 -6.7,-4.6 -7,-4.7 -3,-1.1 -6.031345,-1.33135 -8.831345,-0.93135 -3.2,0.5 -7.268655,1.73135 -11.168655,5.93135 -1.3,1.4 -3.5,3.8 -3.9,7.6 -0.1,0.8 -0.3,3.1 0.6,4.9 1.2,2.5 4,3.4 6.7,3.7 -0.7,1 -1.3,2 -1.8,2.9 -1.7,1 -4.1,2.7 -6.5,5.4 -1.3,1.4 -3.3,3.8 -4.6,7.1 -2.8,7.4 -0.1,14.99998 0.3,16.19998 1,2.8 3.6,8 14.1,13.9 13.1,7.3 25.6,8.3 32.8,8.2 3.1,0 24.2,-0.5 34.5,-12.1 0.6,-0.7 1.1,-1.4 1.2,-1.4 2.800002,-3.5 8.400002,-11.8 8.100002,-23.29998 0,0 -0.2,-5.1 -2.5,-11.3 3.4,-1.4 7.2,-5.3 8.1,-10.1 0,-0.9 0.4,-3.2 -0.4,-5.8 z"
       id="path10-3"
       inkscape:connector-curvature="0"
       style="display:inline;fill:#fbb040;stroke:#333333;stroke-width:2;stroke-miterlimit:10;stroke-opacity:1"
       sodipodi:nodetypes="cccccccccsccccccccccccccc" />
  </g>
  <g
     inkscape:groupmode="layer"
     id="layer2"
     inkscape:label="Layer 2">
    <path
       d="m 89.277778,74.603362 c -0.6,-0.7 -5.2,5.1 -14,10.1 -3.7,2.1 -9.6,5.3 -17.5,5.8 -5.2,0.3 -10.7,0.6 -15.5,-3.8 -0.4,-0.4 -6.4,-6 -6.4,-14.1 0,-9.4 8,-15.8 7.4,-16.5 -0.5,-0.5 -5.7,4.7 -8.1,9.7 -0.6,1.3 -2,4.2 -2.1,7.9 l 0,0 c -0.1,1.2 -0.1,2.3 -0.6,3.9 -0.2,0.5 -0.8,2.5 -2.2,3.9 -2,2 -5,2.1 -7.1,1.3 -3.9,-1.5 -5.5,-6.2 -6.2,-8.2 -1.5,-4.4 -1,-8.2 -1.2,-8.2 -0.2,0 -1.2,4.5 -0.1,9.2 1.6,7.1 5.9,11.3 8.3,13.4 5.8,5.4 11.9,6.7 15.6,7.4 4.1,0.8 7.1,0.6 11.8,0.3 5.6,-0.4 11.2,-0.7 18,-3.6 6.9,-2.9 11.2,-6.8 12.1,-7.7 4.6,-4.5 8.3,-10.1 7.8,-10.8 z"
       id="path20-4"
       inkscape:connector-curvature="0"
       style="display:inline;fill:#333333;fill-opacity:1;stroke:none" />
    <path
       stroke-miterlimit="10"
       d="m 36.777788,84.903362 c -0.5,-0.3 -1.3,-0.6 -3.2,-0.3 -1.7,0.3 -3,0.6 -4.4,1.7 -0.8,0.7 -2.1,1.8 -2.6,3.9 -0.1,0.3 -0.6,2.8 0.7,4.6 1,1.3 2.5,1.6 3.9,1.7 7.4,0.5 16.9,-4.1 16.6,-5.5 -0.1,-0.3 -0.5,-0.1 -2.7,-0.7 -1.9,-0.5 -3,-0.8 -4.3,-1.7 -1.8,-1.2 -3.1,-2.7 -3.1,-2.7 -0.3,-0.5 -0.5,-0.8 -0.9,-1 z"
       id="path28-9"
       inkscape:connector-curvature="0"
       style="display:inline;fill:#be1e2d;stroke:#333333;stroke-width:2;stroke-miterlimit:10;stroke-opacity:1" />
    <path
       d="m 35.577778,47.503362 c 0.1,0.7 5.9,-0.2 11.7,-0.1 3.5,0 11.8,0.5 20.1,4 10.3,4.4 16.3,11.6 17.2,10.4 0.4,-0.6 -0.7,-2.4 -2.8,-6.2 -2,-3.5 -3.2,-4.4 -4.2,-4.9 -0.6,-0.3 -1.2,-0.4 -2.1,-0.6 -3.6,-0.5 -6.4,0.1 -7.6,0.3 -3.1,0.4 -3.7,-1.4 -9.4,-3.8 0,0 -9.8,-3.8 -20.2,-0.4 -0.7,0.2 -2.8,0.9 -2.7,1.3 z"
       id="path24-0"
       inkscape:connector-curvature="0"
       style="display:inline;fill:#333333;fill-opacity:1" />
    <path
       d="m 44.677778,50.403362 c 1.1,0.1 2.4,0.3 3.9,0.6 1.4,0.3 5.2,1.1 5.2,1.9 0,0.5 -1.6,0.4 -5.2,1.7 -2.9,1.1 -4.4,1.6 -4.9,2 -0.4,0.3 -0.8,0.7 -1.4,0.6 -0.9,-0.2 -1.2,-1.6 -2.1,-3 -1.6,-2.6 -3.7,-2.8 -3.6,-3.5 0.3,-1 4.6,-0.6 8.1,-0.3 z"
       id="path22-1"
       inkscape:connector-curvature="0"
       style="display:inline;fill:#333333;fill-opacity:1" />
    <path
       d="m 28.677778,48.103362 c 0.5,-0.8 0.9,-1.3 1.5,-1.6 0.4,-0.2 0.8,-0.2 2.3,0.1 1.8,0.4 2.7,0.6 2.7,0.9 0.1,0.5 -1.5,0.9 -4.1,2.3 -3.2,1.7 -4.5,3 -4.8,2.6 -0.2,-0.3 0.7,-1.6 2.4,-4.3 z"
       id="path26-8"
       inkscape:connector-curvature="0"
       style="display:inline;fill:#333333;fill-opacity:1" />
    <path
       d="m 103.77778,52.903362 c -3.1,1.8 -3.5,-2.5 -4.300002,-4.3 -0.6,-1.3 -1.4,-2.4 -2.2,-3.5 -2.6,-3.3 -6.2,-5.1 -10.5,-5 -1.3,0 -1.3,2 0,2 5.1,-0.1 9.1,3.3 11.1,7.9 0.6,1.5 0.8,3.8 2.200002,4.9 1.5,1.2 3.2,0.6 4.7,-0.2 1.1,-0.7 0.1,-2.4 -1,-1.8 l 0,0 z"
       id="path16-9"
       inkscape:connector-curvature="0"
       style="display:inline;fill:#333333;fill-opacity:1;stroke:none" />
    <path
       stroke-miterlimit="10"
       d="m 28.677778,47.803362 c 2.1,-2.7 5.1,-6 9.1,-8.9 5.8,-4.3 11.3,-6.3 15,-7.2"
       id="path18-1"
       inkscape:connector-curvature="0"
       style="display:inline;fill:none;stroke:#333333;stroke-width:2;stroke-miterlimit:10;stroke-opacity:1" />
  </g>
</svg>
