<?xml version="1.0" encoding="UTF-8" standalone="no"?>
<!-- Created with Inkscape (http://www.inkscape.org/) -->

<svg
   xmlns:dc="http://purl.org/dc/elements/1.1/"
   xmlns:cc="http://creativecommons.org/ns#"
   xmlns:rdf="http://www.w3.org/1999/02/22-rdf-syntax-ns#"
   xmlns:svg="http://www.w3.org/2000/svg"
   xmlns="http://www.w3.org/2000/svg"
   xmlns:sodipodi="http://sodipodi.sourceforge.net/DTD/sodipodi-0.dtd"
   xmlns:inkscape="http://www.inkscape.org/namespaces/inkscape"
   width="128"
   height="128"
   viewBox="0 0 128 128"
   id="svg2"
   version="1.1"
   inkscape:version="0.91 r13725"
   sodipodi:docname="os_haiku.svg"
   inkscape:export-xdpi="90"
   inkscape:export-ydpi="90">
  <defs
     id="defs4">
    <linearGradient
       id="c-7"
       gradientUnits="userSpaceOnUse"
       x1="133.18021"
       y1="68.372597"
       x2="133.18021"
       y2="58.226799"
       gradientTransform="matrix(0.4546,0.8907,-0.8907,0.4546,105.1361,-79.1593)">
      <stop
         offset="0"
         style="stop-color:#D7DF23"
         id="stop44-2" />
      <stop
         offset="1"
         style="stop-color:#F7941E"
         id="stop46-9" />
    </linearGradient>
    <linearGradient
       id="b-2"
       gradientUnits="userSpaceOnUse"
       x1="216.0619"
       y1="242.7679"
       x2="216.0619"
       y2="232.1627"
       gradientTransform="matrix(-1,0,0,-1,266.2442,302.6653)">
      <stop
         offset="0"
         style="stop-color:#BE1E2D"
         id="stop37-1" />
      <stop
         offset="1"
         style="stop-color:#FBB040"
         id="stop39-3" />
    </linearGradient>
    <linearGradient
       id="a"
       gradientUnits="userSpaceOnUse"
       x1="63.681301"
       y1="24.591499"
       x2="63.681301"
       y2="13.9863"
       gradientTransform="translate(-41.6206,42.7571)">
      <stop
         offset="0"
         style="stop-color:#8DC63F"
         id="stop30-6" />
      <stop
         offset="1"
         style="stop-color:#009444"
         id="stop32-5" />
    </linearGradient>
  </defs>
  <sodipodi:namedview
     id="base"
     pagecolor="#ffffff"
     bordercolor="#666666"
     borderopacity="1.0"
     inkscape:pageopacity="0.0"
     inkscape:pageshadow="2"
     inkscape:zoom="2.8"
     inkscape:cx="89.193585"
     inkscape:cy="86.964234"
     inkscape:document-units="px"
     inkscape:current-layer="layer1"
     showgrid="false"
     units="px"
     inkscape:window-width="1366"
     inkscape:window-height="713"
     inkscape:window-x="0"
     inkscape:window-y="27"
     inkscape:window-maximized="1" />
  <metadata
     id="metadata7">
    <rdf:RDF>
      <cc:Work
         rdf:about="">
        <dc:format>image/svg+xml</dc:format>
        <dc:type
           rdf:resource="http://purl.org/dc/dcmitype/StillImage" />
        <dc:title />
        <dc:creator>
          <cc:Agent>
            <dc:title />
          </cc:Agent>
        </dc:creator>
        <dc:publisher>
          <cc:Agent>
            <dc:title />
          </cc:Agent>
        </dc:publisher>
        <cc:license
           rdf:resource="" />
      </cc:Work>
    </rdf:RDF>
  </metadata>
  <g
     inkscape:label="Layer 1"
     inkscape:groupmode="layer"
     id="layer1"
     transform="translate(0,-924.36216)"
     style="display:inline">
    <rect
       style="opacity:1;fill:#333333;fill-opacity:1;fill-rule:nonzero;stroke:none;stroke-width:0.5;stroke-linecap:butt;stroke-linejoin:miter;stroke-miterlimit:4;stroke-dasharray:none;stroke-opacity:1"
       id="rect4183"
       width="98"
       height="1"
       x="13.188477"
       y="1005.3622" />
  </g>
  <g
     inkscape:groupmode="layer"
     id="layer2"
     inkscape:label="Layer 2"
     style="display:inline">
    <text
       xml:space="preserve"
       style="font-style:normal;font-variant:normal;font-weight:normal;font-stretch:normal;font-size:35px;line-height:125%;font-family:'Open Sans';-inkscape-font-specification:'Open Sans, Normal';text-align:start;letter-spacing:0px;word-spacing:0px;writing-mode:lr-tb;text-anchor:start;fill:#333333;fill-opacity:1;stroke:none;stroke-width:1px;stroke-linecap:butt;stroke-linejoin:miter;stroke-opacity:1"
       x="9.7055664"
       y="74.873047"
       id="text4815"
       sodipodi:linespacing="125%"><tspan
         sodipodi:role="line"
         id="tspan4817"
         x="9.7055664"
         y="74.873047">HAIKU</tspan></text>
  </g>
  <g
     inkscape:groupmode="layer"
     id="layer3"
     inkscape:label="Layer 3"
     style="display:inline">
    <path
       style="display:inline;fill:#40ab42;fill-opacity:1;stroke:none"
       inkscape:connector-curvature="0"
       d="m 35.2,54.6 c 0,0 -0.8,-0.1 -2.7,0.1 -0.3,0 -0.8,0.1 -1.1,0.4 -0.2,0.2 -0.3,0.4 -0.4,1 -0.1,0.3 -0.2,0.5 -0.3,0.9 -0.1,0.4 -0.1,0.5 -0.1,0.5 -0.1,0 -0.3,-0.5 -0.4,-0.9 -0.1,-0.4 0,-0.7 0,-0.7 0.1,-0.3 0.4,-0.7 0.3,-0.8 -0.1,-0.1 -0.5,0.2 -0.9,0.4 -0.6,0.3 -0.3,0.1 -1.3,0.5 -0.7,0.3 -0.7,0.3 -1.3,0.6 -0.4,0.2 -0.6,0.2 -0.9,0.4 -0.4,0.2 -0.6,0.4 -0.7,0.4 -0.1,0 -0.1,0.1 -0.8,0.6 -0.5,0.4 -0.5,0.4 -0.6,0.4 -0.3,0.3 -0.5,0.5 -0.6,0.7 -0.2,0.2 -0.3,0.3 -0.3,0.5 -0.2,0.3 -0.2,0.5 -0.3,0.5 -0.1,0 -0.1,-0.3 -0.1,-0.7 0,-0.5 0.4,-0.8 0.4,-1 0,0 -0.3,0.1 -1.1,0.3 -0.4,0.1 -0.7,0.2 -1,0.3 -0.7,0.3 -1,0.4 -1.1,0.4 -0.5,0.2 -0.8,0.5 -1.2,0.8 -0.5,0.4 -0.8,0.7 -1,0.9 -0.1,0 -0.1,0 -0.2,0 -2.4,0 -3.8,-0.4 -4.8,-0.8 -0.9,-0.4 -1.6,-0.8 -2,-1.1 l -0.1,1 c 1.3,0.6 3.3,1.3 5.9,1.5 0.4,0 0.8,0 1.2,0 0.2,0.2 0.5,0.5 1.2,1 1.3,0.9 2.9,2 4.6,2.2 0.3,0 0.8,0.1 1.2,0.1 0.5,0 0.2,0 1.2,0 0.4,0 0.6,0 0.7,-0.1 0,-0.1 -0.2,-0.2 -0.5,-0.5 -0.2,-0.3 -0.4,-0.6 -0.3,-0.7 0.1,-0.1 0.2,0.1 0.6,0.3 0.1,0 0.4,0.2 0.8,0.3 0.3,0.1 0.5,0.1 0.8,0.1 0.3,0 0.5,0 0.8,-0.1 0.3,-0.1 0.6,-0.2 0.8,-0.3 0.9,-0.4 0.8,-0.7 1.9,-1.4 0.1,0 0.4,-0.2 0.4,-0.2 0,-0.1 -0.6,0 -1,-0.3 -0.3,-0.2 -0.6,-0.6 -0.6,-0.6 0,0 0.1,0 0.4,0.1 0.3,0.1 0.3,0 1,0.1 0.4,0 0.6,0.1 0.8,0 0.1,0 0.1,-0.1 0.2,-0.1 0.7,-0.4 1.6,-1.5 1.6,-1.5 0.8,-1 0.6,-0.8 1,-1.2 0.3,-0.3 0.6,-0.8 0.9,-1.2 0,0 0.1,-0.1 0.1,-0.2 0,-0.1 -0.1,-0.1 -0.1,-0.2 -0.2,-0.2 -0.5,-0.5 -0.5,-0.5 0,-0.1 0.6,0.3 1.1,0.1 0.5,-0.2 0.4,-0.7 1.1,-1.4 0.4,-0.3 0.8,-0.5 0.8,-0.6 -0.1,-0.1 -0.9,-0.1 -3.5,-0.3 z"
       id="path34-2" />
    <path
       style="display:inline;fill:#d55534;fill-opacity:1;stroke:none"
       inkscape:connector-curvature="0"
       d="m 39.308185,72.189842 c 0,0 0.8,0.1 2.7,-0.1 0.3,0 0.8,-0.1 1.1,-0.4 0.2,-0.2 0.3,-0.4 0.4,-1 0.1,-0.3 0.2,-0.5 0.3,-0.9 0.1,-0.4 0.1,-0.5 0.1,-0.5 0.1,0 0.3,0.5 0.4,0.9 0.1,0.4 0,0.7 0,0.7 -0.1,0.3 -0.4,0.7 -0.3,0.8 0.1,0.1 0.5,-0.2 0.9,-0.4 0.6,-0.3 0.3,-0.1 1.3,-0.5 0.7,-0.3 0.7,-0.3 1.3,-0.6 0.4,-0.2 0.6,-0.2 0.9,-0.4 0.4,-0.2 0.6,-0.4 0.7,-0.4 0.1,0 0.1,-0.1 0.8,-0.6 0.5,-0.4 0.5,-0.4 0.6,-0.4 0.3,-0.3 0.5,-0.5 0.6,-0.7 0.2,-0.2 0.3,-0.3 0.3,-0.5 0.4,-0.3 0.4,-0.5 0.5,-0.5 0.1,0 0.1,0.3 0.1,0.7 0,0.5 -0.4,0.8 -0.4,1 0,0 0.3,-0.1 1.1,-0.3 0.4,-0.1 0.7,-0.2 1,-0.3 0.7,-0.3 1,-0.4 1.1,-0.4 0.5,-0.2 0.8,-0.5 1.2,-0.8 0.5,-0.4 0.8,-0.7 1,-0.9 0.1,0 0.1,0 0.2,0 2.4,0 3.8,0.4 4.8,0.8 0.9,0.4 1.6,0.8 2,1.1 l 0.1,-1 c -1.3,-0.6 -3.3,-1.3 -5.9,-1.5 -0.4,0 -0.8,0 -1.2,0 -0.2,-0.2 -0.5,-0.5 -1.2,-1 -1.3,-0.9 -2.9,-2 -4.6,-2.2 -0.3,0 -0.8,-0.1 -1.2,-0.1 -0.5,0 -0.2,0 -1.2,0 -0.4,0 -0.6,0 -0.7,0.1 0,0.1 0.2,0.2 0.5,0.5 0.2,0.3 0.4,0.6 0.3,0.7 -0.1,0.1 -0.2,-0.1 -0.6,-0.3 -0.1,0 -0.4,-0.2 -0.8,-0.3 -0.3,-0.1 -0.5,-0.1 -0.8,-0.1 -0.3,0 -0.5,0 -0.8,0.1 -0.3,0.1 -0.6,0.2 -0.8,0.3 -0.9,0.4 -0.8,0.7 -1.9,1.4 -0.1,0 -0.4,0.2 -0.4,0.2 0,0.1 0.6,0 1,0.3 0.3,0.2 0.6,0.6 0.6,0.6 0,0 -0.1,0 -0.4,-0.1 -0.3,-0.1 -0.3,0 -1,-0.1 -0.4,0 -0.6,-0.1 -0.8,0 -0.1,0 -0.1,0.1 -0.2,0.1 -0.7,0.4 -1.6,1.5 -1.6,1.5 -0.8,1 -0.6,0.8 -1,1.2 -0.3,0.3 -0.6,0.8 -0.9,1.2 0,0 -0.1,0.1 -0.1,0.2 0,0.1 0.1,0.1 0.1,0.2 0.2,0.2 0.5,0.5 0.5,0.5 0,0.1 -0.6,-0.3 -1.1,-0.1 -0.5,0.2 -0.4,0.7 -1.1,1.4 -0.4,0.3 -0.8,0.5 -0.8,0.6 -0.1,0.1 0.7,0.1 3.3,0.3 z"
       id="path41-2" />
    <path
       style="display:inline;fill:#ebb120;fill-opacity:1;stroke:none"
       inkscape:connector-curvature="0"
       d="m 117.1,72.684214 c 0,0 -0.3,-0.7 -1.3,-2.5 -0.2,-0.3 -0.4,-0.7 -0.8,-0.8 -0.2,-0.1 -0.5,0 -1,0 -0.3,0 -0.6,0.1 -0.9,0.2 -0.4,0.1 -0.5,0.2 -0.5,0.1 -0.1,-0.1 0.2,-0.5 0.6,-0.8 0.3,-0.2 0.6,-0.3 0.6,-0.3 0.3,-0.1 0.7,0 0.8,-0.1 0,-0.1 -0.5,-0.4 -0.8,-0.7 -0.5,-0.5 -0.2,-0.2 -1,-0.9 -0.6,-0.5 -0.6,-0.5 -1.1,-1 -0.3,-0.3 -0.4,-0.4 -0.8,-0.7 -0.3,-0.3 -0.6,-0.4 -0.7,-0.5 -0.1,0 -0.1,-0.1 -0.8,-0.5 -0.5,-0.3 -0.6,-0.3 -0.6,-0.3 -0.4,-0.2 -0.7,-0.2 -0.9,-0.3 -0.2,-0.1 -0.4,-0.1 -0.6,-0.1 -0.3,0 -0.5,0.1 -0.6,0 0,-0.1 0.2,-0.3 0.5,-0.4 0.4,-0.2 0.9,0 1,-0.1 0,-0.1 -0.2,-0.3 -0.8,-0.9 -0.3,-0.3 -0.5,-0.6 -0.7,-0.8 -0.5,-0.5 -0.8,-0.8 -0.8,-0.8 -0.4,-0.3 -0.8,-0.5 -1.2,-0.7 -0.6,-0.3 -0.9,-0.4 -1.2,-0.5 0,-0.1 -0.1,-0.1 -0.1,-0.2 -1.1,-2.2 -1.4,-3.7 -1.5,-4.8 -0.1,-1 -0.1,-1.8 0,-2.3 l -0.9,0.4 c 0.1,1.4 0.4,3.7 1.4,6.2 0.2,0.4 0.3,0.8 0.5,1.1 -0.1,0.3 -0.2,0.7 -0.3,1.5 -0.2,1.6 -0.4,3.6 0.2,5.3 0.1,0.3 0.3,0.7 0.5,1.2 0.2,0.5 0.1,0.2 0.6,1.1 0.2,0.4 0.3,0.6 0.4,0.6 0.1,0 0.1,-0.3 0.3,-0.7 0.1,-0.3 0.4,-0.6 0.5,-0.6 0.1,0 0,0.3 0,0.7 0,0.1 0,0.4 0.1,0.9 0.1,0.3 0.2,0.5 0.3,0.8 0.1,0.2 0.2,0.5 0.4,0.8 0.2,0.3 0.4,0.5 0.6,0.6 0.8,0.6 0.9,0.5 2.1,1.1 0.1,0 0.3,0.3 0.4,0.2 0.1,-0.1 -0.3,-0.6 -0.2,-1.1 0,-0.4 0.2,-0.8 0.3,-0.8 0.1,0 0,0.1 0.1,0.4 0.1,0.3 0.1,0.3 0.4,0.9 0.2,0.4 0.2,0.6 0.4,0.8 0.1,0.1 0.1,0.1 0.2,0.1 0.7,0.5 2,0.8 2,0.8 1.2,0.3 1,0.2 1.4,0.4 0.5,0.2 0.9,0.1 1.4,0.3 0,0 0.1,0 0.2,0 0.1,0 0.1,-0.2 0.1,-0.2 0,-0.3 0.2,-0.7 0.3,-0.7 0.1,0 0,0.7 0.4,1 0.3,0.3 0.7,0 1.7,0.4 0.5,0.2 0.8,0.6 0.9,0.5 -0.2,-0.1 -0.5,-0.8 -1.5,-3.3 z"
       id="path48-5" />
  </g>
</svg>
