<?xml version="1.0" encoding="UTF-8" standalone="no"?>
<!-- Created with Inkscape (http://www.inkscape.org/) -->

<svg
   xmlns:dc="http://purl.org/dc/elements/1.1/"
   xmlns:cc="http://creativecommons.org/ns#"
   xmlns:rdf="http://www.w3.org/1999/02/22-rdf-syntax-ns#"
   xmlns:svg="http://www.w3.org/2000/svg"
   xmlns="http://www.w3.org/2000/svg"
   xmlns:sodipodi="http://sodipodi.sourceforge.net/DTD/sodipodi-0.dtd"
   xmlns:inkscape="http://www.inkscape.org/namespaces/inkscape"
   width="128"
   height="128"
   viewBox="0 0 128 128"
   id="svg2"
   version="1.1"
   inkscape:version="0.91 r13725"
   sodipodi:docname="os_lubuntu.svg"
   inkscape:export-xdpi="90"
   inkscape:export-ydpi="90">
  <defs
     id="defs4" />
  <sodipodi:namedview
     id="base"
     pagecolor="#ffffff"
     bordercolor="#666666"
     borderopacity="1.0"
     inkscape:pageopacity="0.0"
     inkscape:pageshadow="2"
     inkscape:zoom="22.4"
     inkscape:cx="77.66196"
     inkscape:cy="63.588671"
     inkscape:document-units="px"
     inkscape:current-layer="layer1"
     showgrid="false"
     units="px"
     inkscape:window-width="1366"
     inkscape:window-height="713"
     inkscape:window-x="0"
     inkscape:window-y="27"
     inkscape:window-maximized="1" />
  <metadata
     id="metadata7">
    <rdf:RDF>
      <cc:Work
         rdf:about="">
        <dc:format>image/svg+xml</dc:format>
        <dc:type
           rdf:resource="http://purl.org/dc/dcmitype/StillImage" />
        <dc:title />
        <dc:creator>
          <cc:Agent>
            <dc:title />
          </cc:Agent>
        </dc:creator>
        <dc:publisher>
          <cc:Agent>
            <dc:title />
          </cc:Agent>
        </dc:publisher>
        <cc:license
           rdf:resource="" />
      </cc:Work>
    </rdf:RDF>
  </metadata>
  <g
     inkscape:label="Layer 1"
     inkscape:groupmode="layer"
     id="layer1"
     transform="translate(0,-924.36216)"
     style="display:inline">
    <circle
       style="color:#000000;clip-rule:nonzero;display:inline;overflow:visible;visibility:visible;opacity:1;isolation:auto;mix-blend-mode:normal;color-interpolation:sRGB;color-interpolation-filters:linearRGB;solid-color:#000000;solid-opacity:1;fill:#006bc6;fill-opacity:1;fill-rule:nonzero;stroke:none;stroke-width:0.5;stroke-linecap:butt;stroke-linejoin:miter;stroke-miterlimit:4;stroke-dasharray:none;stroke-dashoffset:0;stroke-opacity:1;color-rendering:auto;image-rendering:auto;shape-rendering:auto;text-rendering:auto;enable-background:accumulate"
       id="path4712"
       cx="64"
       cy="988.36218"
       r="46" />
  </g>
  <g
     inkscape:groupmode="layer"
     id="layer2"
     inkscape:label="Layer 2">
    <path
       style="display:inline;fill:#f2f2f2;stroke:none"
       d="m 76.316406,28.363281 c -1.036328,-0.120312 -4.503125,1.0625 -6.515625,1.9375 -1.1,0.5 -1.70039,0.798828 -2.40039,1.298828 -0.7,0.5 -0.901172,0.900782 -1.701172,1.300782 -0.7,0.4 -1.298828,0.4 -1.798828,0.5 -0.9,0.2 -1.801172,0.60039 -3.701172,1.40039 -2.8,1.3 -5.2,2.698438 -5.5,2.898438 -5.8,3.4 -8.598438,5.101562 -9.398438,5.601562 -5.1,3.3 -8.90039,5.89961 -11.40039,7.59961 C 25.515747,56.621677 21.303774,59.463059 18.117188,61.652344 18.058134,62.43377 18.019059,63.216578 18,64 c 0.0093,0.611696 0.03077,1.223145 0.06445,1.833984 4.742706,-1.972531 9.384028,-3.750804 13.634766,-5.134765 C 33.299219,60.199219 36.9,59.1 38,60.5 40,63 31.299609,70.400391 23.099609,84.900391 l 0,0.09961 c 0.09539,0.190785 0.206493,0.381481 0.310547,0.572266 0.327818,0.601952 0.669049,1.196501 1.023438,1.783203 3.085147,-4.475022 5.671424,-7.763136 7.265625,-9.65625 4.5,-5.4 12.800781,-14.598438 13.800781,-13.898438 1.1,0.9 -7.3,13.898828 -17,28.798828 -0.1,0.1 -0.09922,0.200782 -0.199219,0.300782 0.8,1 1.699219,2 2.699219,3 0.6,-0.9 1.200391,-1.69961 1.900391,-2.59961 5.2,-7.3 10.799609,-14.6 16.099609,-22 7.1,-10 10.900781,-15.80039 15.800781,-15.40039 3.3,0.3 5.99961,3.298828 9.09961,6.798828 2.5,2.9 4.00039,5.500781 5.90039,9.300781 3.6,7.2 5.899219,13.1 7.199219,16.5 1.095015,2.886858 2.68653,7.065979 4.476562,12.332029 0.721975,-0.53776 1.428009,-1.096589 2.117188,-1.675779 -0.794147,-4.970052 -1.096888,-7.875129 -2.292969,-13.755859 -0.9,-4.5 -1.701172,-8.1 -2.201172,-10.5 C 86.124859,63.107066 81.240287,49.429308 74.900391,42.300782 73.844977,41.13616 72.262202,39.9397 71.400391,39 c -0.2,-0.7 0.60039,-1.000391 0.90039,-2.400391 0.4,-1.6 -0.201172,-2.20039 0.298828,-3.40039 0.1,-0.3 0.300782,-0.599219 1.300782,-1.699219 2.1,-2.3 2.899218,-2.7 2.699218,-3 -0.0375,-0.075 -0.135156,-0.119531 -0.283203,-0.136719 z"
       id="path10-9"
       inkscape:connector-curvature="0"
       sodipodi:nodetypes="scsccccccccccccccccccccccccscccccccccccs" />
  </g>
</svg>
