<?xml version="1.0" encoding="UTF-8" standalone="no"?>
<!-- Created with Inkscape (http://www.inkscape.org/) -->

<svg
   xmlns:dc="http://purl.org/dc/elements/1.1/"
   xmlns:cc="http://creativecommons.org/ns#"
   xmlns:rdf="http://www.w3.org/1999/02/22-rdf-syntax-ns#"
   xmlns:svg="http://www.w3.org/2000/svg"
   xmlns="http://www.w3.org/2000/svg"
   xmlns:sodipodi="http://sodipodi.sourceforge.net/DTD/sodipodi-0.dtd"
   xmlns:inkscape="http://www.inkscape.org/namespaces/inkscape"
   width="128"
   height="128"
   viewBox="0 0 128 128"
   id="svg2"
   version="1.1"
   inkscape:version="0.91 r13725"
   sodipodi:docname="os_mandriva.svg"
   inkscape:export-xdpi="90"
   inkscape:export-ydpi="90">
  <defs
     id="defs4">
    <linearGradient
       y2="69.9832"
       x2="62.3806"
       y1="69.9832"
       x1="8"
       gradientUnits="userSpaceOnUse"
       id="blue">
      <stop
         id="stop9"
         style="stop-color:#00AEEF"
         offset="0" />
      <stop
         id="stop11"
         style="stop-color:#1C75BC"
         offset="1" />
    </linearGradient>
  </defs>
  <sodipodi:namedview
     id="base"
     pagecolor="#ffffff"
     bordercolor="#666666"
     borderopacity="1.0"
     inkscape:pageopacity="0.0"
     inkscape:pageshadow="2"
     inkscape:zoom="2.8"
     inkscape:cx="87.444862"
     inkscape:cy="51.888092"
     inkscape:document-units="px"
     inkscape:current-layer="layer1"
     showgrid="false"
     units="px"
     inkscape:window-width="1366"
     inkscape:window-height="713"
     inkscape:window-x="0"
     inkscape:window-y="27"
     inkscape:window-maximized="1" />
  <metadata
     id="metadata7">
    <rdf:RDF>
      <cc:Work
         rdf:about="">
        <dc:format>image/svg+xml</dc:format>
        <dc:type
           rdf:resource="http://purl.org/dc/dcmitype/StillImage" />
        <dc:title />
        <dc:creator>
          <cc:Agent>
            <dc:title>Munlika</dc:title>
          </cc:Agent>
        </dc:creator>
        <dc:publisher>
          <cc:Agent>
            <dc:title>Munlika</dc:title>
          </cc:Agent>
        </dc:publisher>
        <cc:license
           rdf:resource="http://creativecommons.org/licenses/by/3.0/" />
      </cc:Work>
      <cc:License
         rdf:about="http://creativecommons.org/licenses/by/3.0/">
        <cc:permits
           rdf:resource="http://creativecommons.org/ns#Reproduction" />
        <cc:permits
           rdf:resource="http://creativecommons.org/ns#Distribution" />
        <cc:requires
           rdf:resource="http://creativecommons.org/ns#Notice" />
        <cc:requires
           rdf:resource="http://creativecommons.org/ns#Attribution" />
        <cc:permits
           rdf:resource="http://creativecommons.org/ns#DerivativeWorks" />
      </cc:License>
    </rdf:RDF>
  </metadata>
  <g
     inkscape:label="Layer 1"
     inkscape:groupmode="layer"
     id="layer1"
     transform="translate(0,-924.36216)">
    <path
       inkscape:connector-curvature="0"
       style="fill:#2c55a2;fill-opacity:1;stroke:none"
       id="path13"
       d="m 23.669556,967.43745 c -31.6318245,47.17645 -4.013745,75.42805 38.479072,46.45695 -51.128213,20.2588 -53.6872956,-10.852 -38.479072,-46.45695 z"
       sodipodi:nodetypes="ccc" />
    <g
       id="g15"
       transform="matrix(1.0065666,0,0,1.0069999,-2.7881569,923.93074)"
       style="fill:#fbb040;fill-opacity:1;stroke:none">
      <path
         style="fill:#fbb040;fill-opacity:1;stroke:none"
         inkscape:connector-curvature="0"
         id="path17"
         d="m 110.7,62.8 0.3,-0.2 c 0.3,-0.2 0.7,-0.1 0.9,0.2 l 3.4,5.8 c 0.2,0.3 0.1,0.7 -0.2,0.9 l -0.3,0.2 c -0.3,0.2 -0.7,0.1 -0.9,-0.2 l -3.4,-5.8 c -0.2,-0.3 -0.1,-0.7 0.2,-0.9 z" />
      <path
         style="fill:#fbb040;fill-opacity:1;stroke:none"
         inkscape:connector-curvature="0"
         id="path19"
         d="m 104.5,52 0.3,-0.2 c 0.3,-0.2 0.7,-0.1 0.9,0.2 l 3.4,5.8 c 0.2,0.3 0.1,0.7 -0.2,0.9 l -0.3,0.2 c -0.3,0.2 -0.7,0.1 -0.9,-0.2 l -3.4,-5.8 c -0.2,-0.3 -0.1,-0.7 0.2,-0.9 z" />
      <path
         style="fill:#fbb040;fill-opacity:1;stroke:none"
         inkscape:connector-curvature="0"
         id="path21"
         d="m 108.5,62.6 0.3,0.2 c 0.3,0.2 0.4,0.6 0.2,0.9 l -3.4,5.8 c -0.2,0.3 -0.6,0.4 -0.9,0.2 l -0.3,-0.2 c -0.3,-0.2 -0.4,-0.6 -0.2,-0.9 l 3.4,-5.8 c 0.2,-0.3 0.6,-0.4 0.9,-0.2 z" />
      <path
         style="fill:#fbb040;fill-opacity:1;stroke:none"
         inkscape:connector-curvature="0"
         id="path23"
         d="M 114.7,51.8 115,52 c 0.3,0.2 0.4,0.6 0.2,0.9 l -3.4,5.8 c -0.2,0.3 -0.6,0.4 -0.9,0.2 l -0.3,-0.2 c -0.3,-0.2 -0.4,-0.6 -0.2,-0.9 l 3.4,-5.8 c 0.2,-0.2 0.6,-0.3 0.9,-0.2 z" />
      <path
         style="fill:#fbb040;fill-opacity:1;stroke:none"
         inkscape:connector-curvature="0"
         id="path25"
         d="m 120,60.6 0,0.4 c 0,0.4 -0.3,0.6 -0.6,0.6 l -6.7,0 c -0.4,0 -0.6,-0.3 -0.6,-0.6 l 0,-0.4 c 0,-0.4 0.3,-0.6 0.6,-0.6 l 6.7,0 c 0.3,-0.1 0.6,0.2 0.6,0.6 z" />
    </g>
    <path
       inkscape:connector-curvature="0"
       style="fill:#fbb040;fill-opacity:1;stroke:none"
       id="path44"
       d="m 58.511763,1009.3244 -24.86218,9.1637 c -1.207849,0.5034 -2.415799,-0.8056 -1.811824,-2.0141 l 11.575548,-23.86585 c 0.201258,-0.5035 0.201258,-1.1077 -0.201358,-1.5105 L 26.905533,970.25274 c -0.805233,-1.00699 0,-2.51749 1.308578,-2.31609 l 26.271388,3.7259 c 0.603945,0.1007 1.10722,-0.2014 1.409197,-0.6042 l 14.69587,-22.0533 c 0.704594,-1.1077 2.415759,-0.70489 2.617067,0.60421 l 4.630209,26.08129 c 0.100659,0.5035 0.503286,1.007 1.006571,1.10769 l 25.466127,7.14971 c 1.30854,0.4028 1.40919,2.1147 0.30197,2.71889 l -23.352338,12.38611 c -0.503286,0.30209 -0.805253,0.80559 -0.805253,1.30905 l 1.006561,26.4842 c 0.100659,1.309 -1.509846,2.0139 -2.516418,1.1076 L 60.02162,1009.6265 c -0.402637,-0.4028 -1.006571,-0.5035 -1.509857,-0.3021 z" />
  </g>
</svg>
