<?xml version="1.0" encoding="UTF-8" standalone="no"?>
<!-- Created with Inkscape (http://www.inkscape.org/) -->

<svg
   xmlns:dc="http://purl.org/dc/elements/1.1/"
   xmlns:cc="http://creativecommons.org/ns#"
   xmlns:rdf="http://www.w3.org/1999/02/22-rdf-syntax-ns#"
   xmlns:svg="http://www.w3.org/2000/svg"
   xmlns="http://www.w3.org/2000/svg"
   xmlns:sodipodi="http://sodipodi.sourceforge.net/DTD/sodipodi-0.dtd"
   xmlns:inkscape="http://www.inkscape.org/namespaces/inkscape"
   width="128"
   height="128"
   viewBox="0 0 128 128"
   id="svg2"
   version="1.1"
   inkscape:version="0.91 r13725"
   sodipodi:docname="os_openmandriva.svg"
   inkscape:export-xdpi="90"
   inkscape:export-ydpi="90">
  <defs
     id="defs4">
    <linearGradient
       id="a-4"
       gradientUnits="userSpaceOnUse"
       x1="75.315598"
       y1="22.683399"
       x2="75.315598"
       y2="82.685402">
      <stop
         offset="0.3495"
         style="stop-color:#00AEEF"
         id="stop18" />
      <stop
         offset="1"
         style="stop-color:#0084B6"
         id="stop20" />
    </linearGradient>
    <linearGradient
       id="a"
       gradientUnits="userSpaceOnUse"
       x1="64"
       y1="18"
       x2="64"
       y2="110">
      <stop
         offset="0.3495"
         style="stop-color:#00AEEF"
         id="stop11" />
      <stop
         offset="1"
         style="stop-color:#0084B6"
         id="stop13" />
    </linearGradient>
  </defs>
  <sodipodi:namedview
     id="base"
     pagecolor="#ffffff"
     bordercolor="#666666"
     borderopacity="1.0"
     inkscape:pageopacity="0.0"
     inkscape:pageshadow="2"
     inkscape:zoom="2.8"
     inkscape:cx="-58.821429"
     inkscape:cy="66.490696"
     inkscape:document-units="px"
     inkscape:current-layer="layer2"
     showgrid="false"
     units="px"
     inkscape:window-width="1366"
     inkscape:window-height="713"
     inkscape:window-x="0"
     inkscape:window-y="27"
     inkscape:window-maximized="1" />
  <metadata
     id="metadata7">
    <rdf:RDF>
      <cc:Work
         rdf:about="">
        <dc:format>image/svg+xml</dc:format>
        <dc:type
           rdf:resource="http://purl.org/dc/dcmitype/StillImage" />
        <dc:title />
        <dc:creator>
          <cc:Agent>
            <dc:title />
          </cc:Agent>
        </dc:creator>
        <dc:publisher>
          <cc:Agent>
            <dc:title />
          </cc:Agent>
        </dc:publisher>
        <cc:license
           rdf:resource="" />
      </cc:Work>
    </rdf:RDF>
  </metadata>
  <g
     inkscape:label="Layer 1"
     inkscape:groupmode="layer"
     id="layer1"
     transform="translate(0,-924.36216)" />
  <g
     inkscape:groupmode="layer"
     id="layer2"
     inkscape:label="Layer 2">
    <path
       style="fill:#007dc5;fill-opacity:1;stroke:none;stroke-width:1;stroke-miterlimit:10;stroke-dasharray:none;stroke-dashoffset:0;stroke-opacity:1"
       d="M 61.978517,18.052735 A 46,46 0 0 0 44.558595,22.310548 46,46 0 0 0 22.310545,83.441407 46,46 0 0 0 83.441407,105.68945 46,46 0 0 0 108.63281,74.970704 35,35 0 0 1 93.29297,88.958985 35,35 0 0 1 46.779298,72.029298 35,35 0 0 1 63.708985,25.517579 35,35 0 0 1 84.25586,22.718751 46,46 0 0 0 61.978517,18.052735 Z m 17.55664,9.203125 A 30,30 0 0 0 65.822267,30.048829 30,30 0 0 0 51.312501,69.916017 30,30 0 0 0 91.179689,84.427735 30,30 0 0 0 105.68945,44.558595 30,30 0 0 0 79.535157,27.25586 Z m -1.941406,4.998047 A 25,25 0 0 1 101.1582,46.671876 25,25 0 0 1 89.066407,79.896485 25,25 0 0 1 55.843751,67.802735 25,25 0 0 1 67.935548,34.580079 25,25 0 0 1 77.593751,32.253907 Z"
       id="path4226"
       inkscape:connector-curvature="0" />
  </g>
</svg>
