<?xml version="1.0" encoding="UTF-8" standalone="no"?>
<!-- Created with Inkscape (http://www.inkscape.org/) -->

<svg
   xmlns:dc="http://purl.org/dc/elements/1.1/"
   xmlns:cc="http://creativecommons.org/ns#"
   xmlns:rdf="http://www.w3.org/1999/02/22-rdf-syntax-ns#"
   xmlns:svg="http://www.w3.org/2000/svg"
   xmlns="http://www.w3.org/2000/svg"
   xmlns:sodipodi="http://sodipodi.sourceforge.net/DTD/sodipodi-0.dtd"
   xmlns:inkscape="http://www.inkscape.org/namespaces/inkscape"
   width="128"
   height="128"
   viewBox="0 0 128 128"
   id="svg2"
   version="1.1"
   inkscape:version="0.91 r13725"
   sodipodi:docname="os_puppy.svg"
   inkscape:export-xdpi="90"
   inkscape:export-ydpi="90">
  <defs
     id="defs4" />
  <sodipodi:namedview
     id="base"
     pagecolor="#ffffff"
     bordercolor="#666666"
     borderopacity="1.0"
     inkscape:pageopacity="0.0"
     inkscape:pageshadow="2"
     inkscape:zoom="3.959798"
     inkscape:cx="31.667256"
     inkscape:cy="69.13863"
     inkscape:document-units="px"
     inkscape:current-layer="layer4"
     showgrid="false"
     units="px"
     inkscape:window-width="1366"
     inkscape:window-height="716"
     inkscape:window-x="0"
     inkscape:window-y="0"
     inkscape:window-maximized="1" />
  <metadata
     id="metadata7">
    <rdf:RDF>
      <cc:Work
         rdf:about="">
        <dc:format>image/svg+xml</dc:format>
        <dc:type
           rdf:resource="http://purl.org/dc/dcmitype/StillImage" />
        <dc:title />
        <dc:creator>
          <cc:Agent>
            <dc:title />
          </cc:Agent>
        </dc:creator>
        <dc:publisher>
          <cc:Agent>
            <dc:title />
          </cc:Agent>
        </dc:publisher>
        <cc:license
           rdf:resource="" />
      </cc:Work>
    </rdf:RDF>
  </metadata>
  <g
     inkscape:label="Layer 1"
     inkscape:groupmode="layer"
     id="layer1"
     transform="translate(0,-924.36216)"
     style="display:inline"
     sodipodi:insensitive="true">
    <path
       style="display:inline;fill:#f1f2f2;stroke:#333333;stroke-width:2;stroke-miterlimit:10;stroke-opacity:1"
       inkscape:connector-curvature="0"
       id="path8-4"
       d="m 101.7,967.86217 c 1.3,-1.8 2,-3.4 2,-3.4 1.9,-4.8 0.8,-9.3 0.2,-11.4 -0.6,-2.3 -1.2,-3.2 -1.6,-3.7 -1.3,-1.6 -3.1,-2.3 -4.7,-2.8 -4.6,-1.4 -8.8,-1.2 -12.6,-0.9 -6.3,0.4 -9.5,0.6 -10.8,0.7 -0.5,0.1 -1,0.1 -1.5,0.2 -2.8,-0.6 -5.8,-0.9 -8.8,-0.9 -6.8,0 -13.3,1.6 -19,4.4 -2,-0.4 -3.5,-0.8 -6.5,-0.7 -3.2,0.1 -7.9,0.3 -11.9,3.7 -2.9,2.4 -4,5.3 -4.2,5.8 -1.2,3 -0.7,5.1 -0.2,11 0.3,4.1 0.3,6.3 0.3,7.7 -0.9,3.5 -1.4,7.2 -1.4,11 0,23.60003 19.3,42.80003 43,42.80003 23.7,0 43,-19.2 43,-42.90003 0,-7.5 -1.9,-14.5 -5.3,-20.6 z"
       stroke-miterlimit="10" />
  </g>
  <g
     inkscape:groupmode="layer"
     id="layer4"
     inkscape:label="Layer 4" />
  <g
     inkscape:groupmode="layer"
     id="layer2"
     inkscape:label="Layer 2"
     style="display:inline">
    <circle
       cx="44.400002"
       cy="66.400002"
       r="14"
       id="circle24-0"
       style="display:inline;fill:#333333;fill-opacity:1;stroke:none" />
    <circle
       cx="88.599998"
       cy="54.5"
       r="7.5"
       id="circle34-4"
       style="display:inline;fill:#333333;fill-opacity:1;stroke:none" />
    <path
       d="m 83.1,69 -6.7,10.8 c -0.5,0.8 -1.6,1.1 -2.5,0.7 l -11.2,-6 c -1.5,-0.8 -1.2,-3 0.4,-3.5 L 81,66.2 c 1.7,-0.4 3,1.4 2.1,2.8 z"
       id="path26"
       inkscape:connector-curvature="0"
       style="display:inline;fill:#333333;fill-opacity:1;stroke:none" />
    <path
       d="m 67.9,89.1 c -4.1,1.1 -8.3,-1 -9.9,-4.8 -0.3,-0.7 -1,-1 -1.7,-0.8 l 0,0 c -0.8,0.2 -1.3,1.1 -0.9,1.9 2.2,5 7.8,7.8 13.2,6.4 5.4,-1.5 8.9,-6.7 8.2,-12.1 -0.1,-0.9 -0.9,-1.4 -1.8,-1.2 l 0,0 c -0.7,0.2 -1.1,0.8 -1,1.6 0.5,4 -2,7.9 -6.1,9 z"
       id="path28"
       inkscape:connector-curvature="0"
       style="display:inline;fill:#333333;fill-opacity:1;stroke:none" />
    <path
       d="m 85.9,84.3 c -4.1,1.1 -8.3,-1 -9.9,-4.8 -0.3,-0.7 -1,-1 -1.7,-0.8 l 0,0 c -0.8,0.2 -1.3,1.1 -0.9,1.9 2.2,5 7.8,7.8 13.2,6.4 C 92,85.5 95.5,80.3 94.8,74.9 94.7,74 93.9,73.5 93,73.7 l 0,0 c -0.7,0.2 -1.1,0.8 -1,1.6 0.6,4 -2,7.9 -6.1,9 z"
       id="path30"
       inkscape:connector-curvature="0"
       style="display:inline;fill:#333333;fill-opacity:1;stroke:none" />
    <path
       d="m 83.1,69 -6.7,10.8 c -0.5,0.8 -1.6,1.1 -2.5,0.7 l -11.2,-6 c -1.5,-0.8 -1.2,-3 0.4,-3.5 L 81,66.2 c 1.7,-0.4 3,1.4 2.1,2.8 z"
       id="path26-9"
       inkscape:connector-curvature="0"
       style="display:inline;fill:#333333;fill-opacity:1;stroke:none" />
    <path
       d="m 67.9,89.1 c -4.1,1.1 -8.3,-1 -9.9,-4.8 -0.3,-0.7 -1,-1 -1.7,-0.8 l 0,0 c -0.8,0.2 -1.3,1.1 -0.9,1.9 2.2,5 7.8,7.8 13.2,6.4 5.4,-1.5 8.9,-6.7 8.2,-12.1 -0.1,-0.9 -0.9,-1.4 -1.8,-1.2 l 0,0 c -0.7,0.2 -1.1,0.8 -1,1.6 0.5,4 -2,7.9 -6.1,9 z"
       id="path28-5"
       inkscape:connector-curvature="0"
       style="display:inline;fill:#333333;fill-opacity:1;stroke:none" />
    <path
       d="m 85.9,84.3 c -4.1,1.1 -8.3,-1 -9.9,-4.8 -0.3,-0.7 -1,-1 -1.7,-0.8 l 0,0 c -0.8,0.2 -1.3,1.1 -0.9,1.9 2.2,5 7.8,7.8 13.2,6.4 C 92,85.5 95.5,80.3 94.8,74.9 94.7,74 93.9,73.5 93,73.7 l 0,0 c -0.7,0.2 -1.1,0.8 -1,1.6 0.6,4 -2,7.9 -6.1,9 z"
       id="path30-8"
       inkscape:connector-curvature="0"
       style="display:inline;fill:#333333;fill-opacity:1;stroke:none" />
    <path
       style="display:inline;fill:#1a1a1a;fill-opacity:1;stroke:none"
       inkscape:connector-curvature="0"
       id="path14"
       d="m 44.6,26.5 c 3.9,2.4 6.7,5.6 8.9,9.6 1.3,2.3 2.4,5.8 1,8.2 -1,1.7 -3.2,2.5 -5.1,2.2 -1.6,-0.3 -3.1,-1.3 -4.7,-1.8 -2.2,-0.6 -4.4,-0.7 -6.6,-0.6 -3.5,0.2 -6.5,0.7 -9.4,2.8 -1,0.8 0,2.5 1,1.7 4.1,-3.1 10.5,-3.3 15.2,-1.8 1.7,0.6 3.2,1.6 5,1.7 1.6,0 3.2,-0.4 4.5,-1.3 C 58.3,44.5 57.2,39 55.3,35.4 53,31 49.7,27.3 45.5,24.7 c -1,-0.6 -2,1.1 -0.9,1.8 l 0,0 z" />
    <path
       style="display:inline;fill:#1a1a1a;fill-opacity:1;stroke:none"
       inkscape:connector-curvature="0"
       id="path20"
       d="M 100.7,43.3 C 98.4,45 95.4,46 93.8,43 93.1,41.8 92.7,40.3 92.1,39.1 90.1,35.2 87.1,31.9 84,29 c -0.9,-0.9 -2.4,0.5 -1.4,1.4 4,3.7 6.9,7.6 9.1,12.6 0.7,1.7 1.8,3.5 3.7,3.9 2.1,0.5 4.7,-0.8 6.4,-2 0.9,-0.7 -0.1,-2.4 -1.1,-1.6 l 0,0 z" />
    <path
       style="display:inline;fill:#333333;fill-opacity:1;stroke:none"
       inkscape:connector-curvature="0"
       id="path14-9"
       d="m 44.6,26.5 c 3.9,2.4 6.7,5.6 8.9,9.6 1.3,2.3 2.4,5.8 1,8.2 -1,1.7 -3.2,2.5 -5.1,2.2 -1.6,-0.3 -3.1,-1.3 -4.7,-1.8 -2.2,-0.6 -4.4,-0.7 -6.6,-0.6 -3.5,0.2 -6.5,0.7 -9.4,2.8 -1,0.8 0,2.5 1,1.7 4.1,-3.1 10.5,-3.3 15.2,-1.8 1.7,0.6 3.2,1.6 5,1.7 1.6,0 3.2,-0.4 4.5,-1.3 C 58.3,44.5 57.2,39 55.3,35.4 53,31 49.7,27.3 45.5,24.7 c -1,-0.6 -2,1.1 -0.9,1.8 l 0,0 z" />
    <path
       style="display:inline;fill:#333333;fill-opacity:1;stroke:none"
       inkscape:connector-curvature="0"
       id="path20-0"
       d="M 100.7,43.3 C 98.4,45 95.4,46 93.8,43 93.1,41.8 92.7,40.3 92.1,39.1 90.1,35.2 87.1,31.9 84,29 c -0.9,-0.9 -2.4,0.5 -1.4,1.4 4,3.7 6.9,7.6 9.1,12.6 0.7,1.7 1.8,3.5 3.7,3.9 2.1,0.5 4.7,-0.8 6.4,-2 0.9,-0.7 -0.1,-2.4 -1.1,-1.6 l 0,0 z" />
  </g>
  <g
     inkscape:groupmode="layer"
     id="layer3"
     inkscape:label="Layer 3"
     style="display:inline">
    <circle
       cx="47.099998"
       cy="65.599998"
       r="7.5"
       id="circle32-0"
       style="display:inline;fill:#f1f2f2" />
  </g>
</svg>
