<?xml version="1.0" encoding="UTF-8" standalone="no"?>
<!-- Created with Inkscape (http://www.inkscape.org/) -->

<svg
   xmlns:dc="http://purl.org/dc/elements/1.1/"
   xmlns:cc="http://creativecommons.org/ns#"
   xmlns:rdf="http://www.w3.org/1999/02/22-rdf-syntax-ns#"
   xmlns:svg="http://www.w3.org/2000/svg"
   xmlns="http://www.w3.org/2000/svg"
   xmlns:sodipodi="http://sodipodi.sourceforge.net/DTD/sodipodi-0.dtd"
   xmlns:inkscape="http://www.inkscape.org/namespaces/inkscape"
   width="128"
   height="128"
   viewBox="0 0 128 128"
   id="svg2"
   version="1.1"
   inkscape:version="0.91 r13725"
   sodipodi:docname="os_phoenixos.svg">
  <defs
     id="defs4" />
  <sodipodi:namedview
     id="base"
     pagecolor="#ffffff"
     bordercolor="#666666"
     borderopacity="1.0"
     inkscape:pageopacity="0.0"
     inkscape:pageshadow="2"
     inkscape:zoom="1.979899"
     inkscape:cx="-98.563541"
     inkscape:cy="39.778846"
     inkscape:document-units="px"
     inkscape:current-layer="layer4"
     showgrid="false"
     units="px"
     inkscape:window-width="1366"
     inkscape:window-height="713"
     inkscape:window-x="0"
     inkscape:window-y="27"
     inkscape:window-maximized="1" />
  <metadata
     id="metadata7">
    <rdf:RDF>
      <cc:Work
         rdf:about="">
        <dc:format>image/svg+xml</dc:format>
        <dc:type
           rdf:resource="http://purl.org/dc/dcmitype/StillImage" />
        <dc:title />
      </cc:Work>
    </rdf:RDF>
  </metadata>
  <g
     inkscape:groupmode="layer"
     id="layer5"
     inkscape:label="Layer 6"
     style="display:none">
    <path
       style="display:inline;fill:#333333;fill-opacity:1;stroke:none;stroke-width:0;stroke-miterlimit:4;stroke-dasharray:none;stroke-opacity:1"
       d="m 54.208986,19.08207 a 46,46 0 0 0 -36.208989,44.91797 46,46 0 0 0 46.000005,46 A 46,46 0 0 0 110,64.00004 46,46 0 0 0 73.783205,19.10941 l -6.332031,29.79297 a 15.5,15.5 0 0 1 12.048828,15.09766 15.5,15.5 0 0 1 -15.5,15.5 15.5,15.5 0 0 1 -15.5,-15.5 15.5,15.5 0 0 1 12.046875,-15.0918 L 54.208986,19.08207 Z"
       id="path4160-0"
       inkscape:connector-curvature="0" />
  </g>
  <g
     inkscape:groupmode="layer"
     id="layer3"
     inkscape:label="Layer 3"
     transform="translate(0,-924.36216)"
     style="display:inline">
    <path
       style="fill:#bebec3;fill-opacity:1;stroke:none;stroke-width:0;stroke-miterlimit:4;stroke-dasharray:none;stroke-opacity:1"
       d="M 54.208984 19.082031 A 46 46 0 0 0 18 64 A 46 46 0 0 0 33.091797 98 L 94.904297 98 A 46 46 0 0 0 110 64 A 46 46 0 0 0 73.783203 19.109375 L 67.451172 48.902344 A 15.5 15.5 0 0 1 79.5 64 A 15.5 15.5 0 0 1 64 79.5 A 15.5 15.5 0 0 1 48.5 64 A 15.5 15.5 0 0 1 60.546875 48.908203 L 54.208984 19.082031 z "
       transform="translate(0,924.36216)"
       id="path4160" />
  </g>
  <g
     inkscape:groupmode="layer"
     id="layer4"
     inkscape:label="Layer 4"
     style="display:inline"
     transform="translate(0,-372)">
    <path
       style="display:inline;fill:#c8c8cd;fill-opacity:1;stroke:none;stroke-width:0;stroke-miterlimit:4;stroke-dasharray:none;stroke-opacity:1"
       d="m 64.008789,435.49023 -32.769531,32.77151 a 46,46 0 0 0 32.769531,13.7383 46,46 0 0 0 32.751953,-13.7559 L 64.008789,435.49023 Z"
       id="rect4190"
       inkscape:connector-curvature="0" />
  </g>
</svg>
