<?xml version="1.0" encoding="UTF-8" standalone="no"?>
<!-- Created with Inkscape (http://www.inkscape.org/) -->

<svg
   xmlns:dc="http://purl.org/dc/elements/1.1/"
   xmlns:cc="http://creativecommons.org/ns#"
   xmlns:rdf="http://www.w3.org/1999/02/22-rdf-syntax-ns#"
   xmlns:svg="http://www.w3.org/2000/svg"
   xmlns="http://www.w3.org/2000/svg"
   xmlns:sodipodi="http://sodipodi.sourceforge.net/DTD/sodipodi-0.dtd"
   xmlns:inkscape="http://www.inkscape.org/namespaces/inkscape"
   width="128"
   height="128"
   viewBox="0 0 128 128"
   id="svg2"
   version="1.1"
   inkscape:version="0.91 r13725"
   sodipodi:docname="os_pclinuxos.svg"
   inkscape:export-xdpi="90"
   inkscape:export-ydpi="90">
  <defs
     id="defs4" />
  <sodipodi:namedview
     id="base"
     pagecolor="#ffffff"
     bordercolor="#666666"
     borderopacity="1.0"
     inkscape:pageopacity="0.0"
     inkscape:pageshadow="2"
     inkscape:zoom="2.8"
     inkscape:cx="-15.493082"
     inkscape:cy="61.930831"
     inkscape:document-units="px"
     inkscape:current-layer="layer2"
     showgrid="false"
     units="px"
     inkscape:window-width="1366"
     inkscape:window-height="713"
     inkscape:window-x="0"
     inkscape:window-y="27"
     inkscape:window-maximized="1" />
  <metadata
     id="metadata7">
    <rdf:RDF>
      <cc:Work
         rdf:about="">
        <dc:format>image/svg+xml</dc:format>
        <dc:type
           rdf:resource="http://purl.org/dc/dcmitype/StillImage" />
        <dc:title />
        <dc:creator>
          <cc:Agent>
            <dc:title />
          </cc:Agent>
        </dc:creator>
        <dc:publisher>
          <cc:Agent>
            <dc:title />
          </cc:Agent>
        </dc:publisher>
        <cc:license
           rdf:resource="" />
      </cc:Work>
    </rdf:RDF>
  </metadata>
  <g
     inkscape:label="Layer 1"
     inkscape:groupmode="layer"
     id="layer1"
     transform="translate(0,-924.36216)"
     style="display:inline">
    <circle
       style="color:#000000;clip-rule:nonzero;display:inline;overflow:visible;visibility:visible;opacity:1;isolation:auto;mix-blend-mode:normal;color-interpolation:sRGB;color-interpolation-filters:linearRGB;solid-color:#000000;solid-opacity:1;fill:#1756b6;fill-opacity:1;fill-rule:nonzero;stroke:none;stroke-width:1;stroke-linecap:butt;stroke-linejoin:miter;stroke-miterlimit:4;stroke-dasharray:none;stroke-dashoffset:0;stroke-opacity:1;color-rendering:auto;image-rendering:auto;shape-rendering:auto;text-rendering:auto;enable-background:accumulate"
       id="path4683"
       cx="64"
       cy="988.36218"
       r="45.5" />
  </g>
  <g
     inkscape:groupmode="layer"
     id="layer2"
     inkscape:label="Layer 2"
     style="display:inline">
    <circle
       r="41"
       cy="64"
       cx="64"
       style="display:inline;fill:#33333d;fill-opacity:1;fill-rule:nonzero;stroke:none"
       id="path3862" />
  </g>
  <g
     inkscape:groupmode="layer"
     id="layer3"
     inkscape:label="Layer 3"
     style="display:inline">
    <g
       style="font-style:normal;font-variant:normal;font-weight:bold;font-stretch:normal;font-size:15px;line-height:125%;font-family:'Droid Sans';-inkscape-font-specification:'Droid Sans Bold';letter-spacing:0px;word-spacing:0px;fill:#f9f9f9;fill-opacity:1;stroke:none;stroke-width:1px;stroke-linecap:butt;stroke-linejoin:miter;stroke-opacity:1"
       id="text4147"
       transform="matrix(0.9838803,0,0,1.0395935,1.0316613,-2.5339856)">
      <path
         d="m 28.664307,63.956055 0.446777,0 q 0.959473,0 1.442871,-0.38086 0.490723,-0.380859 0.490723,-1.237793 0,-0.79834 -0.439453,-1.179199 -0.432129,-0.380859 -1.362305,-0.380859 l -0.578613,0 0,3.178711 z m 4.680175,-1.699219 q 0,0.703125 -0.212402,1.347656 -0.212402,0.644531 -0.703125,1.135254 -0.483398,0.490723 -1.281738,0.783691 -0.791016,0.292969 -1.962891,0.292969 l -0.520019,0 0,3.808594 -2.270508,0 0,-10.708008 2.973633,0 q 1.032714,0 1.779785,0.234375 0.754394,0.227051 1.237793,0.65918 0.490722,0.424805 0.725097,1.047363 0.234375,0.615235 0.234375,1.398926 z"
         style="fill:#1756b6;fill-opacity:1"
         id="path4152"
         inkscape:connector-curvature="0" />
      <path
         d="m 39.760498,60.652832 q -0.651855,0 -1.157227,0.256348 -0.498046,0.249023 -0.842285,0.725097 -0.336914,0.46875 -0.512695,1.149903 -0.175781,0.673828 -0.175781,1.516113 0,0.856934 0.153808,1.523437 0.161133,0.666504 0.483399,1.12793 0.32959,0.454102 0.834961,0.695801 0.512695,0.234375 1.21582,0.234375 0.651856,0 1.303711,-0.146484 0.65918,-0.146485 1.428223,-0.417481 l 0,1.904297 q -0.351563,0.146484 -0.695801,0.249023 -0.344238,0.102539 -0.703125,0.168457 -0.358887,0.06592 -0.739746,0.09522 -0.373535,0.03662 -0.805664,0.03662 -1.237793,0 -2.145996,-0.395507 -0.908204,-0.395508 -1.501465,-1.113282 -0.593262,-0.717773 -0.878906,-1.728515 -0.285645,-1.010743 -0.285645,-2.248535 0,-1.215821 0.32959,-2.226563 0.32959,-1.018066 0.966797,-1.750488 0.637207,-0.732422 1.574707,-1.135254 0.9375,-0.410156 2.15332,-0.410156 0.79834,0 1.59668,0.205078 0.805664,0.197754 1.538086,0.549316 l -0.732422,1.845703 q -0.600586,-0.285644 -1.208496,-0.498047 -0.60791,-0.212402 -1.193848,-0.212402 z"
         style="fill:#1756b6;fill-opacity:1"
         id="path4154"
         inkscape:connector-curvature="0" />
      <path
         d="m 44.762939,69.625 0,-10.708008 2.270508,0 0,8.833008 3.896485,0 0,1.875 -6.166993,0 z"
         id="path4156"
         inkscape:connector-curvature="0"
         style="fill:#f2f2f2;fill-opacity:1" />
      <path
         d="m 52.519287,59.319824 q 0,-0.314941 0.09522,-0.520019 0.09521,-0.212403 0.256348,-0.336914 0.168457,-0.131836 0.388183,-0.183106 0.227051,-0.05127 0.476074,-0.05127 0.249024,0 0.46875,0.05127 0.219727,0.05127 0.38086,0.183106 0.168457,0.124511 0.263672,0.336914 0.102539,0.205078 0.102539,0.520019 0,0.307617 -0.102539,0.52002 -0.09521,0.212402 -0.263672,0.344238 -0.161133,0.124512 -0.38086,0.183105 -0.219726,0.05127 -0.46875,0.05127 -0.249023,0 -0.476074,-0.05127 -0.219726,-0.05859 -0.388183,-0.183105 -0.161133,-0.131836 -0.256348,-0.344238 -0.09522,-0.212403 -0.09522,-0.52002 z m 2.329102,10.305176 -2.233887,0 0,-8.188477 2.233887,0 0,8.188477 z"
         id="path4158"
         inkscape:connector-curvature="0"
         style="fill:#f2f2f2;fill-opacity:1" />
      <path
         d="m 64.289307,69.625 -2.233887,0 0,-4.782715 q 0,-0.88623 -0.270996,-1.325683 -0.263672,-0.446778 -0.84961,-0.446778 -0.439453,0 -0.732421,0.175781 -0.292969,0.175782 -0.46875,0.52002 -0.168457,0.344238 -0.2417,0.849609 -0.07324,0.505371 -0.07324,1.157227 l 0,3.852539 -2.233887,0 0,-8.188477 1.706543,0 0.300293,1.047364 0.124512,0 q 0.175781,-0.314942 0.424805,-0.541992 0.256347,-0.227051 0.55664,-0.373536 0.300293,-0.146484 0.637207,-0.212402 0.336915,-0.07324 0.688477,-0.07324 0.600586,0 1.091309,0.175781 0.490722,0.168457 0.842285,0.534668 0.351562,0.366211 0.541992,0.9375 0.19043,0.563965 0.19043,1.354981 l 0,5.339355 z"
         id="path4160"
         inkscape:connector-curvature="0"
         style="fill:#f2f2f2;fill-opacity:1" />
      <path
         d="m 71.943115,69.625 -0.300293,-1.047363 -0.117187,0 q -0.183106,0.314941 -0.439453,0.541992 -0.249024,0.219726 -0.549317,0.366211 -0.300293,0.146484 -0.637207,0.212402 -0.336914,0.07324 -0.688476,0.07324 -0.600586,0 -1.091309,-0.168457 -0.490723,-0.175781 -0.842285,-0.541992 -0.351563,-0.366211 -0.541992,-0.930176 -0.19043,-0.563964 -0.19043,-1.35498 l 0,-5.339356 2.233887,0 0,4.782715 q 0,0.886231 0.263672,1.333008 0.270996,0.439453 0.856933,0.439453 0.439453,0 0.732422,-0.175781 0.292969,-0.175781 0.461426,-0.52002 0.175781,-0.344238 0.249023,-0.849609 0.07324,-0.505371 0.07324,-1.157227 l 0,-3.852539 2.233887,0 0,8.188477 -1.706543,0 z"
         id="path4162"
         inkscape:connector-curvature="0"
         style="fill:#f2f2f2;fill-opacity:1" />
      <path
         d="m 77.670654,65.442871 -2.636718,-4.006348 2.534179,0 1.362305,2.460938 1.384277,-2.460938 2.53418,0 -2.67334,4.006348 2.790527,4.182129 -2.534179,0 -1.501465,-2.651367 -1.501465,2.651367 -2.53418,0 2.775879,-4.182129 z"
         id="path4165"
         inkscape:connector-curvature="0"
         style="fill:#f2f2f2;fill-opacity:1" />
      <path
         d="m 93.527588,64.256348 q 0,1.237793 -0.292969,2.255859 -0.285644,1.018066 -0.878906,1.743164 -0.593262,0.725098 -1.501465,1.120606 -0.900879,0.395507 -2.131348,0.395507 -1.230468,0 -2.138671,-0.395507 -0.900879,-0.395508 -1.494141,-1.120606 -0.585938,-0.725098 -0.878906,-1.743164 -0.285645,-1.025391 -0.285645,-2.270508 0,-1.245117 0.285645,-2.255859 0.292968,-1.018067 0.88623,-1.73584 0.593262,-0.717773 1.494141,-1.105957 0.908203,-0.395508 2.145996,-0.395508 1.230469,0 2.131347,0.395508 0.900879,0.388184 1.486817,1.113281 0.593262,0.717774 0.878906,1.73584 0.292969,1.010742 0.292969,2.263184 z m -7.265625,0 q 0,0.842285 0.146484,1.516113 0.146485,0.666504 0.446778,1.135254 0.307617,0.461426 0.769043,0.710449 0.461425,0.249023 1.098632,0.249023 0.651856,0 1.113282,-0.249023 0.46875,-0.249023 0.761718,-0.710449 0.300293,-0.46875 0.439454,-1.135254 0.146484,-0.673828 0.146484,-1.516113 0,-0.842286 -0.146484,-1.508789 Q 90.898193,62.07373 90.5979,61.60498 90.304932,61.13623 89.843506,60.887207 89.38208,60.638184 88.737549,60.638184 q -0.637207,0 -1.105957,0.249023 -0.46875,0.249023 -0.776367,0.717773 -0.300293,0.46875 -0.446778,1.142579 -0.146484,0.666503 -0.146484,1.508789 z"
         style="fill:#1756b6;fill-opacity:1"
         id="path4167"
         inkscape:connector-curvature="0" />
      <path
         d="m 101.6062,66.651367 q 0,0.717774 -0.24902,1.296387 -0.2417,0.571289 -0.71778,0.981445 -0.46875,0.402832 -1.157222,0.622559 -0.681153,0.219726 -1.567383,0.219726 -0.776367,0 -1.501465,-0.161132 -0.717773,-0.161133 -1.333008,-0.483399 l 0,-2.109375 q 0.351563,0.168457 0.710449,0.32959 0.358887,0.153809 0.725098,0.27832 0.373535,0.124512 0.739746,0.197754 0.373535,0.07324 0.739746,0.07324 0.373535,0 0.637207,-0.08057 0.270996,-0.08789 0.432129,-0.234375 0.168457,-0.153809 0.241699,-0.358887 0.08057,-0.212402 0.08057,-0.461426 0,-0.300293 -0.131836,-0.527343 -0.124515,-0.234369 -0.35889,-0.432123 -0.227051,-0.205078 -0.55664,-0.395508 -0.322266,-0.19043 -0.725098,-0.402832 -0.336914,-0.175781 -0.754395,-0.424805 -0.41748,-0.249023 -0.791015,-0.615234 -0.366211,-0.373535 -0.615235,-0.893555 -0.249023,-0.527344 -0.249023,-1.259765 0,-0.717774 0.234375,-1.281739 0.241699,-0.571289 0.681152,-0.959472 0.439453,-0.395508 1.062012,-0.600586 0.629883,-0.205078 1.40625,-0.205078 0.388184,0 0.754395,0.05127 0.373535,0.05127 0.732422,0.146484 0.36621,0.09521 0.73242,0.234375 0.36621,0.139161 0.7544,0.322266 l -0.73243,1.765137 q -0.32959,-0.153809 -0.61523,-0.270996 -0.285645,-0.117188 -0.556641,-0.197754 -0.270996,-0.08057 -0.534668,-0.117188 -0.256348,-0.04395 -0.52002,-0.04395 -0.571289,0 -0.878906,0.307617 -0.300293,0.300293 -0.300293,0.805664 0,0.270996 0.08789,0.483399 0.09522,0.205078 0.292969,0.388183 0.205078,0.183106 0.520019,0.373535 0.322266,0.19043 0.776367,0.432129 0.549317,0.292969 1.010743,0.600586 0.46143,0.300293 0.79102,0.673828 0.33691,0.366211 0.52002,0.834961 0.1831,0.46875 0.1831,1.098633 z"
         style="fill:#1756b6;fill-opacity:1"
         id="path4169"
         inkscape:connector-curvature="0" />
    </g>
  </g>
</svg>
