<?xml version="1.0" encoding="UTF-8" standalone="no"?>
<!-- Created with Inkscape (http://www.inkscape.org/) -->

<svg
   xmlns:dc="http://purl.org/dc/elements/1.1/"
   xmlns:cc="http://creativecommons.org/ns#"
   xmlns:rdf="http://www.w3.org/1999/02/22-rdf-syntax-ns#"
   xmlns:svg="http://www.w3.org/2000/svg"
   xmlns="http://www.w3.org/2000/svg"
   xmlns:sodipodi="http://sodipodi.sourceforge.net/DTD/sodipodi-0.dtd"
   xmlns:inkscape="http://www.inkscape.org/namespaces/inkscape"
   width="128"
   height="128"
   viewBox="0 0 128 128"
   id="svg2"
   version="1.1"
   inkscape:version="0.91 r13725"
   sodipodi:docname="os_sabayon.svg"
   inkscape:export-xdpi="90"
   inkscape:export-ydpi="90">
  <defs
     id="defs4" />
  <sodipodi:namedview
     id="base"
     pagecolor="#ffffff"
     bordercolor="#666666"
     borderopacity="1.0"
     inkscape:pageopacity="0.0"
     inkscape:pageshadow="2"
     inkscape:zoom="4.1484375"
     inkscape:cx="21.694915"
     inkscape:cy="63.517891"
     inkscape:document-units="px"
     inkscape:current-layer="layer2"
     showgrid="false"
     units="px"
     inkscape:window-width="1366"
     inkscape:window-height="713"
     inkscape:window-x="0"
     inkscape:window-y="27"
     inkscape:window-maximized="1" />
  <metadata
     id="metadata7">
    <rdf:RDF>
      <cc:Work
         rdf:about="">
        <dc:format>image/svg+xml</dc:format>
        <dc:type
           rdf:resource="http://purl.org/dc/dcmitype/StillImage" />
        <dc:title />
        <dc:creator>
          <cc:Agent>
            <dc:title />
          </cc:Agent>
        </dc:creator>
        <dc:publisher>
          <cc:Agent>
            <dc:title />
          </cc:Agent>
        </dc:publisher>
        <cc:license
           rdf:resource="" />
      </cc:Work>
    </rdf:RDF>
  </metadata>
  <g
     inkscape:label="Layer 1"
     inkscape:groupmode="layer"
     id="layer1"
     transform="translate(0,-924.36216)"
     sodipodi:insensitive="true">
    <circle
       r="46"
       cy="-988.36218"
       cx="64.000008"
       style="display:inline;fill:#00aaff;fill-opacity:1;fill-rule:nonzero;stroke:none"
       id="path3813-1"
       transform="scale(1,-1)" />
  </g>
  <g
     inkscape:groupmode="layer"
     id="layer2"
     inkscape:label="Layer 2"
     style="display:inline">
    <circle
       r="42"
       cy="-64"
       cx="64.000008"
       style="fill:#33333d;fill-opacity:1;fill-rule:nonzero;stroke:none"
       id="path3862"
       transform="scale(1,-1)" />
    <path
       style="display:inline;fill:#2d2d35;fill-opacity:1;fill-rule:nonzero;stroke:none"
       d="m 64.000002,106 a 42,42 0 0 1 -42,-42.000003 l 83.999998,0 A 42,42 0 0 1 64.000002,106 Z"
       id="path3862-8"
       inkscape:connector-curvature="0" />
  </g>
  <g
     inkscape:groupmode="layer"
     id="layer3"
     inkscape:label="Layer 3"
     style="display:inline">
    <path
       style="display:inline;fill:#f2f2f2;stroke:none"
       inkscape:connector-curvature="0"
       d="m 65.6,93.8 c 1.2,-0.4 1.8,-1 2.8,-1.9 0.2,-0.1 1.9,-1.3 5.3,-3.6 5.7,-3.9 7.3,-3.9 11,-7 1.2,-1 2.1,-2 3.7,-4 1.1,-1.4 1.6,-2.1 1.6,-3 0,-1.2 -0.8,-2.4 -1.9,-3 -1.3,-0.7 -2.7,-0.3 -3.6,0 -3.3,1 -3.7,3.4 -8.1,5.9 -0.8,0.4 -1.6,0.9 -2.8,1.1 -0.4,0.1 -2.8,0.5 -4.2,-0.5 -1.5,-1.1 -1.3,-3.7 -1.1,-7 0,0 0.5,-8 -0.2,-16.5 -0.3,-4.4 -0.9,-6.6 -2.6,-7.6 -0.9,-0.5 -2.2,-0.7 -3.3,-0.3 -3.1,1.2 -3.4,7.3 -3.7,13.5 -0.5,10 -0.8,15.1 -0.3,16.8 0.1,0.3 0.4,1.3 -0.2,2 -0.4,0.6 -1.3,0.6 -2,0.6 -2.6,0 -4.8,-1.2 -8.6,-3.3 -2.8,-1.5 -2.9,-1.6 -3.4,-1.7 -0.5,-0.2 -5.2,-1.5 -7.2,0.8 -0.1,0.1 -0.8,1 -0.8,2.2 0.1,1.1 0.8,1.9 2.6,3.4 2,1.6 3.5,2.5 4.4,3 3.3,2 2.8,2.6 7.6,6.1 3.4,2.4 4.8,2.9 5.4,3.1 0.9,0.3 2.3,0.5 5,0.8 2.9,0.5 3.7,0.4 4.6,0.1 z"
       id="path15-8" />
    <path
       style="display:inline;fill:#f2f2f2;stroke:none"
       inkscape:connector-curvature="0"
       d="m 36.8,72.7 c 0,-0.6 -0.5,-1 -1.4,-1.9 -0.7,-0.6 -1.6,-1.4 -3.1,-1.9 -0.7,-0.2 -2.2,-0.6 -2.6,0 -0.3,0.4 0.1,1.3 0.9,3.1 0.8,1.8 1.1,2.1 1.4,2.3 0.2,0.2 1.1,0.9 2.2,0.8 1.3,0 2.7,-1.3 2.6,-2.4 z"
       id="path17-4" />
    <path
       style="display:inline;fill:#f2f2f2;stroke:none"
       inkscape:connector-curvature="0"
       d="m 91.3,71.7 c 1.1,0.8 2.4,0.4 2.6,0.3 0.3,-0.1 0.7,-0.3 2.5,-2 1.7,-1.7 1.9,-2.1 2,-2.6 0,-0.2 0.1,-1.2 -0.5,-1.7 -0.3,-0.2 -0.7,-0.4 -1.9,-0.3 -0.8,0.1 -3.5,0.4 -5.1,2.6 -0.4,0.6 -0.9,1.3 -0.8,2.2 0.2,0.9 1,1.4 1.2,1.5 z"
       id="path19-7" />
    <path
       style="display:inline;fill:#f2f2f2;stroke:none"
       inkscape:connector-curvature="0"
       d="m 63.7,44.5 c 1.1,0.1 1.9,-1.2 1.9,-1.3 0.4,-0.8 0.3,-1.3 0.1,-3.6 -0.1,-2.4 -0.1,-3.3 -0.7,-4.6 -0.4,-0.8 -0.7,-1 -1,-1.1 -0.7,-0.1 -1.2,0.7 -1.4,0.9 -0.8,1.1 -0.5,1.9 -0.7,4.6 -0.2,2.1 -0.5,2.6 -0.1,3.5 0.2,0.3 0.8,1.6 1.9,1.6 z"
       id="path21-4" />
  </g>
</svg>
