<?xml version="1.0" encoding="UTF-8" standalone="no"?>
<!-- Created with Inkscape (http://www.inkscape.org/) -->

<svg
   xmlns:dc="http://purl.org/dc/elements/1.1/"
   xmlns:cc="http://creativecommons.org/ns#"
   xmlns:rdf="http://www.w3.org/1999/02/22-rdf-syntax-ns#"
   xmlns:svg="http://www.w3.org/2000/svg"
   xmlns="http://www.w3.org/2000/svg"
   xmlns:sodipodi="http://sodipodi.sourceforge.net/DTD/sodipodi-0.dtd"
   xmlns:inkscape="http://www.inkscape.org/namespaces/inkscape"
   width="128"
   height="128"
   viewBox="0 0 128 128"
   id="svg2"
   version="1.1"
   inkscape:version="0.91 r13725"
   sodipodi:docname="os_suse.svg"
   inkscape:export-xdpi="90"
   inkscape:export-ydpi="90">
  <defs
     id="defs4" />
  <sodipodi:namedview
     id="base"
     pagecolor="#ffffff"
     bordercolor="#666666"
     borderopacity="1.0"
     inkscape:pageopacity="0.0"
     inkscape:pageshadow="2"
     inkscape:zoom="1.979899"
     inkscape:cx="32.529284"
     inkscape:cy="59.162295"
     inkscape:document-units="px"
     inkscape:current-layer="layer2"
     showgrid="false"
     units="px"
     inkscape:window-width="1366"
     inkscape:window-height="713"
     inkscape:window-x="0"
     inkscape:window-y="27"
     inkscape:window-maximized="1" />
  <metadata
     id="metadata7">
    <rdf:RDF>
      <cc:Work
         rdf:about="">
        <dc:format>image/svg+xml</dc:format>
        <dc:type
           rdf:resource="http://purl.org/dc/dcmitype/StillImage" />
        <dc:title></dc:title>
        <dc:creator>
          <cc:Agent>
            <dc:title />
          </cc:Agent>
        </dc:creator>
        <dc:publisher>
          <cc:Agent>
            <dc:title />
          </cc:Agent>
        </dc:publisher>
        <cc:license
           rdf:resource="" />
      </cc:Work>
    </rdf:RDF>
  </metadata>
  <g
     inkscape:groupmode="layer"
     id="layer2"
     inkscape:label="Layer 2"
     style="display:inline">
    <path
       d="m 91.76454,98.836961 0,0.2996 c 0,0.658359 -0.4997,1.139199 -1.19135,1.139199 l -8.99862,0 c -0.654667,0 -1.142902,-0.49193 -1.142902,-1.139199 l 0,-11.288483 c 0,-0.650975 0.506722,-1.139204 1.165096,-1.139204 l 0.004,0.0111 8.599516,0 c 0.69165,0 1.19468,0.477133 1.19468,1.135134 l 0,0.299965 c 0,0.658002 -0.503029,1.135136 -1.19468,1.135136 0,0 -6.66509,0 -6.994272,0 0,0.296267 0,2.663076 0,2.955274 0.329553,0 5.396422,0 5.396422,0 0.69166,0 1.19469,0.484902 1.19469,1.142904 l 0,0.296266 c 0,0.662071 -0.50303,1.138836 -1.19469,1.138836 0,0 -5.066869,0 -5.396422,0 0,0.296266 0,2.585402 0,2.877602 0.329553,0 7.367842,0 7.367842,0 0.69537,3.7e-4 1.19099,0.4849 1.19099,1.13587 z"
       id="path10"
       inkscape:connector-curvature="0"
       style="fill:#6ebe3b;fill-opacity:1" />
    <path
       d="m 78.060795,95.060572 0,1.808672 c 0,2.071647 -1.235371,3.406516 -3.162404,3.406516 l -7.349349,0 c -0.691659,0 -1.190986,-0.48453 -1.190986,-1.139199 l 0,-0.2996 c 0,-0.65504 0.499327,-1.13551 1.190986,-1.13551 l 6.972449,0 c 0.758237,0 0.780059,-1.039335 0.780059,-1.153995 l 0,-1.083723 c 0,-0.355077 -0.140551,-0.773032 -0.780059,-0.773032 l -5.108297,0 c -1.453595,0 -3.028878,-1.190987 -3.028878,-3.11062 l 0,-1.675519 c 0,-1.309346 1.235371,-3.195688 3.461628,-3.195688 l 0,0.01479 5.999687,0 c 0.699054,0 1.216881,0.491929 1.216881,1.135506 l 0,0.299594 c 0,0.650974 -0.514492,1.139204 -1.19136,1.139204 l -5.570267,0 c -0.732344,0 -1.1503,0.358776 -1.1503,0.987558 l 0,0.994955 c 0,0.406858 0.340282,0.964994 1.098889,0.964994 l 5.030254,0 c 1.386646,3.71e-4 2.781066,0.873267 2.781066,2.815093 z"
       id="path18"
       inkscape:connector-curvature="0"
       style="fill:#6ebe3b;fill-opacity:1" />
    <path
       d="m 62.788793,86.708874 c 0.669838,0 1.191358,0.525217 1.191358,1.194314 l 0,8.888013 c 0,2.06759 -1.624107,3.565939 -3.86516,3.565939 l -4.153657,0 c -2.241423,0 -3.864788,-1.498349 -3.864788,-3.565939 l 0,-8.888013 c 0,-0.669467 0.528915,-1.194314 1.190986,-1.194314 l 0.377269,0 c 0.666139,0 1.194685,0.536313 1.194685,1.194314 l 0,8.559198 c 0,0.684262 0.551109,1.235375 1.231672,1.235375 l 3.887351,0 c 0.676865,0 1.231672,-0.551113 1.231672,-1.235375 l 0,-8.558827 c 0,-0.658002 0.536314,-1.194316 1.194316,-1.194316 l 0.0077,0 0.376529,0 z"
       id="path20"
       inkscape:connector-curvature="0"
       style="fill:#6ebe3b;fill-opacity:1" />
    <path
       d="m 49.710134,95.060572 0,1.808672 c 0,2.071647 -1.242768,3.406516 -3.162402,3.406516 l -7.353046,0 C 38.499326,100.27576 38,99.79123 38,99.136561 l 0,-0.2996 c 0,-0.65504 0.503026,-1.13551 1.194686,-1.13551 l 6.972079,0 c 0.754537,0 0.773032,-1.039335 0.773032,-1.153995 l 0,-1.083723 c 0,-0.355077 -0.133154,-0.773032 -0.773032,-0.773032 l -5.107928,0 c -1.460991,0 -3.029249,-1.190987 -3.029249,-3.11062 l 0,-1.675519 c 0,-1.309346 1.231673,-3.195688 3.461999,-3.195688 l 0.0073,0.01479 6.003016,0 c 0.695358,0 1.216877,0.491929 1.216877,1.135506 l 0,0.299594 c 0,0.650974 -0.514121,1.139204 -1.194685,1.139204 l -5.570266,0 c -0.736044,0 -1.153999,0.358776 -1.153999,0.987558 l 0,0.994955 c 0,0.406858 0.340282,0.964994 1.098518,0.964994 l 5.026556,0 c 1.387017,3.71e-4 2.785132,0.873267 2.785132,2.815093 z"
       id="path22"
       inkscape:connector-curvature="0"
       style="fill:#6ebe3b;fill-opacity:1" />
    <path
       inkscape:connector-curvature="0"
       style="font-style:normal;font-variant:normal;font-weight:normal;font-stretch:normal;font-size:22.5px;line-height:125%;font-family:'Open Sans';-inkscape-font-specification:'Open Sans, Normal';text-align:start;letter-spacing:0px;word-spacing:0px;writing-mode:lr-tb;text-anchor:start;display:inline;fill:#6ebe3b;fill-opacity:1;stroke:none;stroke-width:1px;stroke-linecap:butt;stroke-linejoin:miter;stroke-opacity:1"
       d="m 63.668722,34.639929 c -4.34266,-0.0701 -9.13017,0.300586 -14.228812,1.457725 -8.582112,1.928564 -14.753518,5.398476 -17.839221,7.134184 -2.989275,1.735708 -7.424597,4.243593 -12.14958,8.968576 -2.796418,2.796419 -6.363885,6.459939 -8.29245,12.245632 -1.06071,3.27856 -1.158268,5.88325 -1.158268,6.461819 0,1.832136 -0.095675,6.171377 2.700743,10.607076 0.482141,0.771425 2.410705,3.759929 6.267834,5.977778 3.953557,2.314277 7.713128,2.506844 8.966695,2.506844 2.12142,0 5.882875,0.0971 9.450719,-2.602887 3.664273,-2.796418 4.628931,-6.652775 4.725359,-7.424201 0.289285,-1.157139 1.060335,-5.690422 -1.832512,-9.836788 -0.192857,-0.289284 -3.182508,-4.436074 -8.582489,-5.2075 -1.157138,-0.192856 -3.277429,-0.384584 -5.591706,0.676126 -0.674998,0.289285 -3.568598,1.638528 -4.629308,5.013515 -0.09643,0.385713 -1.253567,4.242794 1.446423,7.232069 2.121421,2.410802 5.302798,2.701147 7.424219,2.122578 1.157139,-0.289285 1.833643,-0.675383 2.0265,-0.86824 0.192856,-0.192856 0.769918,-0.772486 0.866347,-1.64034 0.09643,-0.674998 -0.287778,-1.542852 -0.866347,-1.928565 -0.674998,-0.482141 -1.542852,-0.384652 -1.928565,-0.288224 -0.771425,0.09643 -0.771425,0.386099 -1.446423,0.386099 -0.674997,0.09643 -1.349995,-0.09758 -1.928564,-0.676155 -0.771426,-0.674997 -1.061464,-1.83096 -0.772179,-2.698814 0.482141,-1.735708 2.893223,-2.122549 3.278935,-2.122549 3.085704,-0.482141 5.495279,2.217849 5.591707,2.410706 1.542852,1.832088 2.122175,4.531789 1.254321,6.846066 -1.63928,4.435698 -8.002789,4.533187 -8.388502,4.533187 -4.146414,0 -7.908621,-2.603851 -9.740758,-6.171792 -2.507133,-5.110657 -0.578569,-10.992026 2.892847,-14.174157 2.507134,-2.314278 5.497539,-2.699991 6.943962,-2.892847 5.882122,-0.867854 10.317444,2.024993 11.667439,2.892847 6.460691,4.242841 7.907114,11.281311 8.196399,12.727734 l 6.942077,3.665044 c -0.192856,-1.060711 -0.384582,-2.605009 -0.288154,-4.437145 0.09643,-2.314316 0.192103,-3.952843 1.156385,-5.495695 1.542852,-2.314277 4.340024,-2.893599 5.59359,-3.182883 3.567845,-0.771426 6.555989,0.483645 8.002413,1.062214 5.689265,2.410706 8.486437,7.328526 9.450719,9.160662 l 9.54677,4.33927 c -1.06071,-1.06071 -2.410705,-2.796804 -3.374987,-5.20751 0,0 -1.25432,-3.374582 -0.772179,-7.81028 0,-0.385713 0.0968,-0.867854 0.38609,-1.446424 0.09643,-0.192856 0.481764,-0.772554 1.060333,-1.158267 0.578569,-0.385712 1.06071,-0.386089 1.446423,-0.386089 2.217849,-0.192856 4.53175,0.09756 5.881745,0.193985 0,0 0.194363,-7.52e-4 2.0265,0.192104 0.771425,0.09643 3.75957,0.385713 7.520278,0 2.79642,-0.289284 4.72611,-0.771049 7.90824,-1.542475 0.28928,-0.09643 2.11992,-0.577817 4.24134,-1.638528 0.86785,-0.482141 1.44642,-0.771425 1.92856,-1.446423 0.28929,-0.289285 0.96541,-1.158643 1.15827,-2.508638 0.0964,-0.482141 0,-0.867102 0,-1.156387 l -1.54248,0.868231 c -0.57857,0.385712 -1.54322,0.866725 -2.79679,1.252438 -4.4357,1.446424 -8.48531,0.193985 -11.66744,-0.770297 -1.73571,-0.57857 -4.243598,-1.447176 -7.040016,-3.182884 L 93.31475,51.236132 c 0.964283,0.482141 2.411459,1.252815 4.147167,2.120669 4.821413,2.507134 5.977803,2.989651 6.942083,3.278935 1.92856,0.674998 3.5686,1.156763 5.59359,1.060335 3.66427,0.192856 6.36313,-1.830632 8.00241,-3.277055 -0.19285,-1.63928 -0.67387,-4.049986 -1.73458,-6.749976 -0.28928,-0.771426 -0.6765,-1.63928 -1.06221,-2.410705 -1.83214,-3.085704 -5.20637,-4.339646 -7.90636,-5.2075 -6.84641,-2.21785 -13.596387,-3.374612 -17.357087,-3.953181 l 0,3.567092 C 87.818342,38.89332 84.82982,37.92979 81.06912,37.061936 76.910652,36.097654 70.906489,34.756694 63.668722,34.639929 Z M 106.6226,42.46154 c 3.56785,0 6.45994,2.892095 6.45994,6.459939 0.0964,3.567844 -2.89209,6.461819 -6.45994,6.461819 -3.56784,0 -6.46182,-2.893975 -6.46182,-6.461819 0,-3.567844 2.89398,-6.459939 6.46182,-6.459939 z m -0.002,1.638528 c -2.50713,0 -4.53137,2.026121 -4.53137,4.533254 0,2.507134 2.02424,4.531375 4.53137,4.531375 2.50714,0 4.53326,-2.024241 4.53326,-4.531375 0,-2.507133 -2.02612,-4.533254 -4.53326,-4.533254 z m 1.06222,2.314653 c 1.06071,0 2.02461,0.579322 2.02461,1.254319 0.0964,0.674998 -0.86747,1.252439 -2.02461,1.252439 -1.15714,0 -2.0265,-0.577441 -2.0265,-1.252439 0,-0.674997 0.96579,-1.254319 2.0265,-1.254319 z"
       id="path16-3-4-5" />
  </g>
</svg>
