<?xml version="1.0" encoding="UTF-8" standalone="no"?>
<!-- Created with Inkscape (http://www.inkscape.org/) -->

<svg
   xmlns:dc="http://purl.org/dc/elements/1.1/"
   xmlns:cc="http://creativecommons.org/ns#"
   xmlns:rdf="http://www.w3.org/1999/02/22-rdf-syntax-ns#"
   xmlns:svg="http://www.w3.org/2000/svg"
   xmlns="http://www.w3.org/2000/svg"
   xmlns:sodipodi="http://sodipodi.sourceforge.net/DTD/sodipodi-0.dtd"
   xmlns:inkscape="http://www.inkscape.org/namespaces/inkscape"
   width="128"
   height="128"
   viewBox="0 0 128 128"
   id="svg4205"
   version="1.1"
   inkscape:version="0.91 r13725"
   sodipodi:docname="os_ubuntugnome_alt.svg"
   inkscape:export-xdpi="90"
   inkscape:export-ydpi="90">
  <defs
     id="defs4207">
    <inkscape:path-effect
       effect="spiro"
       id="path-effect4857"
       is_visible="true" />
  </defs>
  <sodipodi:namedview
     id="base"
     pagecolor="#ffffff"
     bordercolor="#666666"
     borderopacity="1.0"
     inkscape:pageopacity="0.0"
     inkscape:pageshadow="2"
     inkscape:zoom="1.979899"
     inkscape:cx="-100.33131"
     inkscape:cy="71.196134"
     inkscape:document-units="px"
     inkscape:current-layer="layer1"
     showgrid="false"
     units="px"
     inkscape:window-width="1366"
     inkscape:window-height="713"
     inkscape:window-x="0"
     inkscape:window-y="27"
     inkscape:window-maximized="1" />
  <metadata
     id="metadata4210">
    <rdf:RDF>
      <cc:Work
         rdf:about="">
        <dc:format>image/svg+xml</dc:format>
        <dc:type
           rdf:resource="http://purl.org/dc/dcmitype/StillImage" />
        <dc:title />
      </cc:Work>
    </rdf:RDF>
  </metadata>
  <g
     inkscape:groupmode="layer"
     id="layer4"
     inkscape:label="Layer 4"
     style="display:inline"
     sodipodi:insensitive="true">
    <circle
       style="fill:#0087ed;fill-opacity:1;stroke:none"
       id="path4882"
       cx="64"
       cy="64"
       r="46" />
  </g>
  <g
     inkscape:groupmode="layer"
     id="layer1"
     inkscape:label="Layer 5"
     style="display:inline">
    <path
       style="display:inline;fill:#ffffff;fill-opacity:1;fill-rule:evenodd;stroke:none;stroke-width:1px;stroke-linecap:butt;stroke-linejoin:miter;stroke-opacity:1"
       d="m 84.18902,34.090628 c -0.4577,-0.0022 -0.91165,0.01956 -1.28049,0.04187 -0.71607,0.04332 -2.03972,0.265293 -2.86273,0.580931 -0.88052,0.337673 -2.14268,1.107564 -2.46683,1.337189 -0.57807,0.409687 -2.62208,2.368264 -3.91912,4.793115 -0.74597,1.60281 -1.42309,3.92917 -1.45667,6.09019 -0.0307,1.80035 1.18603,4.93831 4.16338,5.01904 1.69855,-0.11963 2.11462,-0.2508 3.40707,-1.01183 1.33101,-0.78377 1.49906,-0.96199 2.23215,-1.5823 0.73293,-0.62031 2.37314,-1.9226 4.00369,-4.34216 1.74815,-2.59403 1.74884,-2.59405 2.53828,-4.51138 0.41936,-1.01599 1.23816,-3.718983 -0.94553,-5.410682 -0.3358,-0.310311 -0.67007,-0.472793 -1.07027,-0.649841 -0.38563,-0.17057 -0.7567,-0.197342 -1.03799,-0.251214 -0.38563,-0.07381 -0.84701,-0.100719 -1.30494,-0.102927 z"
       id="path4893-4"
       inkscape:connector-curvature="0" />
    <path
       style="display:inline;fill:#ffffff;fill-opacity:1;fill-rule:evenodd;stroke:none;stroke-width:1px;stroke-linecap:butt;stroke-linejoin:miter;stroke-opacity:1"
       d="m 63.84774,36.444883 c -1.98237,0.06204 -3.18351,1.765227 -3.72201,2.82005 -0.57347,1.12298 -0.81259,3.30535 -0.76935,4.62739 0.0153,0.45936 0.29056,2.23443 0.78943,3.26577 0.44007,0.90949 0.98962,1.67376 1.5788,2.14753 0.70763,0.51882 1.38031,0.37505 2.07429,-0.0602 0.98939,-0.62052 1.90095,-1.87343 2.37606,-2.85581 0.72603,-1.50136 1.15191,-3.46431 1.33806,-5.54589 0.3266,-2.651852 -0.84609,-3.552749 -0.84609,-3.552749 0,0 -0.7015,-0.912368 -2.81919,-0.846101 z"
       id="path4891-0"
       inkscape:connector-curvature="0" />
    <path
       style="display:inline;fill:#ffffff;fill-opacity:1;fill-rule:evenodd;stroke:none;stroke-width:1px;stroke-linecap:butt;stroke-linejoin:miter;stroke-opacity:1"
       d="m 52.17417,41.294703 c -1.497,0.0135 -3.343511,1.10256 -3.512641,3.35824 -0.13647,1.8408 0.17863,4.44942 1.849201,6.55248 0.52133,0.7049 1.4549,1.27276 1.98789,1.22641 0.97275,-0.0846 1.40085,-0.58307 1.87542,-1.15575 0.45157,-0.54517 0.90904,-1.71204 0.95856,-3.49606 0.0613,-2.14873 -0.3956,-3.77889 -0.7337,-4.62477 -0.3381,-0.84588 -1.00103,-1.87336 -2.42489,-1.86055 z"
       id="path4889-2"
       inkscape:connector-curvature="0" />
    <path
       style="display:inline;fill:#ffffff;fill-opacity:1;fill-rule:evenodd;stroke:none;stroke-width:1px;stroke-linecap:butt;stroke-linejoin:miter;stroke-opacity:1"
       d="m 42.770229,49.050923 c -1.69471,-0.0598 -2.491739,1.41532 -2.850619,3.16982 -0.11423,1.28382 0.89217,3.5073 2.015799,4.55412 0.95105,0.88596 1.78633,1.53468 3.1681,1.90591 0.67773,0.1595 1.38582,-0.30443 1.53525,-1.19675 0.17863,-1.06516 0.11883,-1.43501 0.0613,-2.71102 -0.0613,-1.276 -0.43087,-2.63418 -0.95688,-3.60857 -0.5382,-0.99688 -1.27627,-2.0537 -2.97091,-2.11351 z"
       id="path4887-5"
       inkscape:connector-curvature="0" />
    <path
       style="display:inline;fill:#ffffff;fill-opacity:1;fill-rule:evenodd;stroke:none;stroke-width:1px;stroke-linecap:butt;stroke-linejoin:miter;stroke-opacity:1"
       d="m 69.9754,54.546213 c -2.32239,0.006 -6.25513,0.101695 -9.10125,0.731382 -6.145095,1.359566 -9.72954,3.841308 -12.281541,6.393318 -2.55201,2.55201 -3.98805,5.1044 -4.54626,8.29441 -0.55813,3.19002 -0.1587,7.07439 2.79128,12.04255 3.03048,5.10403 7.417271,8.37342 10.687031,10.12793 3.26975,1.7545 7.54024,2.52876 11.40401,2.15363 2.33611,-0.22681 6.7906,-2.50667 9.56969,-5.74215 1.88991,-2.20027 2.15387,-3.11039 3.03117,-5.74215 0.1081,-1.57966 -0.046,-2.40814 -0.51827,-2.97008 -0.50523,-0.59846 -1.26201,-1.0306 -3.07119,-1.25694 -2.22034,-0.27059 -2.55246,-0.13076 -4.63879,0.34542 -2.024,0.75035 -3.38001,2.28816 -3.09649,4.7591 0,1.51316 -1.19639,2.39264 -1.83441,2.95089 -0.63786,0.55825 -1.91375,0.55825 -2.47204,0.55825 -0.55813,0 -2.31272,-0.87763 -3.34949,-1.59538 -1.03676,-0.71775 -1.83448,-2.313 -1.99402,-3.11051 -0.15947,-0.7975 -0.0797,-2.23301 1.35554,-3.90777 1.43551,-1.67476 13.23865,-9.09154 14.67416,-10.04854 1.4355,-0.95701 3.10998,-3.26977 3.58853,-5.02428 0.4784,-1.7545 0.15947,-4.22639 -1.11649,-5.6619 -1.27604,-1.4355 -2.55193,-2.074 -5.42294,-2.87151 -1.07663,-0.29906 -2.26481,-0.4294 -3.65831,-0.42567 z"
       id="path4869-4"
       inkscape:connector-curvature="0"
       sodipodi:nodetypes="cssccsssccccccssccsccscc" />
  </g>
</svg>
