<?xml version="1.0" encoding="UTF-8" standalone="no"?>
<!-- Created with Inkscape (http://www.inkscape.org/) -->

<svg
   xmlns:dc="http://purl.org/dc/elements/1.1/"
   xmlns:cc="http://creativecommons.org/ns#"
   xmlns:rdf="http://www.w3.org/1999/02/22-rdf-syntax-ns#"
   xmlns:svg="http://www.w3.org/2000/svg"
   xmlns="http://www.w3.org/2000/svg"
   xmlns:sodipodi="http://sodipodi.sourceforge.net/DTD/sodipodi-0.dtd"
   xmlns:inkscape="http://www.inkscape.org/namespaces/inkscape"
   width="32"
   height="32"
   viewBox="0 0 31.999999 31.999998"
   id="svg4239"
   version="1.1"
   inkscape:version="0.91 r13725"
   sodipodi:docname="vol_external.svg"
   inkscape:export-xdpi="90"
   inkscape:export-ydpi="90">
  <defs
     id="defs4241" />
  <sodipodi:namedview
     id="base"
     pagecolor="#ffffff"
     bordercolor="#666666"
     borderopacity="1.0"
     inkscape:pageopacity="0.0"
     inkscape:pageshadow="2"
     inkscape:zoom="16"
     inkscape:cx="18.206495"
     inkscape:cy="16.658792"
     inkscape:document-units="px"
     inkscape:current-layer="layer2"
     showgrid="true"
     units="px"
     inkscape:window-width="1366"
     inkscape:window-height="713"
     inkscape:window-x="0"
     inkscape:window-y="27"
     inkscape:window-maximized="1">
    <inkscape:grid
       type="xygrid"
       id="grid4145" />
  </sodipodi:namedview>
  <metadata
     id="metadata4244">
    <rdf:RDF>
      <cc:Work
         rdf:about="">
        <dc:format>image/svg+xml</dc:format>
        <dc:type
           rdf:resource="http://purl.org/dc/dcmitype/StillImage" />
        <dc:title />
        <dc:creator>
          <cc:Agent>
            <dc:title />
          </cc:Agent>
        </dc:creator>
        <dc:publisher>
          <cc:Agent>
            <dc:title />
          </cc:Agent>
        </dc:publisher>
        <cc:license
           rdf:resource="" />
      </cc:Work>
    </rdf:RDF>
  </metadata>
  <g
     inkscape:groupmode="layer"
     id="layer2"
     inkscape:label="Layer 2"
     style="display:inline">
    <path
       style="display:inline;opacity:1;fill:#4d4d57;fill-opacity:1;fill-rule:nonzero;stroke:none;stroke-width:0.99999988;stroke-linecap:butt;stroke-linejoin:miter;stroke-miterlimit:10;stroke-dasharray:none;stroke-dashoffset:0;stroke-opacity:1"
       d="m -30.873036,-2.9102743 -4,6.0000002 3.000001,-5e-7 -10e-7,14.8789056 -3.999987,-4.001966 0,-1.058594 c 1.164677,-0.411547 1.999987,-1.509263 1.999988,-2.818346 0,-1.6619989 -1.338001,-2.9999989 -3.000001,-2.9999999 -1.662,1e-6 -3,1.338001 -3,2.9999999 0,1.309084 0.835311,2.4068 2,2.81836 l 0,1.888671 6,6.000001 0,2.474609 c -1.164688,0.411561 -2,1.509276 -1.999999,2.81836 -10e-7,1.662 1.338,3 2.999999,2.999999 1.662001,10e-7 3.000001,-1.337999 3,-3 0,-1.309082 -0.835311,-2.406799 -2,-2.818358 l 0,-2.181641 0,-1.121094 0,-1.171875 6,-6 10e-7,-1.707031 1.999999,0 0,-6.0000008 -6,7e-7 0,6.0000001 2,0 0,0.876952 -3.999987,4.001967 1e-6,-12.8789058 3,-5e-7 -4,-5.9999996 z"
       id="rect4138"
       inkscape:connector-curvature="0" />
    <path
       style="display:inline;fill:#808c99;fill-opacity:1;stroke:none;stroke-width:1;stroke-linecap:round;stroke-linejoin:miter;stroke-miterlimit:4;stroke-dasharray:none;stroke-opacity:1"
       d="m 23.499998,7.9999959 -2.308594,4.0000001 1.808594,0 0,12.173828 C 22.816864,24.002406 22.652845,23.855522 22.443357,23.64648 21.439325,22.644586 20.346103,21.371449 20.031248,20.611324 19.728614,19.880702 19.587569,18.8454 19.533201,17.92773 a 1.9999998,1.9999998 0 0 1 0.002,0 1.9999998,1.9999998 0 0 0 1.464797,-1.927734 1.9999998,1.9999998 0 0 0 -2,-2 1.9999998,1.9999998 0 0 0 -2,2 1.9999998,1.9999998 0 0 0 1.533203,1.943359 c 0.05195,0.982635 0.185918,2.113341 0.574219,3.050782 0.455046,1.098577 1.593271,2.325945 2.628906,3.359375 0.528571,0.527445 0.935252,0.904729 1.263672,1.201172 l 0,0.509765 a 1.9999998,1.9999998 0 0 0 -1.5,1.935547 1.9999998,1.9999998 0 0 0 2,2 1.9999998,1.9999998 0 0 0 2,-2 1.9999998,1.9999998 0 0 0 -1.5,-1.933594 l 0,-1.511718 c 0.328419,-0.296443 0.735101,-0.673727 1.263672,-1.201172 1.035634,-1.033431 2.17386,-2.2608 2.628906,-3.359375 0.380908,-0.919595 0.517978,-2.024503 0.572266,-2.994141 l 1.535156,0 0,-4 -4,0 0,4 1.462891,0 c -0.05769,0.899656 -0.199444,1.899867 -0.494141,2.611328 -0.314855,0.760124 -1.408077,2.033262 -2.412109,3.035156 -0.209488,0.209042 -0.373507,0.355926 -0.556641,0.527344 l 0,-11.173828 1.808594,0 -2.308594,-4.0000001 z"
       id="rect4135" />
  </g>
  <g
     inkscape:groupmode="layer"
     id="layer3"
     inkscape:label="Layer 4"
     style="display:none">
    <rect
       style="display:inline;fill:#4d4d57;fill-opacity:1;stroke:none;stroke-width:1;stroke-linecap:round;stroke-linejoin:miter;stroke-miterlimit:4;stroke-dasharray:none;stroke-opacity:1"
       id="rect4135-9"
       width="0.99999988"
       height="16.989843"
       x="15.99995"
       y="7.0369382" />
    <path
       sodipodi:type="star"
       style="display:inline;fill:#4d4d57;fill-opacity:1;stroke:none;stroke-width:2;stroke-linecap:round;stroke-linejoin:miter;stroke-miterlimit:4;stroke-dasharray:none;stroke-opacity:1"
       id="path4161-8"
       sodipodi:sides="3"
       sodipodi:cx="-16.42857"
       sodipodi:cy="5.9285707"
       sodipodi:r1="4.9999995"
       sodipodi:r2="2.4999998"
       sodipodi:arg1="0"
       sodipodi:arg2="1.0471976"
       inkscape:flatsided="true"
       inkscape:rounded="0"
       inkscape:randomized="0"
       d="m -11.42857,5.9285707 -7.5,4.3301263 0,-8.6602529 z"
       transform="matrix(0,-0.53333332,0.53333332,0,13.338048,-1.0952379)"
       inkscape:transform-center-y="-0.6666666" />
    <circle
       style="display:inline;fill:#4d4d57;fill-opacity:1;stroke:none;stroke-width:1;stroke-linecap:round;stroke-linejoin:miter;stroke-miterlimit:4;stroke-dasharray:none;stroke-opacity:1"
       id="path4143-4"
       cx="16.49995"
       cy="24.999994"
       r="1.9999995" />
    <path
       style="color:#000000;font-style:normal;font-variant:normal;font-weight:normal;font-stretch:normal;font-size:medium;line-height:normal;font-family:sans-serif;text-indent:0;text-align:start;text-decoration:none;text-decoration-line:none;text-decoration-style:solid;text-decoration-color:#000000;letter-spacing:normal;word-spacing:normal;text-transform:none;direction:ltr;block-progression:tb;writing-mode:lr-tb;baseline-shift:baseline;text-anchor:start;white-space:normal;clip-rule:nonzero;display:inline;overflow:visible;visibility:visible;opacity:1;isolation:auto;mix-blend-mode:normal;color-interpolation:sRGB;color-interpolation-filters:linearRGB;solid-color:#000000;solid-opacity:1;fill:#4d4d57;fill-opacity:1;fill-rule:evenodd;stroke:none;stroke-width:1px;stroke-linecap:butt;stroke-linejoin:miter;stroke-miterlimit:4;stroke-dasharray:none;stroke-dashoffset:0;stroke-opacity:1;color-rendering:auto;image-rendering:auto;shape-rendering:auto;text-rendering:auto;enable-background:accumulate"
       d="m 11.515524,13.183589 c -0.01391,0.332903 -0.02563,0.802197 -0.002,1.441406 0.03875,1.046307 0.163831,2.331224 0.59375,3.36914 0.455046,1.098577 1.593271,2.325945 2.628906,3.359375 0.854915,0.853094 1.514789,1.431041 1.763672,1.646484 l 0,-1.353515 c -0.317378,-0.291217 -0.659174,-0.603381 -1.05664,-1 -1.004032,-1.001894 -2.097255,-2.275032 -2.41211,-3.035157 -0.33998,-0.820784 -0.482901,-2.034419 -0.519531,-3.023436 -0.02414,-0.651695 -0.0099,-1.103679 0.0039,-1.404297 l -1,0 z"
       id="path4164-0"
       inkscape:connector-curvature="0" />
    <circle
       style="display:inline;fill:#4d4d57;fill-opacity:1;stroke:none;stroke-width:1;stroke-linecap:round;stroke-linejoin:miter;stroke-miterlimit:4;stroke-dasharray:none;stroke-opacity:1"
       id="path4143-7-7"
       cx="11.999998"
       cy="12.999997"
       r="1.9999995" />
    <path
       style="color:#000000;font-style:normal;font-variant:normal;font-weight:normal;font-stretch:normal;font-size:medium;line-height:normal;font-family:sans-serif;text-indent:0;text-align:start;text-decoration:none;text-decoration-line:none;text-decoration-style:solid;text-decoration-color:#000000;letter-spacing:normal;word-spacing:normal;text-transform:none;direction:ltr;block-progression:tb;writing-mode:lr-tb;baseline-shift:baseline;text-anchor:start;white-space:normal;clip-rule:nonzero;display:inline;overflow:visible;visibility:visible;opacity:1;isolation:auto;mix-blend-mode:normal;color-interpolation:sRGB;color-interpolation-filters:linearRGB;solid-color:#000000;solid-opacity:1;fill:#4d4d57;fill-opacity:1;fill-rule:evenodd;stroke:none;stroke-width:1px;stroke-linecap:butt;stroke-linejoin:miter;stroke-miterlimit:4;stroke-dasharray:none;stroke-dashoffset:0;stroke-opacity:1;color-rendering:auto;image-rendering:auto;shape-rendering:auto;text-rendering:auto;enable-background:accumulate"
       d="m 21.484325,12.183589 c 0.01391,0.332903 0.02563,0.802197 0.002,1.441406 -0.03875,1.046307 -0.163831,2.331224 -0.59375,3.369141 -0.455046,1.098575 -1.593272,2.325943 -2.628906,3.359374 -0.854914,0.853094 -1.514788,1.431041 -1.763671,1.646484 l 0,-1.353515 c 0.317378,-0.291217 0.659174,-0.603381 1.056639,-1.000001 1.004032,-1.001894 2.097254,-2.275031 2.412109,-3.035155 0.339981,-0.820785 0.482902,-2.03442 0.519532,-3.023437 0.02414,-0.651695 0.0099,-1.103679 -0.0039,-1.404297 l 1,0 z"
       id="path4164-5-4"
       inkscape:connector-curvature="0" />
    <rect
       style="display:inline;fill:#4d4d57;fill-opacity:1;stroke:none;stroke-width:1;stroke-linecap:round;stroke-linejoin:miter;stroke-miterlimit:4;stroke-dasharray:none;stroke-opacity:1"
       id="rect4166-7"
       width="3.999999"
       height="3.999999"
       x="-22.999851"
       y="9.999999"
       transform="scale(-1,1)" />
  </g>
  <g
     inkscape:groupmode="layer"
     id="layer1"
     inkscape:label="Layer 3"
     style="display:none" />
</svg>
