<?xml version="1.0" encoding="UTF-8" standalone="no"?>
<!-- Created with Inkscape (http://www.inkscape.org/) -->

<svg
   xmlns:dc="http://purl.org/dc/elements/1.1/"
   xmlns:cc="http://creativecommons.org/ns#"
   xmlns:rdf="http://www.w3.org/1999/02/22-rdf-syntax-ns#"
   xmlns:svg="http://www.w3.org/2000/svg"
   xmlns="http://www.w3.org/2000/svg"
   xmlns:sodipodi="http://sodipodi.sourceforge.net/DTD/sodipodi-0.dtd"
   xmlns:inkscape="http://www.inkscape.org/namespaces/inkscape"
   width="32"
   height="32"
   viewBox="0 0 31.999999 31.999998"
   id="svg4239"
   version="1.1"
   inkscape:version="0.91 r13725"
   sodipodi:docname="vol_net.svg"
   inkscape:export-xdpi="90"
   inkscape:export-ydpi="90">
  <defs
     id="defs4241" />
  <sodipodi:namedview
     id="base"
     pagecolor="#ffffff"
     bordercolor="#666666"
     borderopacity="1.0"
     inkscape:pageopacity="0.0"
     inkscape:pageshadow="2"
     inkscape:zoom="5.593583"
     inkscape:cx="7.7451321"
     inkscape:cy="11.779802"
     inkscape:document-units="px"
     inkscape:current-layer="layer4"
     showgrid="true"
     units="px"
     inkscape:window-width="1366"
     inkscape:window-height="713"
     inkscape:window-x="0"
     inkscape:window-y="27"
     inkscape:window-maximized="1"
     inkscape:snap-bbox="false"
     inkscape:bbox-paths="false">
    <inkscape:grid
       type="xygrid"
       id="grid4138" />
  </sodipodi:namedview>
  <metadata
     id="metadata4244">
    <rdf:RDF>
      <cc:Work
         rdf:about="">
        <dc:format>image/svg+xml</dc:format>
        <dc:type
           rdf:resource="http://purl.org/dc/dcmitype/StillImage" />
        <dc:title />
        <dc:creator>
          <cc:Agent>
            <dc:title>Munlika</dc:title>
          </cc:Agent>
        </dc:creator>
        <dc:publisher>
          <cc:Agent>
            <dc:title>Munlika</dc:title>
          </cc:Agent>
        </dc:publisher>
        <cc:license
           rdf:resource="http://creativecommons.org/licenses/by/3.0/" />
      </cc:Work>
      <cc:License
         rdf:about="http://creativecommons.org/licenses/by/3.0/">
        <cc:permits
           rdf:resource="http://creativecommons.org/ns#Reproduction" />
        <cc:permits
           rdf:resource="http://creativecommons.org/ns#Distribution" />
        <cc:requires
           rdf:resource="http://creativecommons.org/ns#Notice" />
        <cc:requires
           rdf:resource="http://creativecommons.org/ns#Attribution" />
        <cc:permits
           rdf:resource="http://creativecommons.org/ns#DerivativeWorks" />
      </cc:License>
    </rdf:RDF>
  </metadata>
  <g
     inkscape:groupmode="layer"
     id="layer8"
     inkscape:label="Layer 11"
     style="display:inline">
    <circle
       style="fill:#808c99;fill-opacity:1;stroke:none;stroke-width:1;stroke-miterlimit:4;stroke-dasharray:none;stroke-opacity:1"
       id="path4140"
       cx="19.999998"
       cy="19.999998"
       r="9.999999" />
  </g>
  <g
     inkscape:groupmode="layer"
     id="layer5"
     inkscape:label="Layer 15">
    <path
       style="fill:#ededeb;fill-opacity:1;fill-rule:evenodd;stroke:none;stroke-width:1px;stroke-linecap:butt;stroke-linejoin:miter;stroke-opacity:1"
       d="m 18.26352,10.15192 a 9.9999997,9.9999997 0 0 0 -8.250461,9.447296 l 1.255327,0.520721 0.226246,-0.413407 1.459165,1.911069 1.74547,0.141765 1.437236,0.94314 -0.375617,1.262795 0.44359,0.819205 1.087705,1.079145 -0.0372,1.05438 -0.282514,0.947237 -0.02276,1.651768 a 9.9999997,9.9999997 0 0 0 1.057929,0.272913 l 0.628319,-1.394946 0.913911,-0.759429 0.04356,-0.605962 0.729611,-0.951701 0.780768,-0.661581 0.114077,-0.618395 0.307951,-0.80298 -0.11503,-0.65237 -0.410264,0.222737 -1.262794,-0.375617 -0.366997,-0.384827 -1.48393,-0.786163 -2.240581,0.02155 -1.134398,-0.922166 -0.666692,0.04318 -0.331419,-0.614217 0.139513,-0.474137 1.162086,-0.204907 0.682553,0.477929 -0.239916,-0.929491 0.410546,-0.221135 0.439491,-0.900544 0.495112,-0.163324 0.20081,-0.557665 0.493508,-0.16304 -0.24657,-0.554805 0.908799,0.06453 0.516367,-0.464561 -0.767401,-0.537341 -0.759429,-0.913913 -0.554522,0.248174 -0.93452,-0.210385 0.336165,1.062917 -0.490655,0.610427 -0.741973,-0.393078 -0.849389,-0.149371 -0.469309,-0.965068 0.162372,-0.775656 0.674947,-0.418153 0.516368,-0.464563 -0.692413,-0.102678 -0.165231,0.328275 -0.379715,-0.456955 0.660626,-0.489999 0.47442,0.141117 -0.07687,-0.435983 0.490648,-0.610426 0.455352,-0.37943 0.713386,-0.200161 0.353995,0.311094 0.772796,-0.285009 1.505858,1.754092 -0.456957,0.379714 0.614888,0.937746 0.75022,0.01812 0.128397,-0.54655 0.601215,-0.405151 0.461419,0.06738 0.05495,-0.531946 1.024197,-0.55576 -0.0429,-0.665089 0.26154,-0.644398 c 0,0 0.08637,-0.372609 0.166162,-0.9135 A 9.9999997,9.9999997 0 0 0 18.26353,10.151927 Z m 8.247878,4.363226 -0.691174,1.169691 -0.905939,0.382859 -0.01623,0.75154 -0.9088,-0.06453 0.251317,1.003507 0.703527,0.17509 0.141115,-0.47442 1.019733,-1.002859 0.905291,0.888193 0.126794,-0.546267 1.072127,0.559634 0.575495,-0.551013 0.664339,-0.0659 a 9.9999997,9.9999997 0 0 0 -1.191238,-2.35992 l -0.63768,0.910701 -1.108678,-0.776307 z m 0.05461,3.280921 -0.857361,0.227198 -1.196061,0.434014 -0.136653,0.921517 -0.79663,0.140469 -0.171946,1.15251 0.687299,0.92663 1.169693,0.691174 0.541803,-0.320304 0.95521,-0.09406 -0.07724,0.83667 0.794724,0.68292 -0.123933,0.993648 0.613186,1.640448 a 9.9999997,9.9999997 0 0 0 1.879985,-7.765388 9.9999997,9.9999997 0 0 0 -0.09856,-0.465213 l -1.178758,0.766463 -0.967928,0.02193 -1.036832,-0.790626 z"
       id="path4233"
       inkscape:connector-curvature="0" />
  </g>
  <g
     inkscape:groupmode="layer"
     id="layer4"
     inkscape:label="Layer 14"
     style="display:inline">
    <circle
       style="fill:none;fill-opacity:1;stroke:#808c99;stroke-width:1;stroke-linecap:round;stroke-linejoin:miter;stroke-miterlimit:4;stroke-dasharray:none;stroke-opacity:1"
       id="path4141"
       cx="19.999998"
       cy="19.999998"
       r="9.499999" />
  </g>
</svg>
