<?xml version="1.0" encoding="UTF-8" standalone="no"?>
<!-- Created with Inkscape (http://www.inkscape.org/) -->

<svg
   xmlns:dc="http://purl.org/dc/elements/1.1/"
   xmlns:cc="http://creativecommons.org/ns#"
   xmlns:rdf="http://www.w3.org/1999/02/22-rdf-syntax-ns#"
   xmlns:svg="http://www.w3.org/2000/svg"
   xmlns="http://www.w3.org/2000/svg"
   xmlns:sodipodi="http://sodipodi.sourceforge.net/DTD/sodipodi-0.dtd"
   xmlns:inkscape="http://www.inkscape.org/namespaces/inkscape"
   width="48"
   height="48"
   viewBox="0 0 48 48.000001"
   id="svg2"
   version="1.1"
   inkscape:version="0.91 r13725"
   sodipodi:docname="func_about.svg"
   inkscape:export-xdpi="90"
   inkscape:export-ydpi="90">
  <defs
     id="defs4" />
  <sodipodi:namedview
     id="base"
     pagecolor="#ffffff"
     bordercolor="#666666"
     borderopacity="1.0"
     inkscape:pageopacity="0.0"
     inkscape:pageshadow="2"
     inkscape:zoom="7.919596"
     inkscape:cx="6.917173"
     inkscape:cy="30.031967"
     inkscape:document-units="px"
     inkscape:current-layer="layer1"
     showgrid="false"
     units="px"
     inkscape:window-width="1366"
     inkscape:window-height="713"
     inkscape:window-x="0"
     inkscape:window-y="27"
     inkscape:window-maximized="1" />
  <metadata
     id="metadata7">
    <rdf:RDF>
      <cc:Work
         rdf:about="">
        <dc:format>image/svg+xml</dc:format>
        <dc:type
           rdf:resource="http://purl.org/dc/dcmitype/StillImage" />
        <dc:title />
        <dc:creator>
          <cc:Agent>
            <dc:title />
          </cc:Agent>
        </dc:creator>
        <dc:publisher>
          <cc:Agent>
            <dc:title />
          </cc:Agent>
        </dc:publisher>
        <cc:license
           rdf:resource="" />
      </cc:Work>
    </rdf:RDF>
  </metadata>
  <g
     inkscape:label="Layer 1"
     inkscape:groupmode="layer"
     id="layer1"
     transform="translate(0,-1004.3622)"
     style="display:inline">
    <g
       style="font-style:normal;font-variant:normal;font-weight:normal;font-stretch:normal;font-size:15px;line-height:125%;font-family:'Droid Serif';-inkscape-font-specification:'Droid Serif';letter-spacing:0px;word-spacing:0px;fill:#000000;fill-opacity:1;stroke:none;stroke-width:1px;stroke-linecap:butt;stroke-linejoin:miter;stroke-opacity:1"
       id="text4214" />
    <g
       style="font-style:italic;font-variant:normal;font-weight:bold;font-stretch:normal;font-size:30px;line-height:125%;font-family:'Bitstream Charter';-inkscape-font-specification:'Bitstream Charter Bold Italic';letter-spacing:0px;word-spacing:0px;fill:#000000;fill-opacity:1;stroke:none;stroke-width:1px;stroke-linecap:butt;stroke-linejoin:miter;stroke-opacity:1"
       id="text4207" />
    <g
       style="font-style:italic;font-variant:normal;font-weight:bold;font-stretch:normal;font-size:30px;line-height:125%;font-family:'Nimbus Roman No9 L';-inkscape-font-specification:'Nimbus Roman No9 L Bold Italic';letter-spacing:0px;word-spacing:0px;fill:#000000;fill-opacity:1;stroke:none;stroke-width:1px;stroke-linecap:butt;stroke-linejoin:miter;stroke-opacity:1"
       id="text4137"
       transform="translate(51.652926,3.2742)" />
    <path
       style="fill:#808c99;fill-opacity:1;stroke:none;stroke-width:2;stroke-linecap:round;stroke-linejoin:miter;stroke-miterlimit:4;stroke-dasharray:none;stroke-opacity:1"
       d="m -57.25,989.8622 a 11,11 0 0 0 -11,11 11,11 0 0 0 11,11 11,11 0 0 0 11,-11 11,11 0 0 0 -11,-11 z m 1.328125,3.2832 c 0.855,0 1.552734,0.6968 1.552734,1.5293 0,0.81 -0.67625,1.46289 -1.53125,1.46289 -0.8325,0 -1.484375,-0.67625 -1.484375,-1.53125 0,-0.7875 0.675391,-1.46094 1.462891,-1.46094 z m 0.673828,4.94922 -2.001953,7.44728 c -0.0675,0.315 -0.179688,0.9459 -0.179688,1.1484 0,0.18 0.157891,0.336 0.337891,0.336 0.3375,0 0.831016,-0.4721 1.416016,-1.3496 l 0.292969,-0.4493 0.496093,0.3145 c -1.53,2.3625 -2.363906,3.0371 -3.691406,3.0371 -0.9225,0 -1.552734,-0.562 -1.552734,-1.3945 0,-0.315 0.113984,-0.9228 0.271484,-1.5528 l 1.259766,-4.7695 c 0.1125,-0.405 0.179687,-0.7429 0.179687,-0.90039 0,-0.4275 -0.360156,-0.65234 -1.035156,-0.65234 l -0.292969,0 0,-0.60743 c 1.755,-0.135 3.285,-0.33742 4.5,-0.60742 z"
       id="path4143"
       inkscape:connector-curvature="0" />
    <path
       style="fill:#808c99;fill-opacity:1;stroke:none;stroke-width:1;stroke-linecap:round;stroke-linejoin:miter;stroke-miterlimit:4;stroke-dasharray:none;stroke-opacity:1"
       d="M 24 13 A 11 11 0 0 0 13 24 A 11 11 0 0 0 24 35 A 11 11 0 0 0 35 24 A 11 11 0 0 0 24 13 z M 24 17 A 7 7 0 0 1 31 24 A 7 7 0 0 1 24 31 A 7 7 0 0 1 17 24 A 7 7 0 0 1 24 17 z "
       transform="translate(0,1004.3622)"
       id="path4138" />
    <rect
       style="fill:#808c99;fill-opacity:1;stroke:none;stroke-width:1;stroke-linecap:round;stroke-linejoin:miter;stroke-miterlimit:4;stroke-dasharray:none;stroke-opacity:1"
       id="rect4157"
       width="4"
       height="6"
       x="22"
       y="1027.3622"
       rx="0.5"
       ry="0.5" />
    <circle
       style="fill:#808c99;fill-opacity:1;stroke:none;stroke-width:1;stroke-linecap:round;stroke-linejoin:miter;stroke-miterlimit:4;stroke-dasharray:none;stroke-opacity:1"
       id="path4159"
       cx="24"
       cy="1024.3622"
       r="2" />
  </g>
</svg>
