<?xml version="1.0" encoding="utf-8"?>
<!-- Generator: Adobe Illustrator 22.1.0, SVG Export Plug-In . SVG Version: 6.00 Build 0)  -->
<svg version="1.1" xmlns="http://www.w3.org/2000/svg" xmlns:xlink="http://www.w3.org/1999/xlink" x="0px" y="0px"
	 viewBox="0 0 48 48" style="enable-background:new 0 0 48 48;" xml:space="preserve">
<style type="text/css">
	.st0{clip-path:url(#SVGID_4_);fill:#808B98;}
	.st1{fill:#808B98;}
</style>
<g id="svg2" inkscape:export-xdpi="90" inkscape:export-ydpi="90" inkscape:version="0.91 r13725" sodipodi:docname="func_reset.svg" xmlns:cc="http://creativecommons.org/ns#" xmlns:dc="http://purl.org/dc/elements/1.1/" xmlns:inkscape="http://www.inkscape.org/namespaces/inkscape" xmlns:rdf="http://www.w3.org/1999/02/22-rdf-syntax-ns#" xmlns:sodipodi="http://sodipodi.sourceforge.net/DTD/sodipodi-0.dtd" xmlns:svg="http://www.w3.org/2000/svg">
	
		<sodipodi:namedview  bordercolor="#666666" borderopacity="1.0" id="base" inkscape:current-layer="layer3" inkscape:cx="9.0663915" inkscape:cy="24.612443" inkscape:document-units="px" inkscape:pageopacity="0.0" inkscape:pageshadow="2" inkscape:window-height="713" inkscape:window-maximized="1" inkscape:window-width="1366" inkscape:window-x="0" inkscape:window-y="27" inkscape:zoom="6.0421053" pagecolor="#ffffff" showgrid="true" units="px">
		<inkscape:grid  id="grid4146" type="xygrid"></inkscape:grid>
	</sodipodi:namedview>
	<g>
		<g>
			<defs>
				<rect id="SVGID_1_" x="16.5" y="19.2" width="14.9" height="14.8"/>
			</defs>
			<clipPath id="SVGID_2_">
				<use xlink:href="#SVGID_1_"  style="overflow:visible;"/>
			</clipPath>
		</g>
	</g>
</g>
<g id="Ebene_2">
	<g>
		<g>
			<defs>
				<rect id="SVGID_3_" x="16.1" y="19.3" width="15.8" height="15.7"/>
			</defs>
			<clipPath id="SVGID_4_">
				<use xlink:href="#SVGID_3_"  style="overflow:visible;"/>
			</clipPath>
			<path class="st0" d="M17.9,24.8v4.7h12.2v-4.7H17.9z M21.7,28.1v0.6h-0.4v-0.6H21.7z M21,28.1v0.6h-0.4v-0.6H21z M20.2,28.1v0.6
				h-1.8v-0.6H20.2z M16.1,23.3V31c0,0.1,0.1,0.2,0.2,0.2h15.3c0.1,0,0.2-0.1,0.2-0.2v-7.7c0-0.1-0.1-0.2-0.2-0.2H16.3
				C16.2,23.1,16.1,23.2,16.1,23.3L16.1,23.3z M30.6,24.3V30H17.4v-5.7H30.6z M18,20.4v-1.1h0.7v1.1h0.2v2.4h-1.1v-2.4H18z
				 M20.2,20.4v-1.1h0.7v1.1h0.2v2.4H20v-2.4H20.2z M22.5,20.4v-1.1h0.7v1.1h0.2v2.4h-1.1v-2.4H22.5z M24.7,20.4v-1.1h0.7v1.1h0.2
				v2.4h-1.1v-2.4H24.7z M27,20.4v-1.1h0.7v1.1h0.2v2.4h-1.1v-2.4H27z M29.3,20.4v-1.1h0.7v1.1h0.2v2.4h-1.1v-2.4H29.3z M17.8,33.8
				v-2.4h1.1v2.4h-0.2V35H18v-1.1H17.8z M20,33.8v-2.4h1.1v2.4h-0.2V35h-0.7v-1.1H20z M22.3,33.8v-2.4h1.1v2.4h-0.2V35h-0.7v-1.1
				H22.3z M24.6,33.8v-2.4h1.1v2.4h-0.2V35h-0.7v-1.1H24.6z M26.8,33.8v-2.4h1.1v2.4h-0.2V35H27v-1.1H26.8z M29.1,33.8v-2.4h1.1v2.4
				h-0.2V35h-0.7v-1.1H29.1z M29.1,33.8"/>
		</g>
	</g>
	<g>
		<path class="st1" d="M25.7,15h1.7l-3.3,4.3L20.7,15h1.7v-4.3h3.3V15z M25.7,15"/>
	</g>
</g>
</svg>
