<?xml version="1.0" encoding="UTF-8" standalone="no"?>
<!-- Created with Inkscape (http://www.inkscape.org/) -->

<svg
   xmlns:dc="http://purl.org/dc/elements/1.1/"
   xmlns:cc="http://creativecommons.org/ns#"
   xmlns:rdf="http://www.w3.org/1999/02/22-rdf-syntax-ns#"
   xmlns:svg="http://www.w3.org/2000/svg"
   xmlns="http://www.w3.org/2000/svg"
   xmlns:sodipodi="http://sodipodi.sourceforge.net/DTD/sodipodi-0.dtd"
   xmlns:inkscape="http://www.inkscape.org/namespaces/inkscape"
   width="48"
   height="48"
   viewBox="0 0 48 48.000001"
   id="svg2"
   version="1.1"
   inkscape:version="0.91 r13725"
   sodipodi:docname="tool_mok_tool.svg"
   inkscape:export-xdpi="90"
   inkscape:export-ydpi="90">
  <defs
     id="defs4" />
  <sodipodi:namedview
     id="base"
     pagecolor="#ffffff"
     bordercolor="#666666"
     borderopacity="1.0"
     inkscape:pageopacity="0.0"
     inkscape:pageshadow="2"
     inkscape:zoom="5.6568542"
     inkscape:cx="24"
     inkscape:cy="9.5909944"
     inkscape:document-units="px"
     inkscape:current-layer="layer1"
     showgrid="true"
     units="px"
     inkscape:window-width="1366"
     inkscape:window-height="713"
     inkscape:window-x="0"
     inkscape:window-y="27"
     inkscape:window-maximized="1">
    <inkscape:grid
       type="xygrid"
       id="grid4143" />
  </sodipodi:namedview>
  <metadata
     id="metadata7">
    <rdf:RDF>
      <cc:Work
         rdf:about="">
        <dc:format>image/svg+xml</dc:format>
        <dc:type
           rdf:resource="http://purl.org/dc/dcmitype/StillImage" />
        <dc:title />
        <dc:creator>
          <cc:Agent>
            <dc:title />
          </cc:Agent>
        </dc:creator>
        <dc:publisher>
          <cc:Agent>
            <dc:title />
          </cc:Agent>
        </dc:publisher>
        <cc:license
           rdf:resource="" />
      </cc:Work>
    </rdf:RDF>
  </metadata>
  <g
     inkscape:groupmode="layer"
     id="layer3"
     inkscape:label="Layer 2"
     style="display:inline">
    <g
       id="g4185"
       transform="matrix(0.70710678,0.70710678,-0.70710678,0.70710678,93.094484,-4.0160578)">
      <path
         inkscape:connector-curvature="0"
         id="path4137"
         d="m 24,12 a 6,6 0 0 0 -6,6 6,6 0 0 0 6,6 6,6 0 0 0 6,-6 6,6 0 0 0 -6,-6 z m 0,4 a 2,2 0 0 1 2,2 2,2 0 0 1 -2,2 2,2 0 0 1 -2,-2 2,2 0 0 1 2,-2 z"
         style="opacity:1;fill:#818d99;fill-opacity:1;fill-rule:nonzero;stroke:none;stroke-width:1;stroke-linecap:butt;stroke-linejoin:miter;stroke-miterlimit:10;stroke-dasharray:none;stroke-dashoffset:0;stroke-opacity:1" />
      <path
         id="rect4139"
         d="m 22,21 0,15 4,0 3,0 0,-2 -3,0 0,-2 3,0 0,-2 -3,0 0,-9 -4,0 z"
         style="opacity:1;fill:#818d99;fill-opacity:1;fill-rule:nonzero;stroke:none;stroke-width:1;stroke-linecap:butt;stroke-linejoin:miter;stroke-miterlimit:10;stroke-dasharray:none;stroke-dashoffset:0;stroke-opacity:1"
         inkscape:connector-curvature="0" />
    </g>
    <rect
       style="fill:#818d99;fill-opacity:1;stroke:none;stroke-width:0.80000001;stroke-miterlimit:10;stroke-dasharray:none;stroke-opacity:1"
       id="rect4143"
       width="12"
       height="4"
       x="-35"
       y="21.999998"
       rx="0.44117647"
       ry="0.5"
       transform="matrix(0,-1,1,0,0,0)" />
  </g>
  <g
     inkscape:groupmode="layer"
     id="layer1"
     inkscape:label="Layer 3"
     style="display:inline">
    <rect
       style="fill:#818d99;fill-opacity:1;stroke:none;stroke-width:0.80000001;stroke-miterlimit:10;stroke-dasharray:none;stroke-opacity:1"
       id="rect4147"
       width="2"
       height="6"
       x="-34"
       y="23.999998"
       transform="matrix(0,-1,1,0,0,0)"
       rx="0.5"
       ry="0.5" />
    <rect
       style="fill:#818d99;fill-opacity:1;stroke:none;stroke-width:0.80000001;stroke-miterlimit:10;stroke-dasharray:none;stroke-opacity:1"
       id="rect4147-8"
       width="2"
       height="6"
       x="-30"
       y="23.999998"
       transform="matrix(0,-1,1,0,0,0)"
       rx="0.5"
       ry="0.5" />
    <path
       style="fill:#818d99;fill-opacity:1;stroke:none;stroke-width:2;stroke-linecap:round;stroke-linejoin:miter;stroke-miterlimit:4;stroke-dasharray:none;stroke-opacity:1"
       d="m 125.11627,-24.476659 a 11,11 0 0 0 -11,11 11,11 0 0 0 11,10.9999995 11,11 0 0 0 11,-10.9999995 11,11 0 0 0 -0.80859,-4.121094 l -9.99414,9.9941405 -1.41993,1.419922 c -0.0979,0.097934 -0.20973,0.171736 -0.33007,0.220703 -0.36103,0.146901 -0.79019,0.0731 -1.08399,-0.220703 l -1.41406,-1.414063 -4.24219,-4.2421865 c -0.39174,-0.391737 -0.39174,-1.022326 0,-1.414063 l 1.41406,-1.416015 c 0.39174,-0.391738 1.02233,-0.391738 1.41407,0 l 3.53515,3.537109 9.90821,-9.908203 a 11,11 0 0 0 -7.97852,-3.435547 z"
       id="path4142"
       inkscape:connector-curvature="0" />
    <path
       style="fill:#818d99;fill-opacity:1;stroke:none;stroke-width:2;stroke-linecap:round;stroke-linejoin:miter;stroke-miterlimit:4;stroke-dasharray:none;stroke-opacity:1"
       d="M 24 13 A 6 6 0 0 0 18 19 A 6 6 0 0 0 24 25 A 6 6 0 0 0 30 19 A 6 6 0 0 0 24 13 z M 24 17 A 2 2 0 0 1 26 19 A 2 2 0 0 1 24 21 A 2 2 0 0 1 22 19 A 2 2 0 0 1 24 17 z "
       id="path4150" />
  </g>
</svg>
