<?xml version="1.0" encoding="UTF-8" standalone="no"?>
<!-- Created with Inkscape (http://www.inkscape.org/) -->

<svg
   xmlns:dc="http://purl.org/dc/elements/1.1/"
   xmlns:cc="http://creativecommons.org/ns#"
   xmlns:rdf="http://www.w3.org/1999/02/22-rdf-syntax-ns#"
   xmlns:svg="http://www.w3.org/2000/svg"
   xmlns="http://www.w3.org/2000/svg"
   xmlns:sodipodi="http://sodipodi.sourceforge.net/DTD/sodipodi-0.dtd"
   xmlns:inkscape="http://www.inkscape.org/namespaces/inkscape"
   width="48"
   height="48"
   viewBox="0 0 48 48.000001"
   id="svg2"
   version="1.1"
   inkscape:version="0.91 r13725"
   sodipodi:docname="func_firmware.svg"
   inkscape:export-xdpi="90"
   inkscape:export-ydpi="90">
  <defs
     id="defs4" />
  <sodipodi:namedview
     id="base"
     pagecolor="#ffffff"
     bordercolor="#666666"
     borderopacity="1.0"
     inkscape:pageopacity="0.0"
     inkscape:pageshadow="2"
     inkscape:zoom="5.72846"
     inkscape:cx="21.063187"
     inkscape:cy="37.204941"
     inkscape:document-units="px"
     inkscape:current-layer="layer1"
     showgrid="false"
     units="px"
     inkscape:window-width="1366"
     inkscape:window-height="713"
     inkscape:window-x="0"
     inkscape:window-y="27"
     inkscape:window-maximized="1" />
  <metadata
     id="metadata7">
    <rdf:RDF>
      <cc:Work
         rdf:about="">
        <dc:format>image/svg+xml</dc:format>
        <dc:type
           rdf:resource="http://purl.org/dc/dcmitype/StillImage" />
        <dc:title />
        <dc:creator>
          <cc:Agent>
            <dc:title />
          </cc:Agent>
        </dc:creator>
        <dc:publisher>
          <cc:Agent>
            <dc:title />
          </cc:Agent>
        </dc:publisher>
        <cc:license
           rdf:resource="" />
      </cc:Work>
    </rdf:RDF>
  </metadata>
  <g
     inkscape:label="Layer 1"
     inkscape:groupmode="layer"
     id="layer1"
     transform="translate(0,-1004.3622)"
     style="display:inline">
    <path
       style="fill:#808c99;fill-opacity:1;stroke:none;stroke-width:0;stroke-linecap:round;stroke-linejoin:round;stroke-miterlimit:4;stroke-dasharray:none;stroke-opacity:1"
       d="m 21.91755,1017.3622 -0.484933,2.753 a 8.6428571,8.6428571 0 0 0 -1.451729,0.5971 l -2.286553,-1.6006 -2.944893,2.9448 1.60519,2.2927 a 8.6428571,8.6428571 0 0 0 -0.603097,1.4456 L 13,1026.2797 l 0,4.165 2.753069,0.4849 a 8.6428571,8.6428571 0 0 0 0.596959,1.4517 l -1.600586,2.2866 2.944893,2.9448 2.292691,-1.6051 a 8.6428571,8.6428571 0 0 0 1.445591,0.603 l 0.484933,2.7516 4.1649,0 0.484933,-2.753 a 8.6428571,8.6428571 0 0 0 1.451729,-0.597 l 2.286553,1.6005 2.944893,-2.9448 -1.60519,-2.2927 a 8.6428571,8.6428571 0 0 0 0.603097,-1.4456 L 35,1030.4447 l 0,-4.165 -2.753069,-0.4849 a 8.6428571,8.6428571 0 0 0 -0.596959,-1.4517 l 1.600586,-2.2866 -2.944893,-2.9448 -2.292691,1.6051 a 8.6428571,8.6428571 0 0 0 -1.445591,-0.603 l -0.484933,-2.7516 -4.1649,0 z m 2.128488,7.8571 a 3.1428572,3.142857 0 0 1 2.17606,0.9208 3.1428572,3.142857 0 0 1 0,4.4442 3.1428572,3.142857 0 0 1 -4.444196,0 3.1428572,3.142857 0 0 1 0,-4.4442 3.1428572,3.142857 0 0 1 2.268136,-0.9208 z"
       id="path4136"
       inkscape:connector-curvature="0" />
  </g>
  <g
     inkscape:groupmode="layer"
     id="layer3"
     inkscape:label="Layer 2"
     style="display:none">
    <path
       style="color:#000000;clip-rule:nonzero;display:inline;overflow:visible;visibility:visible;opacity:1;isolation:auto;mix-blend-mode:normal;color-interpolation:sRGB;color-interpolation-filters:linearRGB;solid-color:#000000;solid-opacity:1;fill:#8b98a5;fill-opacity:1;fill-rule:nonzero;stroke:none;stroke-width:1;stroke-linecap:butt;stroke-linejoin:miter;stroke-miterlimit:4;stroke-dasharray:none;stroke-dashoffset:0;stroke-opacity:1;color-rendering:auto;image-rendering:auto;shape-rendering:auto;text-rendering:auto;enable-background:accumulate"
       d="m 18,29 0,12 -8,-6 8,-6 z"
       id="rect4273-0"
       inkscape:connector-curvature="0" />
  </g>
</svg>
